ply
format ascii 1.0
comment Created by Blender 2.79 (sub 0) - www.blender.org, source file: 'UI.blend'
element vertex 88
property float x
property float y
property float z
property uchar red
property uchar green
property uchar blue
element face 112
property list uchar uint vertex_indices
end_header
-0.166667 -0.500000 0.050000 255 255 255
-0.500000 -0.500000 -0.050000 255 255 255
-0.166667 -0.500000 -0.050000 255 255 255
-0.500000 0.500000 -0.050000 255 255 255
-0.166667 0.500000 0.050000 255 255 255
-0.166667 0.500000 -0.050000 255 255 255
0.500000 0.500000 -0.050000 255 255 255
0.500000 0.166667 0.050000 255 255 255
0.500000 0.166667 -0.050000 255 255 255
-0.500000 0.166667 0.050000 255 255 255
-0.500000 0.166667 -0.050000 255 255 255
0.166667 0.500000 -0.050000 255 255 255
0.500000 0.500000 0.050000 255 255 255
-0.500000 0.166667 -0.050000 180 180 180
-0.166667 0.500000 0.050000 179 179 179
-0.500000 0.166667 0.050000 179 179 179
0.500000 -0.500000 0.050000 255 255 255
0.166667 -0.500000 -0.050000 255 255 255
0.500000 -0.500000 -0.050000 255 255 255
0.500000 0.166667 0.050000 99 99 99
0.500000 0.166667 -0.050000 145 145 145
-0.500000 -0.166667 0.050000 255 255 255
-0.500000 -0.500000 0.050000 255 255 255
-0.500000 -0.166667 -0.050000 255 255 255
-0.166667 -0.500000 0.050000 138 138 138
-0.166667 -0.500000 -0.050000 97 97 97
0.500000 -0.166667 -0.050000 255 255 255
0.500000 -0.166667 0.050000 102 102 102
0.166667 -0.500000 -0.050000 145 145 145
0.166667 -0.500000 0.050000 145 145 145
-0.500000 0.500000 0.050000 255 255 255
0.166666 0.500000 0.050000 255 255 255
0.500000 -0.500000 0.050000 97 97 97
-0.500000 -0.500000 0.050000 100 100 100
0.000000 -0.300000 0.000000 97 97 97
0.127597 -0.255196 0.027811 124 124 124
-0.048737 -0.255196 0.045000 97 97 97
0.217082 -0.134166 0.047315 97 97 97
0.255194 -0.157721 0.000000 97 97 97
-0.157719 -0.255196 0.000000 145 145 145
0.000000 -0.300000 0.000000 255 255 255
-0.157719 -0.255196 0.000000 255 255 255
-0.048737 -0.255196 -0.045000 255 255 255
0.127597 -0.255196 -0.027811 255 255 255
0.285317 0.000000 0.027811 145 145 145
-0.082916 -0.134166 0.076558 145 145 145
0.078861 -0.157721 0.072811 99 99 99
0.000000 0.000000 0.090000 145 145 145
-0.268328 -0.134165 0.000000 235 235 235
-0.206457 -0.157721 0.045000 145 145 145
-0.285317 0.000000 0.027811 255 255 255
-0.082916 -0.134166 -0.076558 255 255 255
-0.206457 -0.157721 -0.045000 255 255 255
-0.176336 0.000000 -0.072812 255 255 255
0.217082 -0.134166 -0.047315 255 255 255
0.078861 -0.157721 -0.072811 255 255 255
0.176336 0.000000 -0.072812 255 255 255
0.176336 0.000000 0.072812 145 145 145
-0.176336 0.000000 0.072812 255 255 255
-0.268328 -0.134165 0.000000 237 237 237
-0.285317 0.000000 -0.027811 255 255 255
0.000000 0.000000 -0.090000 255 255 255
0.285317 0.000000 -0.027811 255 255 255
0.082916 0.134166 0.076558 255 255 255
0.206457 0.157721 0.045000 150 150 150
0.048737 0.255196 0.045000 255 255 255
-0.217082 0.134166 0.047315 255 255 255
-0.078861 0.157721 0.072811 255 255 255
-0.127597 0.255196 0.027811 255 255 255
-0.217082 0.134166 -0.047315 255 255 255
-0.255194 0.157721 0.000000 255 255 255
-0.127597 0.255196 -0.027811 255 255 255
0.082916 0.134166 -0.076558 255 255 255
-0.078861 0.157721 -0.072811 255 255 255
0.048737 0.255196 -0.045000 255 255 255
0.268328 0.134165 0.000000 255 255 255
0.206457 0.157721 -0.045000 255 255 255
0.157719 0.255196 0.000000 255 255 255
0.000000 0.300000 0.000000 255 255 255
0.268328 0.134165 0.000000 145 145 145
-0.268328 -0.134165 0.000000 255 255 255
0.285317 0.000000 0.027811 255 255 255
0.255194 -0.157721 0.000000 255 255 255
0.127597 -0.255196 0.027811 255 255 255
-0.166667 0.500000 -0.050000 179 179 179
0.166667 -0.500000 0.050000 255 255 255
0.500000 -0.166667 0.050000 255 255 255
0.500000 -0.166667 -0.050000 133 133 133
3 0 1 2
3 3 4 5
3 6 7 8
3 9 3 10
3 11 12 6
3 13 14 15
3 16 17 18
3 19 11 20
3 21 1 22
3 23 24 25
3 26 16 18
3 27 28 29
3 15 14 30
3 10 3 5
3 8 11 6
3 19 12 31
3 29 32 27
3 17 26 18
3 1 23 2
3 33 24 21
3 34 35 36
3 37 35 38
3 34 36 39
3 40 41 42
3 40 42 43
3 37 38 44
3 45 46 47
3 48 49 50
3 51 52 53
3 54 55 56
3 37 44 57
3 45 47 58
3 59 50 60
3 51 53 61
3 54 56 62
3 63 64 65
3 66 67 68
3 69 70 71
3 72 73 74
3 75 76 77
3 77 74 78
3 77 76 74
3 76 72 74
3 74 71 78
3 74 73 71
3 73 69 71
3 71 68 78
3 71 70 68
3 70 66 68
3 68 65 78
3 68 67 65
3 67 63 65
3 65 77 78
3 65 64 77
3 64 79 77
3 62 76 75
3 62 56 76
3 56 72 76
3 61 73 72
3 61 53 73
3 53 69 73
3 60 70 69
3 60 50 70
3 50 66 70
3 58 67 66
3 58 47 67
3 47 63 67
3 57 64 63
3 57 44 64
3 44 79 64
3 56 61 72
3 56 55 61
3 55 51 61
3 53 60 69
3 53 52 60
3 52 80 60
3 50 58 66
3 50 49 58
3 49 45 58
3 47 57 63
3 47 46 57
3 46 37 57
3 81 62 75
3 81 82 62
3 82 54 62
3 43 55 54
3 43 42 55
3 42 51 55
3 42 52 51
3 42 41 52
3 41 80 52
3 39 49 48
3 39 36 49
3 36 45 49
3 82 43 54
3 82 83 43
3 83 40 43
3 36 46 45
3 36 35 46
3 35 37 46
3 0 22 1
3 3 30 4
3 6 12 7
3 9 30 3
3 11 31 12
3 13 84 14
3 16 85 17
3 19 31 11
3 21 23 1
3 23 21 24
3 26 86 16
3 27 87 28
