ply
format ascii 1.0
comment Created by Blender 2.79 (sub 0) - www.blender.org, source file: 'UI.blend'
element vertex 54
property float x
property float y
property float z
property uchar red
property uchar green
property uchar blue
element face 44
property list uchar uint vertex_indices
end_header
-0.166667 -0.500000 0.050000 115 115 115
-0.500000 -0.500000 -0.050000 116 116 116
-0.166667 -0.500000 -0.050000 115 115 115
-0.500000 0.500000 -0.050000 255 255 255
-0.166667 0.500000 0.050000 255 255 255
-0.166667 0.500000 -0.050000 255 255 255
0.500000 0.500000 -0.050000 255 255 255
0.500000 0.166667 0.050000 241 241 241
0.500000 0.166667 -0.050000 116 116 116
-0.500000 0.166667 0.050000 255 255 255
-0.500000 0.166667 -0.050000 255 255 255
0.166667 0.500000 -0.050000 255 255 255
0.500000 0.500000 0.050000 255 255 255
-0.500000 0.166667 -0.050000 180 180 180
-0.166667 0.500000 0.050000 179 179 179
-0.500000 0.166667 0.050000 179 179 179
0.500000 -0.500000 0.050000 115 115 115
0.166667 -0.500000 -0.050000 255 255 255
0.500000 -0.500000 -0.050000 127 127 127
0.500000 0.166667 0.050000 100 100 100
0.500000 0.166667 -0.050000 115 115 115
-0.500000 -0.166667 0.050000 255 255 255
-0.500000 -0.500000 -0.050000 255 255 255
-0.500000 -0.500000 0.050000 255 255 255
-0.500000 -0.166667 -0.050000 255 255 255
0.500000 -0.166667 -0.050000 146 146 146
0.500000 -0.166667 0.050000 102 102 102
0.166667 -0.500000 -0.050000 145 145 145
0.166667 -0.500000 0.050000 145 145 145
-0.500000 0.500000 0.050000 255 255 255
0.500000 0.166667 -0.050000 255 255 255
0.166666 0.500000 0.050000 255 255 255
0.500000 -0.166667 0.050000 105 105 105
0.500000 -0.166667 -0.050000 255 255 255
0.500000 -0.500000 -0.050000 255 255 255
-0.166667 -0.500000 -0.050000 255 255 255
-0.500000 -0.500000 0.050000 107 107 107
-0.260000 0.240000 0.040000 255 255 255
-0.260000 -0.240000 -0.040000 115 115 115
-0.260000 -0.240000 0.040000 119 119 119
-0.260000 0.240000 -0.040000 255 255 255
0.260000 -0.240000 -0.040000 255 255 255
-0.260000 -0.240000 -0.040000 255 255 255
0.260000 0.240000 -0.040000 115 115 115
0.260000 -0.240000 0.040000 115 115 115
0.260000 -0.240000 -0.040000 115 115 115
0.260000 0.240000 0.040000 120 120 120
-0.260000 -0.240000 0.040000 115 115 115
-0.500000 -0.500000 0.050000 190 190 190
-0.166667 0.500000 -0.050000 179 179 179
0.166667 -0.500000 0.050000 255 255 255
0.500000 -0.166667 0.050000 220 220 220
0.500000 -0.166667 -0.050000 133 133 133
0.260000 0.240000 -0.040000 255 255 255
3 0 1 2
3 3 4 5
3 6 7 8
3 9 3 10
3 11 12 6
3 13 14 15
3 16 17 18
3 19 11 20
3 21 22 23
3 24 0 2
3 25 16 18
3 26 27 28
3 15 14 29
3 10 3 5
3 30 11 6
3 19 12 31
3 28 16 32
3 17 33 34
3 22 24 35
3 36 0 21
3 37 38 39
3 40 41 42
3 43 44 45
3 46 47 44
3 45 39 38
3 40 46 43
3 0 48 1
3 3 29 4
3 6 12 7
3 9 29 3
3 11 31 12
3 13 49 14
3 16 50 17
3 19 31 11
3 21 24 22
3 24 21 0
3 25 51 16
3 26 52 27
3 37 40 38
3 40 53 41
3 43 46 44
3 46 37 47
3 45 44 39
3 40 37 46
