ply
format ascii 1.0
comment Created by Blender 2.79 (sub 0) - www.blender.org, source file: 'UI.blend'
element vertex 478
property float x
property float y
property float z
property uchar red
property uchar green
property uchar blue
element face 272
property list uchar uint vertex_indices
end_header
-0.333333 0.510000 0.000000 249 249 249
-0.452594 0.452594 0.028712 253 253 253
-0.352584 0.454649 0.028712 248 248 248
-0.468033 0.169837 0.028712 221 221 221
-0.368925 0.368925 0.028712 225 225 225
-0.454649 0.352584 0.028712 227 227 227
-0.352584 0.454649 0.028712 227 227 227
-0.452594 0.452594 0.028712 230 230 230
-0.169837 0.468033 0.028712 221 221 221
-0.333333 0.333333 0.000000 76 76 76
-0.169837 0.468033 0.028712 76 76 76
-0.368925 0.368925 0.028712 154 154 154
-0.468033 0.169837 0.028712 87 87 87
-0.333333 0.333333 0.000000 87 87 87
-0.368925 0.368925 0.028712 158 158 158
-0.468033 0.169837 0.028712 238 238 238
-0.510000 0.333333 0.000000 244 244 244
-0.500000 0.066667 0.000000 230 230 230
-0.452594 0.452594 0.028712 247 247 247
-0.510000 0.333333 0.000000 243 243 243
-0.454649 0.352584 0.028712 243 243 243
-0.169837 0.468033 0.028712 243 243 243
-0.066667 0.500000 0.000000 238 238 238
0.333333 0.510000 0.000000 223 223 223
0.452594 0.452594 0.028712 219 219 219
0.500000 0.500000 0.000000 216 216 216
0.468033 0.169837 0.028712 195 195 195
0.454649 0.352584 0.028712 198 198 198
0.368925 0.368925 0.028712 201 201 201
0.452594 0.452594 0.028712 199 199 199
0.352584 0.454649 0.028712 203 203 203
0.169837 0.468033 0.028712 209 209 209
0.169837 0.468033 0.028712 184 184 184
0.333333 0.333333 0.000000 176 176 176
0.368925 0.368925 0.028712 183 183 183
0.468033 0.169837 0.028712 213 213 213
0.333333 0.333333 0.000000 220 220 220
0.500000 0.066667 0.000000 204 204 204
0.468033 0.169837 0.028712 106 106 106
0.510000 0.333333 0.000000 106 106 106
0.454649 0.352584 0.028712 135 135 135
0.510000 0.333333 0.000000 127 127 127
0.452594 0.452594 0.028712 128 128 128
0.454649 0.352584 0.028712 133 133 133
0.169837 0.468033 0.028712 226 226 226
0.333333 0.510000 0.000000 221 221 221
0.066667 0.500000 0.000000 237 237 237
-0.333333 0.510000 0.000000 145 145 145
-0.452594 0.452594 -0.028712 145 145 145
-0.500000 0.500000 0.000000 147 147 147
-0.468033 0.169837 -0.028712 124 124 124
-0.454649 0.352584 -0.028712 124 124 124
-0.368925 0.368925 -0.028712 124 124 124
-0.452594 0.452594 -0.028712 124 124 124
-0.352584 0.454649 -0.028712 124 124 124
-0.169837 0.468033 -0.028712 124 124 124
-0.169837 0.468033 -0.028712 67 67 67
-0.333333 0.333333 0.000000 67 67 67
-0.368925 0.368925 -0.028712 88 88 88
-0.468033 0.169837 -0.028712 97 97 97
-0.333333 0.333333 0.000000 97 97 97
-0.500000 0.066667 0.000000 79 79 79
-0.468033 0.169837 -0.028712 137 137 137
-0.510000 0.333333 0.000000 137 137 137
-0.454649 0.352584 -0.028712 136 136 136
-0.510000 0.333333 0.000000 136 136 136
-0.452594 0.452594 -0.028712 136 136 136
-0.454649 0.352584 -0.028712 135 135 135
-0.169837 0.468033 -0.028712 146 146 146
-0.333333 0.510000 0.000000 146 146 146
-0.066667 0.500000 0.000000 151 151 151
0.333333 0.510000 0.000000 146 146 146
0.452594 0.452594 -0.028712 146 146 146
0.352584 0.454649 -0.028712 145 145 145
0.468033 0.169837 -0.028712 124 124 124
0.368925 0.368925 -0.028712 124 124 124
0.454649 0.352584 -0.028712 124 124 124
0.352584 0.454649 -0.028712 124 124 124
0.452594 0.452594 -0.028712 124 124 124
0.169837 0.468033 -0.028712 124 124 124
0.333333 0.333333 0.000000 98 98 98
0.169837 0.468033 -0.028712 98 98 98
0.368925 0.368925 -0.028712 103 103 103
0.468033 0.169837 -0.028712 118 118 118
0.333333 0.333333 0.000000 118 118 118
0.368925 0.368925 -0.028712 123 123 123
0.468033 0.169837 -0.028712 113 113 113
0.510000 0.333333 0.000000 113 113 113
0.500000 0.066667 0.000000 106 106 106
0.452594 0.452594 -0.028712 112 112 112
0.510000 0.333333 0.000000 112 112 112
0.454649 0.352584 -0.028712 112 112 112
0.333333 0.510000 0.000000 145 145 145
0.169837 0.468033 -0.028712 145 145 145
0.066667 0.500000 0.000000 152 152 152
-0.333333 -0.510000 0.000000 120 120 120
-0.452594 -0.452594 0.028712 121 121 121
-0.500000 -0.500000 0.000000 113 113 113
-0.468033 -0.169837 0.028712 209 209 209
-0.454649 -0.352584 0.028712 203 203 203
-0.368925 -0.368925 0.028712 201 201 201
-0.452594 -0.452594 0.028712 199 199 199
-0.352584 -0.454649 0.028712 198 198 198
-0.169837 -0.468033 0.028712 195 195 195
-0.169837 -0.468033 0.028712 221 221 221
-0.333333 -0.333333 0.000000 228 228 228
-0.368925 -0.368925 0.028712 229 229 229
-0.468033 -0.169837 0.028712 202 202 202
-0.333333 -0.333333 0.000000 194 194 194
-0.500000 -0.066667 0.000000 202 202 202
-0.468033 -0.169837 0.028712 226 226 226
-0.510000 -0.333333 0.000000 220 220 220
-0.454649 -0.352584 0.028712 213 213 213
-0.510000 -0.333333 0.000000 215 215 215
-0.452594 -0.452594 0.028712 211 211 211
-0.454649 -0.352584 0.028712 216 216 216
-0.169837 -0.468033 0.028712 120 120 120
-0.066667 -0.500000 0.000000 82 82 82
0.333333 -0.510000 0.000000 101 101 101
0.452594 -0.452594 0.028712 101 101 101
0.352584 -0.454649 0.028712 114 114 114
0.468033 -0.169837 0.028712 189 189 189
0.368925 -0.368925 0.028712 188 188 188
0.454649 -0.352584 0.028712 186 186 186
0.352584 -0.454649 0.028712 186 186 186
0.452594 -0.452594 0.028712 185 185 185
0.169837 -0.468033 0.028712 189 189 189
0.333333 -0.333333 0.000000 253 253 253
0.169837 -0.468033 0.028712 254 254 254
0.368925 -0.368925 0.028712 238 238 238
0.468033 -0.169837 0.028712 252 252 252
0.333333 -0.333333 0.000000 251 251 251
0.368925 -0.368925 0.028712 235 235 235
0.468033 -0.169837 0.028712 122 122 122
0.510000 -0.333333 0.000000 121 121 121
0.500000 -0.066667 0.000000 108 108 108
0.452594 -0.452594 0.028712 116 116 116
0.510000 -0.333333 0.000000 116 116 116
0.454649 -0.352584 0.028712 127 127 127
0.333333 -0.510000 0.000000 108 108 108
0.169837 -0.468033 0.028712 109 109 109
0.066667 -0.500000 0.000000 84 84 84
-0.333333 -0.510000 0.000000 94 94 94
-0.452594 -0.452594 -0.028712 94 94 94
-0.352584 -0.454649 -0.028712 96 96 96
-0.468033 -0.169837 -0.028712 124 124 124
-0.368925 -0.368925 -0.028712 124 124 124
-0.454649 -0.352584 -0.028712 124 124 124
-0.352584 -0.454649 -0.028712 124 124 124
-0.452594 -0.452594 -0.028712 124 124 124
-0.169837 -0.468033 -0.028712 124 124 124
-0.333333 -0.333333 0.000000 144 144 144
-0.169837 -0.468033 -0.028712 144 144 144
-0.368925 -0.368925 -0.028712 140 140 140
-0.468033 -0.169837 -0.028712 128 128 128
-0.333333 -0.333333 0.000000 128 128 128
-0.468033 -0.169837 -0.028712 133 133 133
-0.510000 -0.333333 0.000000 133 133 133
-0.500000 -0.066667 0.000000 139 139 139
-0.452594 -0.452594 -0.028712 133 133 133
-0.454649 -0.352584 -0.028712 134 134 134
-0.333333 -0.510000 0.000000 96 96 96
-0.169837 -0.468033 -0.028712 96 96 96
0.333333 -0.510000 0.000000 95 95 95
0.452594 -0.452594 -0.028712 95 95 95
0.500000 -0.500000 0.000000 92 92 92
0.468033 -0.169837 -0.028712 124 124 124
0.454649 -0.352584 -0.028712 124 124 124
0.368925 -0.368925 -0.028712 124 124 124
0.452594 -0.452594 -0.028712 124 124 124
0.352584 -0.454649 -0.028712 124 124 124
0.169837 -0.468033 -0.028712 124 124 124
0.169837 -0.468033 -0.028712 195 195 195
0.333333 -0.333333 0.000000 195 195 195
0.368925 -0.368925 -0.028712 154 154 154
0.468033 -0.169837 -0.028712 149 149 149
0.333333 -0.333333 0.000000 149 149 149
0.500000 -0.066667 0.000000 192 192 192
0.468033 -0.169837 -0.028712 108 108 108
0.510000 -0.333333 0.000000 108 108 108
0.454649 -0.352584 -0.028712 109 109 109
0.510000 -0.333333 0.000000 109 109 109
0.452594 -0.452594 -0.028712 109 109 109
0.454649 -0.352584 -0.028712 111 111 111
0.169837 -0.468033 -0.028712 94 94 94
0.333333 -0.510000 0.000000 94 94 94
0.073781 0.167936 -0.017812 168 168 168
0.226675 0.078959 0.000000 166 166 166
0.226675 0.078959 -0.018875 166 166 166
0.226675 0.078959 -0.018875 141 141 141
0.305322 0.000000 0.000000 141 141 141
0.305322 0.000000 -0.019937 141 141 141
0.226675 0.078959 -0.018875 129 129 129
0.255803 0.000000 -0.029676 129 129 129
0.213567 0.059219 -0.032677 127 127 127
0.213567 0.059219 -0.032677 135 135 135
0.073781 0.167936 -0.017812 135 135 135
0.226675 0.078959 -0.018875 139 139 139
-0.210000 -0.197990 -0.021000 204 204 204
-0.210000 0.000000 0.000000 209 209 209
-0.210000 0.000000 -0.021000 208 208 208
-0.210000 0.000000 -0.021000 134 134 134
-0.186718 -0.194651 -0.036042 134 134 134
-0.210000 -0.197990 -0.021000 136 136 136
-0.210000 -0.197990 -0.021000 121 121 121
-0.153089 -0.266823 -0.031171 121 121 121
-0.175077 -0.316725 -0.020469 126 126 126
-0.175077 -0.316725 -0.020469 167 167 167
-0.210000 -0.197990 0.000000 170 170 170
-0.210000 -0.197990 -0.021000 170 170 170
0.174243 -0.000000 0.036333 192 192 192
0.255803 0.000000 0.029676 190 190 190
0.213567 0.059219 0.032677 193 193 193
0.213567 0.059219 0.032677 201 201 201
0.072314 0.000000 0.034916 203 203 203
0.174243 -0.000000 0.036333 207 207 207
0.072314 0.000000 0.034916 200 200 200
0.213567 -0.059219 0.032677 195 195 195
0.174243 -0.000000 0.036333 194 194 194
-0.116873 0.184633 -0.039167 129 129 129
-0.153089 0.266823 -0.031171 129 129 129
-0.081951 0.253870 -0.033385 128 128 128
-0.081951 0.253870 -0.033385 124 124 124
-0.070310 0.085638 -0.037750 124 124 124
-0.116873 0.184633 -0.039167 123 123 123
-0.186718 0.194651 -0.036042 124 124 124
0.073781 -0.167936 0.017812 3 3 3
0.226675 -0.078959 0.000000 3 3 3
0.226675 -0.078959 0.018875 3 3 3
0.226675 -0.078959 0.018875 29 29 29
0.305322 0.000000 0.000000 29 29 29
0.305322 0.000000 0.019937 29 29 29
0.226675 -0.078959 0.018875 155 155 155
0.255803 0.000000 0.029676 156 156 156
0.213567 -0.059219 0.032677 93 93 93
0.213567 -0.059219 0.032677 146 146 146
0.073781 -0.167936 0.017812 147 147 147
0.226675 -0.078959 0.018875 99 99 99
-0.070310 -0.276949 0.018875 2 2 2
-0.175077 -0.316725 0.000000 2 2 2
-0.070310 -0.276949 0.000000 2 2 2
-0.070310 -0.276949 0.000000 14 14 14
0.073781 -0.167936 0.017812 14 14 14
-0.070310 -0.276949 0.018875 14 14 14
0.073781 -0.167936 0.017812 144 144 144
-0.081951 -0.253870 0.033385 144 144 144
-0.070310 -0.276949 0.018875 101 101 101
-0.070310 -0.276949 0.018875 109 109 109
-0.153089 -0.266823 0.031171 110 110 110
-0.175077 -0.316725 0.020469 158 158 158
-0.070310 -0.276949 -0.018875 106 106 106
-0.153089 -0.266823 -0.031171 106 106 106
-0.081951 -0.253870 -0.033385 90 90 90
-0.081951 -0.253870 -0.033385 103 103 103
0.073781 -0.167936 -0.017812 103 103 103
-0.070310 -0.276949 -0.018875 90 90 90
0.073781 -0.167936 -0.017812 14 14 14
-0.070310 -0.276949 -0.018875 14 14 14
-0.070310 -0.276949 -0.018875 2 2 2
-0.175077 -0.316725 -0.020469 2 2 2
0.073781 -0.167936 -0.017812 102 102 102
0.213567 -0.059219 -0.032677 102 102 102
0.226675 -0.078959 -0.018875 89 89 89
0.226675 -0.078959 -0.018875 93 93 93
0.255803 0.000000 -0.029676 93 93 93
0.305322 0.000000 -0.019937 107 107 107
0.226675 -0.078959 -0.018875 29 29 29
0.226675 -0.078959 0.000000 29 29 29
0.073781 -0.167936 -0.017812 3 3 3
0.226675 -0.078959 -0.018875 3 3 3
-0.186718 -0.194651 -0.036042 123 123 123
-0.070310 -0.085638 -0.037750 123 123 123
-0.116873 -0.184633 -0.039167 127 127 127
-0.070310 -0.085638 -0.037750 121 121 121
-0.081951 -0.253870 -0.033385 121 121 121
-0.116873 -0.184633 -0.039167 119 119 119
-0.153089 -0.266823 -0.031171 119 119 119
-0.186718 -0.194651 -0.036042 120 120 120
-0.023747 0.000000 -0.036333 124 124 124
-0.172749 -0.000000 -0.037507 124 124 124
-0.070310 0.085638 -0.037750 123 123 123
-0.023747 0.000000 -0.036333 123 123 123
0.053337 0.132212 -0.032463 123 123 123
0.072314 -0.000000 -0.034916 124 124 124
-0.023747 0.000000 -0.036333 122 122 122
0.053337 -0.132212 -0.032463 122 122 122
-0.070310 -0.085638 -0.037750 122 122 122
0.213567 0.059219 -0.032677 124 124 124
0.174243 -0.000000 -0.036333 127 127 127
0.174243 -0.000000 -0.036333 122 122 122
0.255803 0.000000 -0.029676 122 122 122
0.213567 -0.059219 -0.032677 121 121 121
0.213567 -0.059219 -0.032677 122 122 122
0.072314 -0.000000 -0.034916 122 122 122
0.174243 -0.000000 -0.036333 120 120 120
-0.081951 -0.253870 0.033385 194 194 194
-0.070310 -0.085638 0.037750 198 198 198
-0.116873 -0.184633 0.039167 191 191 191
-0.070310 -0.085638 0.037750 203 203 203
-0.186718 -0.194651 0.036042 203 203 203
-0.116873 -0.184633 0.039167 209 209 209
-0.116873 -0.184633 0.039167 195 195 195
-0.153089 -0.266823 0.031171 193 193 193
-0.081951 -0.253870 0.033385 190 190 190
-0.023747 0.000000 0.036333 201 201 201
0.053337 -0.132212 0.032463 196 196 196
0.072314 0.000000 0.034916 199 199 199
-0.023747 0.000000 0.036333 205 205 205
0.053337 0.132212 0.032463 206 206 206
-0.070310 0.085638 0.037750 205 205 205
-0.023747 0.000000 0.036333 203 203 203
-0.172749 -0.000000 0.037507 206 206 206
-0.070310 -0.085638 0.037750 204 204 204
-0.070310 0.085638 0.037750 208 208 208
-0.081951 0.253870 0.033385 212 212 212
-0.116873 0.184633 0.039167 207 207 207
-0.116873 0.184633 0.039167 220 220 220
-0.153089 0.266823 0.031171 223 223 223
-0.186718 0.194651 0.036042 223 223 223
-0.186718 0.194651 0.036042 215 215 215
-0.070310 0.085638 0.037750 209 209 209
-0.116873 0.184633 0.039167 212 212 212
-0.186718 -0.194651 0.036042 224 224 224
-0.210000 0.000000 0.021000 231 231 231
-0.210000 -0.197990 0.021000 226 226 226
-0.210000 -0.197990 0.021000 205 205 205
-0.210000 -0.197990 0.000000 204 204 204
-0.175077 -0.316725 0.020469 168 168 168
-0.210000 -0.197990 0.021000 170 170 170
-0.210000 -0.197990 0.021000 209 209 209
-0.153089 -0.266823 0.031171 206 206 206
-0.186718 -0.194651 0.036042 194 194 194
-0.210000 0.197990 0.021000 254 254 254
-0.153089 0.266823 0.031171 255 255 255
-0.175077 0.316725 0.020469 239 239 239
-0.175077 0.316725 0.020469 235 235 235
-0.210000 0.197990 0.000000 233 233 233
-0.210000 0.197990 0.021000 233 233 233
-0.210000 0.197990 0.000000 214 214 214
-0.210000 0.000000 0.021000 209 209 209
-0.210000 0.197990 0.021000 214 214 214
-0.210000 0.000000 0.021000 227 227 227
-0.186718 0.194651 0.036042 233 233 233
-0.210000 0.197990 0.021000 239 239 239
-0.175077 0.316725 -0.020469 234 234 234
-0.210000 0.197990 -0.021000 232 232 232
-0.210000 0.197990 -0.021000 134 134 134
-0.153089 0.266823 -0.031171 134 134 134
-0.186718 0.194651 -0.036042 147 147 147
-0.186718 0.194651 -0.036042 132 132 132
-0.210000 0.000000 -0.021000 132 132 132
-0.210000 0.197990 -0.021000 136 136 136
-0.210000 0.197990 -0.021000 213 213 213
-0.070310 0.276949 -0.018875 188 188 188
-0.175077 0.316725 0.000000 190 190 190
-0.070310 0.276949 0.000000 188 188 188
-0.070310 0.276949 0.000000 149 149 149
0.073781 0.167936 -0.017812 149 149 149
-0.070310 0.276949 -0.018875 149 149 149
0.073781 0.167936 -0.017812 131 131 131
-0.081951 0.253870 -0.033385 131 131 131
-0.070310 0.276949 -0.018875 136 136 136
-0.070310 0.276949 -0.018875 146 146 146
-0.153089 0.266823 -0.031171 146 146 146
-0.175077 0.316725 -0.020469 134 134 134
-0.070310 0.276949 0.018875 221 221 221
-0.153089 0.266823 0.031171 224 224 224
-0.081951 0.253870 0.033385 236 236 236
-0.081951 0.253870 0.033385 211 211 211
0.073781 0.167936 0.017812 204 204 204
-0.070310 0.276949 0.018875 211 211 211
0.073781 0.167936 0.017812 149 149 149
-0.070310 0.276949 0.018875 149 149 149
-0.070310 0.276949 0.018875 188 188 188
-0.175077 0.316725 0.020469 190 190 190
0.073781 0.167936 0.017812 216 216 216
0.213567 0.059219 0.032677 210 210 210
0.226675 0.078959 0.018875 207 207 207
0.226675 0.078959 0.018875 173 173 173
0.255803 0.000000 0.029676 171 171 171
0.305322 0.000000 0.019937 195 195 195
0.226675 0.078959 0.018875 141 141 141
0.226675 0.078959 0.000000 141 141 141
0.073781 0.167936 0.017812 168 168 168
0.226675 0.078959 0.018875 166 166 166
-0.500000 0.500000 0.000000 254 254 254
-0.066667 0.500000 0.000000 76 76 76
-0.500000 0.066667 0.000000 87 87 87
-0.454649 0.352584 0.028712 244 244 244
-0.500000 0.500000 0.000000 249 249 249
-0.352584 0.454649 0.028712 249 249 249
0.352584 0.454649 0.028712 222 222 222
0.066667 0.500000 0.000000 187 187 187
0.368925 0.368925 0.028712 220 220 220
0.500000 0.500000 0.000000 128 128 128
0.352584 0.454649 0.028712 220 220 220
-0.352584 0.454649 -0.028712 145 145 145
-0.066667 0.500000 0.000000 67 67 67
-0.368925 0.368925 -0.028712 97 97 97
-0.500000 0.066667 0.000000 137 137 137
-0.500000 0.500000 0.000000 136 136 136
-0.352584 0.454649 -0.028712 146 146 146
0.500000 0.500000 0.000000 146 146 146
0.066667 0.500000 0.000000 98 98 98
0.500000 0.066667 0.000000 118 118 118
0.454649 0.352584 -0.028712 113 113 113
0.500000 0.500000 0.000000 112 112 112
-0.352584 -0.454649 0.028712 121 121 121
-0.066667 -0.500000 0.000000 218 218 218
-0.368925 -0.368925 0.028712 194 194 194
-0.500000 -0.066667 0.000000 229 229 229
-0.500000 -0.500000 0.000000 209 209 209
0.500000 -0.500000 0.000000 101 101 101
0.066667 -0.500000 0.000000 255 255 255
0.500000 -0.066667 0.000000 252 252 252
0.454649 -0.352584 0.028712 121 121 121
0.500000 -0.500000 0.000000 116 116 116
0.352584 -0.454649 0.028712 108 108 108
-0.500000 -0.500000 0.000000 94 94 94
-0.066667 -0.500000 0.000000 144 144 144
-0.500000 -0.066667 0.000000 128 128 128
-0.454649 -0.352584 -0.028712 133 133 133
-0.500000 -0.500000 0.000000 133 133 133
0.352584 -0.454649 -0.028712 95 95 95
0.066667 -0.500000 0.000000 196 196 196
0.368925 -0.368925 -0.028712 149 149 149
0.500000 -0.500000 0.000000 109 109 109
0.352584 -0.454649 -0.028712 94 94 94
0.073781 0.167936 0.000000 168 168 168
0.305322 0.000000 -0.019937 129 129 129
0.053337 0.132212 -0.032463 135 135 135
-0.172749 -0.000000 -0.037507 134 134 134
-0.186718 -0.194651 -0.036042 121 121 121
-0.175077 -0.316725 0.000000 168 168 168
0.213567 -0.059219 0.032677 190 190 190
0.053337 0.132212 0.032463 207 207 207
0.053337 -0.132212 0.032463 197 197 197
-0.186718 0.194651 -0.036042 129 129 129
0.053337 0.132212 -0.032463 124 124 124
0.073781 -0.167936 0.000000 3 3 3
0.305322 0.000000 0.019937 155 155 155
0.053337 -0.132212 0.032463 148 148 148
-0.175077 -0.316725 0.020469 2 2 2
0.073781 -0.167936 0.000000 14 14 14
0.053337 -0.132212 0.032463 144 144 144
-0.081951 -0.253870 0.033385 109 109 109
-0.175077 -0.316725 -0.020469 106 106 106
0.053337 -0.132212 -0.032463 103 103 103
0.053337 -0.132212 -0.032463 102 102 102
0.213567 -0.059219 -0.032677 93 93 93
0.305322 0.000000 -0.019937 29 29 29
-0.172749 -0.000000 -0.037507 123 123 123
0.053337 -0.132212 -0.032463 121 121 121
-0.081951 -0.253870 -0.033385 119 119 119
-0.070310 -0.085638 -0.037750 124 124 124
0.213567 0.059219 -0.032677 122 122 122
0.053337 -0.132212 0.032463 194 194 194
-0.172749 -0.000000 0.037507 208 208 208
-0.186718 -0.194651 0.036042 196 196 196
-0.070310 -0.085638 0.037750 200 200 200
-0.070310 0.085638 0.037750 206 206 206
-0.081951 0.253870 0.033385 220 220 220
-0.172749 -0.000000 0.037507 209 209 209
-0.172749 -0.000000 0.037507 230 230 230
-0.175077 -0.316725 0.020469 205 205 205
-0.186718 0.194651 0.036042 254 254 254
-0.175077 0.316725 0.000000 234 234 234
-0.172749 -0.000000 0.037507 227 227 227
-0.172749 -0.000000 -0.037507 132 132 132
-0.175077 0.316725 -0.020469 189 189 189
0.073781 0.167936 0.000000 149 149 149
0.053337 0.132212 -0.032463 131 131 131
-0.081951 0.253870 -0.033385 146 146 146
-0.175077 0.316725 0.020469 225 225 225
0.053337 0.132212 0.032463 204 204 204
0.053337 0.132212 0.032463 216 216 216
0.213567 0.059219 0.032677 173 173 173
0.305322 0.000000 0.019937 141 141 141
3 0 1 2
3 3 4 5
3 5 6 7
3 5 4 6
3 4 8 6
3 9 10 11
3 12 13 14
3 15 16 17
3 18 19 20
3 0 21 22
3 23 24 25
3 26 27 28
3 27 29 30
3 27 30 28
3 28 30 31
3 32 33 34
3 35 36 37
3 38 39 40
3 41 42 43
3 44 45 46
3 47 48 49
3 50 51 52
3 51 53 54
3 51 54 52
3 52 54 55
3 56 57 58
3 59 60 61
3 62 63 64
3 65 66 67
3 68 69 70
3 71 72 73
3 74 75 76
3 76 77 78
3 76 75 77
3 75 79 77
3 80 81 82
3 83 84 85
3 86 87 88
3 89 90 91
3 92 93 94
3 95 96 97
3 98 99 100
3 99 101 102
3 99 102 100
3 100 102 103
3 104 105 106
3 107 108 109
3 110 111 112
3 113 114 115
3 116 95 117
3 118 119 120
3 121 122 123
3 123 124 125
3 123 122 124
3 122 126 124
3 127 128 129
3 130 131 132
3 133 134 135
3 136 137 138
3 139 140 141
3 142 143 144
3 145 146 147
3 147 148 149
3 147 146 148
3 146 150 148
3 151 152 153
3 154 155 146
3 156 157 158
3 159 157 160
3 161 162 117
3 163 164 165
3 166 167 168
3 167 169 170
3 167 170 168
3 168 170 171
3 172 173 174
3 175 176 177
3 178 179 180
3 181 182 183
3 184 185 141
3 186 187 188
3 189 190 191
3 192 193 194
3 195 196 197
3 198 199 200
3 201 202 203
3 204 205 206
3 207 208 209
3 210 211 212
3 213 214 215
3 216 217 218
3 219 220 221
3 222 223 224
3 223 225 224
3 226 227 228
3 229 230 231
3 232 233 234
3 235 236 237
3 238 239 240
3 241 242 243
3 244 245 246
3 247 248 249
3 250 251 252
3 253 254 255
3 256 241 257
3 258 239 259
3 260 261 262
3 263 264 265
3 266 230 267
3 227 268 269
3 270 271 272
3 273 274 275
3 275 276 277
3 278 279 280
3 281 282 283
3 284 285 286
3 283 287 288
3 289 290 291
3 292 293 294
3 295 296 297
3 298 299 300
3 301 302 303
3 304 305 306
3 307 308 309
3 310 311 312
3 313 314 315
3 316 317 318
3 319 320 321
3 322 323 324
3 325 199 326
3 208 327 328
3 329 330 331
3 332 333 334
3 335 336 337
3 338 339 340
3 341 342 343
3 336 344 345
3 346 347 348
3 349 350 351
3 200 338 352
3 353 354 355
3 356 357 358
3 359 360 361
3 362 363 364
3 365 366 367
3 368 369 370
3 371 356 372
3 373 354 374
3 375 376 377
3 378 379 380
3 381 190 382
3 187 383 384
3 0 385 1
3 9 386 10
3 12 387 13
3 15 388 16
3 18 389 19
3 0 390 21
3 23 391 24
3 32 392 33
3 35 393 36
3 38 88 39
3 41 394 42
3 44 395 45
3 47 396 48
3 56 397 57
3 59 398 60
3 62 399 63
3 65 400 66
3 68 401 69
3 71 402 72
3 80 403 81
3 83 404 84
3 86 405 87
3 89 406 90
3 92 73 93
3 95 407 96
3 104 408 105
3 107 409 108
3 110 410 111
3 113 411 114
3 116 407 95
3 118 412 119
3 127 413 128
3 130 414 131
3 133 415 134
3 136 416 137
3 139 417 140
3 142 418 143
3 151 419 152
3 154 420 155
3 156 421 157
3 159 422 157
3 161 144 162
3 163 423 164
3 172 424 173
3 175 425 176
3 178 135 179
3 181 426 182
3 184 427 185
3 186 428 187
3 189 382 190
3 192 429 193
3 195 430 196
3 198 326 199
3 201 431 202
3 204 432 205
3 207 433 208
3 210 434 211
3 213 435 214
3 216 436 217
3 219 437 220
3 222 438 223
3 223 279 225
3 226 439 227
3 229 267 230
3 232 440 233
3 235 441 236
3 238 442 239
3 241 443 242
3 244 444 245
3 247 445 248
3 250 446 251
3 253 447 254
3 256 443 241
3 258 240 239
3 260 448 261
3 263 449 264
3 266 450 230
3 227 439 268
3 270 451 271
3 273 452 274
3 275 453 276
3 278 454 279
3 281 280 282
3 284 293 285
3 283 438 287
3 289 455 290
3 292 285 293
3 295 456 296
3 298 457 299
3 301 458 302
3 304 459 305
3 307 214 308
3 310 460 311
3 313 308 314
3 316 461 317
3 319 462 320
3 322 463 323
3 325 339 199
3 208 433 327
3 329 464 330
3 332 465 333
3 335 466 336
3 338 199 339
3 341 467 342
3 336 466 344
3 346 364 347
3 349 468 350
3 200 199 338
3 353 469 354
3 356 470 357
3 359 471 360
3 362 472 363
3 365 473 366
3 368 474 369
3 371 470 356
3 373 355 354
3 375 475 376
3 378 476 379
3 381 477 190
3 187 428 383
