ply
format ascii 1.0
comment Created by Blender 2.79 (sub 0) - www.blender.org, source file: 'UI.blend'
element vertex 319
property float x
property float y
property float z
property uchar red
property uchar green
property uchar blue
element face 176
property list uchar uint vertex_indices
end_header
-0.333333 0.510000 0.000000 249 249 249
-0.452594 0.452594 0.028712 253 253 253
-0.352584 0.454649 0.028712 248 248 248
-0.468033 0.169837 0.028712 221 221 221
-0.368925 0.368925 0.028712 225 225 225
-0.454649 0.352584 0.028712 227 227 227
-0.352584 0.454649 0.028712 227 227 227
-0.452594 0.452594 0.028712 230 230 230
-0.169837 0.468033 0.028712 221 221 221
-0.333333 0.333333 0.000000 76 76 76
-0.169837 0.468033 0.028712 76 76 76
-0.368925 0.368925 0.028712 154 154 154
-0.468033 0.169837 0.028712 87 87 87
-0.333333 0.333333 0.000000 87 87 87
-0.368925 0.368925 0.028712 158 158 158
-0.468033 0.169837 0.028712 238 238 238
-0.510000 0.333333 0.000000 244 244 244
-0.500000 0.066667 0.000000 230 230 230
-0.452594 0.452594 0.028712 247 247 247
-0.510000 0.333333 0.000000 243 243 243
-0.454649 0.352584 0.028712 243 243 243
-0.169837 0.468033 0.028712 243 243 243
-0.066667 0.500000 0.000000 238 238 238
0.333333 0.510000 0.000000 223 223 223
0.452594 0.452594 0.028712 219 219 219
0.500000 0.500000 0.000000 216 216 216
0.468033 0.169837 0.028712 195 195 195
0.454649 0.352584 0.028712 198 198 198
0.368925 0.368925 0.028712 201 201 201
0.452594 0.452594 0.028712 199 199 199
0.352584 0.454649 0.028712 203 203 203
0.169837 0.468033 0.028712 209 209 209
0.169837 0.468033 0.028712 184 184 184
0.333333 0.333333 0.000000 176 176 176
0.368925 0.368925 0.028712 183 183 183
0.468033 0.169837 0.028712 213 213 213
0.333333 0.333333 0.000000 220 220 220
0.500000 0.066667 0.000000 204 204 204
0.468033 0.169837 0.028712 106 106 106
0.510000 0.333333 0.000000 106 106 106
0.454649 0.352584 0.028712 135 135 135
0.510000 0.333333 0.000000 127 127 127
0.452594 0.452594 0.028712 128 128 128
0.454649 0.352584 0.028712 133 133 133
0.169837 0.468033 0.028712 226 226 226
0.333333 0.510000 0.000000 221 221 221
0.066667 0.500000 0.000000 237 237 237
-0.333333 0.510000 0.000000 145 145 145
-0.452594 0.452594 -0.028712 145 145 145
-0.500000 0.500000 0.000000 147 147 147
-0.468033 0.169837 -0.028712 124 124 124
-0.454649 0.352584 -0.028712 124 124 124
-0.368925 0.368925 -0.028712 124 124 124
-0.452594 0.452594 -0.028712 124 124 124
-0.352584 0.454649 -0.028712 124 124 124
-0.169837 0.468033 -0.028712 124 124 124
-0.169837 0.468033 -0.028712 67 67 67
-0.333333 0.333333 0.000000 67 67 67
-0.368925 0.368925 -0.028712 88 88 88
-0.468033 0.169837 -0.028712 97 97 97
-0.333333 0.333333 0.000000 97 97 97
-0.500000 0.066667 0.000000 79 79 79
-0.468033 0.169837 -0.028712 137 137 137
-0.510000 0.333333 0.000000 137 137 137
-0.454649 0.352584 -0.028712 136 136 136
-0.510000 0.333333 0.000000 136 136 136
-0.452594 0.452594 -0.028712 136 136 136
-0.454649 0.352584 -0.028712 135 135 135
-0.169837 0.468033 -0.028712 146 146 146
-0.333333 0.510000 0.000000 146 146 146
-0.066667 0.500000 0.000000 151 151 151
0.333333 0.510000 0.000000 146 146 146
0.452594 0.452594 -0.028712 146 146 146
0.352584 0.454649 -0.028712 145 145 145
0.468033 0.169837 -0.028712 124 124 124
0.368925 0.368925 -0.028712 124 124 124
0.454649 0.352584 -0.028712 124 124 124
0.352584 0.454649 -0.028712 124 124 124
0.452594 0.452594 -0.028712 124 124 124
0.169837 0.468033 -0.028712 124 124 124
0.333333 0.333333 0.000000 98 98 98
0.169837 0.468033 -0.028712 98 98 98
0.368925 0.368925 -0.028712 103 103 103
0.468033 0.169837 -0.028712 118 118 118
0.333333 0.333333 0.000000 118 118 118
0.368925 0.368925 -0.028712 123 123 123
0.468033 0.169837 -0.028712 113 113 113
0.510000 0.333333 0.000000 113 113 113
0.500000 0.066667 0.000000 106 106 106
0.452594 0.452594 -0.028712 112 112 112
0.510000 0.333333 0.000000 112 112 112
0.454649 0.352584 -0.028712 112 112 112
0.333333 0.510000 0.000000 145 145 145
0.169837 0.468033 -0.028712 145 145 145
0.066667 0.500000 0.000000 152 152 152
-0.333333 -0.510000 0.000000 120 120 120
-0.452594 -0.452594 0.028712 121 121 121
-0.500000 -0.500000 0.000000 113 113 113
-0.468033 -0.169837 0.028712 209 209 209
-0.454649 -0.352584 0.028712 203 203 203
-0.368925 -0.368925 0.028712 201 201 201
-0.452594 -0.452594 0.028712 199 199 199
-0.352584 -0.454649 0.028712 198 198 198
-0.169837 -0.468033 0.028712 195 195 195
-0.169837 -0.468033 0.028712 221 221 221
-0.333333 -0.333333 0.000000 228 228 228
-0.368925 -0.368925 0.028712 229 229 229
-0.468033 -0.169837 0.028712 202 202 202
-0.333333 -0.333333 0.000000 194 194 194
-0.500000 -0.066667 0.000000 202 202 202
-0.468033 -0.169837 0.028712 226 226 226
-0.510000 -0.333333 0.000000 220 220 220
-0.454649 -0.352584 0.028712 213 213 213
-0.510000 -0.333333 0.000000 215 215 215
-0.452594 -0.452594 0.028712 211 211 211
-0.454649 -0.352584 0.028712 216 216 216
-0.169837 -0.468033 0.028712 120 120 120
-0.066667 -0.500000 0.000000 82 82 82
0.333333 -0.510000 0.000000 101 101 101
0.452594 -0.452594 0.028712 101 101 101
0.352584 -0.454649 0.028712 114 114 114
0.468033 -0.169837 0.028712 189 189 189
0.368925 -0.368925 0.028712 188 188 188
0.454649 -0.352584 0.028712 186 186 186
0.352584 -0.454649 0.028712 186 186 186
0.452594 -0.452594 0.028712 185 185 185
0.169837 -0.468033 0.028712 189 189 189
0.333333 -0.333333 0.000000 253 253 253
0.169837 -0.468033 0.028712 254 254 254
0.368925 -0.368925 0.028712 238 238 238
0.468033 -0.169837 0.028712 252 252 252
0.333333 -0.333333 0.000000 251 251 251
0.368925 -0.368925 0.028712 235 235 235
0.468033 -0.169837 0.028712 122 122 122
0.510000 -0.333333 0.000000 121 121 121
0.500000 -0.066667 0.000000 108 108 108
0.452594 -0.452594 0.028712 116 116 116
0.510000 -0.333333 0.000000 116 116 116
0.454649 -0.352584 0.028712 127 127 127
0.333333 -0.510000 0.000000 108 108 108
0.169837 -0.468033 0.028712 109 109 109
0.066667 -0.500000 0.000000 84 84 84
-0.333333 -0.510000 0.000000 94 94 94
-0.452594 -0.452594 -0.028712 94 94 94
-0.352584 -0.454649 -0.028712 96 96 96
-0.468033 -0.169837 -0.028712 124 124 124
-0.368925 -0.368925 -0.028712 124 124 124
-0.454649 -0.352584 -0.028712 124 124 124
-0.352584 -0.454649 -0.028712 124 124 124
-0.452594 -0.452594 -0.028712 124 124 124
-0.169837 -0.468033 -0.028712 124 124 124
-0.333333 -0.333333 0.000000 144 144 144
-0.169837 -0.468033 -0.028712 144 144 144
-0.368925 -0.368925 -0.028712 140 140 140
-0.468033 -0.169837 -0.028712 128 128 128
-0.333333 -0.333333 0.000000 128 128 128
-0.468033 -0.169837 -0.028712 133 133 133
-0.510000 -0.333333 0.000000 133 133 133
-0.500000 -0.066667 0.000000 139 139 139
-0.452594 -0.452594 -0.028712 133 133 133
-0.454649 -0.352584 -0.028712 134 134 134
-0.333333 -0.510000 0.000000 96 96 96
-0.169837 -0.468033 -0.028712 96 96 96
0.333333 -0.510000 0.000000 95 95 95
0.452594 -0.452594 -0.028712 95 95 95
0.500000 -0.500000 0.000000 92 92 92
0.468033 -0.169837 -0.028712 124 124 124
0.454649 -0.352584 -0.028712 124 124 124
0.368925 -0.368925 -0.028712 124 124 124
0.452594 -0.452594 -0.028712 124 124 124
0.352584 -0.454649 -0.028712 124 124 124
0.169837 -0.468033 -0.028712 124 124 124
0.169837 -0.468033 -0.028712 195 195 195
0.333333 -0.333333 0.000000 195 195 195
0.368925 -0.368925 -0.028712 154 154 154
0.468033 -0.169837 -0.028712 149 149 149
0.333333 -0.333333 0.000000 149 149 149
0.500000 -0.066667 0.000000 192 192 192
0.468033 -0.169837 -0.028712 108 108 108
0.510000 -0.333333 0.000000 108 108 108
0.454649 -0.352584 -0.028712 109 109 109
0.510000 -0.333333 0.000000 109 109 109
0.452594 -0.452594 -0.028712 109 109 109
0.454649 -0.352584 -0.028712 111 111 111
0.169837 -0.468033 -0.028712 94 94 94
0.333333 -0.510000 0.000000 94 94 94
-0.270000 -0.075000 0.000000 158 158 158
-0.270000 0.000000 0.045000 161 161 161
-0.360000 0.000000 0.000000 172 172 172
-0.270000 0.000000 0.045000 255 255 255
-0.270000 0.075000 0.000000 255 255 255
-0.360000 0.000000 0.000000 255 255 255
-0.270000 0.075000 0.000000 152 152 152
-0.270000 0.000000 -0.045000 152 152 152
-0.360000 0.000000 0.000000 153 153 153
-0.270000 0.000000 -0.045000 102 102 102
-0.270000 -0.075000 0.000000 102 102 102
-0.360000 0.000000 0.000000 107 107 107
0.000000 0.000000 -0.060000 115 115 115
-0.200000 -0.055556 -0.033333 115 115 115
-0.270000 0.000000 -0.045000 110 110 110
0.000000 0.000000 -0.060000 138 138 138
-0.200000 0.055556 -0.033333 138 138 138
0.000000 0.075000 -0.045000 135 135 135
0.000000 0.000000 -0.060000 132 132 132
0.200000 0.055556 -0.033333 132 132 132
0.270000 0.000000 -0.045000 136 136 136
0.000000 0.000000 -0.060000 107 107 107
0.200000 -0.055556 -0.033333 107 107 107
0.000000 -0.075000 -0.045000 111 111 111
0.270000 -0.075000 0.000000 84 84 84
0.270000 0.000000 -0.045000 84 84 84
0.360000 0.000000 0.000000 80 80 80
0.270000 0.000000 -0.045000 142 142 142
0.270000 0.075000 0.000000 142 142 142
0.360000 0.000000 0.000000 138 138 138
0.270000 0.075000 0.000000 208 208 208
0.270000 0.000000 0.045000 208 208 208
0.360000 0.000000 0.000000 189 189 189
0.270000 0.000000 0.045000 84 84 84
0.000000 0.000000 0.060000 176 176 176
0.200000 -0.055556 0.033333 170 170 170
0.270000 0.000000 0.045000 163 163 163
0.000000 0.000000 0.060000 220 220 220
0.200000 0.055556 0.033333 215 215 215
0.000000 0.075000 0.045000 215 215 215
0.000000 0.000000 0.060000 224 224 224
-0.200000 0.055556 0.033333 230 230 230
-0.270000 0.000000 0.045000 234 234 234
0.000000 0.000000 0.060000 178 178 178
-0.200000 -0.055556 0.033333 180 180 180
0.000000 -0.075000 0.045000 187 187 187
0.000000 -0.100000 0.000000 71 71 71
-0.200000 -0.055556 -0.033333 71 71 71
0.000000 -0.075000 -0.045000 64 64 64
0.000000 -0.100000 0.000000 51 51 51
0.200000 -0.055556 -0.033333 51 51 51
0.270000 -0.075000 0.000000 64 64 64
0.000000 -0.100000 0.000000 64 64 64
0.200000 -0.055556 0.033333 64 64 64
0.000000 -0.075000 0.045000 51 51 51
-0.200000 -0.055556 0.033333 64 64 64
-0.270000 -0.075000 0.000000 71 71 71
0.000000 0.100000 0.000000 159 159 159
0.200000 0.055556 -0.033333 159 159 159
0.000000 0.075000 -0.045000 174 174 174
0.000000 0.100000 0.000000 195 195 195
-0.200000 0.055556 -0.033333 196 196 196
-0.270000 0.075000 0.000000 175 175 175
0.000000 0.100000 0.000000 249 249 249
-0.200000 0.055556 0.033333 254 254 254
0.000000 0.075000 0.045000 251 251 251
0.000000 0.100000 0.000000 236 236 236
0.200000 0.055556 0.033333 231 231 231
0.270000 0.075000 0.000000 232 232 232
-0.500000 0.500000 0.000000 254 254 254
-0.066667 0.500000 0.000000 76 76 76
-0.500000 0.066667 0.000000 87 87 87
-0.454649 0.352584 0.028712 244 244 244
-0.500000 0.500000 0.000000 249 249 249
-0.352584 0.454649 0.028712 249 249 249
0.352584 0.454649 0.028712 222 222 222
0.066667 0.500000 0.000000 187 187 187
0.368925 0.368925 0.028712 220 220 220
0.500000 0.500000 0.000000 128 128 128
0.352584 0.454649 0.028712 220 220 220
-0.352584 0.454649 -0.028712 145 145 145
-0.066667 0.500000 0.000000 67 67 67
-0.368925 0.368925 -0.028712 97 97 97
-0.500000 0.066667 0.000000 137 137 137
-0.500000 0.500000 0.000000 136 136 136
-0.352584 0.454649 -0.028712 146 146 146
0.500000 0.500000 0.000000 146 146 146
0.066667 0.500000 0.000000 98 98 98
0.500000 0.066667 0.000000 118 118 118
0.454649 0.352584 -0.028712 113 113 113
0.500000 0.500000 0.000000 112 112 112
-0.352584 -0.454649 0.028712 121 121 121
-0.066667 -0.500000 0.000000 218 218 218
-0.368925 -0.368925 0.028712 194 194 194
-0.500000 -0.066667 0.000000 229 229 229
-0.500000 -0.500000 0.000000 209 209 209
0.500000 -0.500000 0.000000 101 101 101
0.066667 -0.500000 0.000000 255 255 255
0.500000 -0.066667 0.000000 252 252 252
0.454649 -0.352584 0.028712 121 121 121
0.500000 -0.500000 0.000000 116 116 116
0.352584 -0.454649 0.028712 108 108 108
-0.500000 -0.500000 0.000000 94 94 94
-0.066667 -0.500000 0.000000 144 144 144
-0.500000 -0.066667 0.000000 128 128 128
-0.454649 -0.352584 -0.028712 133 133 133
-0.500000 -0.500000 0.000000 133 133 133
0.352584 -0.454649 -0.028712 95 95 95
0.066667 -0.500000 0.000000 196 196 196
0.368925 -0.368925 -0.028712 149 149 149
0.500000 -0.500000 0.000000 109 109 109
0.352584 -0.454649 -0.028712 94 94 94
-0.200000 -0.055556 0.033333 158 158 158
-0.200000 0.055556 0.033333 255 255 255
-0.200000 0.055556 -0.033333 152 152 152
-0.200000 -0.055556 -0.033333 102 102 102
0.000000 -0.075000 -0.045000 115 115 115
-0.270000 0.000000 -0.045000 138 138 138
0.000000 0.075000 -0.045000 132 132 132
0.270000 0.000000 -0.045000 107 107 107
0.200000 -0.055556 -0.033333 84 84 84
0.200000 0.055556 -0.033333 142 142 142
0.200000 0.055556 0.033333 210 210 210
0.200000 -0.055556 0.033333 84 84 84
0.000000 -0.075000 0.045000 174 174 174
0.270000 0.000000 0.045000 213 213 213
0.000000 0.075000 0.045000 226 226 226
-0.270000 0.000000 0.045000 184 184 184
0.000000 -0.075000 -0.045000 51 51 51
0.000000 -0.075000 0.045000 64 64 64
0.270000 0.075000 0.000000 159 159 159
0.000000 0.075000 -0.045000 194 194 194
0.000000 0.075000 0.045000 237 237 237
3 0 1 2
3 3 4 5
3 5 6 7
3 5 4 6
3 4 8 6
3 9 10 11
3 12 13 14
3 15 16 17
3 18 19 20
3 0 21 22
3 23 24 25
3 26 27 28
3 27 29 30
3 27 30 28
3 28 30 31
3 32 33 34
3 35 36 37
3 38 39 40
3 41 42 43
3 44 45 46
3 47 48 49
3 50 51 52
3 51 53 54
3 51 54 52
3 52 54 55
3 56 57 58
3 59 60 61
3 62 63 64
3 65 66 67
3 68 69 70
3 71 72 73
3 74 75 76
3 76 77 78
3 76 75 77
3 75 79 77
3 80 81 82
3 83 84 85
3 86 87 88
3 89 90 91
3 92 93 94
3 95 96 97
3 98 99 100
3 99 101 102
3 99 102 100
3 100 102 103
3 104 105 106
3 107 108 109
3 110 111 112
3 113 114 115
3 116 95 117
3 118 119 120
3 121 122 123
3 123 124 125
3 123 122 124
3 122 126 124
3 127 128 129
3 130 131 132
3 133 134 135
3 136 137 138
3 139 140 141
3 142 143 144
3 145 146 147
3 147 148 149
3 147 146 148
3 146 150 148
3 151 152 153
3 154 155 146
3 156 157 158
3 159 157 160
3 161 162 117
3 163 164 165
3 166 167 168
3 167 169 170
3 167 170 168
3 168 170 171
3 172 173 174
3 175 176 177
3 178 179 180
3 181 182 183
3 184 185 141
3 186 187 188
3 189 190 191
3 192 193 194
3 195 196 197
3 198 199 200
3 201 202 203
3 204 205 206
3 207 208 209
3 210 211 212
3 213 214 215
3 216 217 218
3 219 210 212
3 220 221 222
3 223 224 225
3 226 227 228
3 229 230 231
3 232 233 234
3 235 236 237
3 238 239 240
3 238 241 242
3 243 244 245
3 246 247 248
3 249 250 251
3 252 253 254
3 0 255 1
3 9 256 10
3 12 257 13
3 15 258 16
3 18 259 19
3 0 260 21
3 23 261 24
3 32 262 33
3 35 263 36
3 38 88 39
3 41 264 42
3 44 265 45
3 47 266 48
3 56 267 57
3 59 268 60
3 62 269 63
3 65 270 66
3 68 271 69
3 71 272 72
3 80 273 81
3 83 274 84
3 86 275 87
3 89 276 90
3 92 73 93
3 95 277 96
3 104 278 105
3 107 279 108
3 110 280 111
3 113 281 114
3 116 277 95
3 118 282 119
3 127 283 128
3 130 284 131
3 133 285 134
3 136 286 137
3 139 287 140
3 142 288 143
3 151 289 152
3 154 290 155
3 156 291 157
3 159 292 157
3 161 144 162
3 163 293 164
3 172 294 173
3 175 295 176
3 178 135 179
3 181 296 182
3 184 297 185
3 186 298 187
3 189 299 190
3 192 300 193
3 195 301 196
3 198 302 199
3 201 303 202
3 204 304 205
3 207 305 208
3 210 306 211
3 213 307 214
3 216 308 217
3 219 309 210
3 220 310 221
3 223 311 224
3 226 312 227
3 229 313 230
3 232 242 233
3 235 314 236
3 238 237 239
3 238 315 241
3 243 316 244
3 246 317 247
3 249 190 250
3 252 318 253
