ply
format ascii 1.0
comment Created by Blender 2.79 (sub 0) - www.blender.org, source file: 'UI.blend'
element vertex 454
property float x
property float y
property float z
property uchar red
property uchar green
property uchar blue
element face 208
property list uchar uint vertex_indices
end_header
-0.333333 0.510000 0.000000 249 249 249
-0.452594 0.452594 0.028712 253 253 253
-0.352584 0.454649 0.028712 248 248 248
-0.468033 0.169837 0.028712 221 221 221
-0.368925 0.368925 0.028712 225 225 225
-0.454649 0.352584 0.028712 227 227 227
-0.352584 0.454649 0.028712 227 227 227
-0.452594 0.452594 0.028712 230 230 230
-0.169837 0.468033 0.028712 221 221 221
-0.333333 0.333333 0.000000 76 76 76
-0.169837 0.468033 0.028712 76 76 76
-0.368925 0.368925 0.028712 154 154 154
-0.468033 0.169837 0.028712 87 87 87
-0.333333 0.333333 0.000000 87 87 87
-0.368925 0.368925 0.028712 158 158 158
-0.468033 0.169837 0.028712 238 238 238
-0.510000 0.333333 0.000000 244 244 244
-0.500000 0.066667 0.000000 230 230 230
-0.452594 0.452594 0.028712 247 247 247
-0.510000 0.333333 0.000000 243 243 243
-0.454649 0.352584 0.028712 243 243 243
-0.169837 0.468033 0.028712 243 243 243
-0.066667 0.500000 0.000000 238 238 238
0.333333 0.510000 0.000000 223 223 223
0.452594 0.452594 0.028712 219 219 219
0.500000 0.500000 0.000000 216 216 216
0.468033 0.169837 0.028712 195 195 195
0.454649 0.352584 0.028712 198 198 198
0.368925 0.368925 0.028712 201 201 201
0.452594 0.452594 0.028712 199 199 199
0.352584 0.454649 0.028712 203 203 203
0.169837 0.468033 0.028712 209 209 209
0.169837 0.468033 0.028712 184 184 184
0.333333 0.333333 0.000000 176 176 176
0.368925 0.368925 0.028712 183 183 183
0.468033 0.169837 0.028712 213 213 213
0.333333 0.333333 0.000000 220 220 220
0.500000 0.066667 0.000000 204 204 204
0.468033 0.169837 0.028712 106 106 106
0.510000 0.333333 0.000000 106 106 106
0.454649 0.352584 0.028712 135 135 135
0.510000 0.333333 0.000000 127 127 127
0.452594 0.452594 0.028712 128 128 128
0.454649 0.352584 0.028712 133 133 133
0.169837 0.468033 0.028712 226 226 226
0.333333 0.510000 0.000000 221 221 221
0.066667 0.500000 0.000000 237 237 237
-0.333333 0.510000 0.000000 145 145 145
-0.452594 0.452594 -0.028712 145 145 145
-0.500000 0.500000 0.000000 147 147 147
-0.468033 0.169837 -0.028712 124 124 124
-0.454649 0.352584 -0.028712 124 124 124
-0.368925 0.368925 -0.028712 124 124 124
-0.452594 0.452594 -0.028712 124 124 124
-0.352584 0.454649 -0.028712 124 124 124
-0.169837 0.468033 -0.028712 124 124 124
-0.169837 0.468033 -0.028712 67 67 67
-0.333333 0.333333 0.000000 67 67 67
-0.368925 0.368925 -0.028712 88 88 88
-0.468033 0.169837 -0.028712 97 97 97
-0.333333 0.333333 0.000000 97 97 97
-0.500000 0.066667 0.000000 79 79 79
-0.468033 0.169837 -0.028712 137 137 137
-0.510000 0.333333 0.000000 137 137 137
-0.454649 0.352584 -0.028712 136 136 136
-0.510000 0.333333 0.000000 136 136 136
-0.452594 0.452594 -0.028712 136 136 136
-0.454649 0.352584 -0.028712 135 135 135
-0.169837 0.468033 -0.028712 146 146 146
-0.333333 0.510000 0.000000 146 146 146
-0.066667 0.500000 0.000000 151 151 151
0.333333 0.510000 0.000000 146 146 146
0.452594 0.452594 -0.028712 146 146 146
0.352584 0.454649 -0.028712 145 145 145
0.468033 0.169837 -0.028712 124 124 124
0.368925 0.368925 -0.028712 124 124 124
0.454649 0.352584 -0.028712 124 124 124
0.352584 0.454649 -0.028712 124 124 124
0.452594 0.452594 -0.028712 124 124 124
0.169837 0.468033 -0.028712 124 124 124
0.333333 0.333333 0.000000 98 98 98
0.169837 0.468033 -0.028712 98 98 98
0.368925 0.368925 -0.028712 103 103 103
0.468033 0.169837 -0.028712 118 118 118
0.333333 0.333333 0.000000 118 118 118
0.368925 0.368925 -0.028712 123 123 123
0.468033 0.169837 -0.028712 113 113 113
0.510000 0.333333 0.000000 113 113 113
0.500000 0.066667 0.000000 106 106 106
0.452594 0.452594 -0.028712 112 112 112
0.510000 0.333333 0.000000 112 112 112
0.454649 0.352584 -0.028712 112 112 112
0.333333 0.510000 0.000000 145 145 145
0.169837 0.468033 -0.028712 145 145 145
0.066667 0.500000 0.000000 152 152 152
-0.333333 -0.510000 0.000000 120 120 120
-0.452594 -0.452594 0.028712 121 121 121
-0.500000 -0.500000 0.000000 113 113 113
-0.468033 -0.169837 0.028712 209 209 209
-0.454649 -0.352584 0.028712 203 203 203
-0.368925 -0.368925 0.028712 201 201 201
-0.452594 -0.452594 0.028712 199 199 199
-0.352584 -0.454649 0.028712 198 198 198
-0.169837 -0.468033 0.028712 195 195 195
-0.169837 -0.468033 0.028712 221 221 221
-0.333333 -0.333333 0.000000 228 228 228
-0.368925 -0.368925 0.028712 229 229 229
-0.468033 -0.169837 0.028712 202 202 202
-0.333333 -0.333333 0.000000 194 194 194
-0.500000 -0.066667 0.000000 202 202 202
-0.468033 -0.169837 0.028712 226 226 226
-0.510000 -0.333333 0.000000 220 220 220
-0.454649 -0.352584 0.028712 213 213 213
-0.510000 -0.333333 0.000000 215 215 215
-0.452594 -0.452594 0.028712 211 211 211
-0.454649 -0.352584 0.028712 216 216 216
-0.169837 -0.468033 0.028712 120 120 120
-0.066667 -0.500000 0.000000 82 82 82
0.333333 -0.510000 0.000000 101 101 101
0.452594 -0.452594 0.028712 101 101 101
0.352584 -0.454649 0.028712 114 114 114
0.468033 -0.169837 0.028712 189 189 189
0.368925 -0.368925 0.028712 188 188 188
0.454649 -0.352584 0.028712 186 186 186
0.352584 -0.454649 0.028712 186 186 186
0.452594 -0.452594 0.028712 185 185 185
0.169837 -0.468033 0.028712 189 189 189
0.333333 -0.333333 0.000000 253 253 253
0.169837 -0.468033 0.028712 254 254 254
0.368925 -0.368925 0.028712 238 238 238
0.468033 -0.169837 0.028712 252 252 252
0.333333 -0.333333 0.000000 251 251 251
0.368925 -0.368925 0.028712 235 235 235
0.468033 -0.169837 0.028712 122 122 122
0.510000 -0.333333 0.000000 121 121 121
0.500000 -0.066667 0.000000 108 108 108
0.452594 -0.452594 0.028712 116 116 116
0.510000 -0.333333 0.000000 116 116 116
0.454649 -0.352584 0.028712 127 127 127
0.333333 -0.510000 0.000000 108 108 108
0.169837 -0.468033 0.028712 109 109 109
0.066667 -0.500000 0.000000 84 84 84
-0.333333 -0.510000 0.000000 94 94 94
-0.452594 -0.452594 -0.028712 94 94 94
-0.352584 -0.454649 -0.028712 96 96 96
-0.468033 -0.169837 -0.028712 124 124 124
-0.368925 -0.368925 -0.028712 124 124 124
-0.454649 -0.352584 -0.028712 124 124 124
-0.352584 -0.454649 -0.028712 124 124 124
-0.452594 -0.452594 -0.028712 124 124 124
-0.169837 -0.468033 -0.028712 124 124 124
-0.333333 -0.333333 0.000000 144 144 144
-0.169837 -0.468033 -0.028712 144 144 144
-0.368925 -0.368925 -0.028712 140 140 140
-0.468033 -0.169837 -0.028712 128 128 128
-0.333333 -0.333333 0.000000 128 128 128
-0.468033 -0.169837 -0.028712 133 133 133
-0.510000 -0.333333 0.000000 133 133 133
-0.500000 -0.066667 0.000000 139 139 139
-0.452594 -0.452594 -0.028712 133 133 133
-0.454649 -0.352584 -0.028712 134 134 134
-0.333333 -0.510000 0.000000 96 96 96
-0.169837 -0.468033 -0.028712 96 96 96
0.333333 -0.510000 0.000000 95 95 95
0.452594 -0.452594 -0.028712 95 95 95
0.500000 -0.500000 0.000000 92 92 92
0.468033 -0.169837 -0.028712 124 124 124
0.454649 -0.352584 -0.028712 124 124 124
0.368925 -0.368925 -0.028712 124 124 124
0.452594 -0.452594 -0.028712 124 124 124
0.352584 -0.454649 -0.028712 124 124 124
0.169837 -0.468033 -0.028712 124 124 124
0.169837 -0.468033 -0.028712 195 195 195
0.333333 -0.333333 0.000000 195 195 195
0.368925 -0.368925 -0.028712 154 154 154
0.468033 -0.169837 -0.028712 149 149 149
0.333333 -0.333333 0.000000 149 149 149
0.500000 -0.066667 0.000000 192 192 192
0.468033 -0.169837 -0.028712 108 108 108
0.510000 -0.333333 0.000000 108 108 108
0.454649 -0.352584 -0.028712 109 109 109
0.510000 -0.333333 0.000000 109 109 109
0.452594 -0.452594 -0.028712 109 109 109
0.454649 -0.352584 -0.028712 111 111 111
0.169837 -0.468033 -0.028712 94 94 94
0.333333 -0.510000 0.000000 94 94 94
0.000000 -0.300000 0.000000 76 76 76
0.127597 -0.255196 0.027811 76 76 76
-0.048737 -0.255196 0.045000 76 76 76
0.217082 -0.134166 0.047315 71 71 71
0.127597 -0.255196 0.027811 71 71 71
0.255194 -0.157721 0.000000 71 71 71
0.000000 -0.300000 0.000000 77 77 77
-0.048737 -0.255196 0.045000 77 77 77
-0.157719 -0.255196 0.000000 77 77 77
-0.048737 -0.255196 -0.045000 77 77 77
-0.048737 -0.255196 -0.045000 76 76 76
0.127597 -0.255196 -0.027811 76 76 76
0.217082 -0.134166 0.047315 87 87 87
0.255194 -0.157721 0.000000 87 87 87
0.285317 0.000000 0.027811 87 87 87
-0.082916 -0.134166 0.076558 189 189 189
0.078861 -0.157721 0.072811 185 185 185
0.000000 0.000000 0.090000 191 191 191
-0.268328 -0.134165 0.000000 205 205 205
-0.206457 -0.157721 0.045000 204 204 204
-0.285317 0.000000 0.027811 210 210 210
-0.082916 -0.134166 -0.076558 122 122 122
-0.206457 -0.157721 -0.045000 122 122 122
-0.176336 0.000000 -0.072812 122 122 122
0.217082 -0.134166 -0.047315 112 112 112
0.078861 -0.157721 -0.072811 112 112 112
0.176336 0.000000 -0.072812 112 112 112
0.217082 -0.134166 0.047315 145 145 145
0.285317 0.000000 0.027811 145 145 145
0.176336 0.000000 0.072812 147 147 147
-0.082916 -0.134166 0.076558 203 203 203
0.000000 0.000000 0.090000 205 205 205
-0.176336 0.000000 0.072812 209 209 209
-0.268328 -0.134165 0.000000 189 189 189
-0.285317 0.000000 0.027811 193 193 193
-0.285317 0.000000 -0.027811 192 192 192
-0.082916 -0.134166 -0.076558 124 124 124
-0.176336 0.000000 -0.072812 124 124 124
0.000000 0.000000 -0.090000 124 124 124
0.217082 -0.134166 -0.047315 110 110 110
0.176336 0.000000 -0.072812 110 110 110
0.285317 0.000000 -0.027811 110 110 110
0.082916 0.134166 0.076558 209 209 209
0.206457 0.157721 0.045000 205 205 205
0.048737 0.255196 0.045000 212 212 212
-0.217082 0.134166 0.047315 246 246 246
-0.078861 0.157721 0.072811 243 243 243
-0.127597 0.255196 0.027811 246 246 246
-0.217082 0.134166 -0.047315 170 170 170
-0.255194 0.157721 0.000000 171 171 171
-0.127597 0.255196 -0.027811 170 170 170
0.082916 0.134166 -0.076558 136 136 136
-0.078861 0.157721 -0.072811 136 136 136
0.048737 0.255196 -0.045000 136 136 136
0.268328 0.134165 0.000000 137 137 137
0.206457 0.157721 -0.045000 137 137 137
0.157719 0.255196 0.000000 137 137 137
0.157719 0.255196 0.000000 155 155 155
0.048737 0.255196 -0.045000 155 155 155
0.000000 0.300000 0.000000 155 155 155
0.157719 0.255196 0.000000 141 141 141
0.206457 0.157721 -0.045000 141 141 141
0.048737 0.255196 -0.045000 141 141 141
0.206457 0.157721 -0.045000 134 134 134
0.082916 0.134166 -0.076558 134 134 134
0.048737 0.255196 -0.045000 134 134 134
-0.127597 0.255196 -0.027811 155 155 155
0.048737 0.255196 -0.045000 143 143 143
-0.078861 0.157721 -0.072811 143 143 143
-0.127597 0.255196 -0.027811 143 143 143
-0.217082 0.134166 -0.047315 143 143 143
-0.127597 0.255196 -0.027811 240 240 240
-0.127597 0.255196 0.027811 241 241 241
0.000000 0.300000 0.000000 238 238 238
-0.127597 0.255196 -0.027811 247 247 247
-0.255194 0.157721 0.000000 248 248 248
-0.127597 0.255196 0.027811 248 248 248
-0.255194 0.157721 0.000000 255 255 255
-0.217082 0.134166 0.047315 255 255 255
-0.127597 0.255196 0.027811 255 255 255
-0.127597 0.255196 0.027811 249 249 249
0.048737 0.255196 0.045000 244 244 244
0.000000 0.300000 0.000000 246 246 246
-0.127597 0.255196 0.027811 242 242 242
-0.078861 0.157721 0.072811 239 239 239
0.048737 0.255196 0.045000 237 237 237
-0.078861 0.157721 0.072811 226 226 226
0.082916 0.134166 0.076558 221 221 221
0.048737 0.255196 0.045000 224 224 224
0.048737 0.255196 0.045000 221 221 221
0.157719 0.255196 0.000000 218 218 218
0.000000 0.300000 0.000000 222 222 222
0.048737 0.255196 0.045000 208 208 208
0.206457 0.157721 0.045000 202 202 202
0.157719 0.255196 0.000000 204 204 204
0.206457 0.157721 0.045000 161 161 161
0.268328 0.134165 0.000000 160 160 160
0.157719 0.255196 0.000000 161 161 161
0.285317 0.000000 -0.027811 120 120 120
0.206457 0.157721 -0.045000 120 120 120
0.268328 0.134165 0.000000 120 120 120
0.285317 0.000000 -0.027811 119 119 119
0.176336 0.000000 -0.072812 119 119 119
0.206457 0.157721 -0.045000 119 119 119
0.176336 0.000000 -0.072812 125 125 125
0.082916 0.134166 -0.076558 125 125 125
0.206457 0.157721 -0.045000 125 125 125
0.000000 0.000000 -0.090000 129 129 129
-0.078861 0.157721 -0.072811 129 129 129
0.082916 0.134166 -0.076558 129 129 129
-0.176336 0.000000 -0.072812 129 129 129
-0.176336 0.000000 -0.072812 134 134 134
-0.217082 0.134166 -0.047315 134 134 134
-0.078861 0.157721 -0.072811 134 134 134
-0.285317 0.000000 -0.027811 154 154 154
-0.255194 0.157721 0.000000 155 155 155
-0.217082 0.134166 -0.047315 154 154 154
-0.285317 0.000000 -0.027811 221 221 221
-0.285317 0.000000 0.027811 222 222 222
-0.255194 0.157721 0.000000 225 225 225
-0.285317 0.000000 0.027811 250 250 250
-0.217082 0.134166 0.047315 254 254 254
-0.255194 0.157721 0.000000 254 254 254
-0.176336 0.000000 0.072812 229 229 229
-0.078861 0.157721 0.072811 231 231 231
-0.217082 0.134166 0.047315 233 233 233
-0.176336 0.000000 0.072812 218 218 218
0.000000 0.000000 0.090000 214 214 214
-0.078861 0.157721 0.072811 220 220 220
0.000000 0.000000 0.090000 211 211 211
0.082916 0.134166 0.076558 212 212 212
-0.078861 0.157721 0.072811 217 217 217
0.176336 0.000000 0.072812 188 188 188
0.206457 0.157721 0.045000 190 190 190
0.082916 0.134166 0.076558 193 193 193
0.176336 0.000000 0.072812 166 166 166
0.285317 0.000000 0.027811 163 163 163
0.206457 0.157721 0.045000 167 167 167
0.285317 0.000000 0.027811 135 135 135
0.268328 0.134165 0.000000 136 136 136
0.206457 0.157721 0.045000 137 137 137
0.176336 0.000000 -0.072812 123 123 123
0.000000 0.000000 -0.090000 123 123 123
0.082916 0.134166 -0.076558 123 123 123
0.176336 0.000000 -0.072812 118 118 118
0.078861 -0.157721 -0.072811 118 118 118
0.000000 0.000000 -0.090000 118 118 118
-0.082916 -0.134166 -0.076558 118 118 118
-0.176336 0.000000 -0.072812 135 135 135
-0.285317 0.000000 -0.027811 135 135 135
-0.217082 0.134166 -0.047315 135 135 135
-0.176336 0.000000 -0.072812 128 128 128
-0.206457 -0.157721 -0.045000 128 128 128
-0.285317 0.000000 -0.027811 128 128 128
-0.206457 -0.157721 -0.045000 127 127 127
-0.268328 -0.134165 0.000000 127 127 127
-0.285317 0.000000 -0.027811 127 127 127
-0.285317 0.000000 0.027811 233 233 233
-0.176336 0.000000 0.072812 232 232 232
-0.217082 0.134166 0.047315 236 236 236
-0.285317 0.000000 0.027811 220 220 220
-0.206457 -0.157721 0.045000 214 214 214
-0.176336 0.000000 0.072812 219 219 219
-0.206457 -0.157721 0.045000 203 203 203
-0.082916 -0.134166 0.076558 202 202 202
-0.176336 0.000000 0.072812 208 208 208
0.000000 0.000000 0.090000 198 198 198
0.176336 0.000000 0.072812 193 193 193
0.082916 0.134166 0.076558 198 198 198
0.000000 0.000000 0.090000 188 188 188
0.078861 -0.157721 0.072811 182 182 182
0.176336 0.000000 0.072812 183 183 183
0.078861 -0.157721 0.072811 164 164 164
0.217082 -0.134166 0.047315 161 161 161
0.176336 0.000000 0.072812 164 164 164
0.285317 0.000000 0.027811 104 104 104
0.285317 0.000000 -0.027811 104 104 104
0.268328 0.134165 0.000000 104 104 104
0.285317 0.000000 0.027811 81 81 81
0.255194 -0.157721 0.000000 81 81 81
0.285317 0.000000 -0.027811 81 81 81
0.217082 -0.134166 -0.047315 87 87 87
0.285317 0.000000 -0.027811 87 87 87
0.127597 -0.255196 -0.027811 99 99 99
0.078861 -0.157721 -0.072811 99 99 99
0.217082 -0.134166 -0.047315 99 99 99
-0.048737 -0.255196 -0.045000 99 99 99
-0.048737 -0.255196 -0.045000 110 110 110
-0.082916 -0.134166 -0.076558 110 110 110
0.078861 -0.157721 -0.072811 110 110 110
-0.048737 -0.255196 -0.045000 112 112 112
-0.206457 -0.157721 -0.045000 112 112 112
-0.082916 -0.134166 -0.076558 112 112 112
-0.048737 -0.255196 -0.045000 102 102 102
-0.157719 -0.255196 0.000000 102 102 102
-0.206457 -0.157721 -0.045000 102 102 102
-0.157719 -0.255196 0.000000 108 108 108
-0.268328 -0.134165 0.000000 108 108 108
-0.206457 -0.157721 -0.045000 108 108 108
-0.157719 -0.255196 0.000000 147 147 147
-0.206457 -0.157721 0.045000 150 150 150
-0.268328 -0.134165 0.000000 150 150 150
-0.157719 -0.255196 0.000000 146 146 146
-0.048737 -0.255196 0.045000 146 146 146
-0.206457 -0.157721 0.045000 149 149 149
-0.048737 -0.255196 0.045000 175 175 175
-0.082916 -0.134166 0.076558 179 179 179
-0.206457 -0.157721 0.045000 180 180 180
0.127597 -0.255196 -0.027811 71 71 71
0.217082 -0.134166 -0.047315 71 71 71
0.255194 -0.157721 0.000000 15 15 15
0.127597 -0.255196 0.027811 15 15 15
0.127597 -0.255196 -0.027811 15 15 15
0.127597 -0.255196 0.027811 3 3 3
0.000000 -0.300000 0.000000 3 3 3
0.127597 -0.255196 -0.027811 3 3 3
-0.048737 -0.255196 0.045000 168 168 168
0.078861 -0.157721 0.072811 168 168 168
-0.082916 -0.134166 0.076558 171 171 171
-0.048737 -0.255196 0.045000 136 136 136
0.127597 -0.255196 0.027811 134 134 134
0.078861 -0.157721 0.072811 136 136 136
0.127597 -0.255196 0.027811 127 127 127
0.217082 -0.134166 0.047315 128 128 128
0.078861 -0.157721 0.072811 129 129 129
-0.500000 0.500000 0.000000 254 254 254
-0.066667 0.500000 0.000000 76 76 76
-0.500000 0.066667 0.000000 87 87 87
-0.454649 0.352584 0.028712 244 244 244
-0.500000 0.500000 0.000000 249 249 249
-0.352584 0.454649 0.028712 249 249 249
0.352584 0.454649 0.028712 222 222 222
0.066667 0.500000 0.000000 187 187 187
0.368925 0.368925 0.028712 220 220 220
0.500000 0.500000 0.000000 128 128 128
0.352584 0.454649 0.028712 220 220 220
-0.352584 0.454649 -0.028712 145 145 145
-0.066667 0.500000 0.000000 67 67 67
-0.368925 0.368925 -0.028712 97 97 97
-0.500000 0.066667 0.000000 137 137 137
-0.500000 0.500000 0.000000 136 136 136
-0.352584 0.454649 -0.028712 146 146 146
0.500000 0.500000 0.000000 146 146 146
0.066667 0.500000 0.000000 98 98 98
0.500000 0.066667 0.000000 118 118 118
0.454649 0.352584 -0.028712 113 113 113
0.500000 0.500000 0.000000 112 112 112
-0.352584 -0.454649 0.028712 121 121 121
-0.066667 -0.500000 0.000000 218 218 218
-0.368925 -0.368925 0.028712 194 194 194
-0.500000 -0.066667 0.000000 229 229 229
-0.500000 -0.500000 0.000000 209 209 209
0.500000 -0.500000 0.000000 101 101 101
0.066667 -0.500000 0.000000 255 255 255
0.500000 -0.066667 0.000000 252 252 252
0.454649 -0.352584 0.028712 121 121 121
0.500000 -0.500000 0.000000 116 116 116
0.352584 -0.454649 0.028712 108 108 108
-0.500000 -0.500000 0.000000 94 94 94
-0.066667 -0.500000 0.000000 144 144 144
-0.500000 -0.066667 0.000000 128 128 128
-0.454649 -0.352584 -0.028712 133 133 133
-0.500000 -0.500000 0.000000 133 133 133
0.352584 -0.454649 -0.028712 95 95 95
0.066667 -0.500000 0.000000 196 196 196
0.368925 -0.368925 -0.028712 149 149 149
0.500000 -0.500000 0.000000 109 109 109
0.352584 -0.454649 -0.028712 94 94 94
3 0 1 2
3 3 4 5
3 5 6 7
3 5 4 6
3 4 8 6
3 9 10 11
3 12 13 14
3 15 16 17
3 18 19 20
3 0 21 22
3 23 24 25
3 26 27 28
3 27 29 30
3 27 30 28
3 28 30 31
3 32 33 34
3 35 36 37
3 38 39 40
3 41 42 43
3 44 45 46
3 47 48 49
3 50 51 52
3 51 53 54
3 51 54 52
3 52 54 55
3 56 57 58
3 59 60 61
3 62 63 64
3 65 66 67
3 68 69 70
3 71 72 73
3 74 75 76
3 76 77 78
3 76 75 77
3 75 79 77
3 80 81 82
3 83 84 85
3 86 87 88
3 89 90 91
3 92 93 94
3 95 96 97
3 98 99 100
3 99 101 102
3 99 102 100
3 100 102 103
3 104 105 106
3 107 108 109
3 110 111 112
3 113 114 115
3 116 95 117
3 118 119 120
3 121 122 123
3 123 124 125
3 123 122 124
3 122 126 124
3 127 128 129
3 130 131 132
3 133 134 135
3 136 137 138
3 139 140 141
3 142 143 144
3 145 146 147
3 147 148 149
3 147 146 148
3 146 150 148
3 151 152 153
3 154 155 146
3 156 157 158
3 159 157 160
3 161 162 117
3 163 164 165
3 166 167 168
3 167 169 170
3 167 170 168
3 168 170 171
3 172 173 174
3 175 176 177
3 178 179 180
3 181 182 183
3 184 185 141
3 186 187 188
3 189 190 191
3 192 193 194
3 192 194 195
3 186 196 197
3 198 199 200
3 201 202 203
3 204 205 206
3 207 208 209
3 210 211 212
3 213 214 215
3 216 217 218
3 219 220 221
3 222 223 224
3 225 226 227
3 228 229 230
3 231 232 233
3 234 235 236
3 237 238 239
3 240 241 242
3 243 244 245
3 246 247 248
3 249 250 251
3 244 252 245
3 253 254 255
3 254 256 255
3 257 258 259
3 260 261 262
3 263 264 265
3 266 267 268
3 269 270 271
3 272 273 274
3 275 276 277
3 278 279 280
3 281 282 283
3 284 285 286
3 287 288 289
3 290 291 292
3 293 294 295
3 293 296 294
3 297 298 299
3 300 301 302
3 303 304 305
3 306 307 308
3 309 310 311
3 312 313 314
3 315 316 317
3 318 319 320
3 321 322 323
3 324 325 326
3 327 328 329
3 330 331 332
3 331 333 332
3 334 335 336
3 337 338 339
3 340 341 342
3 343 344 345
3 346 347 348
3 349 350 351
3 352 353 354
3 355 356 357
3 358 359 360
3 361 362 363
3 364 365 366
3 199 367 368
3 369 370 371
3 369 372 370
3 373 374 375
3 376 377 378
3 379 380 381
3 382 383 384
3 385 386 387
3 388 389 390
3 391 392 393
3 191 394 395
3 396 397 398
3 399 400 401
3 402 403 404
3 405 406 407
3 408 409 410
3 0 411 1
3 9 412 10
3 12 413 13
3 15 414 16
3 18 415 19
3 0 416 21
3 23 417 24
3 32 418 33
3 35 419 36
3 38 88 39
3 41 420 42
3 44 421 45
3 47 422 48
3 56 423 57
3 59 424 60
3 62 425 63
3 65 426 66
3 68 427 69
3 71 428 72
3 80 429 81
3 83 430 84
3 86 431 87
3 89 432 90
3 92 73 93
3 95 433 96
3 104 434 105
3 107 435 108
3 110 436 111
3 113 437 114
3 116 433 95
3 118 438 119
3 127 439 128
3 130 440 131
3 133 441 134
3 136 442 137
3 139 443 140
3 142 444 143
3 151 445 152
3 154 446 155
3 156 447 157
3 159 448 157
3 161 144 162
3 163 449 164
3 172 450 173
3 175 451 176
3 178 135 179
3 181 452 182
3 184 453 185
