ply
format ascii 1.0
comment Created by Blender 2.79 (sub 0) - www.blender.org, source file: 'UI.blend'
element vertex 82
property float x
property float y
property float z
property uchar red
property uchar green
property uchar blue
element face 76
property list uchar uint vertex_indices
end_header
-0.166667 -0.500000 0.050000 115 115 115
-0.500000 -0.500000 -0.050000 116 116 116
-0.166667 -0.500000 -0.050000 115 115 115
-0.500000 0.500000 -0.050000 255 255 255
-0.166667 0.500000 0.050000 255 255 255
-0.166667 0.500000 -0.050000 255 255 255
0.500000 0.500000 -0.050000 255 255 255
0.500000 0.166667 0.050000 241 241 241
0.500000 0.166667 -0.050000 116 116 116
-0.500000 0.166667 0.050000 255 255 255
-0.500000 0.166667 -0.050000 255 255 255
0.166667 0.500000 -0.050000 255 255 255
0.500000 0.500000 0.050000 255 255 255
-0.500000 0.166667 -0.050000 180 180 180
-0.166667 0.500000 0.050000 179 179 179
-0.500000 0.166667 0.050000 179 179 179
0.500000 -0.500000 0.050000 115 115 115
0.166667 -0.500000 -0.050000 255 255 255
0.500000 -0.500000 -0.050000 127 127 127
0.500000 0.166667 0.050000 100 100 100
0.500000 0.166667 -0.050000 115 115 115
-0.500000 -0.166667 0.050000 255 255 255
-0.500000 -0.500000 -0.050000 255 255 255
-0.500000 -0.500000 0.050000 255 255 255
-0.500000 -0.166667 -0.050000 255 255 255
0.500000 -0.166667 -0.050000 146 146 146
0.500000 -0.166667 0.050000 102 102 102
0.166667 -0.500000 -0.050000 145 145 145
0.166667 -0.500000 0.050000 145 145 145
-0.500000 0.500000 0.050000 255 255 255
0.500000 0.166667 -0.050000 255 255 255
0.166666 0.500000 0.050000 255 255 255
0.500000 -0.166667 0.050000 105 105 105
0.500000 -0.166667 -0.050000 255 255 255
0.500000 -0.500000 -0.050000 255 255 255
-0.166667 -0.500000 -0.050000 255 255 255
-0.500000 -0.500000 0.050000 107 107 107
-0.260000 0.060000 0.040000 255 255 255
-0.260000 -0.060000 -0.040000 115 115 115
-0.260000 -0.060000 0.040000 119 119 119
0.060667 0.060000 -0.040000 255 255 255
0.260000 -0.060000 -0.040000 255 255 255
0.060667 -0.060000 -0.040000 255 255 255
0.260000 0.060000 -0.040000 115 115 115
0.260000 -0.060000 0.040000 115 115 115
0.260000 -0.060000 -0.040000 115 115 115
-0.060667 0.060000 0.040000 210 210 210
-0.260000 -0.060000 0.040000 115 115 115
-0.060667 -0.060000 0.040000 115 115 115
0.060667 -0.060000 0.040000 117 117 117
0.060667 -0.060000 -0.040000 115 115 115
-0.260000 0.060000 -0.040000 255 255 255
-0.060667 0.060000 -0.040000 208 208 208
0.260000 0.060000 0.040000 120 120 120
0.060667 -0.060000 0.040000 115 115 115
0.060667 0.060000 0.040000 165 165 165
-0.060667 0.260000 0.040000 210 210 210
0.060667 0.060000 -0.040000 162 162 162
0.060667 -0.260000 -0.040000 115 115 115
-0.060667 -0.060000 -0.040000 115 115 115
-0.060667 -0.060000 -0.040000 255 255 255
-0.260000 -0.060000 -0.040000 255 255 255
-0.060667 0.060000 -0.040000 255 255 255
-0.060667 0.260000 -0.040000 208 208 208
0.060667 0.260000 0.040000 165 165 165
0.060667 0.260000 -0.040000 162 162 162
0.060667 0.260000 -0.040000 255 255 255
-0.060667 -0.260000 0.040000 118 118 118
-0.060667 -0.260000 -0.040000 115 115 115
-0.060667 -0.060000 0.040000 118 118 118
-0.060667 -0.260000 -0.040000 255 255 255
0.060667 -0.260000 0.040000 115 115 115
-0.500000 -0.500000 0.050000 190 190 190
-0.166667 0.500000 -0.050000 179 179 179
0.166667 -0.500000 0.050000 255 255 255
0.500000 -0.166667 0.050000 220 220 220
0.500000 -0.166667 -0.050000 133 133 133
0.260000 0.060000 -0.040000 255 255 255
0.060667 -0.260000 0.040000 117 117 117
-0.060667 0.260000 -0.040000 255 255 255
0.060667 -0.260000 -0.040000 255 255 255
-0.060667 -0.260000 0.040000 115 115 115
3 0 1 2
3 3 4 5
3 6 7 8
3 9 3 10
3 11 12 6
3 13 14 15
3 16 17 18
3 19 11 20
3 21 22 23
3 24 0 2
3 25 16 18
3 26 27 28
3 15 14 29
3 10 3 5
3 30 11 6
3 19 12 31
3 28 16 32
3 17 33 34
3 22 24 35
3 36 0 21
3 37 38 39
3 40 41 42
3 43 44 45
3 46 47 48
3 45 49 50
3 51 46 52
3 53 54 44
3 55 56 46
3 57 53 43
3 49 58 50
3 55 48 54
3 59 39 38
3 51 60 61
3 62 42 60
3 63 64 65
3 62 66 40
3 46 63 52
3 57 64 55
3 58 67 68
3 59 67 69
3 42 70 60
3 48 71 54
3 0 72 1
3 3 29 4
3 6 12 7
3 9 29 3
3 11 31 12
3 13 73 14
3 16 74 17
3 19 31 11
3 21 24 22
3 24 21 0
3 25 75 16
3 26 76 27
3 37 51 38
3 40 77 41
3 43 53 44
3 46 37 47
3 45 44 49
3 51 37 46
3 53 55 54
3 55 64 56
3 57 55 53
3 49 78 58
3 55 46 48
3 59 69 39
3 51 62 60
3 62 40 42
3 63 56 64
3 62 79 66
3 46 56 63
3 57 65 64
3 58 78 67
3 59 68 67
3 42 80 70
3 48 81 71
