ply
format ascii 1.0
comment Created by Blender 2.79 (sub 0) - www.blender.org, source file: 'UI.blend'
element vertex 291
property float x
property float y
property float z
property uchar red
property uchar green
property uchar blue
element face 400
property list uchar uint vertex_indices
end_header
-0.166667 -0.500000 0.050000 122 122 122
-0.500000 -0.500000 -0.050000 122 122 122
-0.166667 -0.500000 -0.050000 122 122 122
-0.500000 0.500000 -0.050000 214 214 214
-0.166667 0.500000 0.050000 214 214 214
-0.166667 0.500000 -0.050000 214 214 214
0.500000 0.500000 -0.050000 122 122 122
0.500000 0.166667 0.050000 123 123 123
0.500000 0.166667 -0.050000 122 122 122
-0.500000 0.166667 0.050000 214 214 214
-0.500000 0.166667 -0.050000 214 214 214
0.166667 0.500000 -0.050000 214 214 214
0.500000 0.500000 0.050000 214 214 214
0.500000 0.500000 -0.050000 214 214 214
-0.500000 0.166667 -0.050000 122 122 122
-0.500000 0.166667 0.050000 162 162 162
0.500000 -0.500000 0.050000 99 99 99
0.166667 -0.500000 -0.050000 214 214 214
0.500000 -0.500000 -0.050000 99 99 99
0.500000 0.166667 0.050000 214 214 214
0.500000 0.166667 -0.050000 214 214 214
-0.500000 -0.166667 0.050000 214 214 214
-0.500000 -0.500000 -0.050000 214 214 214
-0.500000 -0.500000 0.050000 214 214 214
-0.500000 -0.166667 -0.050000 214 214 214
0.500000 -0.166667 -0.050000 210 210 210
0.500000 -0.166667 0.050000 214 214 214
0.166667 -0.500000 0.050000 214 214 214
-0.500000 0.166667 0.050000 152 152 152
-0.500000 0.500000 0.050000 214 214 214
0.500000 0.166667 0.050000 122 122 122
0.500000 0.500000 0.050000 138 138 138
0.166666 0.500000 0.050000 214 214 214
0.166667 -0.500000 0.050000 153 153 153
0.500000 -0.166667 0.050000 123 123 123
0.500000 -0.166667 -0.050000 214 214 214
0.500000 -0.500000 -0.050000 214 214 214
-0.166667 -0.500000 -0.050000 214 214 214
-0.500000 -0.500000 0.050000 124 124 124
-0.500000 -0.166667 0.050000 195 195 195
0.257841 0.070500 0.056250 132 132 132
0.257841 0.051560 0.056250 161 161 161
0.276259 0.051560 0.056250 132 132 132
0.257841 0.070500 0.056250 214 214 214
0.276259 0.070500 0.039375 214 214 214
0.257841 0.070500 0.039375 214 214 214
0.276259 0.070500 0.039375 130 130 130
0.069015 0.070500 0.056250 189 189 189
0.000000 0.051560 0.056250 189 189 189
0.069015 0.051560 0.056250 189 189 189
0.069015 0.070500 0.039375 214 214 214
0.000000 0.070500 0.056250 214 214 214
0.069015 0.070500 0.056250 214 214 214
0.078217 0.070500 0.000000 214 214 214
0.078217 0.070500 0.039375 214 214 214
0.276259 0.051560 0.039375 123 123 123
0.276259 0.070500 0.000000 122 122 122
0.276259 0.070500 0.039375 133 133 133
0.257841 0.070500 0.000000 214 214 214
0.069015 -0.071551 0.065583 177 177 177
0.276259 0.051560 0.056250 136 136 136
0.290258 -0.071551 0.039375 122 122 122
0.257841 -0.071551 0.065583 122 122 122
0.290258 -0.071551 0.065583 122 122 122
0.290258 -0.071551 -0.000000 122 122 122
0.276259 0.051560 0.000000 122 122 122
-0.257841 0.070500 0.056250 214 214 214
-0.276259 0.051560 0.056250 208 208 208
-0.257841 0.051560 0.056250 214 214 214
-0.257841 0.070500 0.039375 214 214 214
-0.276259 0.070500 0.039375 214 214 214
-0.276259 0.070500 0.039375 212 212 212
0.000000 0.070500 0.000000 214 214 214
0.000000 0.070500 0.039375 214 214 214
-0.276259 0.070500 0.000000 214 214 214
-0.276259 0.051560 0.039375 214 214 214
-0.257841 0.070500 0.000000 214 214 214
-0.257841 -0.071551 0.065583 189 189 189
-0.290258 -0.071551 0.039375 214 214 214
-0.276259 0.051560 0.056250 214 214 214
-0.290258 -0.071551 -0.000000 214 214 214
-0.276259 0.051560 0.000000 214 214 214
0.257841 0.070500 -0.056250 214 214 214
0.276259 0.051560 -0.056250 214 214 214
0.257841 0.051560 -0.056250 214 214 214
0.257841 0.070500 -0.039375 214 214 214
0.276259 0.070500 -0.039375 214 214 214
0.000000 0.051560 -0.056250 214 214 214
0.069015 0.070500 -0.056250 214 214 214
0.069015 0.051560 -0.056250 214 214 214
0.000000 0.070500 -0.056250 214 214 214
0.069015 0.070500 -0.039375 214 214 214
0.078217 0.070500 -0.039375 214 214 214
0.276259 0.051560 -0.039375 122 122 122
0.276259 0.070500 -0.039375 122 122 122
0.069015 -0.071551 -0.065583 214 214 214
0.290258 -0.071551 -0.039375 119 119 119
0.276259 0.051560 -0.056250 122 122 122
0.257841 -0.071551 -0.065583 214 214 214
-0.257841 0.070500 -0.056250 214 214 214
-0.257841 0.051560 -0.056250 214 214 214
-0.276259 0.051560 -0.056250 214 214 214
-0.276259 0.070500 -0.039375 214 214 214
-0.257841 0.070500 -0.039375 214 214 214
-0.276259 0.070500 -0.039375 214 214 214
0.000000 0.070500 -0.039375 214 214 214
-0.276259 0.051560 -0.039375 214 214 214
-0.257841 -0.071551 -0.065583 214 214 214
-0.290258 -0.071551 -0.039375 214 214 214
-0.290258 -0.071551 -0.065583 214 214 214
0.257841 -0.213603 0.056250 99 99 99
0.276259 -0.194663 0.056250 99 99 99
0.257841 -0.194663 0.056250 99 99 99
0.257841 -0.213603 0.039375 99 99 99
0.276259 -0.213603 0.039375 99 99 99
0.000000 -0.194663 0.056250 123 123 123
0.069015 -0.213603 0.056250 122 122 122
0.069015 -0.194663 0.056250 122 122 122
0.000000 -0.213603 0.056250 122 122 122
0.069015 -0.213603 0.039375 122 122 122
0.078217 -0.213603 -0.000000 122 122 122
0.078217 -0.213603 0.039375 122 122 122
0.276259 -0.213603 -0.000000 99 99 99
0.276259 -0.194663 0.039375 99 99 99
0.257841 -0.213603 -0.000000 99 99 99
0.276259 -0.194663 -0.000000 99 99 99
-0.257841 -0.213603 0.056250 125 125 125
-0.257841 -0.194663 0.056250 140 140 140
-0.276259 -0.194663 0.056250 155 155 155
-0.257841 -0.213603 0.056250 139 139 139
-0.276259 -0.213603 0.039375 132 132 132
-0.257841 -0.213603 0.039375 125 125 125
-0.276259 -0.213603 0.039375 124 124 124
0.000000 -0.213603 -0.000000 122 122 122
0.000000 -0.213603 0.039375 122 122 122
-0.276259 -0.194663 0.039375 214 214 214
-0.276259 -0.213603 -0.000000 214 214 214
-0.276259 -0.213603 0.039375 214 214 214
-0.257841 -0.213603 -0.000000 122 122 122
-0.276259 -0.194663 0.056250 214 214 214
-0.290258 -0.071551 0.065583 189 189 189
-0.276259 -0.194663 -0.000000 214 214 214
0.257841 -0.213603 -0.056250 214 214 214
0.257841 -0.194663 -0.056250 214 214 214
0.276259 -0.194663 -0.056250 214 214 214
0.257841 -0.213603 -0.056250 99 99 99
0.276259 -0.213603 -0.039375 99 99 99
0.257841 -0.213603 -0.039375 99 99 99
0.276259 -0.213603 -0.039375 214 214 214
0.069015 -0.213603 -0.056250 214 214 214
0.000000 -0.194663 -0.056250 214 214 214
0.069015 -0.194663 -0.056250 214 214 214
0.069015 -0.213603 -0.039375 118 118 118
0.000000 -0.213603 -0.056250 122 122 122
0.069015 -0.213603 -0.056250 108 108 108
0.078217 -0.213603 -0.039375 112 112 112
0.276259 -0.194663 -0.039375 99 99 99
0.276259 -0.194663 -0.056250 99 99 99
0.290258 -0.071551 -0.065583 214 214 214
-0.257841 -0.213603 -0.056250 214 214 214
-0.276259 -0.194663 -0.056250 214 214 214
-0.257841 -0.194663 -0.056250 214 214 214
-0.257841 -0.213603 -0.056250 122 122 122
-0.257841 -0.213603 -0.039375 122 122 122
-0.276259 -0.213603 -0.039375 122 122 122
-0.276259 -0.213603 -0.039375 214 214 214
0.000000 -0.213603 -0.039375 122 122 122
-0.276259 -0.194663 -0.039375 214 214 214
0.078217 -0.194663 -0.056250 214 214 214
0.078217 -0.071551 -0.065583 214 214 214
0.069015 -0.213603 -0.000000 122 122 122
0.078217 -0.213603 -0.056250 103 103 103
0.078217 -0.213603 -0.056250 214 214 214
0.078217 -0.194663 0.056250 122 122 122
0.078217 -0.071551 0.065583 172 172 172
0.078217 -0.213603 0.056250 122 122 122
0.078217 0.051560 -0.056250 214 214 214
0.069015 0.070500 0.000000 214 214 214
0.078217 0.070500 -0.056250 214 214 214
0.078217 0.051560 0.056250 189 189 189
0.078217 0.070500 0.056250 214 214 214
0.069015 0.070500 0.039375 189 189 189
0.078217 0.070500 0.039375 189 189 189
0.069015 0.051560 0.056250 214 214 214
0.078217 0.070500 0.039375 214 214 214
0.078217 0.070500 0.056250 189 189 189
-0.084184 0.262714 0.016366 212 212 212
-0.034333 0.232081 0.016366 214 214 214
-0.042917 0.275233 0.016366 214 214 214
0.122217 0.242385 0.016366 125 125 125
0.124442 0.183918 0.016366 177 177 177
0.155552 0.215027 0.016366 122 122 122
-0.097773 0.205803 0.016366 214 214 214
-0.122217 0.242385 0.016366 213 213 213
0.067348 0.222066 0.016366 189 189 189
0.084184 0.262714 0.016366 166 166 166
-0.155552 0.215027 0.016366 214 214 214
0.042917 0.275233 0.016366 214 214 214
-0.146328 0.157248 0.016366 214 214 214
-0.182910 0.181692 0.016366 214 214 214
0.000000 0.279459 0.016366 214 214 214
0.034333 0.232081 0.016366 202 202 202
-0.203239 0.143659 0.016366 214 214 214
-0.215757 0.102392 0.016366 214 214 214
-0.162591 0.126823 0.016366 214 214 214
0.215757 0.102392 0.016366 122 122 122
0.175208 0.067383 0.016366 189 189 189
0.219205 0.067383 0.016366 175 175 175
0.162591 0.126823 0.016366 148 148 148
0.203239 0.143659 0.016366 122 122 122
0.182910 0.181692 0.016366 122 122 122
0.146328 0.157248 0.016366 150 150 150
-0.084184 0.262714 -0.015023 214 214 214
-0.034333 0.232081 -0.015023 214 214 214
-0.067348 0.222066 -0.015023 214 214 214
0.122217 0.242385 -0.015023 214 214 214
0.124442 0.183918 -0.015023 214 214 214
0.097773 0.205803 -0.015023 214 214 214
-0.097773 0.205803 -0.015023 214 214 214
-0.122217 0.242385 -0.015023 214 214 214
0.067348 0.222066 -0.015023 214 214 214
0.084184 0.262714 -0.015023 214 214 214
-0.155552 0.215027 -0.015023 214 214 214
-0.124442 0.183918 -0.015023 214 214 214
0.042917 0.275233 -0.015023 214 214 214
0.034333 0.232081 -0.015023 214 214 214
-0.146328 0.157248 -0.015023 214 214 214
-0.182910 0.181692 -0.015023 214 214 214
0.000000 0.279459 -0.015023 214 214 214
0.000000 0.235461 -0.015023 214 214 214
-0.203239 0.143659 -0.015024 214 214 214
-0.162591 0.126823 -0.015024 214 214 214
-0.215757 0.102392 -0.015024 214 214 214
-0.172606 0.093808 -0.015024 214 214 214
0.215757 0.102392 -0.015024 214 214 214
0.175208 0.067383 -0.015024 214 214 214
0.172605 0.093808 -0.015024 214 214 214
0.162591 0.126823 -0.015024 214 214 214
0.203239 0.143659 -0.015024 214 214 214
0.182910 0.181692 -0.015023 214 214 214
0.146328 0.157248 -0.015023 214 214 214
-0.042917 0.275233 -0.015023 214 214 214
0.155552 0.215027 -0.015023 214 214 214
-0.175208 0.067383 0.016366 214 214 214
-0.172606 0.093808 0.016366 214 214 214
0.182910 0.181692 -0.015023 122 122 122
0.155552 0.215027 -0.015023 122 122 122
0.162591 0.126823 0.016366 214 214 214
0.172605 0.093808 0.016366 214 214 214
0.122217 0.242385 -0.015023 122 122 122
0.122217 0.242385 0.016366 214 214 214
0.084184 0.262714 -0.015023 214 214 214
0.084184 0.262714 0.016366 214 214 214
0.124442 0.183918 0.016366 214 214 214
0.146328 0.157248 0.016366 214 214 214
-0.084184 0.262714 0.016366 214 214 214
0.097773 0.205803 0.016366 214 214 214
-0.122217 0.242385 0.016366 214 214 214
0.067348 0.222066 0.016366 214 214 214
0.097773 0.205803 -0.015023 213 213 213
0.000000 0.235461 0.016366 214 214 214
0.034333 0.232081 0.016366 214 214 214
-0.067348 0.222066 0.016366 214 214 214
-0.124442 0.183918 0.016366 214 214 214
-0.162591 0.126823 0.016366 214 214 214
0.219205 0.067383 0.016366 196 196 196
0.215757 0.102392 -0.015024 123 123 123
0.203239 0.143659 -0.015024 122 122 122
-0.175208 0.067383 -0.015024 214 214 214
-0.175208 0.067383 0.016366 190 190 190
-0.219206 0.067383 0.016366 214 214 214
-0.219206 0.067383 -0.015024 214 214 214
0.097773 0.205803 0.016366 189 189 189
-0.172606 0.093808 0.016366 206 206 206
0.172605 0.093808 0.016366 178 178 178
0.219205 0.067383 -0.015024 214 214 214
0.219205 0.067383 -0.015024 163 163 163
0.175208 0.067383 0.016366 214 214 214
0.000000 0.070500 0.056250 189 189 189
0.276259 0.070500 0.000000 214 214 214
0.000000 -0.071551 0.065583 189 189 189
-0.290258 -0.071551 0.065583 214 214 214
0.000000 -0.071551 -0.065583 214 214 214
0.290258 -0.071551 -0.065583 109 109 109
0.290258 -0.071551 -0.065583 172 172 172
0.257841 -0.071551 -0.065583 162 162 162
-0.276259 -0.213603 -0.000000 122 122 122
0.000000 -0.213603 -0.056250 214 214 214
-0.500000 -0.500000 0.050000 132 132 132
-0.166667 0.500000 -0.050000 122 122 122
0.500000 -0.166667 0.050000 125 125 125
3 0 1 2
3 3 4 5
3 6 7 8
3 9 3 10
3 11 12 13
3 14 4 15
3 16 17 18
3 19 11 20
3 21 22 23
3 24 0 2
3 25 16 18
3 26 17 27
3 28 4 29
3 10 3 5
3 20 11 13
3 30 31 32
3 33 16 34
3 17 35 36
3 22 24 37
3 38 0 39
3 40 41 42
3 43 44 45
3 40 42 46
3 47 48 49
3 50 51 52
3 45 53 54
3 55 56 57
3 44 58 45
3 48 59 49
3 60 61 55
3 42 62 63
3 55 64 65
3 60 55 57
3 66 67 68
3 66 69 70
3 66 71 67
3 48 66 68
3 51 69 66
3 72 69 73
3 74 75 70
3 76 70 69
3 77 48 68
3 78 79 75
3 67 77 68
3 80 75 81
3 79 70 75
3 82 83 84
3 82 85 86
3 82 86 83
3 87 88 89
3 90 91 88
3 53 85 92
3 56 93 94
3 58 86 85
3 95 87 89
3 96 97 93
3 83 98 84
3 64 93 65
3 97 94 93
3 99 100 101
3 99 102 103
3 99 101 104
3 99 87 100
3 103 90 99
3 103 72 105
3 106 74 104
3 102 76 103
3 87 107 100
3 101 108 106
3 101 107 109
3 106 80 81
3 101 106 104
3 110 111 112
3 110 113 114
3 110 114 111
3 115 116 117
3 118 119 116
3 120 113 121
3 122 123 114
3 124 114 113
3 59 115 117
3 61 111 123
3 111 62 112
3 64 123 125
3 111 114 123
3 126 127 128
3 129 130 131
3 126 128 132
3 126 115 127
3 131 118 129
3 131 133 134
3 135 136 137
3 130 138 131
3 115 77 127
3 139 78 135
3 128 77 140
3 135 80 141
3 139 135 137
3 142 143 144
3 145 146 147
3 142 144 148
3 149 150 151
3 152 153 154
3 147 120 155
3 156 122 146
3 146 124 147
3 150 95 151
3 157 96 156
3 144 98 158
3 156 64 125
3 157 156 146
3 159 160 161
3 162 163 164
3 159 165 160
3 150 159 161
3 153 163 162
3 133 163 166
3 136 167 165
3 138 164 163
3 107 150 161
3 108 160 167
3 160 107 161
3 80 167 141
3 160 165 167
3 168 98 143
3 151 169 168
3 152 133 166
3 155 170 152
3 147 171 145
3 155 154 171
3 142 168 143
3 172 151 168
3 62 173 112
3 174 117 173
3 133 119 134
3 170 121 119
3 175 113 110
3 116 121 175
3 173 110 112
3 117 175 173
3 98 176 84
3 169 89 176
3 72 91 105
3 177 92 91
3 178 85 82
3 88 92 178
3 176 82 84
3 89 178 176
3 179 62 41
3 49 174 179
3 50 72 73
3 54 177 50
3 180 43 45
3 181 49 182
3 40 179 41
3 183 50 52
3 184 183 180
3 49 179 185
3 186 187 188
3 189 190 191
3 192 186 193
3 194 189 195
3 196 192 193
3 197 194 195
3 198 196 199
3 200 201 197
3 202 198 199
3 203 204 202
3 205 206 207
3 208 205 209
3 210 208 209
3 187 200 188
3 191 211 210
3 212 213 214
3 215 216 217
3 212 218 219
3 215 220 221
3 222 218 223
3 224 220 225
3 222 226 227
3 228 225 229
3 230 226 231
3 232 231 233
3 234 235 236
3 234 237 238
3 239 237 240
3 228 213 241
3 242 240 216
3 243 233 244
3 209 245 210
3 210 246 191
3 247 236 248
3 191 249 189
3 247 240 237
3 250 251 252
3 200 241 188
3 253 240 254
3 252 224 197
3 212 255 188
3 256 216 253
3 197 228 200
3 255 219 257
3 258 259 256
3 187 229 260
3 257 222 196
3 261 220 258
3 262 213 187
3 196 227 199
3 260 225 261
3 192 214 262
3 202 227 230
3 263 218 192
3 203 230 232
3 198 223 263
3 264 226 198
3 265 266 205
3 244 231 264
3 205 267 209
3 268 232 233
3 235 248 236
3 269 203 270
3 270 232 271
3 186 262 187
3 189 272 190
3 262 186 192
3 194 272 189
3 196 263 192
3 197 201 194
3 198 263 196
3 200 260 201
3 202 204 198
3 203 273 204
3 205 274 206
3 208 274 205
3 210 211 208
3 187 260 200
3 191 190 211
3 212 241 213
3 215 242 216
3 212 214 218
3 215 217 220
3 222 219 218
3 224 221 220
3 222 223 226
3 228 224 225
3 230 227 226
3 232 230 231
3 234 275 235
3 234 236 237
3 239 238 237
3 228 229 213
3 242 239 240
3 243 268 233
3 209 267 245
3 210 245 246
3 247 237 236
3 191 246 249
3 247 254 240
3 250 215 251
3 200 228 241
3 253 216 240
3 252 251 224
3 188 241 212
3 256 217 216
3 197 224 228
3 255 212 219
3 258 220 217
3 187 213 229
3 257 219 222
3 261 225 220
3 262 214 213
3 196 222 227
3 260 229 225
3 192 218 214
3 202 199 227
3 263 223 218
3 203 202 230
3 198 226 223
3 264 231 226
3 265 276 266
3 244 233 231
3 205 266 267
3 268 271 232
3 235 277 248
3 269 273 203
3 270 203 232
3 47 278 48
3 50 73 51
3 45 58 53
3 55 65 56
3 44 279 58
3 48 280 59
3 60 63 61
3 42 41 62
3 55 61 64
3 48 278 66
3 51 73 69
3 72 76 69
3 74 81 75
3 76 74 70
3 77 280 48
3 78 281 79
3 67 140 77
3 80 78 75
3 87 90 88
3 90 105 91
3 53 58 85
3 56 65 93
3 58 279 86
3 95 282 87
3 96 283 97
3 97 284 285
3 64 96 93
3 99 90 87
3 103 105 90
3 103 76 72
3 106 81 74
3 102 74 76
3 87 282 107
3 101 109 108
3 101 100 107
3 106 108 80
3 115 118 116
3 118 134 119
3 120 124 113
3 122 125 123
3 124 122 114
3 59 280 115
3 61 63 111
3 111 63 62
3 64 61 123
3 126 118 115
3 131 134 118
3 131 138 133
3 135 141 136
3 130 286 138
3 115 280 77
3 139 281 78
3 128 127 77
3 135 78 80
3 149 287 150
3 152 166 153
3 147 124 120
3 156 125 122
3 146 122 124
3 150 282 95
3 157 283 96
3 144 143 98
3 156 96 64
3 150 287 159
3 153 166 163
3 133 138 163
3 136 141 167
3 138 286 164
3 107 282 150
3 108 109 160
3 160 109 107
3 80 108 167
3 168 169 98
3 151 95 169
3 152 170 133
3 155 120 170
3 147 155 171
3 155 152 154
3 142 172 168
3 172 149 151
3 62 174 173
3 174 59 117
3 133 170 119
3 170 120 121
3 175 121 113
3 116 119 121
3 173 175 110
3 117 116 175
3 98 169 176
3 169 95 89
3 72 177 91
3 177 53 92
3 178 92 85
3 88 91 92
3 176 178 82
3 89 88 178
3 179 174 62
3 49 59 174
3 50 177 72
3 54 53 177
3 45 54 180
3 40 185 179
3 0 288 1
3 3 29 4
3 6 12 7
3 9 29 3
3 11 32 12
3 14 289 4
3 16 27 17
3 19 32 11
3 21 24 22
3 24 21 0
3 25 290 16
3 26 35 17
