ply
format ascii 1.0
comment Created by Blender 2.79 (sub 0) - www.blender.org, source file: 'UI.blend'
element vertex 417
property float x
property float y
property float z
property uchar red
property uchar green
property uchar blue
element face 224
property list uchar uint vertex_indices
end_header
-0.333333 0.510000 0.000000 249 249 249
-0.452594 0.452594 0.028712 253 253 253
-0.352584 0.454649 0.028712 248 248 248
-0.468033 0.169837 0.028712 221 221 221
-0.368925 0.368925 0.028712 225 225 225
-0.454649 0.352584 0.028712 227 227 227
-0.352584 0.454649 0.028712 227 227 227
-0.452594 0.452594 0.028712 230 230 230
-0.169837 0.468033 0.028712 221 221 221
-0.333333 0.333333 0.000000 76 76 76
-0.169837 0.468033 0.028712 76 76 76
-0.368925 0.368925 0.028712 154 154 154
-0.468033 0.169837 0.028712 87 87 87
-0.333333 0.333333 0.000000 87 87 87
-0.368925 0.368925 0.028712 158 158 158
-0.468033 0.169837 0.028712 238 238 238
-0.510000 0.333333 0.000000 244 244 244
-0.500000 0.066667 0.000000 230 230 230
-0.452594 0.452594 0.028712 247 247 247
-0.510000 0.333333 0.000000 243 243 243
-0.454649 0.352584 0.028712 243 243 243
-0.169837 0.468033 0.028712 243 243 243
-0.066667 0.500000 0.000000 238 238 238
0.333333 0.510000 0.000000 223 223 223
0.452594 0.452594 0.028712 219 219 219
0.500000 0.500000 0.000000 216 216 216
0.468033 0.169837 0.028712 195 195 195
0.454649 0.352584 0.028712 198 198 198
0.368925 0.368925 0.028712 201 201 201
0.452594 0.452594 0.028712 199 199 199
0.352584 0.454649 0.028712 203 203 203
0.169837 0.468033 0.028712 209 209 209
0.169837 0.468033 0.028712 184 184 184
0.333333 0.333333 0.000000 176 176 176
0.368925 0.368925 0.028712 183 183 183
0.468033 0.169837 0.028712 213 213 213
0.333333 0.333333 0.000000 220 220 220
0.500000 0.066667 0.000000 204 204 204
0.468033 0.169837 0.028712 106 106 106
0.510000 0.333333 0.000000 106 106 106
0.454649 0.352584 0.028712 135 135 135
0.510000 0.333333 0.000000 127 127 127
0.452594 0.452594 0.028712 128 128 128
0.454649 0.352584 0.028712 133 133 133
0.169837 0.468033 0.028712 226 226 226
0.333333 0.510000 0.000000 221 221 221
0.066667 0.500000 0.000000 237 237 237
-0.333333 0.510000 0.000000 145 145 145
-0.452594 0.452594 -0.028712 145 145 145
-0.500000 0.500000 0.000000 147 147 147
-0.468033 0.169837 -0.028712 124 124 124
-0.454649 0.352584 -0.028712 124 124 124
-0.368925 0.368925 -0.028712 124 124 124
-0.452594 0.452594 -0.028712 124 124 124
-0.352584 0.454649 -0.028712 124 124 124
-0.169837 0.468033 -0.028712 124 124 124
-0.169837 0.468033 -0.028712 67 67 67
-0.333333 0.333333 0.000000 67 67 67
-0.368925 0.368925 -0.028712 88 88 88
-0.468033 0.169837 -0.028712 97 97 97
-0.333333 0.333333 0.000000 97 97 97
-0.500000 0.066667 0.000000 79 79 79
-0.468033 0.169837 -0.028712 137 137 137
-0.510000 0.333333 0.000000 137 137 137
-0.454649 0.352584 -0.028712 136 136 136
-0.510000 0.333333 0.000000 136 136 136
-0.452594 0.452594 -0.028712 136 136 136
-0.454649 0.352584 -0.028712 135 135 135
-0.169837 0.468033 -0.028712 146 146 146
-0.333333 0.510000 0.000000 146 146 146
-0.066667 0.500000 0.000000 151 151 151
0.333333 0.510000 0.000000 146 146 146
0.452594 0.452594 -0.028712 146 146 146
0.352584 0.454649 -0.028712 145 145 145
0.468033 0.169837 -0.028712 124 124 124
0.368925 0.368925 -0.028712 124 124 124
0.454649 0.352584 -0.028712 124 124 124
0.352584 0.454649 -0.028712 124 124 124
0.452594 0.452594 -0.028712 124 124 124
0.169837 0.468033 -0.028712 124 124 124
0.333333 0.333333 0.000000 98 98 98
0.169837 0.468033 -0.028712 98 98 98
0.368925 0.368925 -0.028712 103 103 103
0.468033 0.169837 -0.028712 118 118 118
0.333333 0.333333 0.000000 118 118 118
0.368925 0.368925 -0.028712 123 123 123
0.468033 0.169837 -0.028712 113 113 113
0.510000 0.333333 0.000000 113 113 113
0.500000 0.066667 0.000000 106 106 106
0.452594 0.452594 -0.028712 112 112 112
0.510000 0.333333 0.000000 112 112 112
0.454649 0.352584 -0.028712 112 112 112
0.333333 0.510000 0.000000 145 145 145
0.169837 0.468033 -0.028712 145 145 145
0.066667 0.500000 0.000000 152 152 152
-0.333333 -0.510000 0.000000 120 120 120
-0.452594 -0.452594 0.028712 121 121 121
-0.500000 -0.500000 0.000000 113 113 113
-0.468033 -0.169837 0.028712 209 209 209
-0.454649 -0.352584 0.028712 203 203 203
-0.368925 -0.368925 0.028712 201 201 201
-0.452594 -0.452594 0.028712 199 199 199
-0.352584 -0.454649 0.028712 198 198 198
-0.169837 -0.468033 0.028712 195 195 195
-0.169837 -0.468033 0.028712 221 221 221
-0.333333 -0.333333 0.000000 228 228 228
-0.368925 -0.368925 0.028712 229 229 229
-0.468033 -0.169837 0.028712 202 202 202
-0.333333 -0.333333 0.000000 194 194 194
-0.500000 -0.066667 0.000000 202 202 202
-0.468033 -0.169837 0.028712 226 226 226
-0.510000 -0.333333 0.000000 220 220 220
-0.454649 -0.352584 0.028712 213 213 213
-0.510000 -0.333333 0.000000 215 215 215
-0.452594 -0.452594 0.028712 211 211 211
-0.454649 -0.352584 0.028712 216 216 216
-0.169837 -0.468033 0.028712 120 120 120
-0.066667 -0.500000 0.000000 82 82 82
0.333333 -0.510000 0.000000 101 101 101
0.452594 -0.452594 0.028712 101 101 101
0.352584 -0.454649 0.028712 114 114 114
0.468033 -0.169837 0.028712 189 189 189
0.368925 -0.368925 0.028712 188 188 188
0.454649 -0.352584 0.028712 186 186 186
0.352584 -0.454649 0.028712 186 186 186
0.452594 -0.452594 0.028712 185 185 185
0.169837 -0.468033 0.028712 189 189 189
0.333333 -0.333333 0.000000 253 253 253
0.169837 -0.468033 0.028712 254 254 254
0.368925 -0.368925 0.028712 238 238 238
0.468033 -0.169837 0.028712 252 252 252
0.333333 -0.333333 0.000000 251 251 251
0.368925 -0.368925 0.028712 235 235 235
0.468033 -0.169837 0.028712 122 122 122
0.510000 -0.333333 0.000000 121 121 121
0.500000 -0.066667 0.000000 108 108 108
0.452594 -0.452594 0.028712 116 116 116
0.510000 -0.333333 0.000000 116 116 116
0.454649 -0.352584 0.028712 127 127 127
0.333333 -0.510000 0.000000 108 108 108
0.169837 -0.468033 0.028712 109 109 109
0.066667 -0.500000 0.000000 84 84 84
-0.333333 -0.510000 0.000000 94 94 94
-0.452594 -0.452594 -0.028712 94 94 94
-0.352584 -0.454649 -0.028712 96 96 96
-0.468033 -0.169837 -0.028712 124 124 124
-0.368925 -0.368925 -0.028712 124 124 124
-0.454649 -0.352584 -0.028712 124 124 124
-0.352584 -0.454649 -0.028712 124 124 124
-0.452594 -0.452594 -0.028712 124 124 124
-0.169837 -0.468033 -0.028712 124 124 124
-0.333333 -0.333333 0.000000 144 144 144
-0.169837 -0.468033 -0.028712 144 144 144
-0.368925 -0.368925 -0.028712 140 140 140
-0.468033 -0.169837 -0.028712 128 128 128
-0.333333 -0.333333 0.000000 128 128 128
-0.468033 -0.169837 -0.028712 133 133 133
-0.510000 -0.333333 0.000000 133 133 133
-0.500000 -0.066667 0.000000 139 139 139
-0.452594 -0.452594 -0.028712 133 133 133
-0.454649 -0.352584 -0.028712 134 134 134
-0.333333 -0.510000 0.000000 96 96 96
-0.169837 -0.468033 -0.028712 96 96 96
0.333333 -0.510000 0.000000 95 95 95
0.452594 -0.452594 -0.028712 95 95 95
0.500000 -0.500000 0.000000 92 92 92
0.468033 -0.169837 -0.028712 124 124 124
0.454649 -0.352584 -0.028712 124 124 124
0.368925 -0.368925 -0.028712 124 124 124
0.452594 -0.452594 -0.028712 124 124 124
0.352584 -0.454649 -0.028712 124 124 124
0.169837 -0.468033 -0.028712 124 124 124
0.169837 -0.468033 -0.028712 195 195 195
0.333333 -0.333333 0.000000 195 195 195
0.368925 -0.368925 -0.028712 154 154 154
0.468033 -0.169837 -0.028712 149 149 149
0.333333 -0.333333 0.000000 149 149 149
0.500000 -0.066667 0.000000 192 192 192
0.468033 -0.169837 -0.028712 108 108 108
0.510000 -0.333333 0.000000 108 108 108
0.454649 -0.352584 -0.028712 109 109 109
0.510000 -0.333333 0.000000 109 109 109
0.452594 -0.452594 -0.028712 109 109 109
0.454649 -0.352584 -0.028712 111 111 111
0.169837 -0.468033 -0.028712 94 94 94
0.333333 -0.510000 0.000000 94 94 94
0.116413 0.311329 -0.000000 245 245 245
0.206237 0.206237 0.056158 244 244 244
0.304562 0.304562 0.000000 237 237 237
0.206237 0.206237 0.056158 102 102 102
0.311329 0.116413 -0.000000 101 101 101
0.304562 0.304562 0.000000 104 104 104
0.311329 0.116413 -0.000000 99 99 99
0.206237 0.206237 -0.056158 99 99 99
0.206237 0.206237 -0.056158 151 151 151
0.116413 0.311329 -0.000000 151 151 151
0.304562 0.304562 0.000000 152 152 152
-0.000000 0.124137 -0.053088 135 135 135
0.206237 0.206237 -0.056158 138 138 138
0.000000 -0.000000 -0.065358 135 135 135
0.000000 -0.124137 -0.053088 111 111 111
-0.206237 -0.206237 -0.056158 107 107 107
0.000000 -0.000000 -0.065358 111 111 111
-0.311329 -0.116413 -0.000000 143 143 143
-0.206237 -0.206237 -0.056158 143 143 143
-0.304562 -0.304562 -0.000000 140 140 140
-0.206237 -0.206237 -0.056158 84 84 84
-0.116413 -0.311329 -0.000000 84 84 84
-0.304562 -0.304562 -0.000000 82 82 82
-0.116413 -0.311329 -0.000000 87 87 87
-0.206237 -0.206237 0.056158 88 88 88
-0.206237 -0.206237 0.056158 239 239 239
-0.311329 -0.116413 -0.000000 241 241 241
-0.304562 -0.304562 -0.000000 230 230 230
-0.124137 -0.000000 0.053088 225 225 225
-0.206237 -0.206237 0.056158 228 228 228
0.000000 -0.000000 0.065358 223 223 223
0.124137 0.000000 0.053088 175 175 175
0.206237 0.206237 0.056158 164 164 164
0.000000 -0.000000 0.065358 177 177 177
-0.311329 0.116413 -0.000000 223 223 223
-0.206237 0.206237 0.056158 224 224 224
-0.304562 0.304562 -0.000000 238 238 238
-0.206237 0.206237 0.056158 233 233 233
-0.116413 0.311329 -0.000000 232 232 232
-0.304562 0.304562 -0.000000 245 245 245
-0.116413 0.311329 -0.000000 145 145 145
-0.206237 0.206237 -0.056158 145 145 145
-0.304562 0.304562 -0.000000 150 150 150
-0.206237 0.206237 -0.056158 128 128 128
-0.311329 0.116413 -0.000000 128 128 128
-0.304562 0.304562 -0.000000 135 135 135
-0.124137 -0.000000 -0.053088 124 124 124
-0.206237 0.206237 -0.056158 121 121 121
0.000000 -0.000000 -0.065358 124 124 124
-0.206237 0.206237 -0.056158 131 131 131
-0.000000 0.124137 -0.053088 131 131 131
0.000000 -0.000000 -0.065358 131 131 131
0.124137 0.000000 -0.053088 123 123 123
0.206237 -0.206237 -0.056158 126 126 126
0.000000 -0.000000 -0.065358 123 123 123
0.116413 -0.311329 -0.000000 96 96 96
0.206237 -0.206237 -0.056158 96 96 96
0.304562 -0.304562 0.000000 86 86 86
0.206237 -0.206237 -0.056158 119 119 119
0.311329 -0.116413 -0.000000 119 119 119
0.304562 -0.304562 0.000000 111 111 111
0.311329 -0.116413 -0.000000 152 152 152
0.206237 -0.206237 0.056158 152 152 152
0.304562 -0.304562 0.000000 120 120 120
0.206237 -0.206237 0.056158 136 136 136
0.116413 -0.311329 -0.000000 136 136 136
0.304562 -0.304562 0.000000 99 99 99
0.000000 -0.124137 0.053088 187 187 187
0.206237 -0.206237 0.056158 182 182 182
0.000000 -0.000000 0.065358 190 190 190
0.206237 -0.206237 0.056158 189 189 189
0.124137 0.000000 0.053088 192 192 192
0.000000 -0.000000 0.065358 197 197 197
-0.000000 0.124137 0.053088 214 214 214
-0.206237 0.206237 0.056158 219 219 219
0.000000 -0.000000 0.065358 212 212 212
0.200152 0.000000 -0.000000 160 160 160
0.214824 -0.080901 0.045760 158 158 158
0.311329 -0.116413 -0.000000 168 168 168
-0.124137 -0.000000 -0.053088 132 132 132
-0.206237 -0.206237 -0.056158 136 136 136
-0.214824 -0.080901 -0.045760 136 136 136
0.000000 0.200152 0.000000 193 193 193
0.080901 0.214824 -0.045760 192 192 192
-0.000000 0.124137 -0.053088 203 203 203
-0.000000 0.124137 0.053088 226 226 226
0.206237 0.206237 0.056158 229 229 229
0.080901 0.214824 0.045760 232 232 232
0.000000 -0.124137 -0.053088 115 115 115
0.206237 -0.206237 -0.056158 115 115 115
0.080901 -0.214824 -0.045760 115 115 115
-0.200152 -0.000000 -0.000000 255 255 255
-0.214824 -0.080901 0.045760 255 255 255
-0.124137 -0.000000 0.053088 255 255 255
0.000000 0.200152 0.000000 144 144 144
-0.080901 0.214824 -0.045760 144 144 144
-0.116413 0.311329 -0.000000 141 141 141
0.000000 -0.124137 0.053088 173 173 173
-0.206237 -0.206237 0.056158 162 162 162
-0.080901 -0.214824 0.045760 161 161 161
0.000000 0.200152 0.000000 255 255 255
0.080901 0.214824 0.045760 255 255 255
0.116413 0.311329 -0.000000 255 255 255
0.200152 0.000000 -0.000000 64 64 64
0.214824 0.080901 -0.045760 64 64 64
0.311329 0.116413 -0.000000 68 68 68
0.124137 0.000000 -0.053088 114 114 114
0.206237 0.206237 -0.056158 109 109 109
0.214824 0.080901 -0.045760 109 109 109
-0.000000 -0.200152 -0.000000 53 53 53
-0.080901 -0.214824 0.045760 53 53 53
-0.116413 -0.311329 -0.000000 61 61 61
-0.000000 -0.200152 -0.000000 98 98 98
0.080901 -0.214824 -0.045760 98 98 98
0.116413 -0.311329 -0.000000 102 102 102
-0.200152 -0.000000 -0.000000 202 202 202
-0.214824 -0.080901 -0.045760 201 201 201
-0.311329 -0.116413 -0.000000 191 191 191
0.200152 0.000000 -0.000000 134 134 134
0.214824 -0.080901 -0.045760 134 134 134
0.124137 0.000000 -0.053088 133 133 133
0.200152 0.000000 -0.000000 68 68 68
0.214824 0.080901 0.045760 68 68 68
0.124137 0.000000 0.053088 64 64 64
0.000000 0.200152 0.000000 195 195 195
-0.080901 0.214824 0.045760 198 198 198
-0.000000 0.124137 0.053088 195 195 195
-0.200152 -0.000000 -0.000000 111 111 111
-0.214824 0.080901 -0.045760 111 111 111
-0.124137 -0.000000 -0.053088 113 113 113
-0.124137 -0.000000 0.053088 211 211 211
-0.206237 0.206237 0.056158 214 214 214
-0.214824 0.080901 0.045760 211 211 211
-0.200152 -0.000000 -0.000000 175 175 175
-0.214824 0.080901 0.045760 179 179 179
-0.311329 0.116413 -0.000000 182 182 182
-0.000000 -0.200152 -0.000000 61 61 61
-0.080901 -0.214824 -0.045760 61 61 61
0.000000 -0.124137 -0.053088 53 53 53
-0.000000 -0.200152 -0.000000 149 149 149
0.080901 -0.214824 0.045760 147 147 147
0.000000 -0.124137 0.053088 134 134 134
-0.500000 0.500000 0.000000 254 254 254
-0.066667 0.500000 0.000000 76 76 76
-0.500000 0.066667 0.000000 87 87 87
-0.454649 0.352584 0.028712 244 244 244
-0.500000 0.500000 0.000000 249 249 249
-0.352584 0.454649 0.028712 249 249 249
0.352584 0.454649 0.028712 222 222 222
0.066667 0.500000 0.000000 187 187 187
0.368925 0.368925 0.028712 220 220 220
0.500000 0.500000 0.000000 128 128 128
0.352584 0.454649 0.028712 220 220 220
-0.352584 0.454649 -0.028712 145 145 145
-0.066667 0.500000 0.000000 67 67 67
-0.368925 0.368925 -0.028712 97 97 97
-0.500000 0.066667 0.000000 137 137 137
-0.500000 0.500000 0.000000 136 136 136
-0.352584 0.454649 -0.028712 146 146 146
0.500000 0.500000 0.000000 146 146 146
0.066667 0.500000 0.000000 98 98 98
0.500000 0.066667 0.000000 118 118 118
0.454649 0.352584 -0.028712 113 113 113
0.500000 0.500000 0.000000 112 112 112
-0.352584 -0.454649 0.028712 121 121 121
-0.066667 -0.500000 0.000000 218 218 218
-0.368925 -0.368925 0.028712 194 194 194
-0.500000 -0.066667 0.000000 229 229 229
-0.500000 -0.500000 0.000000 209 209 209
0.500000 -0.500000 0.000000 101 101 101
0.066667 -0.500000 0.000000 255 255 255
0.500000 -0.066667 0.000000 252 252 252
0.454649 -0.352584 0.028712 121 121 121
0.500000 -0.500000 0.000000 116 116 116
0.352584 -0.454649 0.028712 108 108 108
-0.500000 -0.500000 0.000000 94 94 94
-0.066667 -0.500000 0.000000 144 144 144
-0.500000 -0.066667 0.000000 128 128 128
-0.454649 -0.352584 -0.028712 133 133 133
-0.500000 -0.500000 0.000000 133 133 133
0.352584 -0.454649 -0.028712 95 95 95
0.066667 -0.500000 0.000000 196 196 196
0.368925 -0.368925 -0.028712 149 149 149
0.500000 -0.500000 0.000000 109 109 109
0.352584 -0.454649 -0.028712 94 94 94
0.080901 0.214824 0.045760 246 246 246
0.214824 0.080901 0.045760 102 102 102
0.214824 0.080901 -0.045760 99 99 99
0.080901 0.214824 -0.045760 151 151 151
0.080901 0.214824 -0.045760 135 135 135
-0.080901 -0.214824 -0.045760 111 111 111
-0.214824 -0.080901 -0.045760 143 143 143
-0.080901 -0.214824 -0.045760 84 84 84
-0.080901 -0.214824 0.045760 88 88 88
-0.214824 -0.080901 0.045760 242 242 242
-0.214824 -0.080901 0.045760 224 224 224
0.214824 0.080901 0.045760 175 175 175
-0.214824 0.080901 0.045760 221 221 221
-0.080901 0.214824 0.045760 230 230 230
-0.080901 0.214824 -0.045760 145 145 145
-0.214824 0.080901 -0.045760 128 128 128
-0.214824 0.080901 -0.045760 124 124 124
-0.080901 0.214824 -0.045760 131 131 131
0.214824 -0.080901 -0.045760 123 123 123
0.080901 -0.214824 -0.045760 96 96 96
0.214824 -0.080901 -0.045760 119 119 119
0.214824 -0.080901 0.045760 153 153 153
0.080901 -0.214824 0.045760 137 137 137
0.080901 -0.214824 0.045760 183 183 183
0.214824 -0.080901 0.045760 190 190 190
-0.080901 0.214824 0.045760 219 219 219
0.124137 0.000000 0.053088 160 160 160
0.000000 -0.000000 -0.065358 136 136 136
0.116413 0.311329 -0.000000 193 193 193
0.000000 -0.000000 0.065358 231 231 231
0.000000 -0.000000 -0.065358 115 115 115
-0.311329 -0.116413 -0.000000 255 255 255
-0.000000 0.124137 -0.053088 144 144 144
0.000000 -0.000000 0.065358 163 163 163
-0.000000 0.124137 0.053088 255 255 255
0.124137 0.000000 -0.053088 64 64 64
0.000000 -0.000000 -0.065358 109 109 109
0.000000 -0.124137 0.053088 53 53 53
0.000000 -0.124137 -0.053088 98 98 98
-0.124137 -0.000000 -0.053088 201 201 201
0.311329 -0.116413 -0.000000 134 134 134
-0.116413 0.311329 -0.000000 199 199 199
-0.311329 0.116413 -0.000000 111 111 111
0.000000 -0.000000 0.065358 204 204 204
-0.124137 -0.000000 0.053088 175 175 175
0.116413 -0.311329 -0.000000 145 145 145
3 0 1 2
3 3 4 5
3 5 6 7
3 5 4 6
3 4 8 6
3 9 10 11
3 12 13 14
3 15 16 17
3 18 19 20
3 0 21 22
3 23 24 25
3 26 27 28
3 27 29 30
3 27 30 28
3 28 30 31
3 32 33 34
3 35 36 37
3 38 39 40
3 41 42 43
3 44 45 46
3 47 48 49
3 50 51 52
3 51 53 54
3 51 54 52
3 52 54 55
3 56 57 58
3 59 60 61
3 62 63 64
3 65 66 67
3 68 69 70
3 71 72 73
3 74 75 76
3 76 77 78
3 76 75 77
3 75 79 77
3 80 81 82
3 83 84 85
3 86 87 88
3 89 90 91
3 92 93 94
3 95 96 97
3 98 99 100
3 99 101 102
3 99 102 100
3 100 102 103
3 104 105 106
3 107 108 109
3 110 111 112
3 113 114 115
3 116 95 117
3 118 119 120
3 121 122 123
3 123 124 125
3 123 122 124
3 122 126 124
3 127 128 129
3 130 131 132
3 133 134 135
3 136 137 138
3 139 140 141
3 142 143 144
3 145 146 147
3 147 148 149
3 147 146 148
3 146 150 148
3 151 152 153
3 154 155 146
3 156 157 158
3 159 157 160
3 161 162 117
3 163 164 165
3 166 167 168
3 167 169 170
3 167 170 168
3 168 170 171
3 172 173 174
3 175 176 177
3 178 179 180
3 181 182 183
3 184 185 141
3 186 187 188
3 189 190 191
3 192 193 191
3 194 195 196
3 197 198 199
3 200 201 202
3 203 204 205
3 206 207 208
3 209 210 208
3 211 212 213
3 214 215 216
3 217 218 219
3 220 221 222
3 223 224 225
3 226 227 228
3 229 230 231
3 232 233 234
3 235 236 237
3 238 239 240
3 241 242 243
3 244 245 246
3 247 248 249
3 250 251 252
3 253 254 255
3 256 257 258
3 259 260 261
3 262 263 264
3 265 266 267
3 268 269 270
3 271 272 273
3 274 275 276
3 277 278 279
3 280 281 282
3 283 284 285
3 286 287 288
3 289 290 291
3 292 293 294
3 295 296 297
3 298 299 300
3 301 302 303
3 304 305 306
3 307 308 309
3 310 311 312
3 313 314 315
3 316 317 318
3 319 320 321
3 322 323 324
3 325 326 327
3 0 328 1
3 9 329 10
3 12 330 13
3 15 331 16
3 18 332 19
3 0 333 21
3 23 334 24
3 32 335 33
3 35 336 36
3 38 88 39
3 41 337 42
3 44 338 45
3 47 339 48
3 56 340 57
3 59 341 60
3 62 342 63
3 65 343 66
3 68 344 69
3 71 345 72
3 80 346 81
3 83 347 84
3 86 348 87
3 89 349 90
3 92 73 93
3 95 350 96
3 104 351 105
3 107 352 108
3 110 353 111
3 113 354 114
3 116 350 95
3 118 355 119
3 127 356 128
3 130 357 131
3 133 358 134
3 136 359 137
3 139 360 140
3 142 361 143
3 151 362 152
3 154 363 155
3 156 364 157
3 159 365 157
3 161 144 162
3 163 366 164
3 172 367 173
3 175 368 176
3 178 135 179
3 181 369 182
3 184 370 185
3 186 371 187
3 189 372 190
3 192 373 193
3 194 374 195
3 197 375 198
3 200 376 201
3 203 377 204
3 206 378 207
3 209 379 210
3 211 380 212
3 214 381 215
3 217 382 218
3 220 383 221
3 223 384 224
3 226 385 227
3 229 386 230
3 232 387 233
3 235 388 236
3 238 389 239
3 241 390 242
3 244 391 245
3 247 392 248
3 250 393 251
3 253 394 254
3 256 395 257
3 259 396 260
3 262 397 263
3 265 398 266
3 268 399 269
3 271 400 272
3 274 401 275
3 277 402 278
3 280 403 281
3 283 404 284
3 286 405 287
3 289 406 290
3 292 407 293
3 295 408 296
3 298 409 299
3 301 410 302
3 304 411 305
3 307 291 308
3 310 412 311
3 313 413 314
3 316 414 317
3 319 415 320
3 322 297 323
3 325 416 326
