ply
format ascii 1.0
comment Created by Blender 2.79 (sub 0) - www.blender.org, source file: 'card.blend'
element vertex 49
property float x
property float y
property float z
property float s
property float t
property uchar red
property uchar green
property uchar blue
element face 72
property list uchar uint vertex_indices
end_header
-0.129457 0.272502 -0.004422 0.177052 0.993323 90 90 90
-0.152309 0.270159 -0.004422 0.120431 0.989065 90 90 90
-0.196489 0.225627 -0.004422 0.010964 0.908150 90 90 90
0.129457 0.272502 -0.004422 0.818584 0.993323 90 90 90
0.000000 0.000000 -0.004422 0.497818 0.498177 80 80 80
0.196489 0.225627 -0.004422 0.984672 0.908150 90 90 90
-0.129457 -0.272502 -0.004422 0.177052 0.003031 90 90 90
-0.196489 -0.225627 -0.004422 0.010964 0.088204 90 90 90
0.129457 -0.272502 -0.004422 0.818584 0.003031 90 90 90
0.152309 -0.270159 -0.004422 0.875205 0.007290 90 90 90
0.196489 -0.225627 -0.004422 0.984672 0.088204 90 90 90
-0.129457 0.272502 0.000000 0.177052 0.993323 90 90 90
0.000000 0.272502 -0.004422 0.497818 0.993323 90 90 90
0.000000 0.272502 0.000000 0.497818 0.993323 90 90 90
0.000000 -0.272502 -0.000000 0.497818 0.003031 90 90 90
-0.129457 -0.272502 -0.000000 0.177052 0.003031 90 90 90
0.129457 0.272502 0.000000 0.818584 0.993323 90 90 90
0.196489 -0.000000 0.000000 0.984672 0.498177 90 90 90
0.196489 -0.225627 -0.000000 0.984672 0.088204 90 90 90
-0.196489 -0.000000 0.000000 0.010964 0.498177 90 90 90
-0.196489 0.225627 0.000000 0.010964 0.908150 90 90 90
-0.196489 -0.225627 -0.000000 0.010964 0.088204 90 90 90
-0.196489 0.000000 -0.004422 0.010964 0.498177 90 90 90
0.196489 0.225627 0.000000 0.984672 0.908150 90 90 90
0.196489 0.000000 -0.004422 0.984672 0.498177 90 90 90
0.187348 -0.249065 -0.004422 0.962024 0.045618 90 90 90
0.187348 -0.249065 -0.000000 0.962024 0.045618 90 90 90
-0.187348 0.249065 -0.004422 0.033612 0.950736 90 90 90
-0.187348 0.249065 0.000000 0.033612 0.950736 90 90 90
-0.187348 -0.249065 -0.000000 0.033612 0.045618 90 90 90
0.187348 0.249065 0.000000 0.962024 0.950736 90 90 90
0.172114 -0.263127 -0.004422 0.924276 0.020066 90 90 90
0.172114 -0.263127 -0.000000 0.924276 0.020066 90 90 90
-0.172114 0.263127 -0.004422 0.071360 0.976288 90 90 90
-0.172114 0.263127 0.000000 0.071360 0.976288 90 90 90
-0.172114 -0.263127 -0.000000 0.071360 0.020066 90 90 90
-0.187348 -0.249065 -0.004422 0.033612 0.045618 90 90 90
0.172114 0.263127 0.000000 0.924276 0.976288 90 90 90
0.187348 0.249065 -0.004422 0.962024 0.950736 90 90 90
0.152309 -0.270159 -0.000000 0.875205 0.007290 90 90 90
-0.152309 0.270159 0.000000 0.120431 0.989065 90 90 90
-0.152309 -0.270159 -0.000000 0.120431 0.007290 90 90 90
-0.172114 -0.263127 -0.004422 0.071360 0.020066 90 90 90
0.152309 0.270159 0.000000 0.875205 0.989065 90 90 90
0.172114 0.263127 -0.004422 0.924276 0.976288 90 90 90
0.129457 -0.272502 -0.000000 0.818584 0.003031 90 90 90
-0.152309 -0.270159 -0.004422 0.120431 0.007290 90 90 90
0.152309 0.270159 -0.004422 0.875205 0.989065 90 90 90
0.000000 -0.272502 -0.004422 0.497818 0.003031 90 90 90
3 0 1 2
3 3 4 5
3 6 4 7
3 8 9 10
3 11 12 13
3 14 6 15
3 13 3 16
3 17 10 18
3 19 2 20
3 21 22 19
3 23 24 17
3 18 25 26
3 20 27 28
3 29 7 21
3 30 5 23
3 26 31 32
3 28 33 34
3 35 36 29
3 37 38 30
3 32 9 39
3 34 1 40
3 41 42 35
3 43 44 37
3 39 8 45
3 40 0 11
3 15 46 41
3 16 47 43
3 45 48 14
3 27 2 33
3 22 4 2
3 12 0 4
3 1 33 2
3 2 4 0
3 24 5 4
3 38 44 5
3 47 3 5
3 12 4 3
3 5 44 47
3 22 7 4
3 36 42 7
3 46 6 7
3 48 4 6
3 7 42 46
3 25 10 31
3 24 4 10
3 48 8 4
3 9 31 10
3 10 4 8
3 11 0 12
3 14 48 6
3 13 12 3
3 17 24 10
3 19 22 2
3 21 7 22
3 23 5 24
3 18 10 25
3 20 2 27
3 29 36 7
3 30 38 5
3 26 25 31
3 28 27 33
3 35 42 36
3 37 44 38
3 32 31 9
3 34 33 1
3 41 46 42
3 43 47 44
3 39 9 8
3 40 1 0
3 15 6 46
3 16 3 47
3 45 8 48
