ply
format ascii 1.0
comment Created by Blender 2.79 (sub 0) - www.blender.org, source file: 'card.blend'
element vertex 25
property float x
property float y
property float z
property float s
property float t
property uchar red
property uchar green
property uchar blue
element face 24
property list uchar uint vertex_indices
end_header
-0.129457 0.272502 0.000000 0.177052 0.993323 0 0 0
-0.152309 0.270159 0.000000 0.120431 0.989065 0 0 0
-0.196489 0.225627 0.000000 0.010964 0.908150 0 0 0
0.129457 0.272502 0.000000 0.818584 0.993323 0 0 0
0.000000 -0.000000 0.000000 0.497818 0.498177 0 0 0
0.196489 0.225627 0.000000 0.984672 0.908150 0 0 0
-0.129457 -0.272502 -0.000000 0.177052 0.003031 0 0 0
-0.196489 -0.225627 -0.000000 0.010964 0.088204 0 0 0
0.129457 -0.272502 -0.000000 0.818584 0.003031 0 0 0
0.152309 -0.270159 -0.000000 0.875205 0.007290 0 0 0
0.196489 -0.225627 -0.000000 0.984672 0.088204 0 0 0
-0.187348 0.249065 0.000000 0.033612 0.950736 0 0 0
-0.172114 0.263127 0.000000 0.071360 0.976288 0 0 0
-0.196489 -0.000000 0.000000 0.010964 0.498177 0 0 0
0.000000 0.272502 0.000000 0.497818 0.993323 0 0 0
0.196489 -0.000000 0.000000 0.984672 0.498177 0 0 0
0.187348 0.249065 0.000000 0.962024 0.950736 0 0 0
0.172114 0.263127 0.000000 0.924276 0.976288 0 0 0
0.152309 0.270159 0.000000 0.875205 0.989065 0 0 0
-0.187348 -0.249065 -0.000000 0.033612 0.045618 0 0 0
-0.172114 -0.263127 -0.000000 0.071360 0.020066 0 0 0
-0.152309 -0.270159 -0.000000 0.120431 0.007290 0 0 0
0.000000 -0.272502 -0.000000 0.497818 0.003031 0 0 0
0.187348 -0.249065 -0.000000 0.962024 0.045618 0 0 0
0.172114 -0.263127 -0.000000 0.924276 0.020066 0 0 0
3 0 1 2
3 3 4 5
3 6 4 7
3 8 9 10
3 11 2 12
3 13 4 2
3 14 0 4
3 1 12 2
3 2 4 0
3 15 5 4
3 16 17 5
3 18 3 5
3 14 4 3
3 5 17 18
3 13 7 4
3 19 20 7
3 21 6 7
3 22 4 6
3 7 20 21
3 23 10 24
3 15 4 10
3 22 8 4
3 9 24 10
3 10 4 8
