ply
format ascii 1.0
comment Created by Blender 2.79 (sub 0) - www.blender.org, source file: 'card.blend'
element vertex 40
property float x
property float y
property float z
property float s
property float t
property uchar red
property uchar green
property uchar blue
element face 58
property list uchar uint vertex_indices
end_header
0.196489 0.259035 -0.004412 0.973084 0.957773 0 0 0
0.179421 0.280752 -0.004412 0.931886 0.996213 0 0 0
-0.196489 0.259035 -0.004412 0.024535 0.957773 0 0 0
-0.185030 0.278996 0.000000 0.052193 0.993105 0 0 0
-0.179421 0.280752 -0.004412 0.065733 0.996213 0 0 0
-0.179421 0.280752 0.000000 0.065733 0.996213 0 0 0
0.196489 0.259035 0.000000 0.973084 0.957773 0 0 0
0.196489 -0.259035 -0.004412 0.973084 0.040745 0 0 0
0.196489 -0.259035 -0.000000 0.973084 0.040745 0 0 0
-0.179421 -0.280752 -0.000000 0.065733 0.002303 0 0 0
-0.185030 -0.278996 -0.004412 0.052193 0.005412 0 0 0
-0.185030 -0.278996 -0.000000 0.052193 0.005412 0 0 0
0.195381 0.267111 -0.004412 0.970411 0.972068 0 0 0
0.179421 0.280752 0.000000 0.931886 0.996213 0 0 0
-0.196489 -0.259035 -0.000000 0.024535 0.040745 0 0 0
-0.196489 0.259035 0.000000 0.024535 0.957773 0 0 0
0.190531 0.275296 0.000000 0.958705 0.986555 0 0 0
0.195381 0.267111 0.000000 0.970411 0.972068 0 0 0
0.195381 -0.267111 -0.004412 0.970411 0.026449 0 0 0
0.195381 -0.267111 -0.000000 0.970411 0.026449 0 0 0
0.185030 0.278996 0.000000 0.945426 0.993105 0 0 0
0.190531 0.275296 -0.004412 0.958705 0.986555 0 0 0
0.190531 -0.275296 -0.000000 0.958705 0.011962 0 0 0
0.190531 -0.275296 -0.004412 0.958705 0.011962 0 0 0
0.185030 0.278996 -0.004412 0.945426 0.993105 0 0 0
-0.195381 0.267111 -0.004412 0.027208 0.972068 0 0 0
-0.195381 0.267111 0.000000 0.027208 0.972068 0 0 0
0.185030 -0.278996 -0.000000 0.945426 0.005412 0 0 0
0.185030 -0.278996 -0.004412 0.945426 0.005412 0 0 0
-0.195381 -0.267111 -0.004412 0.027208 0.026449 0 0 0
-0.196489 -0.259035 -0.004412 0.024535 0.040745 0 0 0
-0.190531 0.275296 0.000000 0.038914 0.986555 0 0 0
-0.190531 0.275296 -0.004412 0.038914 0.986555 0 0 0
0.179421 -0.280752 -0.004412 0.931886 0.002303 0 0 0
0.179421 -0.280752 -0.000000 0.931886 0.002303 0 0 0
-0.190531 -0.275296 -0.000000 0.038914 0.011962 0 0 0
-0.195381 -0.267111 -0.000000 0.027208 0.026449 0 0 0
-0.185030 0.278996 -0.004412 0.052193 0.993105 0 0 0
-0.179421 -0.280752 -0.004412 0.065733 0.002303 0 0 0
-0.190531 -0.275296 -0.004412 0.038914 0.011962 0 0 0
3 0 1 2
3 3 4 5
3 6 7 8
3 9 10 11
3 6 12 0
3 5 1 13
3 14 2 15
3 16 12 17
3 8 18 19
3 20 21 16
3 22 18 23
3 13 24 20
3 15 25 26
3 27 23 28
3 14 29 30
3 31 25 32
3 27 33 34
3 35 29 36
3 3 32 37
3 34 38 9
3 11 39 35
3 25 2 4
3 30 29 38
3 39 10 29
3 38 33 7
3 28 23 18
3 18 33 28
3 0 12 1
3 21 24 12
3 1 4 2
3 37 32 25
3 2 30 0
3 10 38 29
3 18 7 33
3 12 24 1
3 4 37 25
3 30 38 7
3 7 0 30
3 3 37 4
3 6 0 7
3 9 38 10
3 6 17 12
3 5 4 1
3 14 30 2
3 16 21 12
3 8 7 18
3 20 24 21
3 22 19 18
3 13 1 24
3 15 2 25
3 27 22 23
3 14 36 29
3 31 26 25
3 27 28 33
3 35 39 29
3 3 31 32
3 34 33 38
3 11 10 39
