ply
format ascii 1.0
comment Created by Blender 3.6.2 - www.blender.org
element vertex 40
property float x
property float y
property float z
property float s
property float t
property uchar red
property uchar green
property uchar blue
element face 58
property list uchar uint vertex_indices
end_header
0.196489 0.259035 -0.004412 0.973084 0.957773 0 0 0
-0.196489 0.259035 -0.004412 0.024535 0.957773 0 0 0
0.179421 0.280752 -0.004412 0.931886 0.996213 0 0 0
-0.185030 0.278996 0.000000 0.052193 0.993105 0 0 0
-0.179421 0.280752 0.000000 0.065733 0.996213 0 0 0
-0.179421 0.280752 -0.004412 0.065733 0.996213 0 0 0
0.196489 0.259035 0.000000 0.973084 0.957773 0 0 0
0.196489 -0.259035 0.000000 0.973084 0.040745 0 0 0
0.196489 -0.259035 -0.004412 0.973084 0.040745 0 0 0
-0.179421 -0.280752 0.000000 0.065733 0.002303 0 0 0
-0.185030 -0.278996 0.000000 0.052193 0.005412 0 0 0
-0.185030 -0.278996 -0.004412 0.052193 0.005412 0 0 0
0.195381 0.267111 -0.004412 0.970411 0.972068 0 0 0
0.179421 0.280752 0.000000 0.931886 0.996213 0 0 0
-0.196489 -0.259035 0.000000 0.024535 0.040745 0 0 0
-0.196489 0.259035 0.000000 0.024535 0.957773 0 0 0
0.190531 0.275296 0.000000 0.958705 0.986555 0 0 0
0.195381 0.267111 0.000000 0.970411 0.972068 0 0 0
0.195381 -0.267111 0.000000 0.970411 0.026449 0 0 0
0.195381 -0.267111 -0.004412 0.970411 0.026449 0 0 0
0.185030 0.278996 0.000000 0.945426 0.993105 0 0 0
0.190531 0.275296 -0.004412 0.958705 0.986555 0 0 0
0.190531 -0.275296 0.000000 0.958705 0.011962 0 0 0
0.190531 -0.275296 -0.004412 0.958705 0.011962 0 0 0
0.185030 0.278996 -0.004412 0.945426 0.993105 0 0 0
-0.195381 0.267111 0.000000 0.027208 0.972068 0 0 0
-0.195381 0.267111 -0.004412 0.027208 0.972068 0 0 0
0.185030 -0.278996 0.000000 0.945426 0.005412 0 0 0
0.185030 -0.278996 -0.004412 0.945426 0.005412 0 0 0
-0.196489 -0.259035 -0.004412 0.024535 0.040745 0 0 0
-0.195381 -0.267111 -0.004412 0.027208 0.026449 0 0 0
-0.190531 0.275296 0.000000 0.038914 0.986555 0 0 0
-0.190531 0.275296 -0.004412 0.038914 0.986555 0 0 0
0.179421 -0.280752 0.000000 0.931886 0.002303 0 0 0
0.179421 -0.280752 -0.004412 0.931886 0.002303 0 0 0
-0.190531 -0.275296 0.000000 0.038914 0.011962 0 0 0
-0.195381 -0.267111 0.000000 0.027208 0.026449 0 0 0
-0.185030 0.278996 -0.004412 0.052193 0.993105 0 0 0
-0.179421 -0.280752 -0.004412 0.065733 0.002303 0 0 0
-0.190531 -0.275296 -0.004412 0.038914 0.011962 0 0 0
3 0 1 2
3 3 4 5
3 6 7 8
3 9 10 11
3 12 6 0
3 4 13 2
3 14 15 1
3 16 17 12
3 7 18 19
3 20 16 21
3 22 23 19
3 13 20 24
3 15 25 26
3 27 28 23
3 14 29 30
3 31 32 26
3 27 33 34
3 35 36 30
3 3 37 32
3 33 9 38
3 10 35 39
3 26 5 1
3 29 38 30
3 39 30 11
3 38 8 34
3 28 19 23
3 19 28 34
3 0 2 12
3 21 12 24
3 2 1 5
3 37 26 32
3 29 1 0
3 11 30 38
3 19 34 8
3 12 2 24
3 5 26 37
3 29 8 38
3 8 29 0
3 3 5 37
3 6 8 0
3 9 11 38
3 6 12 17
3 4 2 5
3 14 1 29
3 16 12 21
3 7 19 8
3 20 21 24
3 22 19 18
3 13 24 2
3 15 26 1
3 27 23 22
3 14 30 36
3 31 26 25
3 27 34 28
3 35 30 39
3 3 32 31
3 33 38 34
3 10 39 11
