ply
format ascii 1.0
comment Created by Blender 2.79 (sub 0) - www.blender.org, source file: 'card.blend'
element vertex 20
property float x
property float y
property float z
property float s
property float t
property uchar red
property uchar green
property uchar blue
element face 18
property list uchar uint vertex_indices
end_header
0.196489 0.259035 0.000000 0.973084 0.957773 0 0 0
0.179421 0.280752 0.000000 0.931886 0.996213 0 0 0
-0.196489 0.259035 0.000000 0.024535 0.957773 0 0 0
-0.195381 0.267111 0.000000 0.027208 0.972068 0 0 0
-0.179421 0.280752 0.000000 0.065733 0.996213 0 0 0
-0.196489 -0.259035 -0.000000 0.024535 0.040745 0 0 0
-0.195381 -0.267111 -0.000000 0.027208 0.026449 0 0 0
-0.179421 -0.280752 -0.000000 0.065733 0.002303 0 0 0
-0.190531 -0.275296 -0.000000 0.038914 0.011962 0 0 0
-0.185030 -0.278996 -0.000000 0.052193 0.005412 0 0 0
0.179421 -0.280752 -0.000000 0.931886 0.002303 0 0 0
0.196489 -0.259035 -0.000000 0.973084 0.040745 0 0 0
0.185030 -0.278996 -0.000000 0.945426 0.005412 0 0 0
0.190531 -0.275296 -0.000000 0.958705 0.011962 0 0 0
0.195381 -0.267111 -0.000000 0.970411 0.026449 0 0 0
0.195381 0.267111 0.000000 0.970411 0.972068 0 0 0
0.190531 0.275296 0.000000 0.958705 0.986555 0 0 0
0.185030 0.278996 0.000000 0.945426 0.993105 0 0 0
-0.185030 0.278996 0.000000 0.052193 0.993105 0 0 0
-0.190531 0.275296 0.000000 0.038914 0.986555 0 0 0
3 0 1 2
3 3 2 4
3 5 6 7
3 8 9 6
3 7 10 11
3 12 13 14
3 14 10 12
3 0 15 1
3 16 17 15
3 1 4 2
3 18 19 3
3 2 5 0
3 9 7 6
3 14 11 10
3 15 17 1
3 4 18 3
3 5 7 11
3 11 0 5
