ply
format ascii 1.0
comment Created by Blender 2.92.0 - www.blender.org
element vertex 8
property float x
property float y
property float z
property float s
property float t
property uchar red
property uchar green
property uchar blue
property uchar alpha
element face 12
property list uchar uint vertex_indices
end_header
-1.300000 2.000000 0.000000 0.000000 1.000000 0 0 0 255
1.300000 -2.000000 0.000000 1.000000 0.000000 0 0 0 255
-1.300000 -2.000000 0.000000 0.000000 0.000000 2 2 2 255
1.300000 -2.000000 -0.100000 1.000000 0.000000 0 0 0 255
-1.300000 2.000000 -0.100000 0.000000 1.000000 0 0 0 255
-1.300000 -2.000000 -0.100000 0.000000 0.000000 2 2 2 255
1.300000 2.000000 -0.100000 1.000000 1.000000 0 0 0 255
1.300000 2.000000 0.000000 1.000000 1.000000 0 0 0 255
3 0 1 2
3 3 4 5
3 0 6 7
3 1 5 2
3 7 3 1
3 2 4 0
3 0 7 1
3 3 6 4
3 0 4 6
3 1 3 5
3 7 6 3
3 2 5 4
