ply
format ascii 1.0
comment Created by Blender 2.79 (sub 0) - www.blender.org, source file: 'card.blend'
element vertex 8
property float x
property float y
property float z
property float s
property float t
property uchar red
property uchar green
property uchar blue
element face 10
property list uchar uint vertex_indices
end_header
-1.300000 2.000000 -0.030591 0.940101 0.996524 0 0 0
-1.300000 -2.000000 -0.030591 0.940101 0.003476 2 2 2
1.300000 -2.000000 -0.030591 0.059899 0.003476 0 0 0
1.300000 2.000000 -0.030591 0.059899 0.996524 0 0 0
-1.300000 2.000000 -0.000732 0.940101 0.996524 0 0 0
1.300000 -2.000000 -0.000732 0.059899 0.003476 0 0 0
1.300000 2.000000 -0.000732 0.059899 0.996524 0 0 0
-1.300000 -2.000000 -0.000732 0.940101 0.003476 2 2 2
3 0 1 2
3 0 2 3
3 3 4 0
3 1 5 2
3 2 6 3
3 0 7 1
3 3 6 4
3 1 7 5
3 2 5 6
3 0 4 7
