ply
format ascii 1.0
comment Created by Blender 3.6.2 - www.blender.org
element vertex 4
property float x
property float y
property float z
property float s
property float t
property uchar red
property uchar green
property uchar blue
element face 2
property list uchar uint vertex_indices
end_header
-1.300000 4.000000 0.000000 0.000000 1.000000 0 0 0
-1.300000 0.000000 0.000000 0.000000 0.000000 0 0 0
1.300000 0.000000 0.000000 1.000000 0.000000 0 0 0
1.300000 4.000000 0.000000 1.000000 1.000000 0 0 0
3 0 1 2
3 0 2 3
