ply
format ascii 1.0
comment Created by Blender 2.79 (sub 0) - www.blender.org, source file: 'character.blend'
element vertex 8
property float x
property float y
property float z
property float s
property float t
property uchar red
property uchar green
property uchar blue
element face 12
property list uchar uint vertex_indices
end_header
-1.300000 4.000000 0.000000 0.000000 1.000000 0 0 0
1.300000 0.000000 -0.000000 1.000000 0.000000 0 0 0
-1.300000 0.000000 -0.000000 0.000000 0.000000 2 2 2
1.300000 0.000000 -0.100000 1.000000 0.000000 0 0 0
-1.300000 4.000000 -0.100000 0.000000 1.000000 0 0 0
-1.300000 0.000000 -0.100000 0.000000 0.000000 2 2 2
1.300000 4.000000 -0.100000 1.000000 1.000000 0 0 0
1.300000 4.000000 0.000000 1.000000 1.000000 0 0 0
3 0 1 2
3 3 4 5
3 0 6 7
3 1 5 2
3 7 3 1
3 4 0 2
3 0 7 1
3 3 6 4
3 0 4 6
3 1 3 5
3 7 6 3
3 2 5 4
