ply
format ascii 1.0
comment Created by Blender 2.79 (sub 0) - www.blender.org, source file: 'UI.blend'
element vertex 207
property float x
property float y
property float z
property uchar red
property uchar green
property uchar blue
element face 320
property list uchar uint vertex_indices
end_header
0.000000 0.000000 -0.500000 84 79 81
0.000000 0.191342 -0.461940 98 92 95
0.073223 0.176777 -0.461940 95 89 91
0.000000 0.461940 -0.191342 116 109 112
0.135299 0.326641 -0.353553 102 96 99
0.000000 0.353553 -0.353553 107 101 104
0.000000 0.461940 0.191342 161 151 156
0.191342 0.461940 -0.000000 111 104 107
0.000000 0.500000 0.000000 144 136 140
0.000000 0.191342 0.461940 153 144 148
0.135299 0.326641 0.353553 140 132 136
0.000000 0.353553 0.353553 164 155 159
0.073223 0.176777 -0.461940 95 89 92
0.176777 0.426777 -0.191342 107 100 103
0.176777 0.426777 0.191342 131 123 126
-0.000000 -0.000000 0.500000 123 116 119
0.073223 0.176777 0.461940 139 130 134
0.250000 0.250000 -0.353553 94 88 91
0.135299 0.135299 -0.461940 90 84 87
0.326641 0.326641 -0.191342 96 90 93
0.326641 0.326641 0.191342 96 90 93
0.135299 0.135299 0.461940 121 114 117
0.135299 0.326641 -0.353553 102 96 98
0.353553 0.353553 -0.000000 97 91 94
0.250000 0.250000 0.353553 108 102 105
0.426777 0.176777 -0.191342 83 77 80
0.250000 0.250000 0.353553 109 102 105
0.426777 0.176777 0.191342 83 77 80
0.176777 0.073223 0.461940 100 94 97
0.176777 0.073223 -0.461940 84 78 81
0.326641 0.135299 -0.353553 83 78 80
0.461940 0.191342 -0.000000 83 77 80
0.326641 0.135299 0.353553 83 78 80
0.191342 0.000000 -0.461940 77 72 74
0.353553 0.000000 -0.353553 71 66 68
0.500000 0.000000 -0.000000 64 60 62
0.353553 0.000000 0.353553 71 66 68
0.461940 0.000000 -0.191342 66 62 64
0.461940 -0.000000 0.191342 66 62 64
0.191342 0.000000 0.461940 78 73 75
0.461940 -0.191342 -0.000000 42 39 41
0.326641 -0.135299 0.353553 58 54 56
0.326641 -0.135299 -0.353553 58 54 56
0.176777 -0.073223 -0.461940 71 66 68
0.426777 -0.176777 -0.191342 47 44 45
0.426777 -0.176777 0.191342 47 44 45
0.176777 -0.073223 0.461940 71 66 68
0.250000 -0.250000 -0.353553 48 44 46
0.135299 -0.135299 -0.461940 67 62 64
0.326641 -0.326641 -0.191342 28 26 27
0.326641 -0.326641 0.191342 28 26 27
0.135299 -0.135299 0.461940 67 62 64
0.353553 -0.353553 -0.000000 17 15 16
0.250000 -0.250000 0.353553 48 44 46
0.176777 -0.426777 0.191342 19 17 18
0.073223 -0.176777 0.461940 65 61 63
0.073223 -0.176777 -0.461940 65 61 63
0.176777 -0.426777 -0.191342 19 17 18
0.135299 -0.326641 -0.353553 44 41 42
0.191342 -0.461940 -0.000000 0 0 0
0.135299 -0.326641 0.353553 44 41 42
-0.000000 -0.191342 -0.461940 67 63 65
-0.000000 -0.461940 -0.191342 32 29 30
-0.000000 -0.353553 -0.353553 49 46 47
-0.000000 -0.500000 -0.000000 23 21 22
-0.000000 -0.191342 0.461940 69 64 66
-0.000000 -0.353553 0.353553 49 46 47
-0.000000 -0.461940 0.191342 32 29 30
-0.073223 -0.176777 0.461940 91 86 88
-0.135299 -0.326641 0.353553 61 56 58
-0.073223 -0.176776 -0.461940 72 67 70
-0.176777 -0.426776 -0.191342 51 48 49
-0.176777 -0.426776 0.191342 51 48 49
-0.135299 -0.326640 -0.353553 61 56 58
-0.191342 -0.461939 -0.000000 48 44 46
-0.250000 -0.250000 -0.353553 73 69 71
-0.135299 -0.135299 -0.461940 79 73 76
-0.353553 -0.353553 -0.000000 69 64 66
-0.326641 -0.326640 -0.191342 70 65 67
-0.135299 -0.326641 0.353553 61 57 58
-0.326641 -0.326640 0.191342 70 65 67
-0.135299 -0.135299 0.461940 113 106 110
-0.250000 -0.250000 0.353553 92 86 89
-0.176777 -0.073223 0.461940 133 125 129
-0.176777 -0.073223 -0.461940 85 80 82
-0.426777 -0.176776 -0.191342 86 81 83
-0.326641 -0.135299 -0.353553 86 80 83
-0.426777 -0.176776 0.191342 116 108 112
-0.461940 -0.191341 -0.000000 90 84 87
-0.326641 -0.135299 0.353553 130 122 126
-0.461940 0.000000 -0.191342 103 96 99
-0.353553 0.000000 -0.353553 96 90 93
-0.461940 0.000000 0.191342 152 143 147
-0.500000 0.000000 -0.000000 134 126 129
-0.191342 0.000000 0.461940 149 140 144
-0.353553 0.000000 0.353553 158 149 153
-0.191342 0.000000 -0.461940 91 85 88
-0.326641 0.135299 -0.353553 104 97 100
-0.176777 0.073223 -0.461940 96 90 92
-0.500000 0.000000 -0.000000 134 125 129
-0.426776 0.176777 -0.191342 130 122 125
-0.426776 0.176777 0.191342 176 165 170
-0.176777 0.073223 0.461940 160 150 154
-0.326641 0.135299 -0.353553 103 97 100
-0.426776 0.176777 0.191342 176 166 170
-0.461939 0.191342 -0.000000 159 150 154
-0.326641 0.135299 0.353553 177 166 171
-0.326640 0.326641 -0.191342 140 131 135
-0.326640 0.326641 0.191342 185 174 179
-0.135299 0.135299 0.461940 164 154 158
-0.135299 0.135299 -0.461940 99 92 95
-0.250000 0.250000 -0.353553 108 101 104
-0.353553 0.353554 -0.000000 169 159 164
-0.250000 0.250000 0.353553 184 173 178
-0.073223 0.176777 -0.461940 99 93 96
-0.176776 0.426777 -0.191342 135 127 131
-0.135299 0.326641 -0.353553 109 102 106
-0.176776 0.426777 0.191342 180 169 174
-0.191341 0.461940 -0.000000 164 154 159
-0.073223 0.176777 0.461940 161 152 156
-0.135299 0.326641 0.353553 180 169 174
0.000000 0.353553 0.353553 164 154 159
0.000000 0.091844 0.533863 24 42 50
0.064944 0.156788 0.500376 23 41 49
0.000000 0.169706 0.500376 27 48 57
0.000000 0.221731 0.450258 29 50 59
0.084853 0.204853 0.450258 23 42 50
0.000000 0.091844 0.533863 18 18 18
-0.000000 -0.000000 0.545622 14 14 14
0.035147 0.084853 0.533863 16 16 16
0.156788 0.156788 0.450258 16 31 37
0.064944 0.064944 0.533863 14 14 14
0.035147 0.084853 0.533863 21 39 46
0.120000 0.120000 0.500376 17 33 39
0.064944 0.064944 0.533863 18 34 41
0.156787 0.064944 0.500376 9 21 26
0.204853 0.084853 0.450258 9 21 26
0.084853 0.035147 0.533863 11 11 11
0.084853 0.035147 0.533863 15 29 35
0.169706 0.000000 0.500376 7 17 22
0.221731 -0.000000 0.450258 7 16 21
0.091844 0.000000 0.533863 8 8 8
0.204853 -0.084853 0.450258 5 12 16
0.084853 -0.035147 0.533863 6 6 6
0.084853 -0.035147 0.533863 9 20 25
0.156787 -0.064944 0.500376 6 14 18
0.156787 -0.156788 0.450258 3 9 12
0.064943 -0.064943 0.533863 5 5 5
0.064943 -0.064943 0.533863 8 18 23
0.120000 -0.120000 0.500376 4 12 15
0.035147 -0.084853 0.533863 8 19 24
0.064943 -0.156787 0.500376 4 11 14
0.084853 -0.204853 0.450258 3 8 11
0.035147 -0.084853 0.533863 6 6 6
-0.000000 -0.091844 0.533863 10 22 27
-0.000000 -0.169706 0.500376 5 12 16
-0.000000 -0.221731 0.450258 4 9 13
-0.000000 -0.091844 0.533863 7 7 7
-0.084853 -0.204853 0.450258 5 13 17
-0.035147 -0.084853 0.533863 10 10 10
-0.035147 -0.084853 0.533863 14 27 33
-0.064944 -0.156787 0.500376 6 15 19
-0.064944 -0.064943 0.533863 13 13 13
-0.064944 -0.064943 0.533863 17 32 39
-0.120000 -0.120000 0.500376 14 28 35
-0.156788 -0.156787 0.450258 13 26 31
-0.120000 -0.120000 0.500376 14 28 34
-0.084853 -0.035147 0.533863 20 37 44
-0.156788 -0.064943 0.500376 21 38 46
-0.204853 -0.084853 0.450258 21 38 46
-0.084853 -0.035147 0.533863 15 15 15
-0.221731 0.000000 0.450258 27 47 56
-0.091844 0.000000 0.533863 18 18 18
-0.091844 0.000000 0.533863 23 41 49
-0.169706 0.000000 0.500376 26 46 54
-0.204853 0.084853 0.450258 31 53 63
-0.084853 0.035147 0.533863 19 19 19
-0.084853 0.035147 0.533863 25 44 52
-0.156787 0.064944 0.500376 29 51 60
-0.064943 0.064944 0.533863 25 45 53
-0.120000 0.120000 0.500376 31 53 62
-0.156787 0.156788 0.450258 33 56 65
-0.064943 0.064944 0.533863 20 20 20
-0.035147 0.084853 0.533863 25 44 52
-0.064943 0.156788 0.500376 30 52 61
-0.084853 0.204853 0.450258 32 54 64
-0.035147 0.084853 0.533863 19 19 19
-0.100000 0.132145 0.534313 255 255 255
-0.100000 0.100000 0.538428 255 255 255
-0.087698 0.129699 0.534313 255 255 255
-0.077270 0.122730 0.534313 255 255 255
-0.070302 0.112302 0.534313 254 254 254
-0.067855 0.100000 0.534313 250 250 250
-0.070302 0.087699 0.534313 247 247 247
-0.077270 0.077270 0.534313 246 246 246
-0.087698 0.070302 0.534313 247 247 247
-0.100000 0.067855 0.534313 249 249 249
-0.112302 0.070302 0.534313 252 252 252
-0.122730 0.077270 0.534313 255 255 255
-0.129698 0.087699 0.534313 255 255 255
-0.132145 0.100000 0.534313 255 255 255
-0.129698 0.112302 0.534313 255 255 255
-0.122730 0.122730 0.534313 255 255 255
-0.112301 0.129698 0.534313 255 255 255
0.000000 0.500000 0.000000 144 136 139
0.091844 0.000000 0.533863 12 24 30
-0.000000 -0.091844 0.533863 10 22 28
3 0 1 2
3 3 4 5
3 6 7 8
3 9 10 11
3 1 4 12
3 8 13 3
3 11 14 6
3 9 15 16
3 2 17 18
3 7 19 13
3 10 20 14
3 16 15 21
3 0 2 18
3 13 17 22
3 14 23 7
3 16 24 10
3 23 25 19
3 26 27 20
3 21 15 28
3 0 18 29
3 19 30 17
3 20 31 23
3 21 32 24
3 18 30 29
3 0 29 33
3 25 34 30
3 27 35 31
3 28 36 32
3 29 34 33
3 25 35 37
3 27 36 38
3 28 15 39
3 38 40 35
3 39 41 36
3 33 42 43
3 37 40 44
3 36 45 38
3 39 15 46
3 0 33 43
3 37 42 34
3 43 47 48
3 40 49 44
3 41 50 45
3 46 15 51
3 0 43 48
3 44 47 42
3 45 52 40
3 41 51 53
3 53 54 50
3 51 15 55
3 0 48 56
3 47 57 58
3 50 59 52
3 53 55 60
3 47 56 48
3 52 57 49
3 0 56 61
3 58 62 63
3 54 64 59
3 60 65 66
3 58 61 56
3 59 62 57
3 60 67 54
3 55 15 65
3 66 68 69
3 63 70 61
3 64 71 62
3 66 72 67
3 65 15 68
3 0 61 70
3 63 71 73
3 67 74 64
3 70 75 76
3 71 77 78
3 79 80 72
3 68 15 81
3 0 70 76
3 73 78 75
3 72 77 74
3 69 81 82
3 81 15 83
3 0 76 84
3 75 85 86
3 77 87 88
3 82 83 89
3 75 84 76
3 77 85 78
3 82 87 80
3 86 90 91
3 88 92 93
3 89 94 95
3 86 96 84
3 88 90 85
3 89 92 87
3 83 15 94
3 0 84 96
3 96 97 98
3 99 100 90
3 95 101 92
3 94 15 102
3 0 96 98
3 91 100 103
3 93 104 105
3 95 102 106
3 105 107 100
3 106 108 101
3 102 15 109
3 0 98 110
3 97 107 111
3 105 108 112
3 106 109 113
3 98 111 110
3 0 110 114
3 111 115 116
3 112 117 118
3 113 119 120
3 110 116 114
3 112 115 107
3 113 117 108
3 109 15 119
3 118 6 8
3 120 9 121
3 116 1 114
3 118 3 115
3 117 11 6
3 119 15 9
3 0 114 1
3 115 5 116
3 122 123 124
3 125 123 126
3 127 128 129
3 123 130 126
3 129 128 131
3 132 133 123
3 134 135 133
3 130 135 136
3 131 128 137
3 138 139 135
3 136 139 140
3 137 128 141
3 139 142 140
3 141 128 143
3 139 144 145
3 145 146 142
3 143 128 147
3 145 148 149
3 149 150 151
3 149 152 146
3 147 128 153
3 151 154 155
3 151 156 152
3 153 128 157
3 155 158 156
3 157 128 159
3 155 160 161
3 159 128 162
3 161 163 164
3 161 165 158
3 166 167 168
3 166 169 165
3 162 128 170
3 168 171 169
3 170 128 172
3 168 173 174
3 174 175 171
3 172 128 176
3 174 177 178
3 178 179 180
3 178 181 175
3 176 128 182
3 180 183 184
3 180 185 181
3 182 128 186
3 185 124 125
3 186 128 127
3 184 122 124
3 187 188 189
3 189 188 190
3 190 188 191
3 191 188 192
3 192 188 193
3 193 188 194
3 194 188 195
3 195 188 196
3 196 188 197
3 197 188 198
3 198 188 199
3 199 188 200
3 200 188 201
3 201 188 202
3 202 188 203
3 203 188 187
3 3 13 4
3 6 14 7
3 9 16 10
3 1 5 4
3 8 7 13
3 11 10 14
3 2 22 17
3 7 23 19
3 10 24 20
3 13 19 17
3 14 20 23
3 16 21 24
3 23 31 25
3 26 32 27
3 19 25 30
3 20 27 31
3 21 28 32
3 18 17 30
3 25 37 34
3 27 38 35
3 28 39 36
3 29 30 34
3 25 31 35
3 27 32 36
3 38 45 40
3 39 46 41
3 33 34 42
3 37 35 40
3 36 41 45
3 37 44 42
3 43 42 47
3 40 52 49
3 41 53 50
3 44 49 47
3 45 50 52
3 41 46 51
3 53 60 54
3 47 49 57
3 50 54 59
3 53 51 55
3 47 58 56
3 52 59 57
3 58 57 62
3 54 67 64
3 60 55 65
3 58 63 61
3 59 64 62
3 60 66 67
3 66 65 68
3 63 73 70
3 64 74 71
3 66 69 72
3 63 62 71
3 67 72 74
3 70 73 75
3 71 74 77
3 79 82 80
3 73 71 78
3 72 80 77
3 69 68 81
3 75 78 85
3 77 80 87
3 82 81 83
3 75 86 84
3 77 88 85
3 82 89 87
3 86 85 90
3 88 87 92
3 89 83 94
3 86 91 96
3 88 99 90
3 89 95 92
3 96 91 97
3 99 105 100
3 95 106 101
3 91 90 100
3 93 92 104
3 95 94 102
3 105 112 107
3 106 113 108
3 97 100 107
3 105 101 108
3 106 102 109
3 98 97 111
3 111 107 115
3 112 108 117
3 113 109 119
3 110 111 116
3 112 118 115
3 113 120 117
3 118 117 6
3 120 119 9
3 116 5 1
3 118 204 3
3 117 120 11
3 115 3 5
3 122 132 123
3 125 124 123
3 123 133 130
3 132 134 133
3 134 138 135
3 130 133 135
3 138 205 139
3 136 135 139
3 139 145 142
3 139 205 144
3 145 149 146
3 145 144 148
3 149 148 150
3 149 151 152
3 151 150 154
3 151 155 156
3 155 161 158
3 155 206 160
3 161 160 163
3 161 166 165
3 166 163 167
3 166 168 169
3 168 174 171
3 168 167 173
3 174 178 175
3 174 173 177
3 178 177 179
3 178 180 181
3 180 179 183
3 180 184 185
3 185 184 124
3 184 183 122
