ply
format ascii 1.0
comment Created by Blender 2.79 (sub 0) - www.blender.org, source file: 'font-lowpoly.blend'
element vertex 16
property float x
property float y
property float z
element face 28
property list uchar uint vertex_indices
end_header
0.129727 -0.014718 0.067289
0.059025 -0.062682 0.069445
-0.067440 -0.413183 0.069422
-0.006334 -0.103099 -0.054798
0.192769 0.015171 -0.063437
-0.005321 -0.370681 -0.054891
-0.191348 -0.111732 0.067037
-0.240718 -0.149255 -0.064181
-0.246629 0.012088 -0.064594
0.213348 -0.347243 0.067060
0.260695 -0.308551 -0.064055
0.267901 -0.480308 -0.064636
-0.223991 -0.479994 -0.063288
-0.159519 -0.451146 0.067333
0.210806 -0.446931 0.067256
-0.189114 -0.021152 0.067287
3 0 1 2
3 3 4 5
3 6 7 3
3 0 4 8
3 9 10 5
3 11 10 9
3 3 12 13
3 8 7 6
3 13 12 11
3 5 4 0
3 13 14 2
3 0 15 1
3 14 9 2
3 15 6 1
3 13 2 1
3 10 11 5
3 3 7 8
3 5 11 12
3 3 8 4
3 5 12 3
3 1 6 3
3 15 0 8
3 2 9 5
3 14 11 9
3 1 3 13
3 15 8 6
3 14 13 11
3 2 5 0
