ply
format ascii 1.0
comment Created by Blender 2.79 (sub 0) - www.blender.org, source file: 'font-lowpoly.blend'
element vertex 16
property float x
property float y
property float z
element face 32
property list uchar uint vertex_indices
end_header
0.138264 -0.195320 0.046308
0.140728 0.272157 0.046308
0.102999 -0.004431 0.046308
-0.000245 0.188759 0.046308
-0.177877 0.167622 0.046308
-0.105030 -0.088760 0.046308
-0.116365 -0.370713 0.046308
-0.000245 -0.258731 0.046308
0.206774 -0.231551 -0.092703
0.046215 -0.007419 -0.102625
0.188641 0.337936 -0.090023
0.001238 0.165934 -0.110390
-0.244844 0.210545 -0.091340
-0.049108 -0.083391 -0.102867
-0.150237 -0.445174 -0.089706
-0.002350 -0.233549 -0.110085
3 0 1 2
3 2 1 3
3 3 1 4
3 5 3 4
3 5 4 6
3 0 2 7
3 7 5 6
3 6 0 7
3 8 9 10
3 9 11 10
3 11 12 10
3 13 12 11
3 13 14 12
3 8 15 9
3 15 14 13
3 14 15 8
3 13 11 3
3 7 15 13
3 8 10 1
3 12 14 6
3 3 11 9
3 9 15 7
3 6 14 8
3 1 10 12
3 5 13 3
3 5 7 13
3 0 8 1
3 4 12 6
3 2 3 9
3 2 9 7
3 0 6 8
3 4 1 12
