ply
format ascii 1.0
comment Created by Blender 2.79 (sub 0) - www.blender.org, source file: 'font-lowpoly.blend'
element vertex 22
property float x
property float y
property float z
element face 40
property list uchar uint vertex_indices
end_header
-0.086406 0.001498 0.062970
-0.006097 -0.351612 0.062761
-0.019726 0.000239 0.062743
0.029467 0.105685 -0.063509
0.030125 -0.047677 -0.063454
-0.132476 -0.050097 -0.063718
-0.010759 0.156651 0.064139
0.015527 0.224187 -0.062686
-0.235664 -0.035007 -0.062710
0.171620 -0.345061 0.063542
0.220467 -0.294195 -0.063454
0.040779 -0.300842 -0.063509
-0.028942 -0.403051 0.063388
0.144572 0.001553 0.063508
0.194328 -0.048238 -0.063509
0.194328 0.105685 -0.063509
0.171147 -0.402643 0.063490
0.221137 -0.452134 -0.063520
-0.074519 -0.456067 -0.063706
-0.168443 -0.007761 0.064206
-0.019173 0.055940 0.063030
0.144557 0.055914 0.063507
3 0 1 2
3 3 4 5
3 6 7 8
3 9 10 11
3 12 0 5
3 13 14 15
3 13 2 4
3 1 11 4
3 9 16 17
3 18 17 16
3 19 8 5
3 6 20 3
3 21 15 3
3 13 21 20
3 20 6 0
3 12 16 1
3 6 19 0
3 16 9 1
3 20 0 2
3 2 13 20
3 12 1 0
3 3 15 4
3 8 7 3
3 10 17 11
3 5 8 3
3 11 17 18
3 18 5 11
3 15 14 4
3 4 11 5
3 19 6 8
3 1 9 11
3 18 12 5
3 21 13 15
3 14 13 4
3 2 1 4
3 10 9 17
3 12 18 16
3 0 19 5
3 7 6 3
3 20 21 3
