ply
format ascii 1.0
comment Created by Blender 2.79 (sub 0) - www.blender.org, source file: 'font-lowpoly.blend'
element vertex 10
property float x
property float y
property float z
element face 16
property list uchar uint vertex_indices
end_header
-0.061872 -0.133359 0.046640
-0.113583 -0.027851 0.046421
-0.123822 -0.429810 0.047031
-0.157835 0.016608 -0.047781
-0.019866 0.016839 -0.047531
-0.022278 -0.081574 -0.045592
-0.064283 -0.027851 0.046421
0.170252 -0.066538 0.047045
0.224864 -0.031392 -0.046411
-0.145596 -0.491147 -0.046243
3 0 1 2
3 3 4 5
3 2 1 3
3 1 6 4
3 6 0 5
3 7 8 5
3 9 8 7
3 2 7 0
3 0 6 1
3 5 8 9
3 9 3 5
3 9 2 3
3 3 1 4
3 4 6 5
3 0 7 5
3 2 9 7
