ply
format ascii 1.0
comment Created by Blender 2.79 (sub 0) - www.blender.org, source file: 'font-lowpoly.blend'
element vertex 20
property float x
property float y
property float z
element face 36
property list uchar uint vertex_indices
end_header
0.186516 -0.087597 0.077110
-0.177057 -0.120583 0.077110
-0.044136 -0.111018 0.077110
-0.132127 -0.071143 -0.070472
0.224575 -0.038535 -0.070472
0.144185 -0.178489 -0.070472
0.151077 -0.428878 -0.070472
0.192509 -0.383628 0.077110
-0.020836 -0.379616 0.077110
-0.036791 -0.441207 -0.070472
-0.133440 -0.032497 -0.070472
-0.177539 -0.076742 0.077110
-0.227045 -0.379800 0.077110
-0.245677 -0.443026 -0.070472
-0.061167 -0.176409 -0.070472
0.283273 -0.426082 -0.070472
0.235398 -0.384953 0.077110
-0.264443 -0.033407 -0.070472
0.159339 -0.112373 0.077110
-0.220739 -0.076742 0.077110
3 0 1 2
3 3 4 5
3 5 6 7
3 8 9 5
3 3 10 11
3 12 13 14
3 0 4 3
3 6 15 16
3 11 10 17
3 17 13 12
3 16 15 4
3 14 9 8
3 2 8 18
3 18 7 16
3 1 11 19
3 18 16 0
3 1 19 12
3 2 18 0
3 1 12 2
3 5 9 14
3 14 13 17
3 17 10 3
3 4 15 5
3 14 17 3
3 15 6 5
3 14 3 5
3 18 5 7
3 18 8 5
3 1 3 11
3 2 12 14
3 1 0 3
3 7 6 16
3 19 11 17
3 19 17 12
3 0 16 4
3 2 14 8
