ply
format ascii 1.0
comment Created by Blender 2.79 (sub 0) - www.blender.org, source file: 'font-lowpoly.blend'
element vertex 22
property float x
property float y
property float z
element face 44
property list uchar uint vertex_indices
end_header
0.160707 -0.403358 0.082354
0.215974 -0.461341 -0.073310
0.211288 -0.317989 -0.073310
-0.169513 -0.141609 0.082354
-0.167406 -0.080499 0.082354
-0.223927 -0.023021 -0.073310
0.079571 -0.083974 0.082354
0.133810 -0.025913 -0.073310
0.031343 -0.227687 0.082354
0.025203 -0.245806 -0.073310
0.002637 -0.332974 -0.073310
-0.074122 -0.367286 -0.073310
-0.091876 -0.376991 0.082354
-0.152061 -0.399173 0.082354
-0.222718 -0.438674 -0.073310
-0.217188 -0.206237 -0.073310
-0.009436 -0.110384 -0.073310
0.007598 -0.096778 0.082354
0.112552 -0.382851 0.082354
0.038505 -0.363671 0.082354
0.159561 -0.373008 0.082354
0.136694 -0.360526 -0.073310
3 0 1 2
3 3 4 5
3 4 6 7
3 8 9 10
3 10 11 12
3 13 14 1
3 3 15 16
3 3 17 4
3 6 4 17
3 6 17 8
3 6 8 18
3 8 19 18
3 20 18 0
3 18 19 0
3 12 0 19
3 0 12 13
3 17 13 12
3 17 12 8
3 15 5 16
3 7 16 5
3 7 9 16
3 7 21 9
3 9 21 10
3 2 1 21
3 21 1 10
3 11 10 1
3 1 14 11
3 16 11 14
3 16 9 11
3 21 7 6
3 11 9 8
3 20 2 21
3 16 14 13
3 20 0 2
3 15 3 5
3 5 4 7
3 19 8 10
3 19 10 12
3 0 13 1
3 17 3 16
3 18 21 6
3 12 11 8
3 18 20 21
3 17 16 13
