ply
format ascii 1.0
comment Created by Blender 2.79 (sub 0) - www.blender.org, source file: 'font-lowpoly.blend'
element vertex 24
property float x
property float y
property float z
element face 44
property list uchar uint vertex_indices
end_header
-0.101489 -0.053503 0.046308
-0.062089 0.182497 0.046308
-0.151745 0.278184 0.046308
0.232063 0.241083 0.046308
0.021135 0.014443 0.046308
0.184767 -0.088682 0.046308
0.060133 -0.100743 0.046308
0.086668 -0.283070 0.046308
0.179540 -0.343779 0.046308
-0.127622 -0.423384 0.046308
-0.133653 -0.336944 0.046308
-0.210041 -0.256535 0.046308
-0.153548 -0.105600 -0.105733
-0.192859 0.322499 -0.103803
-0.028395 0.159128 -0.122375
0.300758 0.235481 -0.102437
0.064902 0.052580 -0.114298
0.242007 -0.052345 -0.106117
0.019516 -0.133961 -0.118211
0.046981 -0.253104 -0.120339
0.230840 -0.384957 -0.105200
-0.153297 -0.485137 -0.104987
-0.112461 -0.279135 -0.117611
-0.245544 -0.184642 -0.102441
3 0 1 2
3 1 3 2
3 0 4 1
3 5 4 6
3 7 5 6
3 8 5 7
3 9 7 10
3 9 10 11
3 8 7 9
3 6 4 0
3 12 13 14
3 14 13 15
3 12 14 16
3 17 18 16
3 19 18 17
3 20 19 17
3 21 22 19
3 21 23 22
3 20 21 19
3 18 12 16
3 9 21 20
3 7 19 22
3 5 8 20
3 3 15 13
3 5 17 16
3 11 10 22
3 0 12 18
3 2 13 12
3 1 4 16
3 11 23 21
3 6 18 19
3 3 1 14
3 8 9 20
3 10 7 22
3 17 5 20
3 2 3 13
3 4 5 16
3 23 11 22
3 6 0 18
3 0 2 12
3 14 1 16
3 9 11 21
3 7 6 19
3 15 3 14
