ply
format ascii 1.0
comment Created by Blender 2.79 (sub 0) - www.blender.org, source file: 'font-lowpoly.blend'
element vertex 16
property float x
property float y
property float z
element face 28
property list uchar uint vertex_indices
end_header
-0.170597 -0.293276 -0.079032
-0.237453 0.028407 -0.079032
-0.230938 -0.066520 0.085670
0.013569 -0.068816 0.085670
0.031375 -0.000080 -0.079032
0.243701 -0.068611 0.085670
0.264495 0.001951 -0.079032
0.058579 -0.295598 -0.079032
-0.217839 -0.394713 0.085670
-0.260314 -0.449468 -0.079032
0.137771 -0.413077 -0.079032
0.238702 -0.453670 -0.079032
0.218642 -0.400744 0.085670
0.187914 -0.357901 0.085670
0.039573 -0.368576 0.085670
-0.187509 -0.367064 0.085670
3 0 1 2
3 3 4 0
3 5 6 7
3 8 9 10
3 10 11 12
3 11 6 5
3 2 1 9
3 7 4 3
3 7 10 0
3 8 13 14
3 15 0 2
3 15 3 0
3 14 5 7
3 13 8 10
3 13 10 12
3 12 11 5
3 8 2 9
3 14 7 3
3 0 4 7
3 7 6 11
3 9 1 0
3 7 11 10
3 10 9 0
3 14 3 15
3 15 2 8
3 13 12 5
3 14 15 8
3 13 5 14
