ply
format ascii 1.0
comment Created by Blender 2.79 (sub 0) - www.blender.org, source file: 'font-lowpoly-v2.blend'
element vertex 66
property float x
property float y
property float z
element face 128
property list uchar uint vertex_indices
end_header
-0.158146 -0.193431 0.015000
-0.213292 -0.166569 0.015000
-0.213292 -0.193431 0.015000
-0.027823 -0.420292 0.015000
0.027323 -0.193431 0.015000
-0.027823 -0.193431 0.015000
-0.093000 -0.093431 0.015000
-0.158146 -0.076569 0.015000
-0.037854 -0.076569 0.015000
-0.093000 -0.026569 0.015000
-0.158146 -0.420292 0.015000
-0.213292 -0.420292 0.015000
-0.213292 0.010292 0.015000
-0.158146 -0.029708 0.015000
-0.243292 -0.166569 -0.015000
-0.128146 -0.193431 -0.015000
-0.243292 -0.193431 -0.015000
-0.128146 -0.016569 -0.015000
-0.093000 -0.123431 -0.015000
-0.037854 -0.046569 -0.015000
-0.057854 -0.193431 -0.015000
-0.243292 -0.480292 -0.015000
-0.189477 -0.470292 0.015000
-0.243292 0.040292 -0.015000
-0.185719 -0.500292 -0.015000
-0.128146 -0.480292 -0.015000
-0.181962 -0.470292 0.015000
-0.128146 0.000292 -0.015000
0.027323 -0.420292 0.015000
0.057292 -0.193431 -0.015000
-0.057854 -0.480292 -0.015000
-0.004038 -0.470292 0.015000
-0.000281 -0.500292 -0.015000
0.057292 -0.480292 -0.015000
0.003477 -0.470292 0.015000
0.157646 -0.420292 0.015000
0.212792 -0.193431 0.015000
0.157646 -0.193431 0.015000
0.212792 -0.176569 0.015000
0.147646 -0.076569 0.015000
0.092500 -0.093431 0.015000
0.027354 -0.076569 0.015000
0.092500 -0.026569 0.015000
0.127646 -0.193431 -0.015000
0.242792 -0.176569 -0.015000
0.242792 -0.193431 -0.015000
0.057354 -0.016569 -0.015000
0.092500 -0.123431 -0.015000
0.057354 -0.193431 -0.015000
0.147646 -0.046569 -0.015000
-0.057792 -0.480292 -0.015000
-0.003977 -0.470292 0.015000
-0.057792 -0.193431 -0.015000
-0.000219 -0.500292 -0.015000
0.057354 -0.480292 -0.015000
0.003538 -0.470292 0.015000
0.212792 -0.420292 0.015000
0.127646 -0.480292 -0.015000
0.181462 -0.470292 0.015000
0.185219 -0.500292 -0.015000
0.242792 -0.480292 -0.015000
0.188977 -0.470292 0.015000
-0.005250 -0.128309 0.015000
-0.000738 -0.093622 -0.015000
-0.093000 0.003431 -0.015000
0.092500 0.003431 -0.015000
3 0 1 2
3 3 4 5
3 6 7 0
3 6 8 9
3 10 2 11
3 12 7 13
3 14 15 16
3 17 18 15
3 18 19 20
3 21 22 11
3 23 17 14
3 16 11 2
3 24 25 26
3 18 5 6
3 12 14 1
3 10 15 0
3 0 18 6
3 14 2 1
3 27 12 13
3 28 29 4
3 20 3 5
3 19 9 8
3 17 13 7
3 9 17 7
3 11 26 10
3 10 26 25
3 30 31 3
3 32 33 34
3 3 34 28
3 28 34 33
3 33 30 20
3 25 24 21
3 35 36 37
3 37 38 39
3 40 41 4
3 40 39 42
3 43 44 45
3 46 47 48
3 47 49 43
3 50 51 3
3 52 3 5
3 53 54 55
3 47 37 40
3 28 48 4
3 4 47 40
3 44 39 38
3 56 45 36
3 43 35 37
3 49 42 39
3 45 38 36
3 42 46 41
3 28 51 55
3 28 55 54
3 57 58 35
3 59 60 61
3 35 61 56
3 56 61 60
3 60 57 43
3 54 53 50
3 8 5 62
3 41 62 4
3 5 4 62
3 8 63 19
3 63 41 46
3 46 48 63
3 52 63 48
3 63 52 19
3 0 7 1
3 3 28 4
3 6 9 7
3 6 5 8
3 10 0 2
3 12 1 7
3 14 17 15
3 17 64 18
3 18 64 19
3 23 27 17
3 16 21 11
3 26 22 24
3 21 24 22
3 18 20 5
3 12 23 14
3 10 25 15
3 0 15 18
3 14 16 2
3 27 23 12
3 28 33 29
3 20 30 3
3 19 64 9
3 17 27 13
3 9 64 17
3 11 22 26
3 34 31 32
3 30 32 31
3 3 31 34
3 20 29 33
3 33 32 30
3 21 16 15
3 15 25 21
3 35 56 36
3 37 36 38
3 40 42 41
3 40 37 39
3 43 49 44
3 46 65 47
3 47 65 49
3 52 50 3
3 55 51 53
3 50 53 51
3 47 43 37
3 28 54 48
3 4 48 47
3 44 49 39
3 56 60 45
3 43 57 35
3 49 65 42
3 45 44 38
3 42 65 46
3 28 3 51
3 61 58 59
3 57 59 58
3 35 58 61
3 43 45 60
3 60 59 57
3 50 52 48
3 48 54 50
3 8 62 63
3 63 62 41
