ply
format ascii 1.0
comment Created by Blender 2.79 (sub 0) - www.blender.org, source file: 'font-lowpoly-v2.blend'
element vertex 68
property float x
property float y
property float z
element face 130
property list uchar uint vertex_indices
end_header
0.010556 0.033167 0.015000
-0.070556 0.200000 0.015000
-0.070556 0.033167 0.015000
-0.070556 -0.046833 0.015000
-0.151667 0.033167 0.015000
-0.151667 -0.046833 0.015000
0.010556 -0.046833 0.015000
0.091667 -0.046833 0.015000
0.010556 -0.145000 0.015000
-0.070556 -0.145000 0.015000
0.010556 -0.250000 0.015000
-0.070556 -0.250000 0.015000
0.010556 -0.365000 0.015000
-0.070556 -0.375000 0.015000
-0.100556 0.230000 -0.015000
-0.052086 0.282493 0.015000
-0.072873 0.291104 -0.015000
-0.181667 -0.011833 0.015000
0.091667 0.033167 0.015000
0.121667 -0.011833 0.015000
0.121667 -0.001833 0.015000
0.040556 0.063167 -0.015000
-0.100556 0.063167 -0.015000
-0.151667 0.063167 -0.015000
-0.100556 -0.076833 -0.015000
-0.181667 -0.076833 -0.015000
0.040556 -0.076833 -0.015000
0.091667 0.063167 -0.015000
0.121667 -0.076833 -0.015000
0.040556 -0.145000 -0.015000
-0.100556 -0.145000 -0.015000
0.040556 -0.250000 -0.015000
-0.100556 -0.250000 -0.015000
0.040556 -0.335000 -0.015000
-0.100556 -0.405000 -0.015000
0.010556 -0.420000 0.015000
0.040556 -0.450000 -0.015000
-0.070556 -0.420000 0.015000
-0.100556 -0.450000 -0.015000
-0.211667 -0.011833 -0.015000
0.151667 -0.011833 -0.015000
0.020254 0.252529 0.015000
0.040556 0.230000 -0.015000
0.040221 0.246330 -0.015000
0.010556 0.200000 0.015000
-0.181667 -0.001833 0.015000
-0.211667 0.028167 -0.015000
0.151667 0.028167 -0.015000
-0.051667 -0.470000 0.015000
-0.051667 -0.500000 -0.015000
-0.008333 -0.470000 0.015000
-0.008333 -0.500000 -0.015000
0.135000 0.430000 -0.015000
0.185000 0.380095 0.015000
0.215000 0.383200 -0.015000
0.087471 0.319746 0.015000
0.135000 0.407500 0.015000
0.057507 0.392086 0.015000
-0.008189 0.348189 0.015000
0.047177 0.292823 0.015000
0.185000 0.356605 0.015000
0.093670 0.304779 -0.015000
0.048896 0.412873 -0.015000
-0.024099 0.364099 -0.015000
0.058632 0.281368 -0.015000
0.135000 0.313000 -0.015000
0.135000 0.329200 0.015000
0.215000 0.359800 -0.015000
3 0 1 2
3 3 4 5
3 6 2 3
3 7 0 6
3 8 3 9
3 10 9 11
3 12 11 13
3 14 15 16
3 4 17 5
3 18 19 20
3 14 21 22
3 23 24 25
3 22 26 24
3 26 27 28
3 24 29 30
3 30 31 32
3 32 33 34
3 13 35 12
3 33 35 36
3 37 34 38
3 39 23 25
3 27 40 28
3 41 42 43
3 5 24 3
3 32 13 11
3 44 15 1
3 18 21 0
3 33 10 12
3 45 39 17
3 4 46 45
3 22 4 2
3 24 9 3
3 17 25 5
3 8 26 6
3 40 20 19
3 1 22 2
3 26 7 6
3 9 32 11
3 28 19 7
3 21 44 0
3 31 8 10
3 47 18 20
3 48 35 37
3 36 49 38
3 50 36 35
3 48 38 49
3 48 51 50
3 52 53 54
3 55 56 57
3 58 55 57
3 15 59 58
3 56 60 53
3 52 61 62
3 63 61 64
3 16 64 43
3 57 63 58
3 55 64 61
3 58 16 15
3 59 43 64
3 65 60 66
3 52 67 65
3 56 62 57
3 66 61 65
3 16 42 14
3 34 36 38
3 0 44 1
3 3 2 4
3 6 0 2
3 7 18 0
3 8 6 3
3 10 8 9
3 12 10 11
3 14 1 15
3 4 45 17
3 18 7 19
3 14 42 21
3 23 22 24
3 22 21 26
3 26 21 27
3 24 26 29
3 30 29 31
3 32 31 33
3 13 37 35
3 33 12 35
3 37 13 34
3 39 46 23
3 27 47 40
3 41 44 42
3 5 25 24
3 32 34 13
3 44 41 15
3 18 27 21
3 33 31 10
3 45 46 39
3 4 23 46
3 22 23 4
3 24 30 9
3 17 39 25
3 8 29 26
3 40 47 20
3 1 14 22
3 26 28 7
3 9 30 32
3 28 40 19
3 21 42 44
3 31 29 8
3 47 27 18
3 48 50 35
3 36 51 49
3 50 51 36
3 48 37 38
3 48 49 51
3 52 56 53
3 55 66 56
3 58 59 55
3 15 41 59
3 56 66 60
3 52 65 61
3 63 62 61
3 16 63 64
3 57 62 63
3 55 59 64
3 58 63 16
3 59 41 43
3 65 67 60
3 52 54 67
3 56 52 62
3 66 55 61
3 16 43 42
3 34 33 36
