ply
format ascii 1.0
comment Created by Blender 2.79 (sub 0) - www.blender.org, source file: 'font-lowpoly-v2.blend'
element vertex 38
property float x
property float y
property float z
element face 72
property list uchar uint vertex_indices
end_header
0.110626 -0.307302 0.015000
0.175773 -0.329164 0.015000
0.175773 -0.302302 0.015000
-0.109666 -0.075440 0.015000
-0.174812 -0.302302 0.015000
-0.109666 -0.307302 0.015000
-0.174812 -0.319164 0.015000
-0.094666 -0.419164 0.015000
0.000480 -0.407302 0.015000
0.110626 -0.419164 0.015000
0.000480 -0.469164 0.015000
0.110626 -0.075440 0.015000
0.175773 -0.075440 0.015000
0.175773 -0.506025 0.015000
0.110626 -0.466025 0.015000
0.205773 -0.329164 -0.015000
0.080626 -0.307302 -0.015000
0.205773 -0.302302 -0.015000
-0.079666 -0.307302 -0.015000
-0.204812 -0.319164 -0.015000
-0.204812 -0.302302 -0.015000
0.075626 -0.479164 -0.015000
0.000480 -0.377302 -0.015000
-0.094666 -0.449164 -0.015000
0.205773 -0.015440 -0.015000
0.146957 -0.025440 0.015000
0.205773 -0.536025 -0.015000
0.143199 0.004560 -0.015000
0.080626 -0.015440 -0.015000
0.139442 -0.025440 0.015000
0.080626 -0.496025 -0.015000
-0.174812 -0.075440 0.015000
-0.079666 -0.015440 -0.015000
-0.138482 -0.025440 0.015000
-0.142239 0.004560 -0.015000
-0.204812 -0.015440 -0.015000
-0.145996 -0.025440 0.015000
0.000480 -0.499164 -0.015000
3 0 1 2
3 3 4 5
3 5 6 7
3 8 9 0
3 8 7 10
3 11 2 12
3 13 9 14
3 15 16 17
3 18 19 20
3 21 22 16
3 22 23 18
3 24 25 12
3 26 21 15
3 17 12 2
3 27 28 29
3 8 18 5
3 13 15 1
3 11 16 0
3 16 8 0
3 15 2 1
3 30 13 14
3 19 7 6
3 31 20 4
3 18 3 5
3 23 10 7
3 20 6 4
3 21 14 9
3 10 21 9
3 11 25 29
3 11 29 28
3 32 33 3
3 34 35 36
3 31 33 36
3 31 36 35
3 35 32 20
3 28 27 24
3 0 9 1
3 3 31 4
3 5 4 6
3 8 10 9
3 8 5 7
3 11 0 2
3 13 1 9
3 15 21 16
3 18 23 19
3 21 37 22
3 22 37 23
3 26 30 21
3 17 24 12
3 29 25 27
3 24 27 25
3 8 22 18
3 13 26 15
3 11 28 16
3 16 22 8
3 15 17 2
3 30 26 13
3 19 23 7
3 31 35 20
3 18 32 3
3 23 37 10
3 20 19 6
3 21 30 14
3 10 37 21
3 11 12 25
3 36 33 34
3 32 34 33
3 31 3 33
3 18 20 32
3 35 34 32
3 24 17 28
3 16 28 17
