ply
format ascii 1.0
comment Created by Blender 2.79 (sub 0) - www.blender.org, source file: 'font-lowpoly-v2.blend'
element vertex 48
property float x
property float y
property float z
element face 92
property list uchar uint vertex_indices
end_header
0.180000 -0.480000 0.015000
0.120000 -0.415000 0.015000
0.120000 -0.480000 0.015000
0.110000 -0.090000 0.015000
-0.110000 -0.415000 0.015000
0.180000 -0.090000 0.015000
0.180000 -0.025000 0.015000
0.070000 -0.025000 0.015000
0.000000 -0.415000 0.015000
0.000000 -0.480000 0.015000
0.000000 -0.090000 0.015000
0.000000 -0.025000 0.015000
-0.070000 -0.480000 0.015000
-0.120000 -0.025000 0.015000
-0.120000 -0.090000 0.015000
-0.180000 -0.480000 0.015000
-0.180000 -0.415000 0.015000
-0.180000 -0.025000 0.015000
-0.180000 -0.090000 0.015000
-0.148000 -0.130000 0.015000
0.180000 -0.415000 0.015000
0.148000 -0.370000 0.015000
0.120000 -0.390000 -0.015000
0.200000 -0.500000 -0.015000
0.120000 -0.500000 -0.015000
-0.070000 -0.390000 -0.015000
0.070000 -0.110000 -0.015000
0.200000 -0.110000 -0.015000
0.070000 0.000000 -0.015000
0.000000 -0.390000 -0.015000
0.000000 -0.500000 -0.015000
0.000000 0.000000 -0.015000
0.000000 -0.110000 -0.015000
-0.070000 -0.500000 -0.015000
-0.120000 0.000000 -0.015000
-0.120000 -0.110000 -0.015000
-0.200000 -0.390000 -0.015000
-0.200000 -0.500000 -0.015000
-0.200000 0.000000 -0.015000
-0.200000 -0.110000 -0.015000
-0.148000 -0.140000 -0.015000
0.148000 -0.360000 -0.015000
0.200000 -0.390000 -0.015000
-0.172000 -0.130000 0.015000
-0.172000 -0.140000 -0.015000
0.172000 -0.360000 -0.015000
0.172000 -0.370000 0.015000
0.200000 0.000000 -0.015000
3 0 1 2
3 3 4 5
3 3 6 7
3 2 8 9
3 10 7 11
3 12 8 4
3 10 13 14
3 15 4 16
3 14 17 18
3 18 19 14
3 20 21 1
3 22 23 24
3 25 26 27
3 28 27 26
3 29 24 30
3 31 26 32
3 25 30 33
3 34 32 35
3 36 33 37
3 38 35 39
3 40 39 35
3 41 42 22
3 10 26 3
3 25 5 4
3 19 35 14
3 28 11 7
3 26 16 3
3 39 43 18
3 8 25 4
3 15 33 12
3 27 6 5
3 44 19 43
3 35 10 14
3 33 9 12
3 21 22 1
3 31 13 11
3 30 2 9
3 45 21 46
3 24 0 2
3 6 28 7
3 42 46 20
3 16 37 15
3 22 8 1
3 23 20 0
3 34 17 13
3 17 39 18
3 0 20 1
3 3 16 4
3 3 5 6
3 2 1 8
3 10 3 7
3 12 9 8
3 10 11 13
3 15 12 4
3 14 13 17
3 18 43 19
3 20 46 21
3 22 42 23
3 25 36 26
3 28 47 27
3 29 22 24
3 31 28 26
3 25 29 30
3 34 31 32
3 36 25 33
3 38 34 35
3 40 44 39
3 41 45 42
3 10 32 26
3 25 27 5
3 19 40 35
3 28 31 11
3 26 36 16
3 39 44 43
3 8 29 25
3 15 37 33
3 27 47 6
3 44 40 19
3 35 32 10
3 33 30 9
3 21 41 22
3 31 34 13
3 30 24 2
3 45 41 21
3 24 23 0
3 6 47 28
3 42 45 46
3 16 36 37
3 22 29 8
3 23 42 20
3 34 38 17
3 17 38 39
