ply
format ascii 1.0
comment Created by Blender 2.79 (sub 0) - www.blender.org, source file: 'font-lowpoly-v2.blend'
element vertex 54
property float x
property float y
property float z
element face 104
property list uchar uint vertex_indices
end_header
-0.140000 0.375000 0.015000
-0.080000 0.400000 0.015000
-0.100000 0.415000 0.015000
-0.050000 -0.089599 -0.015000
-0.080000 -0.094003 0.015000
-0.070000 0.445000 -0.015000
-0.050000 0.410000 -0.015000
-0.190000 -0.465000 -0.015000
-0.070000 -0.500000 -0.015000
-0.170000 -0.500000 -0.015000
-0.170000 0.395000 -0.015000
-0.190000 0.360000 -0.015000
-0.100000 -0.480000 0.015000
-0.160000 -0.465000 0.015000
-0.140000 -0.480000 0.015000
-0.160000 0.360000 0.015000
-0.160000 -0.101621 0.015000
-0.190000 -0.101621 -0.015000
-0.080000 -0.465000 0.015000
0.163936 -0.407715 0.015000
0.130418 -0.469215 0.015000
0.151510 -0.463886 0.015000
0.151279 -0.499788 -0.015000
0.118223 -0.494485 -0.015000
-0.050000 -0.465000 -0.015000
-0.080000 -0.330104 0.015000
0.194078 -0.398393 -0.015000
0.185259 -0.366484 -0.015000
-0.190000 -0.336342 -0.015000
-0.050112 -0.328170 -0.015000
0.167082 -0.386438 0.015000
0.094887 -0.008564 0.015000
0.161388 -0.037082 0.015000
0.156059 -0.015990 0.015000
0.191961 -0.016221 -0.015000
0.186658 -0.049277 -0.015000
-0.160000 -0.336342 0.015000
0.085565 0.021578 -0.015000
0.053657 0.012759 -0.015000
0.073611 -0.005418 0.015000
-0.040000 -0.260782 -0.015000
-0.190000 -0.163509 -0.015000
-0.040000 -0.145237 -0.015000
-0.160000 -0.163509 0.015000
-0.190000 -0.272451 -0.015000
-0.160000 -0.272451 0.015000
-0.080000 -0.263116 0.015000
0.011328 -0.229979 0.015000
0.008333 -0.190223 0.015000
-0.009783 -0.208773 0.015000
-0.043788 -0.296358 0.015000
0.029352 -0.209368 -0.015000
-0.080000 -0.158891 0.015000
-0.053770 -0.132681 0.015000
3 0 1 2
3 3 1 4
3 5 1 6
3 7 8 9
3 10 6 11
3 12 13 14
3 4 15 16
3 15 17 16
3 9 13 7
3 10 2 5
3 15 10 11
3 3 11 6
3 8 14 9
3 8 18 12
3 19 20 21
3 22 20 23
3 24 25 18
3 26 23 27
3 24 28 29
3 26 21 22
3 30 26 27
3 31 32 33
3 34 32 35
3 36 7 13
3 37 35 38
3 37 33 34
3 39 37 38
3 40 41 42
3 43 44 45
3 46 43 45
3 29 27 23
3 25 45 36
3 45 28 36
3 29 44 40
3 20 29 23
3 47 48 49
3 18 36 13
3 30 50 20
3 27 47 30
3 51 32 48
3 16 41 43
3 42 17 3
3 50 47 49
3 50 25 29
3 52 16 43
3 51 40 42
3 53 49 48
3 39 48 32
3 4 53 3
3 39 3 53
3 42 3 51
3 51 38 35
3 0 15 1
3 3 6 1
3 5 2 1
3 7 24 8
3 10 5 6
3 12 18 13
3 4 1 15
3 15 11 17
3 9 14 13
3 10 0 2
3 15 0 10
3 3 17 11
3 8 12 14
3 8 24 18
3 19 30 20
3 22 21 20
3 24 29 25
3 26 22 23
3 24 7 28
3 26 19 21
3 30 19 26
3 31 39 32
3 34 33 32
3 36 28 7
3 37 34 35
3 37 31 33
3 39 31 37
3 40 44 41
3 43 41 44
3 46 52 43
3 29 51 27
3 25 46 45
3 45 44 28
3 29 28 44
3 20 50 29
3 47 51 48
3 18 25 36
3 30 47 50
3 27 51 47
3 51 35 32
3 16 17 41
3 42 41 17
3 49 52 46
3 46 50 49
3 50 46 25
3 52 4 16
3 51 29 40
3 53 52 49
3 39 53 48
3 4 52 53
3 39 38 3
3 51 3 38
