ply
format ascii 1.0
comment Created by Blender 2.79 (sub 0) - www.blender.org, source file: 'font-lowpoly-v2.blend'
element vertex 80
property float x
property float y
property float z
element face 160
property list uchar uint vertex_indices
end_header
-0.077493 -0.062914 0.015000
-0.000000 -0.125800 0.015000
-0.000000 -0.047500 0.015000
0.087823 -0.162177 0.015000
0.114000 -0.189771 0.015000
0.139000 -0.094109 0.015000
0.000000 -0.452500 0.015000
0.047529 -0.364746 0.015000
0.000000 -0.374200 0.015000
-0.047529 -0.364746 0.015000
-0.077493 -0.437086 0.015000
-0.143189 -0.393189 0.015000
-0.087823 -0.337823 0.015000
-0.187086 -0.327493 0.015000
-0.114746 -0.297529 0.015000
-0.202500 -0.250000 0.015000
-0.124200 -0.250000 0.015000
-0.187086 -0.172507 0.015000
-0.114746 -0.202471 0.015000
-0.143189 -0.106811 0.015000
-0.087823 -0.162177 0.015000
-0.047529 -0.135254 0.015000
0.087823 -0.337823 0.015000
0.139000 -0.405893 0.015000
0.114000 -0.310228 0.015000
0.077493 -0.062914 0.015000
0.047529 -0.135254 0.015000
0.077493 -0.437086 0.015000
0.207000 -0.064109 0.015000
0.139000 -0.000000 0.015000
0.207000 -0.790000 0.015000
0.197600 -0.870000 0.015000
0.208400 -0.870000 0.015000
0.207000 -0.000000 0.015000
0.216800 0.040000 0.015000
0.207000 -0.189771 0.015000
0.207000 -0.310228 0.015000
0.139000 -0.790000 0.015000
0.207000 -0.435893 0.015000
-0.000000 -0.025000 -0.015000
-0.041330 -0.150221 -0.015000
-0.086104 -0.042127 -0.015000
0.076367 -0.173632 -0.015000
0.119000 -0.064109 -0.015000
0.095200 -0.201817 -0.015000
0.000000 -0.475000 -0.015000
0.041330 -0.349779 -0.015000
0.086104 -0.457873 -0.015000
-0.086104 -0.457873 -0.015000
0.000000 -0.358000 -0.015000
-0.076368 -0.326368 -0.015000
-0.159099 -0.409099 -0.015000
-0.207873 -0.336104 -0.015000
-0.108000 -0.250000 -0.015000
-0.225000 -0.250000 -0.015000
-0.207873 -0.163896 -0.015000
-0.076368 -0.173632 -0.015000
-0.159099 -0.090901 -0.015000
0.076368 -0.326367 -0.015000
0.095200 -0.298183 -0.015000
0.119000 -0.435893 -0.015000
0.041330 -0.150221 -0.015000
-0.000000 -0.142000 -0.015000
0.119000 0.000000 -0.015000
0.227000 -0.064109 -0.015000
0.227000 -0.790000 -0.015000
0.202200 -0.890000 -0.015000
0.119000 -0.790000 -0.015000
0.206800 0.050000 -0.015000
0.227000 0.000000 -0.015000
0.227000 -0.189771 -0.015000
0.227000 -0.310228 -0.015000
0.227000 -0.435893 -0.015000
0.229200 0.040000 0.015000
-0.099779 -0.291330 -0.015000
-0.099779 -0.208670 -0.015000
0.239200 0.050000 -0.015000
-0.041330 -0.349779 -0.015000
0.086103 -0.042127 -0.015000
0.223800 -0.890000 -0.015000
3 0 1 2
3 3 4 5
3 6 7 8
3 6 9 10
3 11 9 12
3 13 12 14
3 15 14 16
3 17 16 18
3 19 18 20
3 0 20 21
3 22 23 24
3 3 25 26
3 22 27 23
3 2 26 25
3 28 29 5
3 30 31 32
3 33 34 29
3 35 5 4
3 24 35 4
3 23 36 24
3 37 38 23
3 39 40 41
3 42 43 44
3 45 46 47
3 48 49 45
3 50 48 51
3 52 50 51
3 53 52 54
3 55 53 54
3 56 55 57
3 56 41 40
3 58 59 60
3 61 43 42
3 60 46 58
3 39 61 62
3 63 64 43
3 65 66 67
3 68 69 63
3 43 70 44
3 44 71 59
3 60 71 72
3 60 65 67
3 69 73 33
3 51 10 11
3 61 3 26
3 68 29 34
3 9 50 12
3 43 25 5
3 25 39 2
3 29 43 5
3 52 11 13
3 1 61 26
3 35 64 28
3 12 74 14
3 39 0 2
3 15 52 13
3 40 1 21
3 14 53 16
3 60 37 23
3 36 70 35
3 55 15 17
3 16 75 18
3 28 69 33
3 59 22 24
3 44 24 4
3 75 20 18
3 22 46 7
3 38 71 36
3 19 55 17
3 66 32 31
3 45 27 6
3 27 60 23
3 56 21 20
3 67 31 37
3 7 49 8
3 41 19 0
3 32 65 30
3 10 45 6
3 30 72 38
3 3 44 4
3 76 34 73
3 49 9 8
3 0 21 1
3 6 27 7
3 6 8 9
3 11 10 9
3 13 11 12
3 15 13 14
3 17 15 16
3 19 17 18
3 0 19 20
3 3 5 25
3 22 7 27
3 2 1 26
3 28 33 29
3 30 37 31
3 33 73 34
3 35 28 5
3 24 36 35
3 23 38 36
3 37 30 38
3 39 62 40
3 45 49 46
3 48 77 49
3 50 77 48
3 52 74 50
3 53 74 52
3 55 75 53
3 56 75 55
3 56 57 41
3 61 78 43
3 60 47 46
3 39 78 61
3 63 69 64
3 65 79 66
3 68 76 69
3 43 64 70
3 44 70 71
3 60 59 71
3 60 72 65
3 69 76 73
3 51 48 10
3 61 42 3
3 68 63 29
3 9 77 50
3 43 78 25
3 25 78 39
3 29 63 43
3 52 51 11
3 1 62 61
3 35 70 64
3 12 50 74
3 39 41 0
3 15 54 52
3 40 62 1
3 14 74 53
3 60 67 37
3 36 71 70
3 55 54 15
3 16 53 75
3 28 64 69
3 59 58 22
3 44 59 24
3 75 56 20
3 22 58 46
3 38 72 71
3 19 57 55
3 66 79 32
3 45 47 27
3 27 47 60
3 56 40 21
3 67 66 31
3 7 46 49
3 41 57 19
3 32 79 65
3 10 48 45
3 30 65 72
3 3 42 44
3 76 68 34
3 49 77 9
