ply
format ascii 1.0
comment Created by Blender 2.79 (sub 0) - www.blender.org, source file: 'font-lowpoly.blend'
element vertex 14
property float x
property float y
property float z
element face 24
property list uchar uint vertex_indices
end_header
0.084784 -0.327129 0.070386
-0.023544 0.147498 0.070386
-0.051012 -0.327129 0.070386
-0.190569 -0.426803 0.070386
0.190301 -0.426803 0.070386
0.066739 0.224723 0.070386
-0.149963 0.291462 0.070386
0.123868 -0.309522 -0.069966
-0.087262 -0.307128 -0.069966
-0.064112 0.133539 -0.069966
-0.248162 -0.445258 -0.069966
0.246367 -0.449097 -0.069966
0.112667 0.259808 -0.069966
-0.200782 0.324358 -0.069966
3 0 1 2
3 3 4 2
3 2 4 0
3 5 1 0
3 5 6 1
3 7 8 9
3 10 8 11
3 8 7 11
3 12 7 9
3 12 9 13
3 12 13 6
3 8 10 3
3 7 12 5
3 6 13 9
3 3 10 11
3 4 11 7
3 1 9 8
3 5 12 6
3 2 8 3
3 0 7 5
3 1 6 9
3 4 3 11
3 0 4 7
3 2 1 8
