ply
format ascii 1.0
comment Created by Blender 2.79 (sub 0) - www.blender.org, source file: 'font-lowpoly.blend'
element vertex 18
property float x
property float y
property float z
element face 36
property list uchar uint vertex_indices
end_header
-0.113731 -0.348453 0.079113
0.202141 -0.276514 0.079113
0.161929 -0.245993 0.079113
-0.186993 0.396770 0.079113
-0.158932 -0.106073 0.079113
-0.116792 0.112773 0.079113
0.242568 -0.297011 -0.081191
-0.071080 -0.291381 -0.081191
0.091067 -0.230189 -0.081191
-0.067049 0.131507 -0.081191
-0.238074 0.447786 -0.081191
-0.066439 0.447786 -0.081191
-0.117489 0.396804 0.079113
-0.095333 0.005645 0.079113
-0.087945 -0.005484 -0.081191
-0.094292 -0.094900 -0.081191
-0.189905 -0.396735 0.079113
-0.233675 -0.455130 -0.081191
3 0 1 2
3 3 4 5
3 6 7 8
3 9 10 11
3 12 9 11
3 0 8 7
3 8 13 14
3 4 7 15
3 6 16 17
3 9 1 6
3 13 15 14
3 16 10 17
3 3 11 10
3 16 0 4
3 13 2 5
3 1 0 16
3 2 1 5
3 4 3 16
3 3 5 12
3 5 4 13
3 6 8 9
3 7 17 15
3 9 8 14
3 7 6 17
3 10 15 17
3 14 10 9
3 10 14 15
3 5 9 12
3 2 8 0
3 2 13 8
3 0 7 4
3 1 16 6
3 5 1 9
3 4 15 13
3 3 10 16
3 12 11 3
