ply
format ascii 1.0
comment Created by Blender 2.79 (sub 0) - www.blender.org, source file: 'font-lowpoly.blend'
element vertex 14
property float x
property float y
property float z
element face 28
property list uchar uint vertex_indices
end_header
0.098987 -0.368145 0.075558
0.149465 -0.560931 0.075558
0.117824 -0.233030 0.075558
-0.005108 -0.259203 0.075558
-0.134823 -0.194009 0.075558
0.015776 -0.164138 0.075558
0.157204 -0.061185 0.075558
0.043313 -0.407833 -0.071585
0.095759 -0.228809 -0.071585
0.163063 -0.649312 -0.071585
0.020343 -0.234751 -0.071585
-0.224798 -0.183313 -0.071585
0.030071 -0.198592 -0.071585
0.208292 0.014856 -0.071585
3 0 1 2
3 2 3 0
3 3 4 0
3 5 4 3
3 6 5 2
3 5 6 4
3 2 1 6
3 7 8 9
3 8 7 10
3 10 7 11
3 12 10 11
3 13 8 12
3 12 11 13
3 8 13 9
3 1 0 7
3 2 5 12
3 3 10 12
3 4 11 7
3 1 9 13
3 2 8 10
3 6 13 11
3 9 1 7
3 8 2 12
3 5 3 12
3 0 4 7
3 6 1 13
3 3 2 10
3 4 6 11
