ply
format ascii 1.0
comment Created by Blender 2.79 (sub 0) - www.blender.org, source file: 'font-lowpoly-v2.blend'
element vertex 34
property float x
property float y
property float z
element face 54
property list uchar uint vertex_indices
end_header
-0.119666 -0.075440 0.015000
-0.094812 -0.302302 0.015000
-0.044666 -0.307302 0.015000
0.000480 -0.377302 0.015000
-0.054666 -0.409164 0.015000
0.000480 -0.469164 0.015000
0.000480 -0.347302 -0.015000
-0.054666 -0.439164 -0.015000
-0.014666 -0.307302 -0.015000
-0.124812 -0.302302 -0.015000
-0.164812 -0.075440 0.015000
-0.099666 -0.035440 -0.015000
-0.138482 -0.025440 0.015000
-0.142239 0.004560 -0.015000
-0.184812 -0.045440 -0.015000
-0.145996 -0.025440 0.015000
0.119666 -0.075440 0.015000
0.094812 -0.302302 0.015000
0.164812 -0.075440 0.015000
-0.000480 -0.377302 0.015000
0.054666 -0.409164 0.015000
0.044666 -0.307302 0.015000
-0.000480 -0.347302 -0.015000
0.054666 -0.439164 -0.015000
-0.000480 -0.499164 -0.015000
0.124812 -0.302302 -0.015000
0.184812 -0.045440 -0.015000
0.014666 -0.307302 -0.015000
-0.000480 -0.469164 0.015000
0.099666 -0.035440 -0.015000
0.138482 -0.025440 0.015000
0.145996 -0.025440 0.015000
0.142239 0.004560 -0.015000
0.000480 -0.499164 -0.015000
3 0 1 2
3 3 4 5
3 2 1 4
3 6 7 8
3 6 2 3
3 4 9 7
3 10 9 1
3 8 0 2
3 7 5 4
3 11 12 0
3 13 14 15
3 10 12 15
3 10 15 14
3 14 11 9
3 16 17 18
3 19 20 21
3 21 20 17
3 22 23 24
3 21 22 19
3 25 20 23
3 18 25 26
3 16 27 21
3 28 23 20
3 29 16 30
3 31 32 30
3 18 30 16
3 18 26 31
3 29 32 26
3 0 10 1
3 3 2 4
3 6 33 7
3 6 8 2
3 4 1 9
3 10 14 9
3 8 11 0
3 7 33 5
3 15 12 13
3 11 13 12
3 10 0 12
3 8 9 11
3 14 13 11
3 16 21 17
3 19 28 20
3 22 27 23
3 21 27 22
3 25 17 20
3 18 17 25
3 16 29 27
3 28 24 23
3 29 30 32
3 31 26 32
3 18 31 30
3 26 25 29
3 27 29 25
