ply
format ascii 1.0
comment Created by Blender 2.79 (sub 0) - www.blender.org, source file: 'font-lowpoly-v2.blend'
element vertex 48
property float x
property float y
property float z
element face 88
property list uchar uint vertex_indices
end_header
0.118655 -0.368638 -0.015000
0.116337 -0.277535 0.015000
0.097867 -0.360028 0.015000
0.005226 -0.277535 -0.015000
0.035226 0.042465 0.015000
0.005226 0.072465 -0.015000
0.116337 0.042465 0.015000
0.035226 -0.277535 0.015000
0.146337 -0.277535 -0.015000
0.146337 0.072465 -0.015000
-0.139218 -0.457630 0.015000
-0.169218 -0.437335 -0.015000
-0.169218 -0.460735 -0.015000
0.005561 -0.323865 -0.015000
0.025528 -0.330064 0.015000
0.097448 0.092465 0.015000
0.097448 0.122465 -0.015000
0.054115 0.092465 0.015000
0.054115 0.122465 -0.015000
-0.089218 -0.507535 -0.015000
-0.041689 -0.397281 0.015000
-0.089218 -0.485035 0.015000
-0.011725 -0.469620 0.015000
0.053971 -0.425724 0.015000
-0.001396 -0.370357 0.015000
-0.089218 -0.406735 0.015000
-0.047888 -0.382314 -0.015000
-0.003114 -0.490408 -0.015000
-0.012851 -0.358902 -0.015000
0.069881 -0.441634 -0.015000
-0.089218 -0.390535 -0.015000
-0.139218 -0.434140 0.015000
0.075000 0.356647 0.012000
0.019557 0.351603 -0.012000
0.032586 0.337126 0.012000
-0.003408 0.290000 -0.012000
0.015018 0.290000 0.012000
0.032586 0.242874 0.012000
0.019557 0.228397 -0.012000
0.075000 0.223353 0.012000
0.117414 0.242874 0.012000
0.134982 0.290000 0.012000
0.130443 0.351603 -0.012000
0.075000 0.377120 -0.012000
0.153408 0.290000 -0.012000
0.117414 0.337126 0.012000
0.130443 0.228397 -0.012000
0.075000 0.202880 -0.012000
3 0 1 2
3 3 4 5
3 6 7 1
3 6 8 9
3 10 11 12
3 7 13 14
3 7 2 1
3 15 4 6
3 5 16 9
3 17 5 4
3 15 9 16
3 15 18 17
3 19 10 12
3 20 21 22
3 23 20 22
3 2 24 23
3 25 10 21
3 19 26 27
3 27 28 29
3 0 28 13
3 23 27 29
3 20 28 26
3 2 29 0
3 24 13 28
3 30 31 25
3 19 11 30
3 22 19 27
3 25 26 30
3 32 33 34
3 34 35 36
3 37 35 38
3 38 39 37
3 40 41 37
3 32 42 43
3 44 45 41
3 40 44 41
3 39 46 40
3 46 38 35
3 0 3 8
3 3 9 8
3 0 8 1
3 3 7 4
3 6 4 7
3 6 1 8
3 10 31 11
3 7 3 13
3 7 14 2
3 15 17 4
3 5 18 16
3 17 18 5
3 15 6 9
3 15 16 18
3 19 21 10
3 20 25 21
3 23 24 20
3 2 14 24
3 25 31 10
3 19 30 26
3 27 26 28
3 0 29 28
3 23 22 27
3 20 24 28
3 2 23 29
3 24 14 13
3 30 11 31
3 19 12 11
3 22 21 19
3 25 20 26
3 32 43 33
3 34 33 35
3 37 36 35
3 38 47 39
3 32 34 45
3 36 37 41
3 39 40 37
3 41 45 36
3 34 36 45
3 32 45 42
3 44 42 45
3 40 46 44
3 39 47 46
3 35 33 44
3 43 42 33
3 44 46 35
3 47 38 46
3 33 42 44
3 0 13 3
3 3 5 9
