ply
format ascii 1.0
comment Created by Blender 2.79 (sub 0) - www.blender.org, source file: 'font-lowpoly.blend'
element vertex 33
property float x
property float y
property float z
element face 62
property list uchar uint vertex_indices
end_header
-0.042947 0.290782 0.078679
0.049630 0.240791 0.078679
0.069996 0.357437 0.078679
0.174656 0.253752 0.078679
0.045926 0.103778 0.078679
-0.046650 0.081560 0.078679
0.040372 -0.005462 0.078679
0.177385 0.027865 0.078679
-0.048501 0.011202 0.078679
-0.181811 0.037123 0.078679
-0.022580 -0.418353 0.078679
-0.042947 0.290782 0.078679
-0.075036 0.102092 -0.088390
-0.046650 0.081560 0.078679
0.174656 0.253752 0.078679
0.074319 0.412825 -0.088390
0.069996 0.357437 0.078679
0.177385 0.027865 0.078679
0.067085 -0.029556 -0.088390
0.234932 0.019588 -0.088390
-0.022580 -0.418353 0.078679
0.040372 -0.005462 0.078679
-0.181811 0.037123 0.078679
-0.074207 -0.010817 -0.088390
-0.048501 0.011202 0.078679
0.045926 0.103778 0.078679
0.072032 0.220100 -0.088390
0.049630 0.240791 0.078679
0.230122 0.236735 -0.088390
-0.240059 0.033442 -0.088390
0.078764 0.122063 -0.088390
-0.090468 0.318380 -0.088390
-0.025290 -0.477179 -0.088390
3 0 1 2
3 1 3 2
3 4 1 0
3 4 0 5
3 6 7 4
3 8 5 9
3 6 8 10
3 8 6 5
3 5 6 4
3 11 12 13
3 14 15 16
3 17 18 19
3 20 18 21
3 22 23 24
3 25 26 27
3 14 26 28
3 22 12 29
3 17 30 25
3 2 14 16
3 5 11 13
3 0 16 11
3 10 24 20
3 4 17 25
3 9 13 22
3 3 27 14
3 1 25 27
3 8 22 24
3 6 20 21
3 7 21 17
3 31 15 26
3 26 15 28
3 30 31 26
3 30 12 31
3 18 30 19
3 23 29 12
3 18 32 23
3 23 12 18
3 12 30 18
3 16 31 11
3 20 23 32
3 31 12 11
3 28 15 14
3 21 18 17
3 32 18 20
3 29 23 22
3 30 26 25
3 27 26 14
3 13 12 22
3 19 30 17
3 3 14 2
3 0 11 5
3 2 16 0
3 8 24 10
3 7 17 4
3 5 13 9
3 1 27 3
3 4 25 1
3 9 22 8
3 10 20 6
3 6 21 7
3 15 31 16
3 24 23 20
