ply
format ascii 1.0
comment Created by Blender 2.79 (sub 0) - www.blender.org, source file: 'font-lowpoly.blend'
element vertex 16
property float x
property float y
property float z
element face 28
property list uchar uint vertex_indices
end_header
-0.055494 0.182050 0.063858
-0.068005 0.292862 0.063858
-0.194009 0.063641 0.063858
0.161216 0.130665 0.063858
0.036105 0.043534 0.063858
-0.034940 -0.270136 0.063858
-0.189541 -0.398821 0.063858
0.181769 -0.393906 0.063858
-0.059623 0.152668 -0.070933
-0.233914 0.014602 -0.070933
-0.081818 0.352886 -0.070933
0.220138 0.145706 -0.070933
-0.003220 -0.260381 -0.070933
-0.004586 0.041242 -0.070933
-0.242529 -0.431760 -0.070933
0.242869 -0.409692 -0.070933
3 0 1 2
3 3 4 5
3 3 0 4
3 5 4 6
3 7 5 6
3 1 0 3
3 8 9 10
3 11 12 13
3 11 13 8
3 12 14 13
3 15 14 12
3 10 11 8
3 14 15 7
3 7 15 12
3 2 9 8
3 12 11 3
3 8 13 4
3 10 9 2
3 11 10 1
3 13 14 6
3 6 14 7
3 5 7 12
3 0 2 8
3 5 12 3
3 0 8 4
3 1 10 2
3 3 11 1
3 4 13 6
