ply
format ascii 1.0
comment Created by Blender 2.79 (sub 0) - www.blender.org, source file: 'font-lowpoly-v2.blend'
element vertex 54
property float x
property float y
property float z
element face 108
property list uchar uint vertex_indices
end_header
-0.156423 -0.400252 0.018150
-0.000490 -0.483405 -0.018150
-0.000490 -0.460536 0.018150
-0.096129 -0.343978 0.018150
-0.083654 -0.332335 -0.018150
-0.000490 -0.380952 0.018150
-0.000490 -0.364486 -0.018150
-0.221012 -0.254715 0.018150
-0.173749 -0.416423 -0.018150
-0.118102 -0.254715 -0.018150
-0.096129 -0.165452 0.018150
-0.083654 -0.177095 -0.018150
-0.000490 -0.128478 0.018150
-0.135744 -0.254715 0.018150
-0.173749 -0.093007 -0.018150
-0.156423 -0.109178 0.018150
-0.000490 -0.026025 -0.018150
-0.000490 -0.048894 0.018150
-0.245515 -0.254715 -0.018150
0.082674 -0.332335 -0.018150
0.117122 -0.254715 -0.018150
0.095149 -0.343978 0.018150
0.134764 -0.254715 0.018150
0.095149 -0.165452 0.018150
0.082674 -0.177095 -0.018150
-0.000490 -0.144944 -0.018150
0.145269 -0.079807 -0.018150
0.244535 -0.024783 -0.018150
0.244535 -0.254715 -0.018150
0.155443 -0.109178 0.018150
0.220033 -0.254715 0.018150
0.156764 -0.397715 0.018150
0.122622 -0.424115 -0.018150
-0.156423 -0.587252 0.018150
-0.000490 -0.670405 -0.018150
-0.000490 -0.647536 0.018150
-0.096129 -0.541978 0.018150
-0.083654 -0.530335 -0.018150
-0.000490 -0.578952 0.018150
-0.000490 -0.562486 -0.018150
-0.173749 -0.603423 -0.018150
0.155443 -0.587252 0.018150
0.095149 -0.541978 0.018150
0.082674 -0.530335 -0.018150
0.220033 -0.452715 0.018150
0.172769 -0.603423 -0.018150
0.244535 -0.452715 -0.018150
-0.194232 -0.508874 0.018150
-0.209682 -0.476361 -0.018150
-0.212320 -0.514756 0.018150
-0.245720 -0.498997 -0.018150
0.220033 -0.045903 0.018150
0.139769 -0.024783 -0.018150
0.155443 -0.045903 0.018150
3 0 1 2
3 2 3 0
3 4 5 6
3 7 8 0
3 9 3 4
3 10 9 11
3 11 12 10
3 0 13 7
3 14 7 15
3 13 15 7
3 15 16 14
3 10 17 15
3 4 1 8
3 8 9 4
3 14 9 18
3 16 11 14
3 5 19 6
3 20 21 22
3 20 23 24
3 24 12 25
3 26 27 28
3 29 22 30
3 26 17 29
3 17 23 29
3 22 31 30
3 32 2 1
3 20 26 28
3 26 25 16
3 33 34 35
3 35 36 33
3 37 38 39
3 37 34 40
3 34 41 35
3 42 35 41
3 38 43 39
3 44 45 46
3 32 42 31
3 44 42 41
3 34 43 45
3 43 46 45
3 46 30 44
3 2 21 5
3 47 33 36
3 40 48 37
3 40 49 50
3 48 49 47
3 37 47 36
3 51 52 53
3 28 51 30
3 53 26 29
3 51 29 30
3 32 19 28
3 6 32 1
3 0 8 1
3 2 5 3
3 4 3 5
3 7 18 8
3 9 13 3
3 10 13 9
3 11 25 12
3 0 3 13
3 14 18 7
3 13 10 15
3 15 17 16
3 10 12 17
3 4 6 1
3 8 18 9
3 14 11 9
3 16 25 11
3 5 21 19
3 20 19 21
3 20 22 23
3 24 23 12
3 26 52 27
3 29 23 22
3 26 16 17
3 17 12 23
3 44 30 31
3 22 21 31
3 32 31 2
3 20 24 26
3 26 24 25
3 33 40 34
3 35 38 36
3 37 36 38
3 37 39 34
3 34 45 41
3 42 38 35
3 38 42 43
3 44 41 45
3 32 43 42
3 44 31 42
3 34 39 43
3 43 32 46
3 46 28 30
3 2 31 21
3 47 49 33
3 40 50 48
3 40 33 49
3 48 50 49
3 37 48 47
3 51 27 52
3 28 27 51
3 53 52 26
3 51 53 29
3 20 28 19
3 46 32 28
3 6 19 32
