ply
format ascii 1.0
comment Created by Blender 2.79 (sub 0) - www.blender.org, source file: 'font-lowpoly.blend'
element vertex 16
property float x
property float y
property float z
element face 22
property list uchar uint vertex_indices
end_header
-0.092510 -0.089812 0.089038
0.058544 -0.092118 0.089038
0.150388 -0.064911 0.089038
-0.093069 -0.038884 0.089038
-0.143253 -0.038884 0.089038
-0.150578 -0.390932 0.089038
0.088964 -0.390719 0.089038
0.070430 -0.462266 -0.082400
0.178360 -0.452246 -0.082400
-0.040317 -0.032380 -0.082400
-0.041842 0.012512 -0.082400
-0.172223 -0.464379 -0.082400
0.042114 -0.154663 -0.082400
0.194600 -0.007918 -0.082400
-0.194022 0.011456 -0.082400
0.150894 -0.375441 0.089038
3 0 1 2
3 3 4 0
3 4 5 0
3 6 7 8
3 9 10 3
3 5 11 12
3 2 13 9
3 1 6 2
3 3 10 14
3 14 11 5
3 5 1 0
3 12 7 6
3 6 15 2
3 13 2 15
3 15 6 8
3 0 9 3
3 1 5 12
3 0 2 9
3 4 3 14
3 4 14 5
3 1 12 6
3 8 13 15
