ply
format ascii 1.0
comment Created by Blender 2.79 (sub 0) - www.blender.org, source file: 'font-lowpoly-v2.blend'
element vertex 80
property float x
property float y
property float z
element face 160
property list uchar uint vertex_indices
end_header
0.077493 -0.062914 0.015000
0.000000 -0.125800 0.015000
0.000000 -0.047500 0.015000
-0.087823 -0.162177 0.015000
-0.114000 -0.189771 0.015000
-0.139000 -0.094109 0.015000
-0.000000 -0.452500 0.015000
-0.047529 -0.364746 0.015000
-0.000000 -0.374200 0.015000
0.047529 -0.364746 0.015000
0.077493 -0.437086 0.015000
0.143189 -0.393189 0.015000
0.087823 -0.337823 0.015000
0.187086 -0.327493 0.015000
0.114746 -0.297529 0.015000
0.202500 -0.250000 0.015000
0.124200 -0.250000 0.015000
0.187086 -0.172507 0.015000
0.114746 -0.202471 0.015000
0.143189 -0.106811 0.015000
0.087823 -0.162177 0.015000
0.047529 -0.135254 0.015000
-0.087823 -0.337823 0.015000
-0.139000 -0.405893 0.015000
-0.114000 -0.310228 0.015000
-0.077493 -0.062914 0.015000
-0.047529 -0.135254 0.015000
-0.077493 -0.437086 0.015000
-0.207000 -0.064109 0.015000
-0.139000 -0.000000 0.015000
-0.207000 -0.790000 0.015000
-0.197600 -0.870000 0.015000
-0.208400 -0.870000 0.015000
-0.207000 -0.000000 0.015000
-0.216800 0.040000 0.015000
-0.207000 -0.189771 0.015000
-0.207000 -0.310228 0.015000
-0.139000 -0.790000 0.015000
-0.207000 -0.435893 0.015000
0.000000 -0.142000 -0.015000
0.086104 -0.042127 -0.015000
0.000000 -0.025000 -0.015000
-0.076367 -0.173632 -0.015000
-0.119000 -0.064109 -0.015000
-0.095200 -0.201817 -0.015000
-0.000000 -0.475000 -0.015000
-0.041330 -0.349779 -0.015000
-0.086104 -0.457873 -0.015000
0.041330 -0.349779 -0.015000
0.086104 -0.457873 -0.015000
0.159099 -0.409099 -0.015000
0.207873 -0.336104 -0.015000
0.076368 -0.326368 -0.015000
0.225000 -0.250000 -0.015000
0.099779 -0.291330 -0.015000
0.207873 -0.163896 -0.015000
0.108000 -0.250000 -0.015000
0.099779 -0.208670 -0.015000
0.159099 -0.090901 -0.015000
0.076368 -0.173632 -0.015000
0.041330 -0.150221 -0.015000
-0.076368 -0.326367 -0.015000
-0.095200 -0.298183 -0.015000
-0.119000 -0.435893 -0.015000
-0.041330 -0.150221 -0.015000
-0.227000 -0.000000 -0.015000
-0.227000 -0.064109 -0.015000
-0.227000 -0.790000 -0.015000
-0.202200 -0.890000 -0.015000
-0.119000 -0.790000 -0.015000
-0.206800 0.050000 -0.015000
-0.119000 -0.000000 -0.015000
-0.227000 -0.189771 -0.015000
-0.227000 -0.310228 -0.015000
-0.227000 -0.435893 -0.015000
-0.229200 0.040000 0.015000
-0.086103 -0.042127 -0.015000
-0.239200 0.050000 -0.015000
-0.000000 -0.358000 -0.015000
-0.223800 -0.890000 -0.015000
3 0 1 2
3 3 4 5
3 6 7 8
3 6 9 10
3 11 9 12
3 13 12 14
3 15 14 16
3 17 16 18
3 19 18 20
3 0 20 21
3 22 23 24
3 3 25 26
3 22 27 23
3 2 26 25
3 28 29 5
3 30 31 32
3 33 34 29
3 35 5 4
3 24 35 4
3 23 36 24
3 37 38 23
3 39 40 41
3 42 43 44
3 45 46 47
3 48 45 49
3 50 48 49
3 51 52 50
3 53 54 51
3 55 56 53
3 57 58 59
3 59 40 60
3 61 62 63
3 64 43 42
3 63 46 61
3 41 64 39
3 43 65 66
3 67 68 69
3 70 65 71
3 43 72 44
3 44 73 62
3 63 73 74
3 63 67 69
3 65 75 33
3 50 10 11
3 64 3 26
3 70 29 34
3 9 52 12
3 43 25 5
3 76 2 25
3 29 43 5
3 51 11 13
3 39 26 1
3 72 28 35
3 12 54 14
3 41 0 2
3 15 51 13
3 21 39 1
3 14 56 16
3 63 37 23
3 73 35 36
3 55 15 17
3 16 57 18
3 66 33 28
3 62 22 24
3 44 24 4
3 18 59 20
3 61 7 22
3 74 36 38
3 58 17 19
3 68 32 31
3 45 27 6
3 27 63 23
3 59 21 20
3 69 31 37
3 46 8 7
3 40 19 0
3 32 67 30
3 10 45 6
3 67 38 30
3 3 44 4
3 77 34 75
3 8 48 9
3 0 21 1
3 6 27 7
3 6 8 9
3 11 10 9
3 13 11 12
3 15 13 14
3 17 15 16
3 19 17 18
3 0 19 20
3 3 5 25
3 22 7 27
3 2 1 26
3 28 33 29
3 30 37 31
3 33 75 34
3 35 28 5
3 24 36 35
3 23 38 36
3 37 30 38
3 39 60 40
3 45 78 46
3 48 78 45
3 50 52 48
3 51 54 52
3 53 56 54
3 55 57 56
3 57 55 58
3 59 58 40
3 64 76 43
3 63 47 46
3 41 76 64
3 43 71 65
3 67 79 68
3 70 77 65
3 43 66 72
3 44 72 73
3 63 62 73
3 63 74 67
3 65 77 75
3 50 49 10
3 64 42 3
3 70 71 29
3 9 48 52
3 43 76 25
3 76 41 2
3 29 71 43
3 51 50 11
3 39 64 26
3 72 66 28
3 12 52 54
3 41 40 0
3 15 53 51
3 21 60 39
3 14 54 56
3 63 69 37
3 73 72 35
3 55 53 15
3 16 56 57
3 66 65 33
3 62 61 22
3 44 62 24
3 18 57 59
3 61 46 7
3 74 73 36
3 58 55 17
3 68 79 32
3 45 47 27
3 27 47 63
3 59 60 21
3 69 68 31
3 46 78 8
3 40 58 19
3 32 79 67
3 10 49 45
3 67 74 38
3 3 42 44
3 77 70 34
3 8 78 48
