ply
format ascii 1.0
comment Created by Blender 2.79 (sub 0) - www.blender.org, source file: 'font-lowpoly.blend'
element vertex 16
property float x
property float y
property float z
element face 28
property list uchar uint vertex_indices
end_header
0.036862 0.129233 0.057398
0.149806 0.221041 0.062530
-0.163134 0.354823 0.062527
0.070907 0.005049 0.058383
-0.073431 0.025664 0.062422
0.038614 -0.144967 0.057794
0.221655 -0.181838 0.062739
-0.243913 -0.426000 0.062137
0.005614 0.132218 -0.066630
-0.217439 0.392566 -0.057202
0.208274 0.248402 -0.058090
0.111741 0.012046 -0.064887
-0.136593 0.034792 -0.058166
0.003114 -0.142308 -0.065993
0.284916 -0.196106 -0.057807
-0.296992 -0.464613 -0.057155
3 0 1 2
3 0 3 1
3 4 3 0
3 5 3 4
3 5 6 3
3 7 6 5
3 8 9 10
3 8 10 11
3 12 8 11
3 13 12 11
3 13 11 14
3 15 13 14
3 10 9 2
3 4 12 13
3 8 12 4
3 13 15 7
3 7 15 14
3 11 10 1
3 6 14 11
3 2 9 8
3 1 10 2
3 5 4 13
3 0 8 4
3 5 13 7
3 6 7 14
3 3 11 1
3 3 6 11
3 0 2 8
