ply
format ascii 1.0
comment Created by Blender 2.79 (sub 0) - www.blender.org, source file: 'font-lowpoly.blend'
element vertex 16
property float x
property float y
property float z
element face 28
property list uchar uint vertex_indices
end_header
-0.047239 -0.062682 0.069445
-0.117940 -0.014718 0.067289
0.079226 -0.413183 0.069422
-0.180982 0.015171 -0.063437
0.018121 -0.103099 -0.054798
0.017108 -0.370681 -0.054891
0.203134 -0.111732 0.067037
0.200900 -0.021152 0.067287
0.258416 0.012088 -0.064594
-0.201561 -0.347243 0.067060
-0.248908 -0.308551 -0.064055
-0.256114 -0.480308 -0.064636
0.171305 -0.451146 0.067333
0.235778 -0.479994 -0.063288
0.252505 -0.149255 -0.064181
-0.199020 -0.446931 0.067256
3 0 1 2
3 3 4 5
3 6 0 4
3 1 7 8
3 9 2 5
3 9 10 11
3 12 13 4
3 6 14 8
3 11 13 12
3 1 3 5
3 9 15 2
3 0 6 7
3 2 15 12
3 0 7 1
3 2 12 0
3 13 11 5
3 3 8 4
3 11 10 5
3 8 14 4
3 13 5 4
3 14 6 4
3 3 1 8
3 10 9 5
3 15 9 11
3 0 12 4
3 7 6 8
3 15 11 12
3 2 1 5
