ply
format ascii 1.0
comment Created by Blender 2.79 (sub 0) - www.blender.org, source file: 'font-lowpoly.blend'
element vertex 8
property float x
property float y
property float z
element face 12
property list uchar uint vertex_indices
end_header
0.046384 -0.255169 0.070386
0.000000 0.268029 0.070386
-0.046384 -0.255169 0.070386
0.000000 -0.402426 0.070386
0.088346 -0.263705 -0.127059
-0.088346 -0.263705 -0.127059
0.000000 0.333640 -0.118178
0.000000 -0.467535 -0.118955
3 0 1 2
3 3 0 2
3 4 5 6
3 7 5 4
3 3 2 5
3 1 0 4
3 1 6 5
3 3 7 4
3 7 3 5
3 6 1 4
3 2 1 5
3 0 3 4
