ply
format ascii 1.0
comment Created by Blender 2.79 (sub 0) - www.blender.org, source file: 'font-lowpoly-v2.blend'
element vertex 52
property float x
property float y
property float z
element face 98
property list uchar uint vertex_indices
end_header
0.000000 0.017019 -0.015000
-0.133419 -0.036531 0.015000
0.000000 0.000684 0.015000
-0.073728 -0.076727 0.015000
0.000000 -0.056162 0.015000
-0.061378 -0.085043 -0.015000
0.000000 -0.067923 -0.015000
-0.188683 -0.126375 0.015000
-0.150571 -0.024980 -0.015000
-0.212940 -0.126375 -0.015000
-0.086801 -0.126375 -0.015000
-0.104267 -0.126375 0.015000
-0.073728 -0.176023 0.015000
-0.061378 -0.167707 -0.015000
0.012012 -0.213240 0.015000
0.017949 -0.200508 -0.015000
-0.150571 -0.227770 -0.015000
-0.133419 -0.216219 0.015000
-0.017949 -0.277492 -0.015000
-0.012012 -0.264760 0.015000
0.133419 -0.036531 0.015000
0.073728 -0.076727 0.015000
0.061378 -0.085043 -0.015000
-0.061378 -0.392957 -0.015000
0.000000 -0.418882 0.015000
0.000000 -0.405944 -0.015000
-0.133419 -0.441469 0.015000
0.000000 -0.499380 -0.015000
0.000000 -0.481412 0.015000
-0.073728 -0.401273 0.015000
0.134851 -0.260816 0.015000
0.072175 -0.303022 0.015000
0.059208 -0.311754 -0.015000
0.192734 -0.351625 0.015000
0.152861 -0.248688 -0.015000
0.080664 -0.351625 -0.015000
0.067518 -0.397092 0.015000
0.052699 -0.387112 -0.015000
0.099876 -0.351625 0.015000
0.159731 -0.459188 -0.015000
0.139148 -0.445327 0.015000
-0.202187 -0.320438 0.015000
-0.207161 -0.323787 0.015000
-0.150571 -0.453020 -0.015000
-0.222678 -0.317503 -0.015000
-0.207070 -0.306992 -0.015000
0.150571 -0.024980 -0.015000
0.148748 -0.093144 0.015000
0.170640 -0.095136 -0.015000
0.140909 -0.115157 -0.015000
0.138799 -0.099844 0.015000
0.219417 -0.351625 -0.015000
3 0 1 2
3 3 2 1
3 4 5 6
3 7 8 9
3 10 3 11
3 10 12 13
3 13 14 15
3 1 11 3
3 7 16 17
3 17 11 7
3 17 18 19
3 19 12 17
3 20 0 2
3 2 21 20
3 22 4 6
3 23 24 25
3 26 27 28
3 28 29 26
3 30 15 14
3 14 31 30
3 32 19 18
3 33 34 30
3 35 31 32
3 36 35 37
3 37 24 36
3 30 38 33
3 39 33 40
3 38 40 33
3 40 27 39
3 36 28 40
3 26 41 42
3 23 41 29
3 43 42 44
3 43 45 23
3 46 47 48
3 46 49 22
3 21 49 50
3 20 50 47
3 0 22 6
3 0 5 8
3 8 10 9
3 10 16 9
3 13 18 16
3 49 47 50
3 15 32 18
3 34 35 32
3 39 35 51
3 27 37 39
3 23 27 43
3 0 8 1
3 3 4 2
3 4 3 5
3 7 1 8
3 10 5 3
3 10 11 12
3 13 12 14
3 1 7 11
3 7 9 16
3 17 12 11
3 17 16 18
3 19 14 12
3 20 46 0
3 2 4 21
3 22 21 4
3 23 29 24
3 26 43 27
3 28 24 29
3 30 34 15
3 14 19 31
3 32 31 19
3 33 51 34
3 35 38 31
3 36 38 35
3 37 25 24
3 30 31 38
3 39 51 33
3 38 36 40
3 40 28 27
3 36 24 28
3 26 29 41
3 23 45 41
3 43 26 42
3 43 44 45
3 46 20 47
3 46 48 49
3 21 22 49
3 20 21 50
3 0 46 22
3 0 6 5
3 8 5 10
3 10 13 16
3 13 15 18
3 49 48 47
3 15 34 32
3 34 51 35
3 39 37 35
3 27 25 37
3 23 25 27
