ply
format ascii 1.0
comment Created by Blender 2.79 (sub 0) - www.blender.org, source file: 'font-lowpoly-v2.blend'
element vertex 80
property float x
property float y
property float z
element face 160
property list uchar uint vertex_indices
end_header
-0.077493 -0.437086 0.015000
-0.000000 -0.374200 0.015000
-0.000000 -0.452500 0.015000
0.087823 -0.337823 0.015000
0.114000 -0.310229 0.015000
0.139000 -0.405891 0.015000
0.000000 -0.047500 0.015000
0.047529 -0.135254 0.015000
0.000000 -0.125800 0.015000
-0.047529 -0.135254 0.015000
-0.077493 -0.062914 0.015000
-0.143189 -0.106811 0.015000
-0.087823 -0.162177 0.015000
-0.187086 -0.172507 0.015000
-0.114746 -0.202471 0.015000
-0.202500 -0.250000 0.015000
-0.124200 -0.250000 0.015000
-0.187086 -0.327493 0.015000
-0.114746 -0.297529 0.015000
-0.087823 -0.337823 0.015000
-0.047529 -0.364746 0.015000
-0.143189 -0.393189 0.015000
0.087823 -0.162177 0.015000
0.139000 -0.094107 0.015000
0.114000 -0.189772 0.015000
0.077493 -0.437086 0.015000
0.047529 -0.364746 0.015000
0.077493 -0.062914 0.015000
0.207000 -0.435891 0.015000
0.139000 -0.460000 0.015000
0.207000 0.290000 0.015000
0.197600 0.370000 0.015000
0.208400 0.370000 0.015000
0.207000 -0.460000 0.015000
0.216800 -0.500000 0.015000
0.207000 -0.310229 0.015000
0.207000 -0.189772 0.015000
0.139000 0.290000 0.015000
0.207000 -0.064107 0.015000
-0.000000 -0.358000 -0.015000
-0.086104 -0.457873 -0.015000
-0.000000 -0.475000 -0.015000
0.076367 -0.326368 -0.015000
0.119000 -0.435892 -0.015000
0.095200 -0.298183 -0.015000
0.000000 -0.025000 -0.015000
0.041330 -0.150221 -0.015000
0.086104 -0.042127 -0.015000
-0.041330 -0.150221 -0.015000
-0.086104 -0.042127 -0.015000
-0.159099 -0.090901 -0.015000
-0.207873 -0.163896 -0.015000
-0.076368 -0.173632 -0.015000
-0.225000 -0.250000 -0.015000
-0.099779 -0.208670 -0.015000
-0.207873 -0.336104 -0.015000
-0.108000 -0.250000 -0.015000
-0.076368 -0.326368 -0.015000
-0.159099 -0.409099 -0.015000
-0.041330 -0.349779 -0.015000
0.076368 -0.173633 -0.015000
0.095200 -0.201817 -0.015000
0.119000 -0.064107 -0.015000
0.041330 -0.349779 -0.015000
0.086103 -0.457873 -0.015000
0.227000 -0.460000 -0.015000
0.227000 -0.435891 -0.015000
0.227000 0.290000 -0.015000
0.202200 0.390000 -0.015000
0.119000 0.290000 -0.015000
0.206800 -0.510000 -0.015000
0.119000 -0.460000 -0.015000
0.227000 -0.310229 -0.015000
0.227000 -0.189772 -0.015000
0.227000 -0.064107 -0.015000
0.229200 -0.500000 0.015000
-0.099779 -0.291330 -0.015000
0.239200 -0.510000 -0.015000
0.000000 -0.142000 -0.015000
0.223800 0.390000 -0.015000
3 0 1 2
3 3 4 5
3 6 7 8
3 6 9 10
3 11 9 12
3 13 12 14
3 15 14 16
3 17 16 18
3 19 17 18
3 20 21 19
3 22 23 24
3 3 25 26
3 22 27 23
3 2 26 25
3 28 29 5
3 30 31 32
3 33 34 29
3 35 5 4
3 36 4 24
3 23 36 24
3 37 38 23
3 39 40 41
3 42 43 44
3 45 46 47
3 48 45 49
3 50 48 49
3 51 52 50
3 53 54 51
3 55 56 53
3 57 55 58
3 57 40 59
3 60 61 62
3 63 43 42
3 62 46 60
3 64 39 41
3 43 65 66
3 67 68 69
3 70 65 71
3 43 72 44
3 44 73 61
3 62 73 74
3 62 67 69
3 65 75 33
3 50 10 11
3 63 3 26
3 70 29 34
3 9 52 12
3 43 25 5
3 64 2 25
3 29 43 5
3 51 11 13
3 39 26 1
3 72 28 35
3 12 54 14
3 2 40 0
3 15 51 13
3 20 39 1
3 14 56 16
3 62 37 23
3 73 35 36
3 55 15 17
3 16 76 18
3 66 33 28
3 61 22 24
3 44 24 4
3 18 57 19
3 60 7 22
3 74 36 38
3 58 17 21
3 68 32 31
3 45 27 6
3 27 62 23
3 57 20 19
3 69 31 37
3 46 8 7
3 40 21 0
3 32 67 30
3 10 45 6
3 67 38 30
3 3 44 4
3 77 34 75
3 8 48 9
3 0 20 1
3 6 27 7
3 6 8 9
3 11 10 9
3 13 11 12
3 15 13 14
3 17 15 16
3 19 21 17
3 20 0 21
3 3 5 25
3 22 7 27
3 2 1 26
3 28 33 29
3 30 37 31
3 33 75 34
3 35 28 5
3 36 35 4
3 23 38 36
3 37 30 38
3 39 59 40
3 45 78 46
3 48 78 45
3 50 52 48
3 51 54 52
3 53 56 54
3 55 76 56
3 57 76 55
3 57 58 40
3 63 64 43
3 62 47 46
3 64 63 39
3 43 71 65
3 67 79 68
3 70 77 65
3 43 66 72
3 44 72 73
3 62 61 73
3 62 74 67
3 65 77 75
3 50 49 10
3 63 42 3
3 70 71 29
3 9 48 52
3 43 64 25
3 64 41 2
3 29 71 43
3 51 50 11
3 39 63 26
3 72 66 28
3 12 52 54
3 2 41 40
3 15 53 51
3 20 59 39
3 14 54 56
3 62 69 37
3 73 72 35
3 55 53 15
3 16 56 76
3 66 65 33
3 61 60 22
3 44 61 24
3 18 76 57
3 60 46 7
3 74 73 36
3 58 55 17
3 68 79 32
3 45 47 27
3 27 47 62
3 57 59 20
3 69 68 31
3 46 78 8
3 40 58 21
3 32 79 67
3 10 49 45
3 67 74 38
3 3 42 44
3 77 70 34
3 8 78 48
