ply
format ascii 1.0
comment Created by Blender 2.79 (sub 0) - www.blender.org, source file: 'font-lowpoly.blend'
element vertex 28
property float x
property float y
property float z
element face 60
property list uchar uint vertex_indices
end_header
0.206809 0.074611 0.059228
0.005985 0.228576 0.059228
0.086314 0.112544 0.059228
-0.179220 0.152709 0.059228
-0.101122 0.050066 0.059228
-0.101122 -0.079354 0.059228
0.079620 -0.007950 0.059228
0.099702 -0.099436 0.059228
-0.110047 -0.211005 0.059228
-0.212690 -0.271252 0.059228
0.180032 -0.369433 0.059227
0.061769 -0.215468 0.059228
0.010447 -0.356045 0.059227
-0.043106 -0.436374 0.059227
0.278323 0.075840 -0.066918
0.055928 0.064521 -0.066918
0.016805 0.288215 -0.066918
-0.247450 0.168633 -0.066918
-0.073581 0.036930 -0.066918
-0.158039 -0.074703 -0.066918
0.049207 0.017336 -0.066918
0.155811 -0.108263 -0.066918
-0.077368 -0.212921 -0.066918
-0.284600 -0.268811 -0.066918
0.244797 -0.389803 -0.066918
0.024064 -0.227246 -0.066918
0.003573 -0.302126 -0.066918
-0.061073 -0.494007 -0.066918
3 0 1 2
3 3 4 1
3 4 3 5
3 0 2 6
3 7 0 6
3 6 4 5
3 7 6 5
3 7 5 8
3 8 5 9
3 10 7 11
3 11 7 8
3 12 8 9
3 10 11 12
3 12 9 13
3 10 12 13
3 4 2 1
3 14 15 16
3 17 16 18
3 18 19 17
3 14 20 15
3 21 20 14
3 20 19 18
3 21 19 20
3 21 22 19
3 22 23 19
3 24 25 21
3 25 22 21
3 26 23 22
3 24 26 25
3 26 27 23
3 24 27 26
3 18 16 15
3 4 18 15
3 20 18 4
3 8 22 25
3 0 14 16
3 10 24 21
3 21 14 0
3 19 23 9
3 15 20 6
3 9 23 27
3 26 22 8
3 27 24 10
3 16 17 3
3 3 17 19
3 11 25 26
3 2 4 15
3 6 20 4
3 11 8 25
3 1 0 16
3 7 10 21
3 7 21 0
3 5 19 9
3 2 15 6
3 13 9 27
3 12 26 8
3 13 27 10
3 1 16 3
3 5 3 19
3 12 11 26
