ply
format ascii 1.0
comment Created by Blender 2.79 (sub 0) - www.blender.org, source file: 'font-lowpoly-v2.blend'
element vertex 36
property float x
property float y
property float z
element face 64
property list uchar uint vertex_indices
end_header
0.000000 -0.027250 0.015000
-0.173259 -0.074991 -0.015000
-0.155933 -0.092492 0.015000
0.000000 -0.113380 0.015000
0.000000 -0.131200 -0.015000
-0.095639 -0.153395 0.015000
-0.083164 -0.165996 -0.015000
-0.245025 -0.250000 -0.015000
-0.220522 -0.250000 0.015000
-0.135254 -0.250000 0.015000
-0.117612 -0.250000 -0.015000
-0.083164 -0.334004 -0.015000
-0.095639 -0.346605 0.015000
0.000000 -0.368800 -0.015000
-0.155933 -0.407508 0.015000
-0.173259 -0.425009 -0.015000
0.000000 -0.472750 0.015000
0.000000 -0.386620 0.015000
0.000000 -0.497500 -0.015000
0.173259 -0.074991 -0.015000
0.000000 -0.002500 -0.015000
0.155933 -0.092492 0.015000
0.095639 -0.153395 0.015000
0.187516 -0.186146 -0.015000
0.170115 -0.183427 0.015000
0.155559 -0.189517 0.015000
0.083164 -0.165996 -0.015000
0.155014 -0.204347 -0.015000
0.095639 -0.346606 0.015000
0.083164 -0.334005 -0.015000
0.173259 -0.425010 -0.015000
0.155933 -0.407509 0.015000
0.187516 -0.313854 -0.015000
0.170115 -0.316574 0.015000
0.155559 -0.310484 0.015000
0.155014 -0.295653 -0.015000
3 0 1 2
3 2 3 0
3 4 5 6
3 2 7 8
3 6 9 10
3 11 9 12
3 12 13 11
3 8 5 2
3 14 7 15
3 8 12 9
3 15 16 14
3 14 17 12
3 1 4 6
3 6 7 1
3 7 11 15
3 15 13 18
3 0 19 20
3 21 3 22
3 4 22 3
3 23 21 24
3 25 26 27
3 13 28 29
3 16 30 31
3 31 17 16
3 19 4 20
3 30 13 29
3 23 26 19
3 22 24 21
3 31 32 33
3 29 34 35
3 29 32 30
3 33 28 31
3 0 20 1
3 2 5 3
3 4 3 5
3 2 1 7
3 6 5 9
3 11 10 9
3 12 17 13
3 8 9 5
3 14 8 7
3 8 14 12
3 15 18 16
3 14 16 17
3 1 20 4
3 6 10 7
3 7 10 11
3 15 11 13
3 0 21 19
3 21 0 3
3 4 26 22
3 23 19 21
3 25 22 26
3 13 17 28
3 16 18 30
3 31 28 17
3 19 26 4
3 30 18 13
3 23 27 26
3 22 25 24
3 31 30 32
3 29 28 34
3 29 35 32
3 33 34 28
