ply
format ascii 1.0
comment Created by Blender 2.79 (sub 0) - www.blender.org, source file: 'font-lowpoly.blend'
element vertex 12
property float x
property float y
property float z
element face 24
property list uchar uint vertex_indices
end_header
0.005065 -0.166942 0.071123
-0.203566 -0.031610 0.071123
-0.133991 -0.249099 0.071123
0.188948 -0.209837 0.071123
0.010255 -0.330817 0.071123
-0.121382 -0.431430 0.071123
-0.010181 -0.194683 -0.078607
-0.103020 -0.248830 -0.078607
-0.257679 0.036473 -0.078607
0.274711 -0.201160 -0.078607
-0.005314 -0.305060 -0.078607
-0.152768 -0.510984 -0.078607
3 0 1 2
3 3 1 0
3 0 4 3
3 3 4 5
3 4 2 5
3 5 2 1
3 6 7 8
3 9 6 8
3 6 9 10
3 9 11 10
3 10 11 7
3 11 8 7
3 2 7 6
3 4 10 7
3 6 10 4
3 9 8 1
3 1 8 11
3 11 9 3
3 0 2 6
3 2 4 7
3 0 6 4
3 3 9 1
3 5 1 11
3 5 11 3
