ply
format ascii 1.0
comment Created by Blender 2.79 (sub 0) - www.blender.org, source file: 'font-lowpoly.blend'
element vertex 14
property float x
property float y
property float z
element face 24
property list uchar uint vertex_indices
end_header
0.153398 -0.023642 0.046434
-0.098660 -0.390396 0.046288
0.091574 -0.366755 0.045931
0.048947 -0.416266 -0.045916
-0.177468 -0.449061 -0.048589
-0.088900 -0.325765 -0.046402
0.173172 0.038857 -0.046390
0.142238 -0.425260 0.045798
0.186462 -0.469710 -0.048428
0.092938 -0.425260 0.045798
0.048504 -0.469984 -0.048121
-0.140023 -0.398985 0.045806
-0.208394 -0.024359 0.046535
-0.223787 0.043403 -0.038744
3 0 1 2
3 3 4 5
3 0 6 5
3 0 7 8
3 7 9 10
3 9 2 3
3 11 4 3
3 12 13 4
3 12 1 5
3 9 7 2
3 1 12 11
3 2 7 0
3 1 11 2
3 5 6 3
3 8 10 3
3 4 13 5
3 6 8 3
3 1 0 5
3 6 0 8
3 8 7 10
3 10 9 3
3 2 11 3
3 11 12 4
3 13 12 5
