ply
format ascii 1.0
comment Created by Blender 2.79 (sub 0) - www.blender.org, source file: 'font-lowpoly-v2.blend'
element vertex 36
property float x
property float y
property float z
element face 68
property list uchar uint vertex_indices
end_header
0.032177 -0.132177 0.015000
0.072507 -0.012914 0.015000
0.102471 -0.105254 0.015000
0.150000 -0.043220 0.015000
0.150000 -0.027560 0.015000
-0.107000 -0.014109 0.015000
-0.019000 -0.000000 0.015000
-0.019000 -0.064109 0.015000
-0.107000 -0.390000 0.015000
-0.097600 -0.470000 0.015000
-0.108400 -0.470000 0.015000
-0.107000 -0.000000 0.015000
-0.116800 0.040000 0.015000
-0.019000 -0.198393 0.015000
-0.019000 -0.390000 0.015000
0.170000 -0.046460 -0.015000
0.108670 -0.120221 -0.015000
0.001000 -0.034109 -0.015000
0.043633 -0.143632 -0.015000
0.170000 -0.023060 -0.015000
0.001000 -0.000000 -0.015000
-0.127000 -0.014109 -0.015000
-0.127000 -0.390000 -0.015000
-0.102200 -0.490000 -0.015000
0.001000 -0.390000 -0.015000
-0.106800 0.050000 -0.015000
-0.127000 -0.000000 -0.015000
0.001000 -0.198393 -0.015000
-0.129200 0.040000 0.015000
0.063897 0.007873 -0.015000
-0.127000 -0.139771 -0.015000
-0.107000 -0.139771 0.015000
-0.107000 -0.178393 0.015000
-0.139200 0.050000 -0.015000
-0.123800 -0.490000 -0.015000
-0.127000 -0.178393 -0.015000
3 0 1 2
3 3 1 4
3 5 6 7
3 8 9 10
3 11 12 6
3 8 13 14
3 4 15 3
3 16 17 18
3 19 16 15
3 20 21 17
3 22 23 24
3 25 26 20
3 27 22 24
3 26 28 11
3 2 18 0
3 25 6 12
3 17 1 7
3 29 4 1
3 6 17 7
3 3 16 2
3 30 5 31
3 27 14 13
3 21 11 5
3 23 10 9
3 24 9 14
3 10 22 8
3 22 32 8
3 33 12 28
3 0 27 13
3 32 30 31
3 7 31 5
3 31 13 32
3 17 30 18
3 0 7 1
3 3 2 1
3 5 11 6
3 8 14 9
3 11 28 12
3 8 32 13
3 4 19 15
3 16 29 17
3 19 29 16
3 20 26 21
3 22 34 23
3 25 33 26
3 27 35 22
3 26 33 28
3 2 16 18
3 25 20 6
3 17 29 1
3 29 19 4
3 6 20 17
3 3 15 16
3 30 21 5
3 27 24 14
3 21 26 11
3 23 34 10
3 24 23 9
3 10 34 22
3 22 35 32
3 33 25 12
3 0 18 27
3 32 35 30
3 7 0 31
3 31 0 13
3 27 18 30
3 17 21 30
3 30 35 27
