ply
format ascii 1.0
comment Created by Blender 2.79 (sub 0) - www.blender.org, source file: 'font-lowpoly.blend'
element vertex 42
property float x
property float y
property float z
element face 88
property list uchar uint vertex_indices
end_header
0.068042 -0.134773 0.057177
0.015311 -0.011235 0.057177
-0.081409 -0.133458 0.057177
-0.179540 -0.208320 0.057177
0.103319 -0.070684 0.057177
0.218986 -0.057210 0.057177
0.217849 -0.018235 0.057177
0.085398 -0.702009 0.057177
0.124567 -0.625577 0.057177
-0.117533 -0.605426 0.057177
0.064172 -0.293215 0.057177
0.245400 -0.611749 0.057177
0.130503 -0.461569 0.057177
-0.076485 -0.319586 0.057177
0.130788 -0.185824 0.057177
0.091799 -0.304428 0.057177
-0.038880 -0.460631 0.057177
-0.143887 -0.428659 0.057177
-0.112384 -0.480669 0.057177
0.056010 -0.494708 0.057177
-0.174565 -0.638478 0.057177
0.043048 -0.158925 -0.057177
-0.067218 -0.140422 -0.057177
-0.006608 0.044190 -0.057177
-0.241843 -0.209982 -0.057177
0.123014 -0.083836 -0.057177
0.262442 -0.101960 -0.057177
0.263049 0.024401 -0.057177
0.093734 -0.760752 -0.057177
-0.105623 -0.602713 -0.057177
0.107216 -0.614810 -0.057177
0.058673 -0.279857 -0.057177
0.154073 -0.405676 -0.057177
0.306695 -0.624025 -0.057177
-0.110916 -0.322453 -0.057177
0.189423 -0.182596 -0.057177
0.140295 -0.335593 -0.057177
-0.027663 -0.455318 -0.057177
-0.205161 -0.428966 -0.057177
-0.153388 -0.486046 -0.057177
0.047565 -0.526364 -0.057177
-0.230872 -0.665992 -0.057177
3 0 1 2
3 2 1 3
3 0 4 1
3 5 6 4
3 7 8 9
3 0 10 4
3 8 11 12
3 3 13 2
3 10 14 4
3 4 6 1
3 15 10 16
3 16 13 17
3 17 18 16
3 16 18 19
3 19 8 12
3 12 16 19
3 20 9 18
3 10 13 16
3 15 14 10
3 20 7 9
3 7 11 8
3 13 10 2
3 9 19 18
3 21 22 23
3 22 24 23
3 21 23 25
3 26 25 27
3 28 29 30
3 21 25 31
3 30 32 33
3 24 22 34
3 31 25 35
3 25 23 27
3 36 37 31
3 37 38 34
3 38 37 39
3 37 40 39
3 40 32 30
3 32 40 37
3 41 39 29
3 31 37 34
3 36 31 35
3 41 29 28
3 28 30 33
3 34 22 31
3 29 39 40
3 39 41 20
3 5 26 27
3 6 27 23
3 10 31 22
3 11 33 32
3 28 33 11
3 37 36 15
3 3 24 34
3 25 26 5
3 17 38 39
3 9 29 40
3 30 29 9
3 40 30 8
3 12 32 37
3 36 35 14
3 2 22 21
3 20 41 28
3 23 24 3
3 21 31 10
3 34 38 17
3 14 35 25
3 18 39 20
3 6 5 27
3 1 6 23
3 2 10 22
3 12 11 32
3 7 28 11
3 16 37 15
3 13 3 34
3 4 25 5
3 18 17 39
3 19 9 40
3 8 30 9
3 19 40 8
3 16 12 37
3 15 36 14
3 0 2 21
3 7 20 28
3 1 23 3
3 0 21 10
3 13 34 17
3 4 14 25
