ply
format ascii 1.0
comment Created by Blender 2.79 (sub 0) - www.blender.org, source file: 'font-lowpoly-v2.blend'
element vertex 34
property float x
property float y
property float z
element face 64
property list uchar uint vertex_indices
end_header
-0.120651 -0.075440 0.015000
-0.115797 -0.302302 0.015000
-0.045651 -0.307302 0.015000
-0.010000 -0.377302 0.015000
-0.055651 -0.429164 0.015000
0.010000 -0.479164 0.015000
-0.010000 -0.347302 -0.015000
-0.076078 -0.432901 -0.015000
-0.015651 -0.307302 -0.015000
-0.145797 -0.302302 -0.015000
-0.185797 -0.075440 0.015000
-0.173644 -0.643093 0.015000
-0.100651 -0.035440 -0.015000
-0.149467 -0.025440 0.015000
-0.153224 0.004560 -0.015000
-0.205797 -0.045440 -0.015000
-0.156982 -0.025440 0.015000
0.110651 -0.075440 0.015000
0.105797 -0.302302 0.015000
0.175797 -0.075440 0.015000
0.065651 -0.409164 0.015000
0.035651 -0.307302 0.015000
0.065651 -0.439164 -0.015000
0.010000 -0.509164 -0.015000
0.125797 -0.302302 -0.015000
0.195797 -0.045440 -0.015000
0.005651 -0.307302 -0.015000
0.090651 -0.035440 -0.015000
0.139467 -0.025440 0.015000
0.146982 -0.025440 0.015000
0.143224 0.004560 -0.015000
-0.205219 -0.652551 -0.015000
-0.151807 -0.705081 0.015000
-0.155739 -0.744599 -0.015000
3 0 1 2
3 3 4 5
3 2 1 4
3 6 7 8
3 6 2 3
3 7 1 9
3 10 9 1
3 8 0 2
3 11 5 4
3 12 13 0
3 14 15 16
3 10 13 16
3 10 16 15
3 15 12 9
3 17 18 19
3 3 20 21
3 21 20 18
3 6 22 23
3 21 6 3
3 24 20 22
3 19 24 25
3 17 26 21
3 5 22 20
3 27 17 28
3 29 30 28
3 19 28 17
3 19 25 29
3 27 30 25
3 7 9 8
3 22 26 24
3 31 32 11
3 7 11 4
3 32 23 5
3 23 31 7
3 0 10 1
3 3 2 4
3 6 23 7
3 6 8 2
3 7 4 1
3 10 15 9
3 8 12 0
3 11 32 5
3 16 13 14
3 12 14 13
3 10 0 13
3 8 9 12
3 15 14 12
3 17 21 18
3 3 5 20
3 6 26 22
3 21 26 6
3 24 18 20
3 19 18 24
3 17 27 26
3 5 23 22
3 27 28 30
3 29 25 30
3 19 29 28
3 25 24 27
3 26 27 24
3 31 33 32
3 7 31 11
3 32 33 23
3 23 33 31
