ply
format ascii 1.0
comment Created by Blender 2.79 (sub 0) - www.blender.org, source file: 'font-lowpoly.blend'
element vertex 18
property float x
property float y
property float z
element face 36
property list uchar uint vertex_indices
end_header
0.191518 0.024407 0.078265
0.078330 -0.060894 0.078265
-0.059464 -0.392255 0.078265
-0.184134 0.101505 0.078265
-0.103755 -0.072377 0.078265
-0.005331 0.001441 0.078265
0.038960 0.134313 0.078265
-0.077508 0.135954 0.078265
0.012714 0.293432 0.078265
0.252215 0.025756 -0.075161
-0.095544 -0.449600 -0.075161
0.059364 -0.074430 -0.075161
-0.244225 0.112597 -0.075161
-0.006771 0.018279 -0.075161
-0.134977 -0.124772 -0.075161
0.017429 0.119024 -0.075161
-0.058491 0.124393 -0.075161
0.019331 0.355782 -0.075161
3 0 1 2
3 3 4 5
3 0 5 1
3 0 6 5
3 7 3 5
3 8 6 0
3 7 8 3
3 8 7 6
3 5 4 1
3 9 10 11
3 12 13 14
3 9 11 13
3 9 13 15
3 16 13 12
3 17 9 15
3 16 12 17
3 17 15 16
3 13 11 14
3 5 15 13
3 14 3 12
3 11 4 14
3 16 5 13
3 15 7 16
3 12 8 17
3 8 9 17
3 2 11 10
3 9 2 10
3 6 15 5
3 4 3 14
3 1 4 11
3 7 5 16
3 6 7 15
3 3 8 12
3 0 9 8
3 1 11 2
3 0 2 9
