ply
format ascii 1.0
comment Created by Blender 2.79 (sub 0) - www.blender.org, source file: 'font-lowpoly.blend'
element vertex 12
property float x
property float y
property float z
element face 20
property list uchar uint vertex_indices
end_header
-0.045477 -0.349647 0.082354
-0.144917 -0.697685 0.082354
-0.035533 -0.446993 0.082354
-0.158001 -0.040861 0.082354
0.012093 -0.268525 0.082354
0.171719 -0.017310 0.082354
-0.095218 -0.358234 -0.074736
0.031144 -0.373796 -0.074736
-0.193106 -0.816225 -0.074736
-0.218820 0.071654 -0.074736
0.010191 -0.218235 -0.074736
0.231322 0.095957 -0.074736
3 0 1 2
3 3 0 4
3 4 2 5
3 0 2 4
3 6 7 8
3 9 10 6
3 10 11 7
3 6 10 7
3 3 9 6
3 5 11 10
3 7 11 5
3 6 8 1
3 10 9 3
3 1 8 7
3 0 3 6
3 4 5 10
3 2 7 5
3 0 6 1
3 4 10 3
3 2 1 7
