ply
format ascii 1.0
comment Created by Blender 2.79 (sub 0) - www.blender.org, source file: 'font-lowpoly-v2.blend'
element vertex 54
property float x
property float y
property float z
element face 108
property list uchar uint vertex_indices
end_header
-0.128075 -0.378075 0.015000
-0.203254 -0.334190 0.015000
-0.155563 -0.405563 0.015000
0.128075 -0.121925 0.015000
0.084190 -0.046746 0.015000
0.069313 -0.082662 0.015000
-0.069314 -0.417338 0.015000
-0.084190 -0.453254 0.015000
0.172457 -0.426943 0.015000
0.000000 -0.431125 0.015000
0.000000 -0.470000 0.015000
0.167338 -0.180686 0.015000
0.187500 -0.230000 0.015000
0.203253 -0.165809 0.015000
0.155563 -0.094436 0.015000
-0.203253 -0.165810 0.015000
-0.128075 -0.121925 0.015000
-0.155563 -0.094437 0.015000
-0.127500 -0.230000 0.015000
-0.167338 -0.210686 0.015000
-0.084190 -0.046747 0.015000
-0.069314 -0.082662 0.015000
-0.220000 -0.250000 0.015000
-0.000000 -0.068875 0.015000
0.000000 -0.030000 0.015000
-0.167338 -0.319313 0.015000
-0.230970 -0.345671 -0.015000
-0.111369 -0.361369 -0.015000
-0.176777 -0.426777 -0.015000
0.060272 -0.104489 -0.015000
0.176776 -0.073223 -0.015000
0.111369 -0.138631 -0.015000
-0.060273 -0.395511 -0.015000
-0.095671 -0.480970 -0.015000
0.192457 -0.426943 -0.015000
0.000000 -0.407500 -0.015000
0.187043 -0.402727 -0.015000
0.000000 -0.500000 -0.015000
0.145511 -0.189727 -0.015000
0.230970 -0.154329 -0.015000
0.207500 -0.250000 -0.015000
-0.230970 -0.154329 -0.015000
-0.111369 -0.138631 -0.015000
-0.145511 -0.189727 -0.015000
-0.107500 -0.250000 -0.015000
-0.060273 -0.104489 -0.015000
-0.176777 -0.073223 -0.015000
-0.095671 -0.019030 -0.015000
-0.250000 -0.250000 -0.015000
-0.000000 -0.092500 -0.015000
0.000000 0.000000 -0.015000
-0.145511 -0.310273 -0.015000
0.095671 -0.019030 -0.015000
0.167043 -0.412727 0.015000
3 0 1 2
3 3 4 5
3 6 2 7
3 8 9 10
3 9 7 10
3 11 12 13
3 11 14 3
3 15 16 17
3 18 11 19
3 20 16 21
3 22 19 15
3 20 23 24
3 25 22 1
3 24 5 4
3 26 27 28
3 29 30 31
3 28 32 33
3 34 35 36
3 37 32 35
3 38 39 40
3 38 30 39
3 41 42 43
3 38 44 43
3 45 46 47
3 48 43 44
3 49 47 50
3 48 51 26
3 29 50 52
3 11 43 19
3 42 21 16
3 0 51 25
3 39 14 13
3 50 20 24
3 28 7 2
3 41 22 15
3 45 23 21
3 6 27 0
3 4 50 24
3 33 10 7
3 40 13 12
3 48 1 22
3 23 29 5
3 9 32 6
3 17 41 15
3 51 18 25
3 8 36 53
3 29 3 5
3 43 16 19
3 37 8 10
3 30 4 14
3 53 35 9
3 20 46 17
3 26 2 1
3 31 11 3
3 44 12 18
3 0 25 1
3 3 14 4
3 6 0 2
3 8 53 9
3 9 6 7
3 11 13 14
3 15 19 16
3 18 12 11
3 20 17 16
3 22 18 19
3 20 21 23
3 25 18 22
3 24 23 5
3 26 51 27
3 29 52 30
3 28 27 32
3 34 37 35
3 37 33 32
3 38 31 30
3 41 46 42
3 38 40 44
3 45 42 46
3 48 41 43
3 49 45 47
3 48 44 51
3 29 49 50
3 11 38 43
3 42 45 21
3 0 27 51
3 39 30 14
3 50 47 20
3 28 33 7
3 41 48 22
3 45 49 23
3 6 32 27
3 4 52 50
3 33 37 10
3 40 39 13
3 48 26 1
3 23 49 29
3 9 35 32
3 17 46 41
3 51 44 18
3 8 34 36
3 29 31 3
3 43 42 16
3 37 34 8
3 30 52 4
3 53 36 35
3 20 47 46
3 26 28 2
3 31 38 11
3 44 40 12
