ply
format ascii 1.0
comment Created by Blender 2.79 (sub 0) - www.blender.org, source file: 'font-lowpoly.blend'
element vertex 14
property float x
property float y
property float z
element face 28
property list uchar uint vertex_indices
end_header
-0.075328 -0.368145 0.075558
-0.094165 -0.233030 0.075558
-0.125806 -0.560931 0.075558
0.028767 -0.259203 0.075558
0.158482 -0.194009 0.075558
0.007884 -0.164138 0.075558
-0.133545 -0.061185 0.075558
-0.019654 -0.407833 -0.071585
-0.139404 -0.649312 -0.071585
-0.072100 -0.228809 -0.071585
0.003316 -0.234751 -0.071585
0.248457 -0.183313 -0.071585
-0.006412 -0.198592 -0.071585
-0.184633 0.014856 -0.071585
3 0 1 2
3 1 0 3
3 3 0 4
3 5 3 4
3 6 1 5
3 5 4 6
3 1 6 2
3 7 8 9
3 9 10 7
3 10 11 7
3 12 11 10
3 13 12 9
3 12 13 11
3 9 8 13
3 2 8 7
3 1 9 12
3 12 10 3
3 7 11 4
3 13 8 2
3 10 9 1
3 11 13 6
3 0 2 7
3 5 1 12
3 5 12 3
3 0 7 4
3 6 13 2
3 3 10 1
3 4 11 6
