ply
format ascii 1.0
comment Created by Blender 2.79 (sub 0) - www.blender.org, source file: 'font-lowpoly.blend'
element vertex 16
property float x
property float y
property float z
element face 28
property list uchar uint vertex_indices
end_header
-0.098409 -0.213298 0.048945
0.038349 -0.077606 0.048945
0.038349 0.002394 0.048945
0.202853 -0.145682 0.048945
0.040232 0.048234 -0.087978
0.044174 -0.120948 -0.087978
-0.063693 -0.213298 -0.087978
0.240980 -0.180366 -0.087978
-0.240004 -0.213298 -0.087978
-0.184432 -0.213298 0.048945
0.038349 -0.428989 0.048945
0.038349 -0.348989 0.048945
0.202853 -0.280913 0.048945
0.044174 -0.305647 -0.087978
0.040232 -0.474830 -0.087978
0.240980 -0.246230 -0.087978
3 0 1 2
3 2 1 3
3 4 5 6
3 4 7 5
3 6 5 1
3 3 7 4
3 5 7 3
3 4 8 9
3 10 11 0
3 10 12 11
3 6 13 14
3 14 13 15
3 11 13 6
3 12 10 14
3 12 15 13
3 9 8 14
3 9 0 2
3 8 4 6
3 0 6 1
3 2 3 4
3 1 5 3
3 2 4 9
3 9 10 0
3 8 6 14
3 0 11 6
3 15 12 14
3 11 12 13
3 10 9 14
