ply
format ascii 1.0
comment Created by Blender 2.79 (sub 0) - www.blender.org, source file: 'font-lowpoly-v2.blend'
element vertex 54
property float x
property float y
property float z
element face 108
property list uchar uint vertex_indices
end_header
0.000000 -0.083056 -0.016500
-0.141757 -0.158649 0.016500
0.000000 -0.103846 0.016500
-0.086944 -0.209807 0.016500
0.000000 -0.176195 0.016500
-0.075604 -0.220392 -0.016500
0.000000 -0.191164 -0.016500
-0.200475 -0.290956 0.016500
-0.157508 -0.143948 -0.016500
-0.222750 -0.290956 -0.016500
-0.106920 -0.290956 -0.016500
-0.122958 -0.290956 0.016500
-0.086944 -0.372104 0.016500
-0.075604 -0.361519 -0.016500
0.000000 -0.405716 0.016500
0.000000 -0.390748 -0.016500
-0.157508 -0.437963 -0.016500
-0.141757 -0.423262 0.016500
0.000000 -0.498856 -0.016500
0.000000 -0.478066 0.016500
0.075604 -0.220392 -0.016500
0.106920 -0.290956 -0.016500
0.086944 -0.209807 0.016500
0.086944 -0.372104 0.016500
0.075604 -0.361519 -0.016500
0.132508 -0.449963 -0.016500
0.222750 -0.499984 -0.016500
0.127508 -0.499984 -0.016500
0.122958 -0.290956 0.016500
0.141757 -0.423262 0.016500
0.200475 -0.290956 0.016500
0.142958 -0.160956 0.016500
0.111920 -0.136956 -0.016500
0.222750 -0.290956 -0.016500
0.000000 0.086944 -0.016500
-0.141757 0.011351 0.016500
0.000000 0.066154 0.016500
-0.086944 -0.029807 0.016500
0.000000 0.003805 0.016500
-0.075604 -0.040392 -0.016500
0.000000 -0.011164 -0.016500
-0.157508 0.026052 -0.016500
0.141757 0.011351 0.016500
0.086944 -0.029807 0.016500
0.075604 -0.040392 -0.016500
0.200475 -0.110956 0.016500
0.157508 0.026052 -0.016500
0.222750 -0.110956 -0.016500
-0.176129 -0.059902 0.016500
-0.190175 -0.089459 -0.016500
-0.222937 -0.068881 -0.016500
-0.192573 -0.054554 0.016500
0.200475 -0.480784 0.016500
0.141757 -0.480784 0.016500
3 0 1 2
3 3 2 1
3 4 5 6
3 7 8 9
3 10 3 11
3 10 12 13
3 13 14 15
3 1 11 3
3 7 16 17
3 17 11 7
3 17 18 19
3 19 12 17
3 0 5 8
3 8 10 9
3 10 16 9
3 13 18 16
3 20 4 6
3 21 22 20
3 23 21 24
3 24 14 23
3 25 26 27
3 28 29 30
3 19 25 29
3 23 19 29
3 31 22 28
3 2 32 0
3 25 21 33
3 25 15 24
3 34 35 36
3 37 36 35
3 38 39 40
3 34 39 41
3 42 34 36
3 36 43 42
3 44 38 40
3 45 46 42
3 32 43 44
3 43 45 42
3 44 34 46
3 47 44 46
3 30 47 45
3 2 22 31
3 35 48 37
3 41 49 50
3 41 51 35
3 51 49 48
3 39 48 49
3 27 52 53
3 33 52 26
3 25 53 29
3 29 52 30
3 20 32 33
3 32 6 0
3 0 8 1
3 3 4 2
3 4 3 5
3 7 1 8
3 10 5 3
3 10 11 12
3 13 12 14
3 1 7 11
3 7 9 16
3 17 12 11
3 17 16 18
3 19 14 12
3 0 6 5
3 8 5 10
3 10 13 16
3 13 15 18
3 20 22 4
3 21 28 22
3 23 28 21
3 24 15 14
3 25 33 26
3 28 23 29
3 19 18 25
3 23 14 19
3 28 30 31
3 45 31 30
3 2 31 32
3 25 24 21
3 25 18 15
3 34 41 35
3 37 38 36
3 38 37 39
3 34 40 39
3 42 46 34
3 36 38 43
3 44 43 38
3 45 47 46
3 32 31 43
3 43 31 45
3 44 40 34
3 47 32 44
3 30 33 47
3 2 4 22
3 35 51 48
3 41 39 49
3 41 50 51
3 51 50 49
3 39 37 48
3 27 26 52
3 33 30 52
3 25 27 53
3 29 53 52
3 47 33 32
3 21 20 33
3 32 20 6
