ply
format ascii 1.0
comment Created by Blender 2.79 (sub 0) - www.blender.org, source file: 'font-lowpoly.blend'
element vertex 14
property float x
property float y
property float z
element face 20
property list uchar uint vertex_indices
end_header
0.009708 0.387900 0.080237
-0.010752 0.356751 0.080237
0.007976 0.335183 0.080237
0.033491 0.447537 -0.084779
0.035407 0.277310 -0.084779
-0.074025 0.352379 -0.084779
-0.028873 -0.332648 0.080237
0.033578 -0.391108 0.080237
0.006469 0.193321 0.080237
-0.126583 -0.442832 0.080237
-0.078505 -0.311881 -0.121869
0.007657 0.246160 -0.110088
0.085202 -0.405284 -0.112354
-0.189380 -0.480691 -0.110345
3 0 1 2
3 3 4 5
3 0 3 5
3 2 1 5
3 4 3 0
3 6 7 8
3 9 7 6
3 10 11 12
3 13 10 12
3 12 11 8
3 10 13 9
3 9 13 12
3 8 11 10
3 1 0 5
3 4 2 5
3 2 4 0
3 7 12 8
3 6 10 9
3 7 9 12
3 6 8 10
