ply
format ascii 1.0
comment Created by Blender 2.79 (sub 0) - www.blender.org, source file: 'font-lowpoly.blend'
element vertex 14
property float x
property float y
property float z
element face 20
property list uchar uint vertex_indices
end_header
0.002100 0.152149 0.047376
-0.018360 0.121001 0.046937
0.000368 0.099432 0.047306
0.025883 0.211786 -0.046684
0.027800 0.041559 -0.046752
-0.081633 0.116628 -0.046908
-0.063731 -0.483481 -0.047130
-0.063731 0.014942 -0.047130
0.074692 0.014942 -0.047130
0.030130 -0.438920 0.046811
0.030130 -0.029619 0.046811
-0.019170 -0.029619 0.046811
-0.019170 -0.438920 0.046811
0.074692 -0.483481 -0.047130
3 0 1 2
3 3 4 5
3 6 7 8
3 9 10 11
3 0 3 5
3 2 1 5
3 12 11 7
3 10 8 7
3 9 13 8
3 12 6 13
3 4 3 0
3 13 6 8
3 12 9 11
3 1 0 5
3 4 2 5
3 6 12 7
3 11 10 7
3 10 9 8
3 9 12 13
3 2 4 0
