ply
format ascii 1.0
comment Created by Blender 2.79 (sub 0) - www.blender.org, source file: 'font-lowpoly-v2.blend'
element vertex 48
property float x
property float y
property float z
element face 92
property list uchar uint vertex_indices
end_header
-0.157508 -0.027960 -0.016750
-0.138063 -0.062962 0.016250
-0.114728 -0.039627 -0.016750
0.223623 -0.148522 -0.016750
0.157508 -0.027960 -0.016750
0.235290 -0.105742 -0.016750
-0.223623 -0.148522 -0.016750
-0.235290 -0.105742 -0.016750
0.196399 -0.097964 0.016250
0.138063 -0.062962 0.016250
0.200288 -0.125187 0.016250
-0.165286 -0.066851 0.016250
-0.200288 -0.125187 0.016250
-0.196399 -0.097964 0.016250
0.165286 -0.066851 0.016250
-0.235290 -0.420758 -0.016750
-0.114728 -0.486873 -0.016750
-0.157508 -0.498540 -0.016750
-0.138063 -0.463538 0.016250
-0.196399 -0.428536 0.016250
-0.165286 -0.459649 0.016250
-0.200288 -0.401313 0.016250
-0.223623 -0.377978 -0.016750
0.235290 -0.420758 -0.016750
0.200288 -0.401313 0.016250
0.196399 -0.428536 0.016250
0.157508 -0.498540 -0.016750
0.165286 -0.459649 0.016250
0.114728 -0.486873 -0.016750
0.138063 -0.463538 0.016250
-0.087504 -0.288529 0.016250
-0.110839 -0.265195 -0.016750
-0.087504 -0.237971 0.016250
-0.062316 -0.263159 0.016250
-0.025279 -0.175746 0.016250
0.025279 -0.175746 0.016250
0.001945 -0.152411 -0.016750
0.000091 -0.325566 0.016250
-0.000091 -0.200934 0.016250
-0.025279 -0.350754 0.016250
0.025279 -0.350754 0.016250
-0.001945 -0.374089 -0.016750
0.087504 -0.288529 0.016250
0.223623 -0.377978 -0.016750
0.062316 -0.263341 0.016250
0.087504 -0.237971 0.016250
0.114728 -0.039627 -0.016750
0.110839 -0.261305 -0.016750
3 0 1 2
3 3 4 5
3 0 6 7
3 8 9 10
3 5 10 3
3 7 11 0
3 12 11 13
3 4 8 5
3 4 9 14
3 15 16 17
3 18 19 20
3 18 17 16
3 17 19 15
3 15 21 22
3 23 24 25
3 12 7 6
3 26 25 27
3 28 23 26
3 26 29 28
3 27 24 29
3 22 30 31
3 32 30 33
3 32 6 31
3 32 1 12
3 34 2 1
3 34 35 36
3 33 34 32
3 37 38 33
3 30 37 33
3 18 30 21
3 16 39 18
3 39 40 37
3 28 40 41
3 42 29 24
3 43 42 24
3 40 44 37
3 42 45 44
3 35 44 45
3 35 46 36
3 10 35 45
3 47 10 45
3 46 47 36
3 47 28 41
3 36 41 31
3 31 2 36
3 22 41 16
3 0 11 1
3 3 46 4
3 0 2 6
3 8 14 9
3 5 8 10
3 7 13 11
3 12 1 11
3 4 14 8
3 4 46 9
3 15 22 16
3 18 21 19
3 18 20 17
3 17 20 19
3 15 19 21
3 23 43 24
3 12 13 7
3 26 23 25
3 28 43 23
3 26 27 29
3 27 25 24
3 22 21 30
3 32 31 30
3 32 12 6
3 32 34 1
3 34 36 2
3 34 38 35
3 33 38 34
3 37 44 38
3 30 39 37
3 18 39 30
3 16 41 39
3 39 41 40
3 28 29 40
3 42 40 29
3 43 47 42
3 40 42 44
3 42 47 45
3 35 38 44
3 35 9 46
3 10 9 35
3 47 3 10
3 46 3 47
3 47 43 28
3 36 47 41
3 31 6 2
3 22 31 41
