ply
format ascii 1.0
comment Created by Blender 2.79 (sub 0) - www.blender.org, source file: 'font-lowpoly.blend'
element vertex 16
property float x
property float y
property float z
element face 28
property list uchar uint vertex_indices
end_header
-0.085664 -0.229131 -0.080069
-0.003987 -0.138063 -0.080069
0.078778 -0.228595 -0.080069
-0.003814 -0.199232 0.077269
-0.023422 -0.228645 0.077269
0.016491 -0.229140 0.077269
-0.195358 -0.055264 0.077269
-0.195718 -0.408203 0.077269
-0.246598 -0.011021 -0.080069
0.185103 -0.055450 0.077269
0.235918 -0.010852 -0.080069
-0.246218 -0.453402 -0.080069
-0.003586 -0.319720 -0.080069
0.196277 -0.408678 0.077269
0.247764 -0.452873 -0.080069
-0.004160 -0.258481 0.077269
3 0 1 2
3 3 4 5
3 6 3 1
3 7 4 0
3 6 8 0
3 9 10 1
3 7 11 12
3 9 5 2
3 13 14 2
3 13 15 12
3 2 14 12
3 12 11 0
3 0 8 1
3 1 10 2
3 2 12 0
3 5 9 3
3 15 13 5
3 4 7 15
3 3 6 4
3 15 5 4
3 8 6 1
3 11 7 0
3 4 6 0
3 3 9 1
3 15 7 12
3 10 9 2
3 5 13 2
3 14 13 12
