ply
format ascii 1.0
comment Created by Blender 2.79 (sub 0) - www.blender.org, source file: 'font-lowpoly.blend'
element vertex 18
property float x
property float y
property float z
element face 36
property list uchar uint vertex_indices
end_header
-0.183205 -0.129813 0.078265
-0.070017 -0.044512 0.078265
0.067777 0.286849 0.078265
0.192447 -0.206911 0.078265
0.112067 -0.033029 0.078265
0.013643 -0.106847 0.078265
-0.030647 -0.239719 0.078265
0.085821 -0.241360 0.078265
-0.004401 -0.398838 0.078265
-0.243902 -0.131162 -0.075161
0.103857 0.344194 -0.075161
-0.051051 -0.030976 -0.075161
0.252538 -0.218003 -0.075161
0.015084 -0.123685 -0.075161
0.143290 0.019366 -0.075161
-0.009116 -0.224430 -0.075161
0.066804 -0.229799 -0.075161
-0.011018 -0.461188 -0.075161
3 0 1 2
3 3 4 5
3 0 5 1
3 0 6 5
3 7 3 5
3 8 6 0
3 7 8 3
3 8 7 6
3 5 4 1
3 9 10 11
3 12 13 14
3 9 11 13
3 9 13 15
3 16 13 12
3 17 9 15
3 16 12 17
3 17 15 16
3 13 11 14
3 5 6 15
3 3 12 14
3 4 14 11
3 5 13 16
3 7 16 15
3 8 17 12
3 8 0 9
3 2 1 11
3 2 10 9
3 13 5 15
3 4 3 14
3 1 4 11
3 7 5 16
3 6 7 15
3 3 8 12
3 17 8 9
3 10 2 11
3 0 2 9
