ply
format ascii 1.0
comment Created by Blender 2.79 (sub 0) - www.blender.org, source file: 'font-lowpoly-v2.blend'
element vertex 40
property float x
property float y
property float z
element face 72
property list uchar uint vertex_indices
end_header
-0.000000 0.256647 0.012000
-0.055443 0.251603 -0.012000
-0.042414 0.237126 0.012000
-0.078408 0.190000 -0.012000
-0.059982 0.190000 0.012000
-0.042414 0.142874 0.012000
-0.055443 0.128397 -0.012000
-0.000000 0.123353 0.012000
0.042414 0.142874 0.012000
0.059982 0.190000 0.012000
0.055443 0.251603 -0.012000
-0.000000 0.277120 -0.012000
0.078408 0.190000 -0.012000
0.042414 0.237126 0.012000
0.055443 0.128397 -0.012000
0.077000 -0.060000 0.015000
-0.020000 -0.020000 0.015000
-0.077000 -0.060000 0.015000
-0.050000 -0.000000 -0.015000
0.110000 -0.060000 -0.015000
-0.110000 -0.060000 -0.015000
0.060000 -0.083813 -0.015000
-0.060000 -0.083813 -0.015000
-0.110000 -0.465000 -0.015000
0.088000 -0.500000 -0.015000
-0.088000 -0.500000 -0.015000
0.042000 -0.083813 0.015000
-0.042000 -0.083813 0.015000
0.055000 -0.480000 0.015000
-0.077000 -0.465000 0.015000
-0.055000 -0.480000 0.015000
0.050000 -0.000000 -0.015000
-0.060000 -0.442438 -0.015000
-0.042000 -0.442438 0.015000
0.020000 -0.020000 0.015000
0.077000 -0.465000 0.015000
0.060000 -0.442438 -0.015000
0.110000 -0.465000 -0.015000
0.042000 -0.442438 0.015000
-0.000000 0.102880 -0.012000
3 0 1 2
3 2 3 4
3 5 3 6
3 6 7 5
3 8 9 4
3 0 10 11
3 12 13 9
3 8 12 9
3 7 14 8
3 15 16 17
3 18 19 20
3 20 21 22
3 23 24 25
3 26 17 27
3 28 29 30
3 18 17 16
3 31 15 19
3 25 29 23
3 32 29 33
3 21 15 26
3 18 34 31
3 24 30 25
3 24 35 28
3 14 6 3
3 36 35 37
3 32 27 22
3 35 33 29
3 32 37 23
3 22 17 20
3 21 38 36
3 38 27 33
3 22 36 32
3 0 11 1
3 2 1 3
3 5 4 3
3 6 39 7
3 0 2 13
3 4 5 8
3 7 8 5
3 9 13 4
3 2 4 13
3 0 13 10
3 12 10 13
3 8 14 12
3 7 39 14
3 15 34 16
3 18 31 19
3 20 19 21
3 23 37 24
3 26 15 17
3 28 35 29
3 18 20 17
3 31 34 15
3 25 30 29
3 32 23 29
3 21 19 15
3 18 16 34
3 24 28 30
3 24 37 35
3 3 1 10
3 11 10 1
3 12 14 3
3 39 6 14
3 3 10 12
3 36 38 35
3 32 33 27
3 35 38 33
3 32 36 37
3 22 27 17
3 21 26 38
3 38 26 27
3 22 21 36
