ply
format ascii 1.0
comment Created by Blender 2.79 (sub 0) - www.blender.org, source file: 'font-lowpoly.blend'
element vertex 12
property float x
property float y
property float z
element face 20
property list uchar uint vertex_indices
end_header
-0.185398 -0.386259 0.045587
-0.124518 0.036424 0.045587
-0.174961 0.328648 0.045587
-0.020673 -0.041429 0.045587
0.093503 0.010619 0.045587
0.183362 -0.382780 0.045587
-0.207454 -0.483730 -0.177052
-0.188323 0.430361 -0.176568
-0.076618 0.106594 -0.251768
0.129485 0.077206 -0.184461
-0.020014 -0.092064 -0.263990
0.207012 -0.475848 -0.176718
3 0 1 2
3 1 3 4
3 3 5 4
3 0 3 1
3 6 7 8
3 8 9 10
3 10 9 11
3 6 8 10
3 1 4 9
3 2 1 8
3 0 6 10
3 5 3 10
3 5 11 9
3 2 7 6
3 8 1 9
3 7 2 8
3 3 0 10
3 11 5 10
3 4 5 9
3 0 2 6
