ply
format ascii 1.0
comment Created by Blender 2.79 (sub 0) - www.blender.org, source file: 'font-lowpoly-v2.blend'
element vertex 16
property float x
property float y
property float z
element face 28
property list uchar uint vertex_indices
end_header
-0.040000 0.375000 0.015000
0.060000 0.400000 0.015000
0.040000 0.415000 0.015000
0.090000 -0.465000 -0.015000
0.060000 -0.465000 0.015000
0.070000 0.445000 -0.015000
0.090000 0.410000 -0.015000
-0.090000 -0.465000 -0.015000
0.070000 -0.500000 -0.015000
-0.070000 -0.500000 -0.015000
-0.070000 0.395000 -0.015000
-0.090000 0.360000 -0.015000
0.040000 -0.480000 0.015000
-0.060000 -0.465000 0.015000
-0.040000 -0.480000 0.015000
-0.060000 0.360000 0.015000
3 0 1 2
3 3 1 4
3 5 1 6
3 7 8 9
3 10 6 11
3 12 13 14
3 4 15 13
3 15 7 13
3 9 13 7
3 10 2 5
3 15 10 11
3 3 11 6
3 8 14 9
3 8 4 12
3 0 15 1
3 3 6 1
3 5 2 1
3 7 3 8
3 10 5 6
3 12 4 13
3 4 1 15
3 15 11 7
3 9 14 13
3 10 0 2
3 15 0 10
3 3 7 11
3 8 12 14
3 8 3 4
