ply
format ascii 1.0
comment Created by Blender 2.79 (sub 0) - www.blender.org, source file: 'font-lowpoly.blend'
element vertex 14
property float x
property float y
property float z
element face 24
property list uchar uint vertex_indices
end_header
0.125699 -0.026603 0.042384
-0.088662 -0.138808 0.042384
-0.033397 -0.190723 0.042384
-0.083638 -0.237615 0.042384
0.130723 -0.408433 0.042384
-0.140042 0.267004 0.042384
-0.153975 -0.390012 0.042384
0.210585 0.058453 -0.139624
0.038069 -0.195156 -0.193214
-0.064838 -0.093193 -0.201997
0.161181 -0.453422 -0.139531
-0.070659 -0.292362 -0.200208
-0.180941 -0.461656 -0.139768
-0.146855 0.370460 -0.139428
3 0 1 2
3 2 3 4
3 2 1 3
3 1 5 6
3 3 1 6
3 7 8 9
3 8 10 11
3 8 11 9
3 9 12 13
3 11 12 9
3 6 12 11
3 11 10 4
3 0 7 9
3 4 10 8
3 8 7 0
3 9 13 5
3 5 13 12
3 3 6 11
3 3 11 4
3 1 0 9
3 2 4 8
3 2 8 0
3 1 9 5
3 6 5 12
