ply
format ascii 1.0
comment Created by Blender 2.79 (sub 0) - www.blender.org, source file: 'font-lowpoly-v2.blend'
element vertex 32
property float x
property float y
property float z
element face 64
property list uchar uint vertex_indices
end_header
0.000000 -0.027250 0.016500
-0.157508 -0.074991 -0.016500
-0.141757 -0.092492 0.016500
0.000000 -0.113380 0.016500
0.000000 -0.131200 -0.016500
-0.086944 -0.153395 0.016500
-0.075604 -0.165996 -0.016500
-0.222750 -0.250000 -0.016500
-0.200475 -0.250000 0.016500
-0.122958 -0.250000 0.016500
-0.106920 -0.250000 -0.016500
-0.075604 -0.334004 -0.016500
-0.086944 -0.346605 0.016500
0.000000 -0.368800 -0.016500
-0.141757 -0.407508 0.016500
-0.157508 -0.425009 -0.016500
0.000000 -0.472750 0.016500
0.000000 -0.386620 0.016500
0.000000 -0.497500 -0.016500
0.000000 -0.002500 -0.016500
0.141757 -0.092492 0.016500
0.157508 -0.074991 -0.016500
0.075604 -0.165996 -0.016500
0.086944 -0.153395 0.016500
0.200475 -0.250000 0.016500
0.222750 -0.250000 -0.016500
0.106920 -0.250000 -0.016500
0.122958 -0.250000 0.016500
0.075604 -0.334004 -0.016500
0.086944 -0.346605 0.016500
0.141757 -0.407508 0.016500
0.157508 -0.425009 -0.016500
3 0 1 2
3 2 3 0
3 4 5 6
3 2 7 8
3 6 9 10
3 11 9 12
3 12 13 11
3 8 5 2
3 14 7 15
3 8 12 9
3 15 16 14
3 14 17 12
3 1 4 6
3 6 7 1
3 7 11 15
3 15 13 18
3 0 19 1
3 2 5 3
3 4 3 5
3 2 1 7
3 6 5 9
3 11 10 9
3 12 17 13
3 8 9 5
3 14 8 7
3 8 14 12
3 15 18 16
3 14 16 17
3 1 19 4
3 6 10 7
3 7 10 11
3 15 11 13
3 0 20 21
3 20 0 3
3 4 22 23
3 20 24 25
3 22 26 27
3 28 29 27
3 29 28 13
3 24 20 23
3 30 31 25
3 24 27 29
3 31 30 16
3 30 29 17
3 21 22 4
3 22 21 25
3 25 31 28
3 31 18 13
3 0 21 19
3 20 3 23
3 4 23 3
3 20 25 21
3 22 27 23
3 28 27 26
3 29 13 17
3 24 23 27
3 30 25 24
3 24 29 30
3 31 16 18
3 30 17 16
3 21 4 19
3 22 25 26
3 25 28 26
3 31 13 28
