ply
format ascii 1.0
comment Created by Blender 2.79 (sub 0) - www.blender.org, source file: 'font-lowpoly.blend'
element vertex 24
property float x
property float y
property float z
element face 48
property list uchar uint vertex_indices
end_header
-0.077706 -0.062869 0.068662
0.101959 -0.140479 0.068662
0.009756 -0.007669 0.068662
-0.164923 -0.089255 0.068662
-0.104651 -0.214503 0.068662
-0.175908 -0.286135 0.068662
0.106010 -0.206724 0.068662
0.151044 -0.112967 0.068662
-0.029379 -0.278089 0.068662
-0.009831 -0.384962 0.068662
-0.045789 -0.423062 0.068662
0.188446 -0.312123 0.068662
-0.064985 -0.086272 -0.074899
0.015636 0.047292 -0.074899
0.088491 -0.140187 -0.074899
-0.210561 -0.058191 -0.074899
-0.091484 -0.199474 -0.074899
-0.226698 -0.305036 -0.074899
0.143789 -0.244961 -0.074899
0.205467 -0.099018 -0.074899
0.000278 -0.294822 -0.074899
0.004022 -0.362580 -0.074899
-0.053525 -0.478818 -0.074899
0.240544 -0.288435 -0.074899
3 0 1 2
3 0 2 3
3 4 0 3
3 4 3 5
3 6 7 1
3 4 8 1
3 1 7 2
3 8 4 5
3 9 8 5
3 9 5 10
3 11 9 10
3 8 6 1
3 12 13 14
3 12 15 13
3 16 15 12
3 16 17 15
3 18 14 19
3 16 14 20
3 14 13 19
3 20 17 16
3 21 17 20
3 21 22 17
3 23 22 21
3 20 14 18
3 20 18 6
3 2 13 15
3 22 23 11
3 12 14 1
3 11 23 21
3 4 16 12
3 17 22 10
3 9 21 20
3 3 15 17
3 18 19 7
3 1 14 16
3 7 19 13
3 8 20 6
3 3 2 15
3 10 22 11
3 0 12 1
3 9 11 21
3 0 4 12
3 5 17 10
3 8 9 20
3 5 3 17
3 6 18 7
3 4 1 16
3 2 7 13
