ply
format ascii 1.0
comment Created by Blender 2.79 (sub 0) - www.blender.org, source file: 'font-lowpoly.blend'
element vertex 18
property float x
property float y
property float z
element face 36
property list uchar uint vertex_indices
end_header
0.115465 -0.341828 0.065168
-0.159923 -0.240464 0.065811
-0.199704 -0.270658 0.066273
0.187943 0.395428 0.066051
0.118492 0.114467 0.062575
0.134415 0.041134 0.059539
-0.245367 -0.290937 -0.062223
-0.089818 -0.224829 -0.062167
0.073270 -0.285367 -0.062323
0.234126 -0.447366 -0.062395
0.127107 0.030124 -0.073763
0.238478 0.445899 -0.062757
0.119183 0.395461 0.066023
0.068678 0.445899 -0.062757
0.069281 0.133001 -0.068668
0.118527 -0.084027 0.064675
0.076232 -0.078988 -0.065286
0.190824 -0.389594 0.066224
3 0 1 2
3 3 4 5
3 6 7 8
3 9 10 11
3 12 13 14
3 0 8 7
3 7 10 5
3 15 16 8
3 6 9 17
3 14 6 2
3 5 10 16
3 17 9 11
3 11 13 12
3 17 15 0
3 5 4 1
3 2 17 0
3 1 4 2
3 15 17 5
3 3 12 4
3 5 17 3
3 6 14 7
3 8 16 9
3 14 10 7
3 8 9 6
3 9 16 10
3 13 11 14
3 10 14 11
3 4 12 14
3 1 0 7
3 1 7 5
3 0 15 8
3 2 6 17
3 4 14 2
3 15 5 16
3 3 17 11
3 3 11 12
