ply
format ascii 1.0
comment Created by Blender 2.79 (sub 0) - www.blender.org, source file: 'font-lowpoly.blend'
element vertex 18
property float x
property float y
property float z
element face 36
property list uchar uint vertex_indices
end_header
0.139576 -0.094729 0.062537
0.130182 0.245292 0.062537
0.110685 -0.003664 0.062537
-0.013793 -0.006664 0.062537
-0.187024 -0.137221 0.062537
0.004204 -0.126643 0.062537
0.052435 -0.199418 0.062537
0.099083 -0.376680 0.062537
0.198066 -0.135222 0.062537
0.179722 -0.072983 -0.074424
0.094122 -0.011475 -0.074424
0.152232 0.309177 -0.074424
0.010575 -0.027144 -0.074424
-0.250711 -0.157774 -0.074424
0.009493 -0.108411 -0.074424
0.021571 -0.230381 -0.074424
0.094630 -0.444200 -0.074424
0.260504 -0.116718 -0.074424
3 0 1 2
3 2 1 3
3 3 1 4
3 0 2 5
3 5 3 4
3 5 6 0
3 4 6 5
3 7 8 6
3 6 8 0
3 9 10 11
3 10 12 11
3 12 13 11
3 9 14 10
3 14 13 12
3 14 9 15
3 13 14 15
3 16 15 17
3 15 9 17
3 7 16 17
3 5 14 12
3 9 11 1
3 15 16 7
3 12 10 2
3 1 11 13
3 4 13 15
3 2 10 14
3 8 17 9
3 8 7 17
3 3 5 12
3 0 9 1
3 6 15 7
3 3 12 2
3 4 1 13
3 6 4 15
3 5 2 14
3 0 8 9
