ply
format ascii 1.0
comment Created by Blender 2.79 (sub 0) - www.blender.org, source file: 'font-lowpoly-v2.blend'
element vertex 62
property float x
property float y
property float z
element face 120
property list uchar uint vertex_indices
end_header
-0.193292 -0.337529 0.015000
-0.138146 -0.310667 0.015000
-0.193292 -0.310667 0.015000
-0.027823 -0.083806 0.015000
0.027323 -0.310667 0.015000
0.027323 -0.083806 0.015000
-0.158146 -0.427529 0.015000
-0.093000 -0.410667 0.015000
-0.037854 -0.427529 0.015000
-0.027823 -0.310667 0.015000
-0.158146 -0.083806 0.015000
-0.213292 -0.083806 0.015000
-0.108146 -0.310667 -0.015000
-0.223293 -0.337529 -0.015000
-0.223293 -0.310667 -0.015000
-0.093000 -0.380667 -0.015000
-0.128146 -0.487529 -0.015000
-0.037854 -0.457529 -0.015000
-0.093000 -0.507529 -0.015000
-0.243292 -0.023806 -0.015000
-0.189477 -0.033806 0.015000
-0.181962 -0.033806 0.015000
-0.185719 -0.003806 -0.015000
-0.128146 -0.023806 -0.015000
0.057292 -0.310667 -0.015000
0.057292 -0.023806 -0.015000
-0.057854 -0.310667 -0.015000
-0.093000 -0.477529 0.015000
-0.057854 -0.023806 -0.015000
-0.004038 -0.033806 0.015000
0.003477 -0.033806 0.015000
-0.000281 -0.003806 -0.015000
0.157646 -0.083806 0.015000
0.212792 -0.310667 0.015000
0.212792 -0.083806 0.015000
0.157646 -0.310667 0.015000
0.212792 -0.327529 0.015000
0.027354 -0.427529 0.015000
0.092500 -0.410667 0.015000
0.147646 -0.427529 0.015000
0.127646 -0.310667 -0.015000
0.242792 -0.327529 -0.015000
0.147646 -0.457529 -0.015000
0.092500 -0.380667 -0.015000
0.057354 -0.487529 -0.015000
0.057354 -0.310667 -0.015000
0.092500 -0.507529 -0.015000
-0.057792 -0.023806 -0.015000
-0.003977 -0.033806 0.015000
-0.057792 -0.310667 -0.015000
0.003538 -0.033806 0.015000
-0.000219 -0.003806 -0.015000
0.057354 -0.023806 -0.015000
0.242792 -0.310667 -0.015000
0.242792 -0.023806 -0.015000
0.092500 -0.477529 0.015000
0.127646 -0.023806 -0.015000
0.181462 -0.033806 0.015000
0.188977 -0.033806 0.015000
0.185219 -0.003806 -0.015000
-0.005250 -0.375789 0.015000
-0.000738 -0.410475 -0.015000
3 0 1 2
3 3 4 5
3 6 7 1
3 7 8 9
3 2 10 11
3 12 13 14
3 15 16 12
3 15 17 18
3 19 11 20
3 13 6 0
3 11 14 2
3 21 22 20
3 9 15 7
3 10 12 23
3 1 15 12
3 2 13 0
3 5 24 25
3 3 26 9
3 27 17 8
3 27 16 18
3 21 11 10
3 10 23 21
3 28 3 29
3 30 31 29
3 30 3 5
3 5 25 30
3 28 31 25
3 19 23 14
3 32 33 34
3 35 36 33
3 37 38 4
3 38 39 35
3 40 41 42
3 43 44 45
3 43 42 46
3 47 3 48
3 3 49 9
3 50 51 48
3 35 43 38
3 5 45 52
3 4 43 45
3 39 41 36
3 34 53 54
3 32 40 35
3 55 42 39
3 36 53 33
3 55 44 46
3 5 48 3
3 5 52 50
3 56 32 57
3 58 59 57
3 34 57 32
3 34 54 58
3 56 59 54
3 47 52 45
3 8 60 9
3 37 4 60
3 9 60 4
3 61 8 17
3 37 61 44
3 44 61 45
3 49 45 61
3 61 17 49
3 0 6 1
3 3 9 4
3 6 27 7
3 7 27 8
3 2 1 10
3 12 16 13
3 15 18 16
3 15 26 17
3 13 16 6
3 11 19 14
3 19 20 22
3 21 23 22
3 9 26 15
3 10 1 12
3 1 7 15
3 2 14 13
3 5 4 24
3 3 28 26
3 27 18 17
3 27 6 16
3 21 20 11
3 28 29 31
3 30 25 31
3 30 29 3
3 25 24 26
3 26 28 25
3 12 14 23
3 19 22 23
3 32 35 33
3 35 39 36
3 37 55 38
3 38 55 39
3 40 53 41
3 43 46 44
3 43 40 42
3 3 47 49
3 47 48 51
3 50 52 51
3 35 40 43
3 5 4 45
3 4 38 43
3 39 42 41
3 34 33 53
3 32 56 40
3 55 46 42
3 36 41 53
3 55 37 44
3 5 50 48
3 56 57 59
3 58 54 59
3 34 58 57
3 54 53 40
3 40 56 54
3 45 49 47
3 47 51 52
3 61 60 8
3 37 60 61
