ply
format ascii 1.0
comment Created by Blender 2.79 (sub 0) - www.blender.org, source file: 'font-lowpoly-v2.blend'
element vertex 52
property float x
property float y
property float z
element face 100
property list uchar uint vertex_indices
end_header
0.040556 -0.066833 0.015000
-0.040556 0.050000 0.015000
-0.040556 -0.066833 0.015000
-0.040556 -0.146833 0.015000
-0.121667 -0.066833 0.015000
-0.121667 -0.146833 0.015000
0.040556 -0.146833 0.015000
0.121667 -0.146833 0.015000
0.040556 -0.245000 0.015000
-0.040556 -0.245000 0.015000
0.040556 -0.300000 0.015000
-0.040556 -0.300000 0.015000
0.040556 -0.365000 0.015000
-0.040556 -0.375000 0.015000
0.040556 -0.470000 0.015000
0.121667 -0.440000 0.015000
0.121667 -0.375000 0.015000
0.182778 -0.375000 0.015000
0.040556 0.050000 0.015000
-0.021667 0.100000 0.015000
-0.151667 -0.111833 0.015000
0.151667 -0.101833 0.015000
0.121667 -0.066833 0.015000
-0.070556 0.080000 -0.015000
0.070556 -0.036833 -0.015000
-0.070556 -0.036833 -0.015000
-0.121667 -0.036833 -0.015000
-0.070556 -0.176833 -0.015000
-0.151667 -0.176833 -0.015000
0.070556 -0.176833 -0.015000
0.121667 -0.036833 -0.015000
0.151667 -0.176833 -0.015000
0.070556 -0.245000 -0.015000
-0.070556 -0.245000 -0.015000
0.070556 -0.300000 -0.015000
-0.070556 -0.300000 -0.015000
0.070556 -0.335000 -0.015000
-0.070556 -0.405000 -0.015000
0.040556 -0.500000 -0.015000
0.121667 -0.470000 -0.015000
0.121667 -0.345000 -0.015000
0.222778 -0.365000 -0.015000
-0.021667 0.130000 -0.015000
0.070556 0.080000 -0.015000
-0.181667 -0.111833 -0.015000
0.181667 -0.111833 -0.015000
0.021667 0.100000 0.015000
-0.151667 -0.101833 0.015000
-0.181667 -0.071833 -0.015000
0.151667 -0.111833 0.015000
0.021667 0.130000 -0.015000
0.181667 -0.071833 -0.015000
3 0 1 2
3 3 4 5
3 6 2 3
3 7 0 6
3 8 3 9
3 10 9 11
3 12 11 13
3 12 13 14
3 15 12 14
3 16 15 17
3 18 19 1
3 4 20 5
3 7 21 22
3 23 24 25
3 26 27 28
3 25 29 27
3 29 30 31
3 27 32 33
3 33 34 35
3 35 36 37
3 36 38 37
3 36 39 38
3 40 41 39
3 42 43 23
3 44 26 28
3 30 45 31
3 43 46 18
3 5 27 3
3 35 13 11
3 17 40 16
3 19 23 1
3 22 24 0
3 36 10 12
3 16 36 12
3 47 44 20
3 37 14 13
3 4 48 47
3 25 4 2
3 27 9 3
3 20 28 5
3 8 29 6
3 45 21 49
3 1 25 2
3 39 17 15
3 29 7 6
3 33 11 9
3 31 49 7
3 24 18 0
3 50 19 46
3 34 8 10
3 51 22 21
3 14 39 15
3 0 18 1
3 3 2 4
3 6 0 2
3 7 22 0
3 8 6 3
3 10 8 9
3 12 10 11
3 15 16 12
3 18 46 19
3 4 47 20
3 7 49 21
3 23 43 24
3 26 25 27
3 25 24 29
3 29 24 30
3 27 29 32
3 33 32 34
3 35 34 36
3 36 40 39
3 42 50 43
3 44 48 26
3 30 51 45
3 43 50 46
3 5 28 27
3 35 37 13
3 17 41 40
3 19 42 23
3 22 30 24
3 36 34 10
3 16 40 36
3 47 48 44
3 37 38 14
3 4 26 48
3 25 26 4
3 27 33 9
3 20 44 28
3 8 32 29
3 45 51 21
3 1 23 25
3 39 41 17
3 29 31 7
3 33 35 11
3 31 45 49
3 24 43 18
3 50 42 19
3 34 32 8
3 51 30 22
3 14 38 39
