ply
format ascii 1.0
comment Created by Blender 2.79 (sub 0) - www.blender.org, source file: 'dd_logo2.blend'
element vertex 162
property float x
property float y
property float z
element face 161
property list uchar uint vertex_indices
end_header
0.929690 0.127285 0.000000
0.914790 0.174562 0.000000
0.932261 0.089099 0.000000
0.904732 0.249374 0.000000
0.886630 0.255605 0.000000
0.864504 0.365149 0.000000
0.848565 0.331443 0.000000
0.810125 0.473490 0.000000
0.801378 0.401295 0.000000
0.742715 0.573278 0.000000
0.745852 0.464375 0.000000
0.663393 0.663393 0.000000
0.682772 0.519901 0.000000
0.573278 0.742715 0.000000
0.612921 0.567088 0.000000
0.473490 0.810125 0.000000
0.537082 0.605153 0.000000
0.365149 0.864504 0.000000
0.456039 0.633313 0.000000
0.249374 0.904732 0.000000
0.370577 0.650783 0.000000
0.127285 0.929690 0.000000
0.281477 0.656781 0.000000
0.000000 0.938258 0.000000
0.192378 0.650783 0.000000
-0.127285 0.929690 0.000000
0.106915 0.633313 0.000000
-0.249374 0.904732 0.000000
0.025873 0.605153 0.000000
-0.365149 0.864504 0.000000
-0.049966 0.567088 0.000000
-0.473490 0.810125 0.000000
-0.119817 0.519901 0.000000
-0.573278 0.742715 0.000000
-0.182897 0.464375 0.000000
-0.663393 0.663393 0.000000
-0.238423 0.401295 0.000000
-0.742715 0.573278 0.000000
-0.285610 0.331443 0.000000
-0.810125 0.473490 0.000000
-0.323676 0.255605 0.000000
-0.864504 0.365149 0.000000
-0.351835 0.174562 0.000000
-0.904732 0.249374 0.000000
-0.369306 0.089099 0.000000
-0.929690 0.127285 0.000000
-0.375303 0.000000 0.000000
-0.929690 -0.127285 -0.000000
-0.938258 0.000000 0.000000
-0.264438 -0.269094 -0.011269
-0.285610 -0.331443 -0.000000
-0.227818 -0.343490 -0.011269
-0.904732 -0.249374 -0.000000
-0.369306 -0.089099 -0.000000
-0.864504 -0.365149 -0.000000
-0.351835 -0.174562 -0.000000
-0.810125 -0.473490 -0.000000
-0.323676 -0.255605 -0.000000
-0.742715 -0.573278 -0.000000
-0.663393 -0.663393 -0.000000
-0.238423 -0.401295 -0.000000
-0.573278 -0.742715 -0.000000
-0.182898 -0.464375 -0.000000
-0.173569 -0.281411 -0.011269
-0.088992 -0.287717 -0.011269
-0.127635 -0.352897 -0.011269
-0.034929 -0.355720 -0.011269
-0.010584 -0.288452 -0.011269
0.050475 -0.352457 -0.011269
0.342141 0.225785 -0.011269
0.374680 0.224299 -0.011269
0.365314 0.257311 -0.011269
0.325140 0.250934 -0.011269
0.498377 0.126804 -0.011269
0.566887 0.121213 -0.011269
0.554976 0.151771 -0.011269
0.402569 0.257329 -0.011269
0.282222 0.237700 -0.011269
0.306524 0.221885 -0.011269
0.519434 -0.131367 -0.011269
0.541458 -0.094625 -0.011269
0.461425 -0.085779 -0.011269
0.404019 0.217864 -0.011269
0.236735 0.217110 -0.011269
0.267954 0.212159 -0.011269
0.467620 0.240279 -0.011269
0.436730 0.251486 -0.011269
0.430034 0.206919 -0.011269
0.495065 0.224206 -0.011269
0.452601 0.191902 -0.011269
0.471596 0.173252 -0.011269
0.188854 0.188669 -0.011269
0.226555 0.196170 -0.011269
0.486896 0.151406 -0.011269
0.538918 0.179454 -0.011269
0.518890 0.203765 -0.011269
0.182449 0.173478 -0.011269
0.128752 -0.343606 -0.011269
0.128220 -0.274959 -0.011269
0.061779 -0.284053 -0.011269
0.138756 0.151877 -0.011269
0.135761 0.143646 -0.011269
0.086615 0.106236 -0.011269
0.375937 -0.174402 -0.011269
0.337247 -0.200397 -0.011269
0.374096 -0.262279 -0.011269
0.505916 0.099884 -0.011269
0.574476 0.088278 -0.011269
0.509388 0.071083 -0.011269
0.577568 0.053464 -0.011269
0.508670 0.040841 -0.011269
0.575987 0.017269 -0.011269
0.503638 0.009595 -0.011269
0.569559 -0.019809 -0.011269
0.494169 -0.022216 -0.011269
0.558108 -0.057273 -0.011269
0.480139 -0.054153 -0.011269
0.437902 -0.116654 -0.011269
0.409447 -0.146341 -0.011269
0.491861 -0.167001 -0.011269
0.243834 -0.244438 -0.011269
0.188864 -0.261608 -0.011269
0.264625 -0.311131 -0.011269
0.458564 -0.201030 -0.011269
0.322573 -0.288503 -0.011269
0.419367 -0.232955 -0.011269
0.293254 -0.223889 -0.011269
0.200077 -0.329665 -0.011269
0.938258 0.000000 0.000000
0.932261 -0.089099 -0.000000
0.929690 -0.127285 -0.000000
0.914790 -0.174562 -0.000000
0.904732 -0.249374 -0.000000
0.886630 -0.255605 -0.000000
0.864504 -0.365149 -0.000000
0.848565 -0.331443 -0.000000
0.801378 -0.401295 -0.000000
0.810125 -0.473490 -0.000000
0.745852 -0.464375 -0.000000
0.742715 -0.573278 -0.000000
-0.473490 -0.810125 -0.000000
-0.119817 -0.519901 -0.000000
0.612921 -0.567088 -0.000000
0.682772 -0.519901 -0.000000
0.663393 -0.663393 -0.000000
0.192378 -0.650783 -0.000000
0.249374 -0.904732 -0.000000
0.281477 -0.656781 -0.000000
0.573278 -0.742715 -0.000000
0.537082 -0.605153 -0.000000
0.456039 -0.633313 -0.000000
-0.049966 -0.567088 -0.000000
-0.127285 -0.929690 -0.000000
0.025873 -0.605153 -0.000000
0.370577 -0.650783 -0.000000
0.365149 -0.864504 -0.000000
0.473490 -0.810125 -0.000000
-0.249374 -0.904732 -0.000000
0.000000 -0.938258 -0.000000
0.127285 -0.929690 -0.000000
0.106915 -0.633313 -0.000000
-0.365149 -0.864504 -0.000000
3 0 1 2
3 3 4 1
3 5 6 4
3 7 8 6
3 9 10 8
3 11 12 10
3 13 14 12
3 15 16 14
3 17 18 16
3 19 20 18
3 21 22 20
3 23 24 22
3 25 26 24
3 27 28 26
3 29 30 28
3 31 32 30
3 33 34 32
3 35 36 34
3 37 38 36
3 39 40 38
3 41 42 40
3 43 44 42
3 45 46 44
3 47 46 48
3 49 50 51
3 52 53 47
3 54 55 52
3 56 57 54
3 58 50 56
3 59 60 58
3 61 62 59
3 51 63 49
3 64 65 66
3 67 66 68
3 69 70 71
3 72 69 71
3 73 74 75
3 70 76 71
3 72 77 78
3 79 80 81
3 70 82 76
3 77 83 84
3 85 86 87
3 82 86 76
3 88 89 90
3 78 77 84
3 88 85 89
3 91 92 83
3 69 72 78
3 93 94 95
3 95 88 90
3 91 96 92
3 97 98 99
3 100 96 91
3 73 75 94
3 100 101 96
3 85 87 89
3 102 101 100
3 103 104 105
3 86 82 87
3 106 74 73
3 106 107 74
3 108 107 106
3 108 109 107
3 110 109 108
3 110 111 109
3 112 111 110
3 112 113 111
3 114 113 112
3 114 115 113
3 116 115 114
3 81 80 116
3 90 93 95
3 117 79 81
3 80 115 116
3 118 119 117
3 120 121 122
3 103 123 118
3 119 79 117
3 124 105 104
3 125 123 103
3 126 124 104
3 120 124 126
3 123 119 118
3 121 98 127
3 92 84 83
3 68 97 99
3 67 68 99
3 125 103 105
3 124 120 122
3 122 121 127
3 127 98 97
3 93 73 94
3 128 0 2
3 129 130 128
3 131 130 129
3 131 132 130
3 133 132 131
3 133 134 132
3 135 134 133
3 136 134 135
3 136 137 134
3 138 137 136
3 137 138 139
3 140 141 61
3 142 139 143
3 139 142 144
3 145 146 147
3 148 149 150
3 144 149 148
3 151 152 153
3 154 155 156
3 141 157 151
3 158 159 160
3 160 159 145
3 148 150 156
3 139 138 143
3 147 155 154
3 161 141 140
3 147 146 155
3 153 158 160
3 159 146 145
3 161 157 141
3 156 150 154
3 157 152 151
3 152 158 153
3 144 142 149
3 0 3 1
3 3 5 4
3 5 7 6
3 7 9 8
3 9 11 10
3 11 13 12
3 13 15 14
3 15 17 16
3 17 19 18
3 19 21 20
3 21 23 22
3 23 25 24
3 25 27 26
3 27 29 28
3 29 31 30
3 31 33 32
3 33 35 34
3 35 37 36
3 37 39 38
3 39 41 40
3 41 43 42
3 43 45 44
3 45 48 46
3 47 53 46
3 49 57 50
3 52 55 53
3 54 57 55
3 56 50 57
3 58 60 50
3 59 62 60
3 61 141 62
3 51 65 63
3 64 63 65
3 67 64 66
