ply
format ascii 1.0
comment Created by Blender 2.79 (sub 0) - www.blender.org, source file: 'dd_logo.blend'
element vertex 301
property float x
property float y
property float z
element face 388
property list uchar uint vertex_indices
end_header
0.300000 1.224805 0.000499
0.163437 1.211355 0.000499
0.195089 1.505590 0.000499
0.382682 1.448685 0.000499
-0.088899 -0.057224 0.000499
0.032122 -0.121911 0.000499
-0.195090 -0.455980 0.000499
-0.831470 1.080375 0.000499
-0.282029 0.913704 0.000499
-0.346716 0.792684 0.000499
0.000000 1.524805 0.000499
0.032122 1.171521 0.000499
-0.386550 0.661368 0.000499
-0.980785 0.719895 0.000499
-0.923879 0.907488 0.000499
-0.831470 -0.030765 0.000499
-0.923879 0.142122 0.000499
-0.346716 0.256927 0.000499
0.436562 1.211355 0.000499
0.555569 1.356275 0.000499
0.567877 1.171521 0.000499
0.831469 1.080376 0.000499
0.688898 1.106834 0.000499
0.707106 1.231912 0.000499
-0.555570 1.356274 0.000499
-0.382683 1.448684 0.000499
-0.194975 1.019780 0.000499
-0.382683 -0.399075 0.000499
-0.555570 -0.306665 0.000499
-0.194975 0.029830 0.000499
-0.088899 1.106834 0.000499
-0.195090 1.505590 0.000499
-0.707107 1.231912 0.000499
0.794974 1.019781 0.000499
-0.707107 -0.182302 0.000499
-0.282029 0.135906 0.000499
0.923879 0.907489 0.000499
0.882028 0.913705 0.000499
-0.400000 0.524805 0.000499
-1.000000 0.524805 0.000499
0.946715 0.792684 0.000499
0.980785 0.719896 0.000499
0.986549 0.661369 0.000499
-0.980785 0.329715 0.000499
-0.386550 0.388242 0.000499
1.000000 0.524806 0.000499
1.000000 0.524806 0.000499
0.986550 0.388242 0.000499
0.980785 0.329715 0.000499
0.946716 0.256927 0.000499
0.923880 0.142122 0.000499
0.882029 0.135906 0.000499
0.831470 -0.030765 0.000499
0.794975 0.029831 0.000499
0.688900 -0.057223 0.000499
0.707107 -0.182301 0.000499
0.000000 -0.475195 0.000499
0.163437 -0.161745 0.000499
0.195091 -0.455980 0.000499
0.567879 -0.121910 0.000499
0.382684 -0.399074 0.000499
0.300000 -0.175195 0.000499
0.436563 -0.161744 0.000499
0.555571 -0.306664 0.000499
0.476860 0.434139 0.000499
0.556936 0.453862 0.000499
0.531958 0.381546 0.000499
0.312212 0.314174 0.000499
0.215891 0.191740 0.000499
0.185838 0.269378 0.000499
0.407866 0.650430 0.000499
0.310602 0.691882 0.000499
0.435415 0.667961 0.000499
-0.146817 0.236074 0.000499
0.511856 0.498942 0.000499
0.563204 0.547524 0.000499
0.454845 0.308211 0.000499
0.349778 0.229023 0.000499
0.298080 0.669342 0.000499
0.148002 0.663823 0.000499
0.032282 0.241617 0.000499
-0.096728 0.140905 0.000499
0.513115 0.560046 0.000499
0.526582 0.617279 0.000499
0.409766 0.370822 0.000499
0.069848 0.161475 0.000499
0.478998 0.612270 0.000499
1.464193 -1.080535 0.000499
1.393492 -1.032571 0.000499
1.590658 -1.431036 0.000499
1.714566 -1.129585 0.000499
1.529553 -1.120952 0.000499
1.712332 -1.039005 0.000499
1.769848 -1.005765 0.000499
1.309871 -1.365096 0.000499
1.528540 -1.388534 0.000499
1.262524 -1.326404 0.000499
1.255318 -1.498161 0.000499
1.682737 -1.468999 0.000499
1.747210 -1.497847 0.000499
1.763937 -1.167108 0.000499
1.330450 -1.002682 0.000499
1.312412 -1.464784 0.000499
-1.981493 -1.132904 0.000499
-2.033204 -1.027396 0.000499
-2.043442 -1.429355 0.000499
-2.077456 -0.982937 0.000499
-1.983903 -1.027396 0.000499
-1.939487 -0.982706 0.000499
-1.941899 -1.081119 0.000499
-1.749369 -1.066083 0.000499
-1.694757 -1.030937 0.000499
-2.065217 -1.490692 0.000499
2.290776 -1.194542 0.000499
2.082145 -1.059210 0.000499
2.151720 -1.276699 0.000499
2.474659 -1.237437 0.000499
2.295966 -1.358417 0.000499
2.164329 -1.459030 0.000499
2.182691 -1.276430 0.000499
2.275530 -1.222283 0.000499
2.280397 -1.332660 0.000499
2.560422 -1.228760 0.000499
2.028032 -0.991127 0.000499
2.132943 -1.538584 0.000499
0.924549 -1.113755 0.000499
1.075603 -1.116061 0.000499
1.167447 -1.088854 0.000499
0.923990 -1.062827 0.000499
0.873806 -1.062827 0.000499
0.866481 -1.414875 0.000499
1.106023 -1.414662 0.000499
1.087489 -1.486209 0.000499
1.195419 -1.476189 0.000499
0.976742 -1.056323 0.000499
0.975217 -1.011431 0.000499
0.844836 -1.488322 0.000499
1.059173 -1.178606 0.000499
1.211659 -1.031861 0.000499
0.823037 -1.012487 0.000499
1.167953 -1.399384 0.000499
0.211271 -1.133032 0.000499
-0.152302 -1.166018 0.000499
-0.019381 -1.156453 0.000499
0.168940 -1.223924 0.000499
0.175832 -1.474313 0.000499
0.217264 -1.429063 0.000499
0.003919 -1.425051 0.000499
-0.012036 -1.486642 0.000499
-0.107372 -1.116578 0.000499
-0.108685 -1.077932 0.000499
-0.152784 -1.122177 0.000499
-0.202290 -1.425235 0.000499
-0.220922 -1.488461 0.000499
-0.036412 -1.221844 0.000499
0.249330 -1.083970 0.000499
0.308028 -1.471517 0.000499
0.260153 -1.430388 0.000499
-0.239689 -1.078842 0.000499
0.184094 -1.157808 0.000499
-0.195984 -1.122177 0.000499
-1.361074 -1.052097 0.000499
-1.575435 -1.164302 0.000499
-1.520170 -1.216217 0.000499
-1.570411 -1.263109 0.000499
-1.356050 -1.433927 0.000499
-1.626815 -0.758490 0.000499
-1.640748 -1.415506 0.000499
-1.667714 -1.487150 0.000499
-1.557432 -1.317856 0.000499
-1.325592 -1.478916 0.000499
-1.276188 -0.967041 0.000499
-1.551611 -1.118687 0.000499
-1.448704 -1.220650 0.000499
-1.633628 -0.655034 0.000499
-0.379547 -0.839937 0.000499
-0.400007 -0.871085 0.000499
-0.381279 -0.892654 0.000499
-0.351517 -1.431006 0.000499
-0.351517 -1.021705 0.000499
-0.400817 -1.021705 0.000499
-0.355764 -0.780300 0.000499
-0.463280 -0.875458 0.000499
-0.400817 -1.431006 0.000499
-0.445377 -0.977144 0.000499
-0.306955 -0.977144 0.000499
-0.306955 -1.475567 0.000499
-0.445377 -1.475567 0.000499
-0.353847 -0.950527 0.000499
0.502186 -1.090232 0.000499
0.681851 -1.167843 0.000499
0.589648 -1.035033 0.000499
0.414969 -1.116619 0.000499
0.475241 -1.241867 0.000499
0.403984 -1.313498 0.000499
0.685902 -1.234088 0.000499
0.730936 -1.140331 0.000499
0.550513 -1.305453 0.000499
0.570061 -1.412326 0.000499
0.534103 -1.450426 0.000499
0.768338 -1.339487 0.000499
0.580170 -1.322186 0.000499
0.723681 -1.272325 0.000499
0.595528 -0.980072 0.000499
0.369331 -1.085554 0.000499
0.526367 -1.506181 0.000499
0.820436 -1.315799 0.000499
0.514907 -1.113636 0.000499
0.668383 -1.167551 0.000499
0.583914 -1.389944 0.000499
0.488408 -1.226838 0.000499
0.353194 -1.332400 0.000499
0.785359 -1.126382 0.000499
-2.716334 -1.418643 0.000499
-2.991722 -1.317279 0.000499
-3.031503 -1.347473 0.000499
-2.643856 -0.681387 0.000499
-2.713307 -0.962348 0.000499
-2.697384 -1.035681 0.000499
-2.712616 -0.681354 0.000499
-2.763121 -0.630916 0.000499
-2.762518 -0.943814 0.000499
-2.758529 -1.362182 0.000499
-2.921617 -1.301644 0.000499
-2.704692 -1.046691 0.000499
-2.713272 -1.160842 0.000499
-2.755567 -1.155803 0.000499
-3.077166 -1.367752 0.000499
-2.597673 -1.524181 0.000499
-2.640975 -1.466409 0.000499
-2.593321 -0.630916 0.000499
-2.167881 -1.427338 0.000499
-2.112614 -1.485321 0.000499
-2.117300 -1.341969 0.000499
-2.498101 -1.165589 0.000499
-2.495994 -1.104479 0.000499
-2.552515 -1.047001 0.000499
-2.249017 -1.107954 0.000499
-2.194778 -1.049893 0.000499
-2.297245 -1.251667 0.000499
-2.303385 -1.269786 0.000499
-2.325951 -1.356954 0.000499
-2.402710 -1.391266 0.000499
-2.420464 -1.400971 0.000499
-2.480649 -1.423153 0.000499
-2.551306 -1.462654 0.000499
-2.545776 -1.230217 0.000499
-2.338024 -1.134364 0.000499
-2.320990 -1.120758 0.000499
-2.216036 -1.406831 0.000499
-2.290083 -1.387651 0.000499
-2.169027 -1.396988 0.000499
-2.191894 -1.384506 0.000499
-0.668914 -1.411446 0.000499
-0.944302 -1.310082 0.000499
-0.984083 -1.340276 0.000499
-0.596436 -0.674190 0.000499
-0.665887 -0.955151 0.000499
-0.649964 -1.028484 0.000499
-0.665196 -0.674157 0.000499
-0.715701 -0.623719 0.000499
-0.715098 -0.936617 0.000499
-0.711109 -1.354985 0.000499
-0.874197 -1.294447 0.000499
-0.657272 -1.039494 0.000499
-0.665852 -1.153645 0.000499
-0.708147 -1.148606 0.000499
-1.029746 -1.360555 0.000499
-0.550253 -1.516984 0.000499
-0.593555 -1.459212 0.000499
-0.545901 -0.623719 0.000499
1.898010 -0.877739 0.000499
1.877550 -0.908887 0.000499
1.896278 -0.930456 0.000499
1.926040 -1.468808 0.000499
1.926040 -1.059507 0.000499
1.876740 -1.059507 0.000499
1.921793 -0.818102 0.000499
1.814277 -0.913260 0.000499
1.876740 -1.468808 0.000499
1.832179 -1.014946 0.000499
1.970602 -1.014946 0.000499
1.970602 -1.513369 0.000499
1.832179 -1.513369 0.000499
1.923710 -0.988329 0.000499
2.707630 -1.144849 0.000499
2.858684 -1.147155 0.000499
2.950528 -1.119948 0.000499
2.707071 -1.093921 0.000499
2.656887 -1.093921 0.000499
2.649562 -1.445969 0.000499
2.889104 -1.445756 0.000499
2.870570 -1.517303 0.000499
2.978500 -1.507283 0.000499
2.759823 -1.087417 0.000499
2.758298 -1.042525 0.000499
2.627917 -1.519416 0.000499
2.842254 -1.209700 0.000499
2.994740 -1.062955 0.000499
2.606118 -1.043581 0.000499
2.951034 -1.430478 0.000499
3 0 1 2
3 3 0 2
3 4 5 6
3 7 8 9
3 1 10 2
3 1 11 10
3 12 13 14
3 15 16 17
3 0 3 18
3 18 19 20
3 21 22 23
3 24 25 26
3 27 28 29
3 11 30 31
3 11 31 10
3 32 24 8
3 33 22 21
3 34 15 35
3 36 37 21
3 7 32 8
3 38 39 13
3 28 34 35
3 40 37 36
3 14 7 9
3 40 36 41
3 9 12 14
3 42 40 41
3 16 43 44
3 45 41 42
3 12 38 13
3 46 42 45
3 43 39 38
3 47 46 48
3 44 43 38
3 49 47 48
3 17 16 44
3 49 48 50
3 24 26 8
3 51 49 50
3 35 15 17
3 51 50 52
3 25 30 26
3 53 51 52
3 29 28 35
3 54 53 52
3 4 27 29
3 54 52 55
3 56 57 58
3 59 54 55
3 60 61 62
3 55 63 59
3 57 61 58
3 19 23 20
3 5 57 56
3 22 20 23
3 63 60 62
3 37 33 21
3 61 60 58
3 30 25 31
3 63 62 59
3 27 4 6
3 6 5 56
3 3 19 18
3 45 46 41
3 64 65 66
3 67 68 69
3 70 71 72
3 73 35 17
3 74 75 65
3 67 76 77
3 78 79 71
3 80 81 73
3 82 83 75
3 84 66 76
3 69 85 80
3 86 72 83
3 87 88 89
3 90 87 91
3 88 92 93
3 94 89 95
3 94 96 97
3 98 99 91
3 90 100 93
3 97 99 98
3 88 101 95
3 94 102 89
3 87 90 92
3 89 102 98
3 87 92 88
3 89 98 87
3 100 90 91
3 101 88 93
3 96 94 95
3 102 94 97
3 87 98 91
3 92 90 93
3 102 97 98
3 89 88 95
3 103 104 105
3 105 104 106
3 104 107 108
3 107 103 109
3 110 111 109
3 112 111 110
3 105 110 103
3 103 107 104
3 112 105 106
3 106 104 108
3 108 107 109
3 103 110 109
3 105 112 110
3 113 114 115
3 116 114 113
3 113 117 116
3 116 117 118
3 117 115 118
3 118 115 114
3 115 119 120
3 117 121 119
3 120 121 117
3 122 123 114
3 114 123 124
3 124 122 116
3 113 115 120
3 115 117 119
3 113 120 117
3 116 122 114
3 118 114 124
3 118 124 116
3 125 126 127
3 128 129 125
3 129 130 125
3 131 132 133
3 134 135 128
3 130 136 137
3 127 138 134
3 126 131 127
3 128 135 139
3 139 136 130
3 130 126 125
3 137 132 131
3 131 140 127
3 138 127 140
3 140 131 133
3 125 134 128
3 126 130 137
3 125 127 134
3 129 128 139
3 129 139 130
3 126 137 131
3 133 138 140
3 141 142 143
3 144 145 146
3 147 148 144
3 149 150 151
3 152 153 154
3 141 155 149
3 145 156 157
3 151 150 158
3 158 153 152
3 157 156 155
3 154 148 147
3 143 147 159
3 159 146 157
3 142 151 160
3 159 157 141
3 142 160 152
3 143 159 141
3 142 152 143
3 159 144 146
3 159 147 144
3 142 149 151
3 143 152 154
3 142 141 149
3 146 145 157
3 160 151 158
3 160 158 152
3 141 157 155
3 143 154 147
3 161 162 163
3 163 164 165
3 163 162 164
3 162 166 167
3 164 162 167
3 167 168 169
3 169 170 165
3 161 171 172
3 165 170 173
3 173 171 161
3 172 174 166
3 166 174 168
3 164 167 169
3 164 169 165
3 162 161 172
3 163 165 173
3 163 173 161
3 162 172 166
3 167 166 168
3 175 176 177
3 178 179 180
3 175 181 182
3 177 176 182
3 183 180 184
3 179 185 184
3 178 186 185
3 183 187 186
3 188 181 175
3 183 178 180
3 176 175 182
3 188 177 182
3 187 183 184
3 180 179 184
3 179 178 185
3 178 183 186
3 177 188 175
3 189 190 191
3 189 191 192
3 193 189 192
3 193 192 194
3 195 196 190
3 193 197 190
3 190 196 191
3 197 193 194
3 198 197 194
3 198 194 199
3 200 198 199
3 197 195 190
3 201 202 195
3 191 203 204
3 205 206 200
3 207 208 190
3 200 206 209
3 193 210 207
3 211 205 199
3 198 209 201
3 192 204 211
3 202 212 196
3 190 208 210
3 196 212 203
3 197 201 195
3 192 191 204
3 199 205 200
3 189 207 190
3 198 200 209
3 189 193 207
3 194 211 199
3 197 198 201
3 194 192 211
3 195 202 196
3 193 190 210
3 191 196 203
3 213 214 215
3 216 217 218
3 219 220 221
3 213 222 223
3 223 224 218
3 225 226 222
3 227 228 229
3 221 227 215
3 218 224 226
3 229 228 230
3 230 220 219
3 229 225 213
3 218 217 214
3 215 229 213
3 214 217 215
3 225 229 218
3 216 219 217
3 218 229 216
3 217 219 221
3 214 213 223
3 214 223 218
3 213 225 222
3 215 227 229
3 217 221 215
3 225 218 226
3 216 229 230
3 216 230 219
3 231 232 233
3 234 235 236
3 235 237 238
3 239 240 241
3 241 242 243
3 244 245 232
3 234 246 247
3 234 248 235
3 237 235 248
3 237 248 239
3 237 239 249
3 239 250 249
3 251 249 231
3 249 250 231
3 243 231 250
3 231 243 244
3 248 244 243
3 248 243 239
3 252 238 237
3 242 240 239
3 251 233 252
3 247 245 244
3 251 231 233
3 246 234 236
3 236 235 238
3 250 239 241
3 250 241 243
3 231 244 232
3 248 234 247
3 249 252 237
3 243 242 239
3 249 251 252
3 248 247 244
3 253 254 255
3 256 257 258
3 259 260 261
3 253 262 263
3 263 264 258
3 265 266 262
3 267 268 269
3 261 267 255
3 258 264 266
3 269 268 270
3 270 260 259
3 269 265 253
3 258 257 254
3 255 269 253
3 254 257 255
3 265 269 258
3 256 259 257
3 258 269 256
3 257 259 261
3 254 253 263
3 254 263 258
3 253 265 262
3 255 267 269
3 257 261 255
3 265 258 266
3 256 269 270
3 256 270 259
3 271 272 273
3 274 275 276
3 271 277 278
3 273 272 278
3 279 276 280
3 275 281 280
3 274 282 281
3 279 283 282
3 284 277 271
3 279 274 276
3 272 271 278
3 284 273 278
3 283 279 280
3 276 275 280
3 275 274 281
3 274 279 282
3 273 284 271
3 285 286 287
3 288 289 285
3 289 290 285
3 291 292 293
3 294 295 288
3 290 296 297
3 287 298 294
3 286 291 287
3 288 295 299
3 299 296 290
3 290 286 285
3 297 292 291
3 291 300 287
3 298 287 300
3 300 291 293
3 285 294 288
3 286 290 297
3 285 287 294
3 289 288 299
3 289 299 290
3 286 297 291
3 293 298 300
3 64 74 65
3 67 77 68
3 70 78 71
3 73 81 35
3 74 82 75
3 67 84 76
3 80 85 81
3 82 86 83
3 84 64 66
3 69 68 85
3 86 70 72
