ply
format ascii 1.0
comment Created by Blender 2.79 (sub 0) - www.blender.org, source file: 'looking_at.blend'
element vertex 9
property float x
property float y
property float z
property uchar red
property uchar green
property uchar blue
element face 8
property list uchar uint vertex_indices
end_header
0.141421 0.141421 0.000000 96 96 96
0.200000 0.000000 0.000000 64 64 64
0.000000 0.000000 0.000000 128 128 128
0.141421 -0.141421 -0.000000 96 96 96
0.000000 -0.200000 -0.000000 64 64 64
-0.141421 -0.141421 -0.000000 97 97 97
-0.200000 0.000000 0.000000 64 64 64
-0.141421 0.141421 0.000000 96 96 96
0.000000 0.200000 0.000000 64 64 64
3 0 1 2
3 3 4 2
3 5 6 2
3 7 8 2
3 8 0 2
3 1 3 2
3 4 5 2
3 6 7 2
