ply
format ascii 1.0
comment Created by Blender 2.83.19 - www.blender.org, source file: 'looking_at_v2.blend'
element vertex 9
property float x
property float y
property float z
property uchar red
property uchar green
property uchar blue
element face 8
property list uchar uint vertex_indices
end_header
0.070711 0.070711 0.000000 34 34 34
0.100000 0.000000 -0.000000 17 17 17
0.000000 0.000000 -0.000000 51 51 51
0.070711 -0.070711 -0.000000 34 34 34
0.000000 -0.100000 -0.000000 17 17 17
-0.070711 -0.070711 -0.000000 34 34 34
-0.100000 0.000000 -0.000000 17 17 17
-0.070711 0.070711 0.000000 34 34 34
0.000000 0.100000 0.000000 17 17 17
3 0 1 2
3 3 4 2
3 5 6 2
3 7 8 2
3 8 0 2
3 1 3 2
3 4 5 2
3 6 7 2
