ply
format ascii 1.0
comment Created by Blender 2.79 (sub 0) - www.blender.org, source file: 'UI.blend'
element vertex 140
property float x
property float y
property float z
property uchar red
property uchar green
property uchar blue
element face 212
property list uchar uint vertex_indices
end_header
0.430897 -0.178484 -0.000000 125 23 31
0.480000 0.000000 0.000000 73 13 18
0.466400 0.000000 0.000000 124 23 31
0.230184 -0.396353 -0.000000 125 23 31
0.000000 -0.480000 -0.000000 71 13 18
0.245977 -0.401842 -0.000000 71 13 18
0.238328 -0.390910 -0.000000 125 23 31
0.251272 -0.398304 -0.000000 97 18 24
0.278094 -0.364340 -0.000000 125 23 31
0.443462 -0.183688 -0.000000 71 13 18
0.594761 -0.890123 -0.000000 71 13 18
0.466660 -0.726218 -0.000000 125 23 31
0.460042 -0.730641 -0.000000 71 13 18
0.417601 -0.672734 -0.000000 125 23 31
0.406482 -0.680163 -0.000000 71 13 18
0.389199 -0.883610 -0.000000 71 13 18
0.471886 -0.636462 -0.000000 71 13 18
0.498973 -0.704628 -0.000000 71 13 18
0.682633 -0.721179 -0.000000 71 13 18
0.282843 -0.282843 -0.000000 71 13 18
0.380638 -0.157666 -0.000000 125 23 31
0.369552 -0.153073 -0.000000 71 13 18
0.175134 -0.354811 -0.000000 71 13 18
0.167009 -0.374395 -0.000000 125 23 31
0.186555 -0.361335 -0.000000 125 23 31
0.153073 -0.369552 -0.000000 71 13 18
0.000000 -0.412000 -0.000000 143 26 36
0.412000 0.000000 0.000000 123 23 30
0.400000 0.000000 0.000000 74 14 19
0.281985 -0.297571 -0.000000 125 23 31
0.000000 -0.466400 -0.000000 137 25 35
0.264738 -0.309095 -0.000000 125 23 31
0.263377 -0.295849 -0.000000 71 13 18
0.462075 -0.643017 -0.000000 125 23 31
0.277122 -0.381032 -0.000000 71 13 18
0.270908 -0.369142 -0.000000 125 23 31
0.493133 -0.708530 -0.000000 125 23 31
0.272450 -0.384153 -0.000000 97 18 24
0.000000 -0.400000 -0.000000 71 13 18
-0.430897 -0.178484 -0.000000 125 23 31
-0.466400 0.000000 0.000000 124 23 31
-0.480000 0.000000 0.000000 73 13 18
-0.230184 -0.396353 -0.000000 125 23 31
-0.245977 -0.401842 -0.000000 71 13 18
-0.238328 -0.390910 -0.000000 125 23 31
-0.251272 -0.398304 -0.000000 97 18 24
-0.278094 -0.364340 -0.000000 125 23 31
-0.443462 -0.183688 -0.000000 71 13 18
-0.594761 -0.890123 -0.000000 71 13 18
-0.460042 -0.730641 -0.000000 71 13 18
-0.466660 -0.726218 -0.000000 125 23 31
-0.417601 -0.672734 -0.000000 125 23 31
-0.389199 -0.883610 -0.000000 71 13 18
-0.406482 -0.680163 -0.000000 71 13 18
-0.471886 -0.636462 -0.000000 71 13 18
-0.682633 -0.721179 -0.000000 71 13 18
-0.498973 -0.704628 -0.000000 71 13 18
-0.282843 -0.282843 -0.000000 71 13 18
-0.369552 -0.153073 -0.000000 71 13 18
-0.380638 -0.157666 -0.000000 125 23 31
-0.175134 -0.354811 -0.000000 71 13 18
-0.186555 -0.361335 -0.000000 125 23 31
-0.167009 -0.374395 -0.000000 125 23 31
-0.153073 -0.369552 -0.000000 71 13 18
-0.400000 0.000000 0.000000 74 14 19
-0.412000 0.000000 0.000000 123 23 30
-0.281985 -0.297571 -0.000000 125 23 31
-0.264738 -0.309095 -0.000000 125 23 31
-0.263377 -0.295849 -0.000000 71 13 18
-0.462075 -0.643017 -0.000000 125 23 31
-0.277122 -0.381032 -0.000000 71 13 18
-0.270908 -0.369142 -0.000000 125 23 31
-0.493133 -0.708530 -0.000000 125 23 31
-0.272450 -0.384153 -0.000000 97 18 24
0.430897 0.178484 0.000000 125 23 31
0.230184 0.396353 0.000000 125 23 31
0.245977 0.401842 0.000000 71 13 18
0.000000 0.480000 0.000000 71 13 18
0.238328 0.390910 0.000000 125 23 31
0.251272 0.398304 0.000000 97 18 24
0.278094 0.364340 0.000000 125 23 31
0.443462 0.183688 0.000000 71 13 18
0.594761 0.890123 0.000000 71 13 18
0.460042 0.730641 0.000000 71 13 18
0.466660 0.726218 0.000000 125 23 31
0.417601 0.672734 0.000000 125 23 31
0.389199 0.883610 0.000000 71 13 18
0.406482 0.680163 0.000000 71 13 18
0.471886 0.636462 0.000000 71 13 18
0.682633 0.721179 0.000000 71 13 18
0.498973 0.704628 0.000000 71 13 18
0.282843 0.282843 0.000000 71 13 18
0.369552 0.153073 0.000000 71 13 18
0.380638 0.157666 0.000000 125 23 31
0.175134 0.354811 0.000000 71 13 18
0.186555 0.361335 0.000000 125 23 31
0.167009 0.374395 0.000000 125 23 31
0.153073 0.369552 0.000000 71 13 18
0.000000 0.412000 0.000000 143 26 36
0.281985 0.297571 0.000000 125 23 31
0.000000 0.466400 0.000000 137 25 35
0.264738 0.309095 0.000000 125 23 31
0.263377 0.295849 0.000000 71 13 18
0.462075 0.643017 0.000000 125 23 31
0.277122 0.381032 0.000000 71 13 18
0.270908 0.369142 0.000000 125 23 31
0.493133 0.708530 0.000000 125 23 31
0.272450 0.384153 0.000000 97 18 24
0.000000 0.400000 0.000000 71 13 18
-0.430897 0.178484 0.000000 125 23 31
-0.230184 0.396353 0.000000 125 23 31
-0.245977 0.401842 0.000000 71 13 18
-0.238328 0.390910 0.000000 125 23 31
-0.251272 0.398304 0.000000 97 18 24
-0.278094 0.364340 0.000000 125 23 31
-0.443462 0.183688 0.000000 71 13 18
-0.594761 0.890123 0.000000 71 13 18
-0.466660 0.726218 0.000000 125 23 31
-0.460042 0.730641 0.000000 71 13 18
-0.417601 0.672734 0.000000 125 23 31
-0.406482 0.680163 0.000000 71 13 18
-0.389199 0.883610 0.000000 71 13 18
-0.471886 0.636462 0.000000 71 13 18
-0.498973 0.704628 0.000000 71 13 18
-0.682633 0.721179 0.000000 71 13 18
-0.282843 0.282843 0.000000 71 13 18
-0.380638 0.157666 0.000000 125 23 31
-0.369552 0.153073 0.000000 71 13 18
-0.175134 0.354811 0.000000 71 13 18
-0.167009 0.374395 0.000000 125 23 31
-0.186555 0.361335 0.000000 125 23 31
-0.153073 0.369552 0.000000 71 13 18
-0.281985 0.297571 0.000000 125 23 31
-0.264738 0.309095 0.000000 125 23 31
-0.263377 0.295849 0.000000 71 13 18
-0.462075 0.643017 0.000000 125 23 31
-0.277122 0.381032 0.000000 71 13 18
-0.270908 0.369142 0.000000 125 23 31
-0.493133 0.708530 0.000000 125 23 31
-0.272450 0.384153 0.000000 97 18 24
3 0 1 2
3 3 4 5
3 6 5 7
3 8 9 0
3 10 11 12
3 5 13 7
3 13 12 11
3 12 14 15
3 16 17 18
3 19 20 21
3 22 23 24
3 25 26 23
3 21 27 28
3 29 0 20
3 24 3 6
3 23 30 3
3 20 2 27
3 31 8 29
3 32 29 19
3 33 17 16
3 34 33 16
3 35 34 8
3 24 35 31
3 22 31 32
3 33 11 36
3 7 33 37
3 6 37 35
3 11 10 36
3 17 36 10
3 0 9 1
3 3 30 4
3 6 3 5
3 8 34 9
3 5 14 13
3 13 14 12
3 19 29 20
3 22 25 23
3 25 38 26
3 21 20 27
3 29 8 0
3 24 23 3
3 23 26 30
3 20 0 2
3 31 35 8
3 32 31 29
3 33 36 17
3 34 37 33
3 35 37 34
3 24 6 35
3 22 24 31
3 33 13 11
3 7 13 33
3 6 7 37
3 39 40 41
3 42 43 4
3 44 45 43
3 46 39 47
3 48 49 50
3 43 45 51
3 51 50 49
3 49 52 53
3 54 55 56
3 57 58 59
3 60 61 62
3 63 62 26
3 58 64 65
3 66 59 39
3 61 44 42
3 62 42 30
3 59 65 40
3 67 66 46
3 68 57 66
3 69 54 56
3 70 54 69
3 71 46 70
3 61 67 71
3 60 68 67
3 69 72 50
3 45 73 69
3 44 71 73
3 50 72 48
3 56 48 72
3 39 41 47
3 42 4 30
3 44 43 42
3 46 47 70
3 43 51 53
3 51 49 53
3 57 59 66
3 60 62 63
3 63 26 38
3 58 65 59
3 66 39 46
3 61 42 62
3 62 30 26
3 59 40 39
3 67 46 71
3 68 66 67
3 69 56 72
3 70 69 73
3 71 70 73
3 61 71 44
3 60 67 61
3 69 50 51
3 45 69 51
3 44 73 45
3 74 2 1
3 75 76 77
3 78 79 76
3 80 74 81
3 82 83 84
3 76 79 85
3 85 84 83
3 83 86 87
3 88 89 90
3 91 92 93
3 94 95 96
3 97 96 98
3 92 28 27
3 99 93 74
3 95 78 75
3 96 75 100
3 93 27 2
3 101 99 80
3 102 91 99
3 103 88 90
3 104 88 103
3 105 80 104
3 95 101 105
3 94 102 101
3 103 106 84
3 79 107 103
3 78 105 107
3 84 106 82
3 90 82 106
3 74 1 81
3 75 77 100
3 78 76 75
3 80 81 104
3 76 85 87
3 85 83 87
3 91 93 99
3 94 96 97
3 97 98 108
3 92 27 93
3 99 74 80
3 95 75 96
3 96 100 98
3 93 2 74
3 101 80 105
3 102 99 101
3 103 90 106
3 104 103 107
3 105 104 107
3 95 105 78
3 94 101 95
3 103 84 85
3 79 103 85
3 78 107 79
3 109 41 40
3 110 77 111
3 112 111 113
3 114 115 109
3 116 117 118
3 111 119 113
3 119 118 117
3 118 120 121
3 122 123 124
3 125 126 127
3 128 129 130
3 131 98 129
3 127 65 64
3 132 109 126
3 130 110 112
3 129 100 110
3 126 40 65
3 133 114 132
3 134 132 125
3 135 123 122
3 136 135 122
3 137 136 114
3 130 137 133
3 128 133 134
3 135 117 138
3 113 135 139
3 112 139 137
3 117 116 138
3 123 138 116
3 109 115 41
3 110 100 77
3 112 110 111
3 114 136 115
3 111 120 119
3 119 120 118
3 125 132 126
3 128 131 129
3 131 108 98
3 127 126 65
3 132 114 109
3 130 129 110
3 129 98 100
3 126 109 40
3 133 137 114
3 134 133 132
3 135 138 123
3 136 139 135
3 137 139 136
3 130 112 137
3 128 130 133
3 135 119 117
3 113 119 135
3 112 113 139
