ply
format ascii 1.0
comment Created by Blender 2.79 (sub 0) - www.blender.org, source file: 'particle.blend'
element vertex 54
property float x
property float y
property float z
property uchar red
property uchar green
property uchar blue
element face 20
property list uchar uint vertex_indices
end_header
0.000000 -0.200000 0.000000 44 52 77
0.144720 -0.089443 0.105144 44 52 77
-0.055277 -0.089443 0.170128 44 52 77
0.144720 -0.089443 0.105144 44 53 78
0.000000 -0.200000 0.000000 44 53 78
0.144720 -0.089443 -0.105144 44 53 78
-0.178885 -0.089443 0.000000 44 52 77
0.000000 -0.200000 0.000000 45 53 79
-0.178885 -0.089443 0.000000 45 53 79
-0.055277 -0.089443 -0.170128 45 53 79
0.000000 -0.200000 0.000000 45 54 79
-0.055277 -0.089443 -0.170128 45 54 79
0.144720 -0.089443 -0.105144 45 54 79
0.144720 -0.089443 -0.105144 44 52 77
0.178885 0.089443 0.000000 44 52 77
-0.055277 -0.089443 0.170128 52 62 91
0.144720 -0.089443 0.105144 52 62 91
0.055277 0.089443 0.170128 52 62 91
-0.178885 -0.089443 0.000000 48 57 84
-0.055277 -0.089443 0.170128 48 57 84
-0.144720 0.089443 0.105144 48 57 84
-0.055277 -0.089443 -0.170128 46 55 81
-0.178885 -0.089443 0.000000 46 55 81
-0.144720 0.089443 -0.105144 46 55 81
0.144720 -0.089443 -0.105144 48 57 83
-0.055277 -0.089443 -0.170128 48 57 83
0.055277 0.089443 -0.170128 48 57 83
0.144720 -0.089443 0.105144 53 62 91
0.178885 0.089443 0.000000 53 62 91
0.055277 0.089443 0.170128 53 62 91
-0.055277 -0.089443 0.170128 56 67 97
0.055277 0.089443 0.170128 56 67 97
-0.144720 0.089443 0.105144 56 67 97
-0.144720 0.089443 0.105144 46 55 81
-0.055277 -0.089443 -0.170128 49 58 85
-0.144720 0.089443 -0.105144 49 58 85
0.055277 0.089443 -0.170128 49 58 85
0.144720 -0.089443 -0.105144 47 56 82
0.055277 0.089443 -0.170128 47 56 82
0.178885 0.089443 0.000000 47 56 82
0.055277 0.089443 0.170128 58 68 100
0.178885 0.089443 0.000000 58 68 100
0.000000 0.200000 0.000000 58 68 100
-0.144720 0.089443 0.105144 59 70 102
0.055277 0.089443 0.170128 59 70 102
0.000000 0.200000 0.000000 59 70 102
-0.144720 0.089443 -0.105144 55 65 96
-0.144720 0.089443 0.105144 55 65 96
0.000000 0.200000 0.000000 55 65 96
0.055277 0.089443 -0.170128 51 60 89
-0.144720 0.089443 -0.105144 51 60 89
0.000000 0.200000 0.000000 51 60 89
0.055277 0.089443 -0.170128 53 62 91
0.000000 0.200000 0.000000 53 62 91
3 0 1 2
3 3 4 5
3 0 2 6
3 7 8 9
3 10 11 12
3 1 13 14
3 15 16 17
3 18 19 20
3 21 22 23
3 24 25 26
3 27 28 29
3 30 31 32
3 22 33 23
3 34 35 36
3 37 38 39
3 40 41 42
3 43 44 45
3 46 47 48
3 49 50 51
3 28 52 53
