ply
format ascii 1.0
comment Created by Blender 2.79 (sub 0) - www.blender.org, source file: 'particle.blend'
element vertex 58
property float x
property float y
property float z
property uchar red
property uchar green
property uchar blue
element face 20
property list uchar uint vertex_indices
end_header
0.000000 -0.200000 0.000000 103 122 181
0.144720 -0.089443 0.105144 103 122 181
-0.055277 -0.089443 0.170128 103 122 181
0.144720 -0.089443 0.105144 104 124 184
0.000000 -0.200000 0.000000 104 124 184
0.144720 -0.089443 -0.105144 104 124 184
0.000000 -0.200000 0.000000 103 123 182
-0.055277 -0.089443 0.170128 103 123 182
-0.178885 -0.089443 0.000000 103 123 182
0.000000 -0.200000 0.000000 105 125 185
-0.178885 -0.089443 0.000000 105 125 185
-0.055277 -0.089443 -0.170128 105 125 185
0.000000 -0.200000 0.000000 106 126 186
-0.055277 -0.089443 -0.170128 106 126 186
0.144720 -0.089443 -0.105144 106 126 186
0.144720 -0.089443 -0.105144 103 122 181
0.178885 0.089443 0.000000 103 122 181
-0.055277 -0.089443 0.170128 120 143 211
0.144720 -0.089443 0.105144 120 143 211
0.055277 0.089443 0.170128 120 143 211
-0.178885 -0.089443 0.000000 112 133 197
-0.055277 -0.089443 0.170128 112 133 197
-0.144720 0.089443 0.105144 112 133 197
-0.055277 -0.089443 -0.170128 107 128 189
-0.178885 -0.089443 0.000000 107 128 189
-0.144720 0.089443 -0.105144 107 128 189
0.144720 -0.089443 -0.105144 111 132 195
-0.055277 -0.089443 -0.170128 111 132 195
0.055277 0.089443 -0.170128 111 132 195
0.144720 -0.089443 0.105144 121 144 212
0.178885 0.089443 0.000000 121 144 212
0.055277 0.089443 0.170128 121 144 212
-0.055277 -0.089443 0.170128 128 152 224
0.055277 0.089443 0.170128 128 152 224
-0.144720 0.089443 0.105144 128 152 224
-0.178885 -0.089443 0.000000 108 129 191
-0.144720 0.089443 0.105144 108 129 191
-0.144720 0.089443 -0.105144 108 129 191
-0.055277 -0.089443 -0.170128 113 134 198
-0.144720 0.089443 -0.105144 113 134 198
0.055277 0.089443 -0.170128 113 134 198
0.144720 -0.089443 -0.105144 109 130 192
0.055277 0.089443 -0.170128 109 130 192
0.178885 0.089443 0.000000 109 130 192
0.055277 0.089443 0.170128 132 156 230
0.178885 0.089443 0.000000 132 156 230
0.000000 0.200000 0.000000 132 156 230
-0.144720 0.089443 0.105144 135 160 235
0.055277 0.089443 0.170128 135 160 235
0.000000 0.200000 0.000000 135 160 235
-0.144720 0.089443 -0.105144 127 150 221
-0.144720 0.089443 0.105144 127 150 221
0.000000 0.200000 0.000000 127 150 221
0.055277 0.089443 -0.170128 118 140 206
-0.144720 0.089443 -0.105144 118 140 206
0.000000 0.200000 0.000000 118 140 206
0.055277 0.089443 -0.170128 121 144 212
0.000000 0.200000 0.000000 121 144 212
3 0 1 2
3 3 4 5
3 6 7 8
3 9 10 11
3 12 13 14
3 1 15 16
3 17 18 19
3 20 21 22
3 23 24 25
3 26 27 28
3 29 30 31
3 32 33 34
3 35 36 37
3 38 39 40
3 41 42 43
3 44 45 46
3 47 48 49
3 50 51 52
3 53 54 55
3 30 56 57
