ply
format ascii 1.0
comment Created by Blender 2.79 (sub 0) - www.blender.org, source file: 'particle.blend'
element vertex 58
property float x
property float y
property float z
property uchar red
property uchar green
property uchar blue
element face 20
property list uchar uint vertex_indices
end_header
0.000000 -0.200000 0.000000 73 87 128
0.144720 -0.089443 0.105144 73 87 128
-0.055277 -0.089443 0.170128 73 87 128
0.144720 -0.089443 0.105144 74 88 130
0.000000 -0.200000 0.000000 74 88 130
0.144720 -0.089443 -0.105144 74 88 130
0.000000 -0.200000 0.000000 73 87 129
-0.055277 -0.089443 0.170128 73 87 129
-0.178885 -0.089443 0.000000 73 87 129
0.000000 -0.200000 0.000000 74 89 131
-0.178885 -0.089443 0.000000 74 89 131
-0.055277 -0.089443 -0.170128 74 89 131
0.000000 -0.200000 0.000000 75 89 132
-0.055277 -0.089443 -0.170128 75 89 132
0.144720 -0.089443 -0.105144 75 89 132
0.144720 -0.089443 0.105144 73 86 128
0.144720 -0.089443 -0.105144 73 86 128
0.178885 0.089443 0.000000 73 86 128
-0.055277 -0.089443 0.170128 86 102 150
0.144720 -0.089443 0.105144 86 102 150
0.055277 0.089443 0.170128 86 102 150
-0.178885 -0.089443 0.000000 80 95 140
-0.055277 -0.089443 0.170128 80 95 140
-0.144720 0.089443 0.105144 80 95 140
-0.055277 -0.089443 -0.170128 76 90 134
-0.178885 -0.089443 0.000000 76 90 134
-0.144720 0.089443 -0.105144 76 90 134
0.144720 -0.089443 -0.105144 79 94 138
-0.055277 -0.089443 -0.170128 79 94 138
0.055277 0.089443 -0.170128 79 94 138
0.178885 0.089443 0.000000 86 102 150
-0.055277 -0.089443 0.170128 92 109 160
0.055277 0.089443 0.170128 92 109 160
-0.144720 0.089443 0.105144 92 109 160
-0.178885 -0.089443 0.000000 77 92 135
-0.144720 0.089443 0.105144 77 92 135
-0.144720 0.089443 -0.105144 77 92 135
-0.055277 -0.089443 -0.170128 80 95 140
-0.144720 0.089443 -0.105144 80 95 140
0.055277 0.089443 -0.170128 80 95 140
0.144720 -0.089443 -0.105144 77 92 136
0.055277 0.089443 -0.170128 77 92 136
0.178885 0.089443 0.000000 77 92 136
0.055277 0.089443 0.170128 94 112 164
0.178885 0.089443 0.000000 94 112 164
0.000000 0.200000 0.000000 94 112 164
-0.144720 0.089443 0.105144 96 114 167
0.055277 0.089443 0.170128 96 114 167
0.000000 0.200000 0.000000 96 114 167
-0.144720 0.089443 -0.105144 90 107 157
-0.144720 0.089443 0.105144 90 107 157
0.000000 0.200000 0.000000 90 107 157
0.055277 0.089443 -0.170128 84 100 147
-0.144720 0.089443 -0.105144 84 100 147
0.000000 0.200000 0.000000 84 100 147
0.178885 0.089443 0.000000 86 103 151
0.055277 0.089443 -0.170128 86 103 151
0.000000 0.200000 0.000000 86 103 151
3 0 1 2
3 3 4 5
3 6 7 8
3 9 10 11
3 12 13 14
3 15 16 17
3 18 19 20
3 21 22 23
3 24 25 26
3 27 28 29
3 19 30 20
3 31 32 33
3 34 35 36
3 37 38 39
3 40 41 42
3 43 44 45
3 46 47 48
3 49 50 51
3 52 53 54
3 55 56 57
