ply
format ascii 1.0
comment Created by Blender 2.79 (sub 0) - www.blender.org, source file: 'stages_new.blend'
element vertex 134
property float x
property float y
property float z
property uchar red
property uchar green
property uchar blue
element face 214
property list uchar uint vertex_indices
end_header
-8.735999 -0.016189 -2.329600 28 28 28
8.735999 -0.016189 -8.735999 28 28 28
-8.735999 -0.016189 -8.735999 28 28 28
-8.735999 0.282400 8.735999 51 31 28
-8.735999 -0.016189 2.329600 28 28 28
-8.735999 0.282400 2.329600 51 31 28
-8.735999 0.282400 -8.735999 51 31 28
8.735999 0.282400 -8.735999 51 31 28
8.735999 0.282400 8.735999 51 31 28
-8.735999 -0.016189 8.735999 28 28 28
8.735999 -0.016189 -2.129600 28 28 28
8.735999 0.282400 -2.129600 51 31 28
-9.099999 0.282400 -9.099999 24 31 20
9.099999 0.282400 -9.099999 24 31 20
9.099999 0.282400 9.099999 24 31 20
-9.099999 0.282400 9.099999 24 31 20
-9.099999 0.282400 2.426666 24 31 20
9.099999 0.282400 -2.426666 24 31 20
-1.488691 5.869387 -8.345482 87 52 48
-3.488691 4.269387 -8.345482 51 31 28
-1.488691 4.269387 -8.345482 69 41 38
-3.488691 5.869387 -8.345482 87 52 48
-3.488691 4.269387 -8.545481 51 31 28
-3.488691 5.869387 -8.545481 255 255 255
-1.488691 4.269387 -8.545481 255 255 255
-3.488691 4.269387 -8.545481 255 255 255
-1.488691 5.869387 -8.545481 87 52 48
-1.488691 4.269387 -8.545481 69 41 38
-3.488691 5.869387 -8.545481 87 52 48
-9.099999 2.480157 -9.099999 29 38 24
-9.099999 7.280000 -2.426666 35 46 29
-9.099999 2.480157 -2.426666 29 38 24
9.099999 2.480157 9.099999 29 38 24
9.099999 7.280000 2.426666 35 46 29
9.099999 2.480157 2.426666 29 38 24
9.099999 2.480157 -9.099999 29 38 24
-9.099999 7.280000 -9.099999 35 46 29
-9.099999 2.480157 9.099999 29 38 24
9.099999 7.280000 9.099999 35 46 29
-8.735999 14.566188 -8.735999 93 93 93
8.735999 14.566189 -2.329600 100 100 100
-8.735999 14.566189 -2.329600 94 94 94
-8.735999 14.566189 2.329600 94 94 94
-8.735999 13.977600 8.735999 51 31 28
-8.735999 13.977600 2.329600 51 31 28
8.735999 14.566188 -8.735999 102 102 102
-8.735999 13.977600 -8.735999 51 31 28
8.735999 13.977600 -8.735999 51 31 28
-8.735999 14.566188 8.735999 94 94 94
8.735999 13.977600 8.735999 51 31 28
8.735999 13.977600 -2.329600 51 31 28
-9.099999 13.977600 -9.099999 38 51 31
9.099999 13.977600 -9.099999 38 51 31
9.099999 13.977600 9.099999 38 51 31
-9.099999 13.977600 9.099999 38 51 31
-9.099999 13.977600 2.426666 38 51 31
9.099999 13.977600 -2.426666 38 51 31
9.595999 -0.016189 -2.129600 28 28 28
16.032797 -0.016189 2.329600 28 28 28
16.032797 -0.016189 -2.329600 28 28 28
16.396795 0.582400 2.426666 128 60 35
16.032797 0.582400 8.735999 127 60 35
16.396795 0.582400 9.099999 128 60 35
16.032797 0.582400 8.735999 51 31 28
16.032797 0.582400 2.329600 51 31 28
9.599693 -0.016189 8.735999 28 28 28
16.032797 -0.016189 8.735999 28 28 28
-9.099999 13.977600 -2.426666 38 51 31
9.099999 13.977600 2.426666 38 51 31
9.099999 7.280000 -2.426666 35 46 29
-9.099999 7.280000 2.426666 35 46 29
8.735999 13.977600 2.329600 51 31 28
-8.735999 13.977600 -2.329600 51 31 28
8.735999 14.566188 8.735999 97 97 97
8.735999 14.566189 2.329600 99 99 99
9.099999 2.480157 -2.426666 29 38 24
9.099999 7.280000 -9.099999 35 46 29
8.735999 -0.016189 2.129600 28 28 28
-9.099999 2.480157 2.426666 38 51 31
-9.099999 7.280000 9.099999 35 46 29
-8.700000 7.280000 -2.426666 106 106 106
9.099999 0.282400 2.426666 24 31 20
9.595999 0.282400 -2.129600 51 31 28
9.600000 0.282400 -2.426666 24 31 20
-9.099999 0.282400 -2.426666 24 31 20
-8.735999 0.282400 -2.329600 51 31 28
8.735999 0.282400 2.129600 51 31 28
8.735999 -0.016189 8.735999 28 28 28
9.600000 2.480157 2.426666 29 38 24
9.595999 -0.016189 2.129600 28 28 28
9.595999 0.282400 2.129600 51 31 28
9.600000 7.280000 2.426666 35 46 29
9.600000 2.480157 -2.426666 29 38 24
9.599693 -0.016189 -8.735999 28 28 28
16.032797 -0.016189 -8.735999 28 28 28
16.396795 7.280000 -2.426666 135 64 37
16.396795 0.582400 -9.099998 128 60 35
16.396795 0.582400 -2.426666 128 60 35
16.032797 13.977600 8.735999 51 31 28
16.032797 14.566189 2.329600 94 94 94
16.032797 13.977600 2.329600 51 31 28
16.396795 13.977600 2.426666 143 68 39
16.396795 13.977600 -9.099998 143 68 39
16.396795 13.977600 -2.426666 143 68 39
16.396795 13.977600 9.099999 143 68 39
16.396795 7.280000 2.426666 135 64 37
16.396795 7.280000 9.099999 134 64 37
16.032797 13.977600 -8.735999 51 31 28
16.032797 13.977600 -2.329600 51 31 28
16.032797 14.566188 -8.735999 93 93 93
16.032797 14.566189 -2.329600 94 94 94
16.032797 0.582400 -8.735999 98 49 32
16.032797 0.582400 -2.329600 51 31 28
16.032797 0.582400 -8.735999 51 31 28
9.600000 7.280000 -2.426666 35 46 29
9.600000 0.282400 2.426666 24 31 20
-8.700000 2.480157 2.426666 106 106 106
-8.700000 7.280000 2.426666 106 106 106
-8.700000 2.480157 -2.426666 106 106 106
-8.700000 2.670149 -2.184000 120 120 120
-8.700000 7.090007 -2.184000 120 120 120
-8.700000 2.670149 2.184000 120 120 120
-8.700000 7.090007 2.184000 120 120 120
-9.499999 2.670149 -2.184000 134 134 134
-9.499999 7.090007 -2.184000 134 134 134
-9.499999 2.670149 2.184000 134 134 134
-9.499999 7.090007 2.184000 134 134 134
-11.567069 -0.326671 -6.161282 24 27 67
-11.567069 11.673331 5.838717 29 31 79
-11.567069 -0.326671 5.838717 22 24 61
-1.488691 5.869387 -8.545481 255 255 255
16.396795 7.280000 -9.099998 135 64 37
16.032797 14.566188 8.735999 94 94 94
-11.567069 11.673331 -6.161282 38 28 79
3 0 1 2
3 3 4 5
3 6 1 7
3 8 9 3
3 7 10 11
3 12 7 13
3 14 3 15
3 16 3 5
3 17 7 11
3 18 19 20
3 21 22 19
3 23 24 25
3 26 20 27
3 22 20 19
3 21 26 28
3 29 30 31
3 32 33 34
3 35 36 29
3 37 38 32
3 39 40 41
3 42 43 44
3 45 46 47
3 48 49 43
3 40 47 50
3 47 51 52
3 43 53 54
3 55 43 54
3 56 47 52
3 57 58 59
3 60 61 62
3 58 63 64
3 58 65 66
3 30 51 67
3 33 53 68
3 36 52 51
3 38 54 53
3 52 69 56
3 69 68 56
3 54 70 55
3 70 67 55
3 49 68 53
3 71 56 68
3 46 67 51
3 72 55 67
3 73 71 49
3 74 50 71
3 39 72 46
3 41 44 72
3 42 73 48
3 41 74 42
3 75 76 35
3 77 57 10
3 78 79 37
3 70 80 30
3 81 8 14
3 17 82 83
3 84 6 12
3 16 85 84
3 86 87 8
3 10 82 11
3 85 2 6
3 5 0 85
3 87 4 9
3 77 0 4
3 33 88 34
3 86 89 77
3 81 90 86
3 69 91 33
3 17 92 75
3 93 59 94
3 95 96 97
3 98 99 100
3 101 98 100
3 102 95 103
3 104 105 106
3 103 105 101
3 103 107 102
3 101 108 103
3 108 109 107
3 100 110 108
3 106 60 62
3 105 97 60
3 111 97 96
3 112 60 97
3 94 112 113
3 59 64 112
3 75 114 69
3 34 115 81
3 84 78 16
3 16 37 15
3 17 35 13
3 15 32 14
3 13 29 12
3 14 34 81
3 12 31 84
3 31 116 78
3 78 117 70
3 30 118 31
3 80 119 118
3 117 120 80
3 118 121 116
3 116 122 117
3 120 123 119
3 122 124 120
3 119 125 121
3 121 126 122
3 127 128 129
3 0 10 1
3 3 9 4
3 6 2 1
3 8 87 9
3 7 1 10
3 12 6 7
3 14 8 3
3 16 15 3
3 17 13 7
3 18 21 19
3 21 28 22
3 23 130 24
3 26 18 20
3 22 27 20
3 21 18 26
3 29 36 30
3 32 38 33
3 35 76 36
3 37 79 38
3 39 45 40
3 42 48 43
3 45 39 46
3 48 73 49
3 40 45 47
3 47 46 51
3 43 49 53
3 55 44 43
3 56 50 47
3 57 89 58
3 60 64 61
3 58 66 63
3 58 89 65
3 30 36 51
3 33 38 53
3 36 76 52
3 38 79 54
3 52 76 69
3 69 33 68
3 54 79 70
3 70 30 67
3 49 71 68
3 71 50 56
3 46 72 67
3 72 44 55
3 73 74 71
3 74 40 50
3 39 41 72
3 41 42 44
3 42 74 73
3 41 40 74
3 75 69 76
3 77 89 57
3 78 70 79
3 70 117 80
3 81 86 8
3 17 11 82
3 84 85 6
3 16 5 85
3 86 77 87
3 10 57 82
3 85 0 2
3 5 4 0
3 87 77 4
3 77 10 0
3 33 91 88
3 86 90 89
3 81 115 90
3 69 114 91
3 17 83 92
3 93 57 59
3 95 131 96
3 98 132 99
3 101 104 98
3 102 131 95
3 104 101 105
3 103 95 105
3 103 108 107
3 101 100 108
3 108 110 109
3 100 99 110
3 106 105 60
3 105 95 97
3 111 112 97
3 112 64 60
3 94 59 112
3 59 58 64
3 75 92 114
3 34 88 115
3 84 31 78
3 16 78 37
3 17 75 35
3 15 37 32
3 13 35 29
3 14 32 34
3 12 29 31
3 31 118 116
3 78 116 117
3 30 80 118
3 80 120 119
3 117 122 120
3 118 119 121
3 116 121 122
3 120 124 123
3 122 126 124
3 119 123 125
3 121 125 126
3 127 133 128
