ply
format ascii 1.0
comment Created by Blender 2.79 (sub 0) - www.blender.org, source file: 'stages_new.blend'
element vertex 16
property float x
property float y
property float z
property uchar red
property uchar green
property uchar blue
element face 28
property list uchar uint vertex_indices
end_header
0.000009 112.731949 -169.097778 31 31 31
119.570312 -0.000013 -119.570145 25 25 25
0.000009 -0.000013 -169.097778 25 25 25
119.570312 112.731949 -119.570145 31 31 31
169.097946 -0.000013 0.000169 25 25 25
169.097946 112.731949 0.000169 31 31 31
119.570312 -0.000013 119.570465 25 25 25
119.570312 112.731949 119.570465 31 31 31
-0.000006 -0.000013 169.098114 25 25 25
-0.000006 112.731949 169.098114 31 31 31
-119.570312 -0.000013 119.570442 25 25 25
-119.570312 112.731949 119.570442 31 31 31
-169.097931 -0.000013 0.000159 25 25 25
-169.097931 112.731949 0.000159 31 31 31
-119.570312 -0.000013 -119.570122 25 25 25
-119.570312 112.731949 -119.570122 31 31 31
3 0 1 2
3 3 4 1
3 5 6 4
3 7 8 6
3 9 10 8
3 11 12 10
3 11 9 5
3 13 14 12
3 15 2 14
3 6 10 14
3 0 3 1
3 3 5 4
3 5 7 6
3 7 9 8
3 9 11 10
3 11 13 12
3 5 3 0
3 0 15 13
3 13 11 5
3 9 7 5
3 5 0 13
3 13 15 14
3 15 0 2
3 14 2 1
3 1 4 14
3 6 8 10
3 10 12 14
3 14 4 6
