ply
format ascii 1.0
comment Created by Blender 2.79 (sub 0) - www.blender.org, source file: 'stages_new.blend'
element vertex 347
property float x
property float y
property float z
property uchar red
property uchar green
property uchar blue
element face 346
property list uchar uint vertex_indices
end_header
2.912000 -0.016189 -2.196267 12 12 12
8.735999 -0.016189 -8.735999 4 4 4
2.912000 -0.016189 -8.735999 7 7 7
-8.735999 0.028599 8.735999 27 15 6
-8.735999 -0.016189 2.329600 34 21 9
-8.735999 0.028599 2.329600 34 21 9
-8.735999 0.028599 -8.735999 27 15 6
-2.912000 -0.016189 -8.735999 34 21 9
-2.912000 0.028599 -8.735999 34 21 9
8.735999 0.028599 8.735999 27 15 6
2.912000 -0.016189 8.735999 34 21 9
2.912000 0.028599 8.735999 34 21 9
8.735999 0.028599 -8.735999 27 15 6
8.735999 -0.016189 -2.129600 34 21 9
8.735999 0.028599 -2.129600 35 21 9
-3.021199 0.282400 -9.063600 38 24 11
-8.735999 0.282400 -8.735999 31 18 8
-2.912000 0.282400 -8.735999 39 25 12
3.021199 0.282400 9.063600 38 24 11
8.735999 0.282400 8.735999 31 18 8
2.912000 0.282400 8.735999 39 25 12
-9.063600 0.282400 2.416960 39 24 11
-8.735999 0.282400 8.735999 31 18 8
-8.735999 0.282400 2.329600 40 25 12
9.063600 0.282400 -2.396960 39 24 11
8.735999 0.282400 -8.735999 31 18 8
8.735999 0.282400 -2.129600 40 25 12
-1.488691 5.869387 -8.345482 57 38 20
-3.488691 4.269387 -8.345482 48 31 16
-1.488691 4.269387 -8.345482 51 33 17
-3.488691 5.869387 -8.345482 0 0 0
-3.488691 4.269387 -8.545481 0 0 0
-3.488691 4.269387 -8.345482 0 0 0
-3.488691 5.869387 -8.545481 0 0 0
-1.488691 4.269387 -8.545481 0 0 0
-1.488691 5.869387 -8.545481 20 11 4
-1.488691 4.269387 -8.345482 18 9 3
-1.488691 4.269387 -8.545481 17 9 3
-1.488691 4.269387 -8.345482 0 0 0
-3.488691 5.869387 -8.345482 41 26 13
-1.488691 5.869387 -8.545481 43 27 13
-3.488691 5.869387 -8.545481 40 25 12
-9.099999 2.480157 -9.099999 6 11 5
-9.099999 7.280000 -2.426666 17 27 16
-9.099999 2.480157 -2.426666 10 18 9
9.099999 2.480157 9.099999 6 11 5
9.099999 7.280000 2.426666 17 27 16
9.099999 2.480157 2.426666 10 18 9
9.099999 2.480157 -9.099999 6 11 5
3.033333 7.280000 -9.099999 17 26 16
3.033333 2.480157 -9.099999 10 17 9
-9.099999 2.480157 9.099999 6 11 5
-3.033333 7.280000 9.099999 17 26 16
-3.033333 2.480157 9.099999 10 17 9
2.912000 14.566188 -8.735999 56 56 56
8.735999 14.566189 -2.329600 58 58 58
2.912000 14.566189 -2.329600 118 118 118
-8.735999 14.566189 2.329600 60 40 22
-8.735999 13.977600 8.735999 41 26 12
-8.735999 13.977600 2.329600 62 41 22
-2.912000 14.566188 -8.735999 59 39 21
-8.735999 13.977600 -8.735999 41 26 12
-2.912000 13.977600 -8.735999 60 40 22
2.912000 14.566188 8.735999 59 39 21
8.735999 13.977600 8.735999 41 26 12
2.912000 13.977600 8.735999 60 40 22
8.735999 14.566189 -2.329600 60 40 22
8.735999 13.977600 -8.735999 41 26 12
8.735999 13.977600 -2.329600 62 41 22
-3.033333 13.977600 -9.099999 32 19 8
-8.735999 13.977600 -8.735999 21 11 4
-9.099999 13.977600 -9.099999 20 10 4
3.033333 13.977600 9.099999 32 19 8
8.735999 13.977600 8.735999 21 11 4
9.099999 13.977600 9.099999 20 10 4
-9.099999 13.977600 2.426666 33 20 8
-8.735999 13.977600 8.735999 21 11 4
-9.099999 13.977600 9.099999 20 10 4
9.099999 13.977600 -2.426666 33 20 8
8.735999 13.977600 -8.735999 21 11 4
9.099999 13.977600 -9.099999 20 10 4
9.595999 -0.016189 -2.129600 6 6 6
16.032797 -0.016189 2.329600 3 3 3
16.032797 -0.016189 -2.329600 3 3 3
16.396795 0.582400 2.426666 22 12 4
16.032797 0.582400 8.735999 19 10 4
16.396795 0.582400 9.099999 18 9 3
16.032797 -0.016189 2.329600 29 17 7
16.032797 0.582400 8.735999 25 14 6
16.032797 0.582400 2.329600 30 18 7
9.599693 -0.016189 8.735999 4 4 4
16.032797 -0.016189 8.735999 2 2 2
-9.099999 13.977600 -9.099999 9 16 8
-9.099999 13.977600 -2.426666 18 28 17
9.099999 13.977600 9.099999 9 16 8
9.099999 13.977600 2.426666 18 28 17
9.099999 13.977600 -9.099999 9 16 8
3.033333 13.977600 -9.099999 18 27 16
-9.099999 13.977600 9.099999 9 16 8
-3.033333 13.977600 9.099999 18 27 16
9.099999 7.280000 -2.426666 17 27 16
9.099999 13.977600 -2.426666 18 28 17
-9.099999 7.280000 2.426666 17 27 16
-9.099999 13.977600 2.426666 18 28 17
9.099999 13.977600 2.426666 33 20 8
8.735999 13.977600 2.329600 34 21 9
-9.099999 13.977600 -2.426666 33 20 8
-8.735999 13.977600 -2.329600 34 21 9
8.735999 14.566188 8.735999 40 25 12
8.735999 13.977600 2.329600 62 41 22
8.735999 14.566189 2.329600 60 40 22
-8.735999 14.566188 -8.735999 40 25 12
-8.735999 13.977600 -2.329600 62 41 22
-8.735999 14.566189 -2.329600 60 40 22
2.912000 14.566189 2.329600 118 118 118
8.735999 14.566188 8.735999 38 38 38
2.912000 14.566188 8.735999 56 56 56
8.735999 14.566189 2.329600 58 58 58
9.099999 2.480157 -2.426666 10 18 9
9.099999 7.280000 -9.099999 9 16 8
8.735999 -0.016189 2.129600 7 7 7
8.735999 -0.016189 -2.129600 7 7 7
-9.099999 2.480157 2.426666 10 18 9
-9.099999 7.280000 9.099999 9 16 8
-9.099999 7.280000 2.426666 36 22 10
-8.700000 7.280000 -2.426666 38 23 11
-9.099999 7.280000 -2.426666 36 22 10
9.063600 0.282400 2.396960 39 24 11
9.063600 0.282400 9.063600 30 18 7
9.595999 0.282400 -2.129600 37 23 11
9.599600 0.282400 -2.396960 37 23 11
-9.063600 0.282400 -2.416960 39 24 11
-9.063600 0.282400 -9.063600 30 18 7
-8.735999 0.282400 -2.329600 40 25 12
8.735999 0.028599 2.129600 35 21 9
8.735999 -0.016189 8.735999 26 15 6
8.735999 -0.016189 -2.129600 13 6 2
9.595999 0.028599 -2.129600 12 5 2
8.735999 0.028599 -2.129600 13 6 2
-8.735999 0.028599 -2.329600 34 21 9
-8.735999 -0.016189 -8.735999 26 15 6
-8.735999 -0.016189 -2.329600 34 21 9
8.735999 -0.016189 8.735999 4 4 4
2.912000 -0.016189 2.196267 12 12 12
2.912000 -0.016189 8.735999 7 7 7
9.099999 7.280000 2.426666 5 10 5
9.600000 2.480157 2.426666 3 5 2
9.099999 2.480157 2.426666 3 5 2
8.735999 0.282400 2.129600 13 6 2
9.595999 0.028599 2.129600 12 5 2
8.735999 0.028599 2.129600 13 6 2
9.099999 0.282400 2.426666 38 24 11
9.599600 0.282400 2.396960 37 23 11
9.099999 7.280000 -2.426666 0 0 0
9.600000 7.280000 2.426666 0 0 0
9.099999 7.280000 2.426666 0 0 0
9.099999 0.282400 -2.426666 2 4 2
9.600000 2.480157 -2.426666 3 5 2
9.099999 2.480157 -2.426666 3 5 2
9.599693 -0.016189 -8.735999 4 4 4
16.032797 -0.016189 -8.735999 2 2 2
16.396795 7.280000 -2.426666 18 13 18
16.396795 0.582400 -9.099998 10 7 10
16.396795 0.582400 -2.426666 13 9 13
16.032797 13.977600 8.735999 32 19 8
16.032797 14.566189 2.329600 38 24 11
16.032797 13.977600 2.329600 38 24 11
16.396795 13.977600 2.426666 11 5 2
16.032797 13.977600 8.735999 9 4 2
16.032797 13.977600 2.329600 12 6 2
16.396795 13.977600 -9.099998 14 10 14
16.396795 13.977600 -2.426666 18 13 18
16.396795 13.977600 9.099999 14 10 14
16.396795 7.280000 2.426666 18 13 18
16.396795 7.280000 9.099999 14 10 14
16.396795 13.977600 2.426666 18 13 18
16.396795 13.977600 -2.426666 11 5 2
16.032797 13.977600 -8.735999 9 4 2
16.396795 13.977600 -9.099998 8 4 1
16.032797 13.977600 -2.329600 12 6 2
16.032797 13.977600 -2.329600 38 24 11
16.032797 14.566188 -8.735999 31 19 8
16.032797 13.977600 -8.735999 32 19 8
16.032797 14.566189 -2.329600 38 24 11
16.396795 0.582400 2.426666 13 9 13
16.396795 0.582400 9.099999 10 7 10
16.032797 0.582400 -8.735999 19 10 4
16.396795 0.582400 -2.426666 22 12 4
16.396795 0.582400 -9.099998 18 9 3
16.032797 0.582400 -2.329600 22 12 5
16.032797 -0.016189 -8.735999 25 14 5
16.032797 0.582400 -2.329600 30 18 7
16.032797 0.582400 -8.735999 25 14 6
16.032797 -0.016189 -2.329600 29 17 7
9.600000 7.280000 -2.426666 4 9 4
9.099999 7.280000 -2.426666 5 10 5
9.600000 0.282400 2.426666 2 4 2
9.099999 0.282400 2.426666 2 4 2
-9.099999 0.282400 -2.426666 7 14 7
-9.099999 0.282400 2.426666 7 14 7
-9.099999 0.282400 9.099999 5 9 4
9.099999 0.282400 -2.426666 7 14 7
9.099999 0.282400 -9.099999 5 9 4
-3.033333 0.282400 9.099999 7 14 7
3.033333 0.282400 -9.099999 7 14 7
9.099999 0.282400 9.099999 5 9 4
9.099999 0.282400 2.426666 7 14 7
-9.099999 0.282400 -9.099999 5 9 4
-9.099999 2.480157 -2.426666 0 0 0
-8.700000 2.480157 2.426666 0 0 0
-9.099999 2.480157 2.426666 0 0 0
-8.700000 7.280000 2.426666 0 0 0
-9.099999 7.280000 2.426666 0 0 0
-9.099999 7.280000 -2.426666 0 0 0
-8.700000 2.480157 -2.426666 0 0 0
-8.700000 7.280000 -2.426666 60 39 21
-8.700000 2.670149 -2.184000 43 28 14
-8.700000 2.480157 -2.426666 42 27 13
-8.700000 7.280000 2.426666 60 39 21
-8.700000 7.090007 -2.184000 59 39 21
-8.700000 2.670149 2.184000 43 28 14
-8.700000 2.480157 2.426666 42 27 13
-8.700000 7.090007 2.184000 59 39 21
-8.700000 7.090007 -2.184000 27 16 6
-9.499999 2.670149 -2.184000 17 8 3
-8.700000 2.670149 -2.184000 18 9 4
-8.700000 7.090007 2.184000 0 0 0
-9.499999 7.090007 -2.184000 0 0 0
-8.700000 7.090007 -2.184000 0 0 0
-8.700000 2.670149 -2.184000 42 27 13
-9.499999 2.670149 2.184000 39 25 12
-8.700000 2.670149 2.184000 42 27 13
-8.700000 2.670149 2.184000 18 9 4
-9.499999 7.090007 2.184000 24 14 5
-8.700000 7.090007 2.184000 27 16 6
-11.567069 -0.326671 -6.161282 6 6 41
-11.567069 11.673331 5.838717 13 13 63
-11.567069 -0.326671 5.838717 6 6 41
9.595999 -0.016189 2.129600 12 5 2
8.735999 -0.016189 2.129600 13 6 2
-8.735999 0.282400 2.329600 35 22 10
-8.735999 0.282400 -2.329600 35 22 10
-8.735999 0.282400 -8.735999 27 16 6
9.595999 0.282400 -2.129600 12 6 2
8.735999 0.282400 -2.129600 13 6 2
8.735999 0.282400 2.129600 35 22 10
8.735999 0.282400 8.735999 27 16 6
8.735999 0.282400 -8.735999 27 16 6
8.735999 0.282400 -2.129600 35 22 10
2.912000 0.282400 8.735999 35 21 9
-2.912000 0.282400 -8.735999 35 21 9
-8.735999 0.282400 8.735999 27 16 6
9.595999 0.282400 2.129600 37 23 11
8.735999 0.282400 2.129600 40 25 12
-9.099999 0.282400 2.426666 38 24 11
-9.099999 0.282400 -2.426666 38 24 11
-9.099999 0.282400 -9.099999 29 18 7
9.099999 0.282400 -2.426666 38 24 11
9.600000 0.282400 -2.426666 37 23 11
9.099999 0.282400 9.099999 29 18 7
9.063600 0.282400 -9.063600 30 18 7
-9.063600 0.282400 9.063600 30 18 7
3.033333 0.282400 9.099999 38 24 11
-3.033333 0.282400 -9.099999 38 24 11
3.033333 0.282400 -9.099999 38 24 11
9.099999 0.282400 -9.099999 29 18 7
3.021200 0.282400 -9.063600 38 24 11
-3.033333 0.282400 9.099999 38 24 11
-9.099999 0.282400 9.099999 29 18 7
-3.021200 0.282400 9.063600 38 24 11
2.912000 0.282400 -8.735999 35 21 9
2.912000 0.028599 -8.735999 34 21 9
-2.912000 0.282400 8.735999 35 21 9
-2.912000 0.028599 8.735999 34 21 9
-3.033333 0.282400 -9.099999 7 14 7
-3.033333 2.480157 -9.099999 10 17 9
3.033333 0.282400 9.099999 7 14 7
3.033333 2.480157 9.099999 10 17 9
-2.912000 -0.016189 2.262933 12 12 12
-8.735999 -0.016189 -2.329600 7 7 7
-8.735999 -0.016189 2.329600 7 7 7
-2.912000 -0.016189 -2.262933 12 12 12
-2.912000 -0.016189 8.735999 7 7 7
-8.735999 -0.016189 8.735999 4 4 4
-8.735999 14.566189 -2.329600 58 58 58
-2.912000 14.566189 2.329600 118 118 118
-8.735999 14.566189 2.329600 58 58 58
-2.912000 14.566189 -2.329600 118 118 118
-2.912000 14.566188 8.735999 56 56 56
-8.735999 14.566188 8.735999 38 38 38
9.099999 7.280000 9.099999 9 16 8
3.033333 13.977600 9.099999 18 27 16
3.033333 7.280000 9.099999 17 26 16
-9.099999 7.280000 -9.099999 9 16 8
-3.033333 13.977600 -9.099999 18 27 16
-3.033333 7.280000 -9.099999 17 26 16
-3.033333 13.977600 9.099999 32 19 8
-2.912000 13.977600 8.735999 34 21 9
3.033333 13.977600 -9.099999 32 19 8
2.912000 13.977600 -8.735999 34 21 9
-8.735999 14.566188 8.735999 40 25 12
-2.912000 13.977600 8.735999 60 40 22
-2.912000 14.566188 8.735999 59 39 21
8.735999 14.566188 -8.735999 40 25 12
2.912000 13.977600 -8.735999 60 40 22
2.912000 14.566188 -8.735999 59 39 21
-8.735999 14.566188 -8.735999 38 38 38
-2.912000 14.566188 -8.735999 56 56 56
-2.912000 0.282400 8.735999 39 25 12
2.912000 0.282400 -8.735999 39 25 12
-8.735999 -0.016189 8.735999 26 15 6
-2.912000 -0.016189 8.735999 34 21 9
8.735999 -0.016189 -8.735999 26 15 6
2.912000 -0.016189 -8.735999 34 21 9
-2.912000 -0.016189 -8.735999 7 7 7
-8.735999 -0.016189 -8.735999 4 4 4
-3.488691 5.869387 -8.345482 54 35 19
-1.488691 5.869387 -8.545481 0 0 0
-1.488691 5.869387 -8.345482 21 11 4
-1.488691 5.869387 -8.345482 44 28 14
8.735999 14.566188 -8.735999 38 38 38
-2.912000 13.977600 -8.735999 34 20 9
2.912000 13.977600 8.735999 34 20 9
-8.735999 13.977600 2.329600 34 21 9
8.735999 13.977600 -2.329600 34 21 9
9.595999 -0.016189 2.129600 6 6 6
16.032797 0.582400 2.329600 22 12 5
16.032797 -0.016189 8.735999 25 14 5
-8.700000 7.280000 2.426666 38 23 11
8.735999 -0.016189 2.129600 34 21 9
9.595999 -0.016189 -2.129600 12 5 2
9.600000 7.280000 2.426666 4 9 4
9.595999 0.282400 2.129600 12 6 2
9.600000 0.282400 2.426666 37 23 11
9.600000 7.280000 -2.426666 0 0 0
9.600000 0.282400 -2.426666 2 4 2
16.396795 7.280000 -9.099998 14 10 14
16.032797 14.566188 8.735999 31 19 8
16.396795 13.977600 9.099999 8 4 1
-8.700000 7.280000 -2.426666 0 0 0
-9.499999 7.090007 -2.184000 24 14 5
-9.499999 7.090007 2.184000 0 0 0
-9.499999 2.670149 -2.184000 39 25 12
-9.499999 2.670149 2.184000 17 8 3
-11.567069 11.673331 -6.161282 13 13 62
-2.912000 13.977600 8.735999 34 20 9
2.912000 13.977600 -8.735999 34 20 9
3 0 1 2
3 3 4 5
3 6 7 8
3 9 10 11
3 12 13 14
3 15 16 17
3 18 19 20
3 21 22 23
3 24 25 26
3 27 28 29
3 30 31 32
3 33 34 31
3 35 36 37
3 31 38 32
3 39 40 41
3 42 43 44
3 45 46 47
3 48 49 50
3 51 52 53
3 54 55 56
3 57 58 59
3 60 61 62
3 63 64 65
3 66 67 68
3 69 70 71
3 72 73 74
3 75 76 77
3 78 79 80
3 81 82 83
3 84 85 86
3 87 88 89
3 82 90 91
3 43 92 93
3 46 94 95
3 49 96 97
3 52 98 99
3 96 100 101
3 100 95 101
3 98 102 103
3 102 93 103
3 73 104 74
3 105 78 104
3 70 106 71
3 107 75 106
3 108 109 64
3 110 68 109
3 111 112 61
3 113 59 112
3 114 115 116
3 56 117 114
3 118 119 48
3 120 81 121
3 122 123 51
3 124 125 126
3 127 19 128
3 24 129 130
3 131 16 132
3 21 133 131
3 134 135 9
3 136 137 138
3 139 140 6
3 5 141 139
3 142 143 144
3 120 0 143
3 145 146 147
3 148 149 150
3 151 152 127
3 153 154 155
3 156 157 158
3 159 83 160
3 161 162 163
3 164 165 166
3 167 168 169
3 170 161 171
3 172 173 174
3 171 173 175
3 176 177 178
3 167 179 176
3 180 181 182
3 166 183 180
3 174 184 185
3 173 163 184
3 186 187 188
3 189 84 187
3 190 191 192
3 193 89 191
3 158 194 195
3 147 196 197
3 198 122 199
3 199 51 200
3 201 48 202
3 200 53 203
3 202 50 204
3 205 47 206
3 207 44 198
3 208 209 210
3 210 211 212
3 213 214 208
3 215 216 217
3 218 219 215
3 217 220 221
3 221 222 218
3 223 224 225
3 226 227 228
3 229 230 231
3 232 233 234
3 235 236 237
3 150 238 239
3 240 139 241
3 241 6 242
3 138 243 244
3 245 9 246
3 247 14 248
3 246 11 249
3 242 8 250
3 251 5 240
3 127 252 253
3 254 131 255
3 255 132 256
3 257 130 258
3 151 128 259
3 257 260 24
3 254 261 21
3 262 128 18
3 263 132 15
3 264 260 265
3 264 15 266
3 267 261 268
3 267 18 269
3 270 12 247
3 250 271 270
3 272 3 251
3 249 273 272
3 274 42 207
3 204 275 274
3 276 45 205
3 203 277 276
3 278 279 280
3 143 281 278
3 282 280 283
3 144 278 282
3 284 285 286
3 287 114 285
3 286 288 289
3 285 116 288
3 290 291 94
3 292 99 291
3 293 294 92
3 295 97 294
3 76 296 77
3 297 72 296
3 79 298 80
3 299 69 298
3 300 301 58
3 302 65 301
3 303 304 67
3 305 62 304
3 306 287 284
3 307 56 287
3 277 290 45
3 53 292 277
3 275 293 42
3 50 295 275
3 269 22 261
3 18 308 269
3 266 25 260
3 15 309 266
3 273 310 3
3 11 311 273
3 271 312 12
3 8 313 271
3 279 314 315
3 281 2 314
3 0 121 1
3 3 310 4
3 6 140 7
3 9 135 10
3 12 312 13
3 15 132 16
3 18 128 19
3 21 261 22
3 24 260 25
3 27 316 28
3 30 33 31
3 33 317 34
3 35 318 36
3 31 34 38
3 39 319 40
3 42 293 43
3 45 290 46
3 48 119 49
3 51 123 52
3 54 320 55
3 57 300 58
3 60 111 61
3 63 108 64
3 66 303 67
3 69 321 70
3 72 322 73
3 75 323 76
3 78 324 79
3 81 325 82
3 84 326 85
3 87 327 88
3 82 325 90
3 43 293 92
3 46 290 94
3 49 119 96
3 52 123 98
3 96 119 100
3 100 46 95
3 98 123 102
3 102 43 93
3 73 105 104
3 105 324 78
3 70 107 106
3 107 323 75
3 108 110 109
3 110 66 68
3 111 113 112
3 113 57 59
3 114 117 115
3 56 55 117
3 118 100 119
3 120 325 81
3 122 102 123
3 124 328 125
3 127 253 19
3 24 26 129
3 131 133 16
3 21 23 133
3 134 329 135
3 136 330 137
3 139 141 140
3 5 4 141
3 142 120 143
3 120 121 0
3 145 331 146
3 148 332 149
3 151 333 152
3 153 334 154
3 156 335 157
3 159 81 83
3 161 336 162
3 164 337 165
3 167 338 168
3 170 336 161
3 172 175 173
3 171 161 173
3 176 179 177
3 167 169 179
3 180 183 181
3 166 165 183
3 174 173 184
3 173 161 163
3 186 189 187
3 189 326 84
3 190 193 191
3 193 87 89
3 158 157 194
3 147 146 196
3 198 44 122
3 199 122 51
3 201 118 48
3 200 51 53
3 202 48 50
3 205 45 47
3 207 42 44
3 208 214 209
3 210 209 211
3 213 339 214
3 215 219 216
3 218 222 219
3 217 216 220
3 221 220 222
3 223 340 224
3 226 341 227
3 229 342 230
3 232 343 233
3 235 344 236
3 150 149 238
3 240 5 139
3 241 139 6
3 138 137 243
3 245 134 9
3 247 12 14
3 246 9 11
3 242 6 8
3 251 3 5
3 127 152 252
3 254 21 131
3 255 131 132
3 257 24 130
3 151 127 128
3 257 265 260
3 254 268 261
3 262 259 128
3 263 256 132
3 264 266 260
3 264 263 15
3 267 269 261
3 267 262 18
3 270 271 12
3 250 8 271
3 272 273 3
3 249 11 273
3 274 275 42
3 204 50 275
3 276 277 45
3 203 53 277
3 278 281 279
3 143 0 281
3 282 278 280
3 144 143 278
3 284 287 285
3 287 56 114
3 286 285 288
3 285 114 116
3 290 292 291
3 292 52 99
3 293 295 294
3 295 49 97
3 76 345 296
3 297 322 72
3 79 346 298
3 299 321 69
3 300 302 301
3 302 63 65
3 303 305 304
3 305 60 62
3 306 307 287
3 307 54 56
3 277 292 290
3 53 52 292
3 275 295 293
3 50 49 295
3 269 308 22
3 18 20 308
3 266 309 25
3 15 17 309
3 273 311 310
3 11 10 311
3 271 313 312
3 8 7 313
3 279 281 314
3 281 0 2
