ply
format ascii 1.0
comment Created by Blender 2.79 (sub 0) - www.blender.org, source file: 'stages_new.blend'
element vertex 154
property float x
property float y
property float z
property uchar red
property uchar green
property uchar blue
element face 250
property list uchar uint vertex_indices
end_header
-8.735999 -0.016189 -2.329600 28 28 28
8.735999 -0.016189 -8.735999 28 28 28
-8.735999 -0.016189 -8.735999 28 28 28
-8.735999 0.028599 8.735999 40 30 28
-8.735999 -0.016189 2.329600 28 28 28
-8.735999 0.028599 2.329600 40 30 28
-8.735999 0.028599 -8.735999 40 30 28
8.735999 0.028599 -8.735999 40 30 28
8.735999 0.028599 8.735999 40 30 28
-8.735999 -0.016189 8.735999 28 28 28
8.735999 -0.016189 -2.129600 28 28 28
8.735999 0.028599 -2.129600 40 30 28
-9.063600 0.282400 -9.063600 38 31 24
8.735999 0.282400 -8.735999 51 31 28
9.063600 0.282400 -9.063600 38 31 24
9.063600 0.282400 9.063600 38 31 24
-8.735999 0.282400 8.735999 51 31 28
-9.063600 0.282400 9.063600 38 31 24
-9.063600 0.282400 2.416960 38 31 24
-8.735999 0.282400 2.329600 51 31 28
9.063600 0.282400 -2.396960 38 31 24
8.735999 0.282400 -2.129600 51 31 28
-1.488691 5.869387 -8.345482 87 52 48
-3.488691 4.269387 -8.345482 51 31 28
-1.488691 4.269387 -8.345482 69 41 38
-3.488691 5.869387 -8.345482 87 52 48
-3.488691 4.269387 -8.545481 51 31 28
-3.488691 5.869387 -8.545481 255 255 255
-1.488691 4.269387 -8.545481 255 255 255
-3.488691 4.269387 -8.545481 255 255 255
-1.488691 5.869387 -8.545481 87 52 48
-1.488691 4.269387 -8.545481 69 41 38
-3.488691 5.869387 -8.545481 87 52 48
-9.099999 2.480157 -9.099999 29 38 24
-9.099999 7.280000 -2.426666 35 46 29
-9.099999 2.480157 -2.426666 29 38 24
9.099999 2.480157 9.099999 29 38 24
9.099999 7.280000 2.426666 35 46 29
9.099999 2.480157 2.426666 29 38 24
9.099999 2.480157 -9.099999 29 38 24
-9.099999 7.280000 -9.099999 35 46 29
-9.099999 2.480157 9.099999 29 38 24
9.099999 7.280000 9.099999 35 46 29
-8.735999 14.566188 -8.735999 93 93 93
8.735999 14.566189 -2.329600 100 100 100
-8.735999 14.566189 -2.329600 94 94 94
-8.735999 14.566189 2.329600 94 94 94
-8.735999 13.977600 8.735999 51 31 28
-8.735999 13.977600 2.329600 51 31 28
8.735999 14.566188 -8.735999 102 102 102
-8.735999 13.977600 -8.735999 51 31 28
8.735999 13.977600 -8.735999 51 31 28
-8.735999 14.566188 8.735999 94 94 94
8.735999 13.977600 8.735999 51 31 28
8.735999 13.977600 -2.329600 51 31 28
-9.099999 13.977600 -9.099999 38 51 31
9.099999 13.977600 -9.099999 38 51 31
9.099999 13.977600 9.099999 38 51 31
-9.099999 13.977600 9.099999 38 51 31
-9.099999 13.977600 2.426666 38 51 31
9.099999 13.977600 -2.426666 38 51 31
9.595999 -0.016189 -2.129600 28 28 28
16.032797 -0.016189 2.329600 28 28 28
16.032797 -0.016189 -2.329600 28 28 28
16.396795 0.582400 2.426666 128 60 35
16.032797 0.582400 8.735999 127 60 35
16.396795 0.582400 9.099999 128 60 35
16.032797 0.582400 8.735999 51 31 28
16.032797 0.582400 2.329600 51 31 28
9.599693 -0.016189 8.735999 28 28 28
16.032797 -0.016189 8.735999 28 28 28
-9.099999 13.977600 -2.426666 38 51 31
9.099999 13.977600 2.426666 38 51 31
9.099999 7.280000 -2.426666 35 46 29
-9.099999 7.280000 2.426666 35 46 29
8.735999 13.977600 2.329600 51 31 28
-8.735999 13.977600 -2.329600 51 31 28
8.735999 14.566188 8.735999 97 97 97
8.735999 14.566189 2.329600 99 99 99
9.099999 2.480157 -2.426666 29 38 24
9.099999 7.280000 -9.099999 35 46 29
8.735999 -0.016189 2.129600 28 28 28
-9.099999 2.480157 2.426666 38 51 31
-9.099999 7.280000 9.099999 35 46 29
-8.700000 7.280000 -2.426666 71 51 26
9.063600 0.282400 2.396960 38 31 24
8.735999 0.282400 8.735999 51 31 28
9.595999 0.282400 -2.129600 51 31 28
9.599600 0.282400 -2.396960 38 31 24
-9.063600 0.282400 -2.416960 38 31 24
-8.735999 0.282400 -8.735999 51 31 28
-8.735999 0.282400 -2.329600 51 31 28
8.735999 0.028599 2.129600 40 30 28
8.735999 -0.016189 8.735999 28 28 28
9.595999 0.028599 -2.129600 40 30 28
-8.735999 0.028599 -2.329600 40 30 28
9.600000 2.480157 2.426666 29 38 24
8.735999 0.282400 2.129600 51 31 28
9.595999 0.028599 2.129600 40 30 28
9.099999 0.282400 2.426666 24 31 20
9.599600 0.282400 2.396960 38 31 24
9.600000 7.280000 2.426666 35 46 29
9.099999 0.282400 -2.426666 24 31 20
9.600000 2.480157 -2.426666 29 38 24
9.599693 -0.016189 -8.735999 28 28 28
16.032797 -0.016189 -8.735999 28 28 28
16.396795 7.280000 -2.426666 135 64 37
16.396795 0.582400 -9.099998 128 60 35
16.396795 0.582400 -2.426666 128 60 35
16.032797 13.977600 8.735999 51 31 28
16.032797 14.566189 2.329600 94 94 94
16.032797 13.977600 2.329600 51 31 28
16.396795 13.977600 2.426666 143 68 39
16.396795 13.977600 -9.099998 143 68 39
16.396795 13.977600 -2.426666 143 68 39
16.396795 13.977600 9.099999 143 68 39
16.396795 7.280000 2.426666 135 64 37
16.396795 7.280000 9.099999 134 64 37
16.032797 13.977600 -8.735999 51 31 28
16.032797 13.977600 -2.329600 51 31 28
16.032797 14.566188 -8.735999 93 93 93
16.032797 14.566189 -2.329600 94 94 94
16.032797 0.582400 -8.735999 98 49 32
16.032797 0.582400 -2.329600 51 31 28
16.032797 0.582400 -8.735999 51 31 28
9.600000 7.280000 -2.426666 35 46 29
9.600000 0.282400 2.426666 24 31 20
-9.099999 0.282400 -2.426666 24 31 20
-9.099999 0.282400 2.426666 24 31 20
-9.099999 0.282400 9.099999 24 31 20
9.099999 0.282400 -9.099999 24 31 20
9.099999 0.282400 9.099999 24 31 20
-9.099999 0.282400 -9.099999 24 31 20
-8.700000 2.480157 2.426666 71 51 26
-8.700000 7.280000 2.426666 71 51 26
-8.700000 2.480157 -2.426666 71 51 26
-8.700000 2.670149 -2.184000 79 56 29
-8.700000 7.090007 -2.184000 79 56 29
-8.700000 2.670149 2.184000 79 56 29
-8.700000 7.090007 2.184000 79 56 29
-9.499999 2.670149 -2.184000 102 73 37
-9.499999 7.090007 -2.184000 102 73 37
-9.499999 2.670149 2.184000 102 73 37
-9.499999 7.090007 2.184000 102 73 37
-11.567069 -0.326671 -6.161282 24 27 67
-11.567069 11.673331 5.838717 29 31 79
-11.567069 -0.326671 5.838717 22 24 61
9.595999 -0.016189 2.129600 28 28 28
9.595999 0.282400 2.129600 51 31 28
9.600000 0.282400 -2.426666 24 31 20
-1.488691 5.869387 -8.545481 255 255 255
16.396795 7.280000 -9.099998 135 64 37
16.032797 14.566188 8.735999 94 94 94
-11.567069 11.673331 -6.161282 38 28 79
3 0 1 2
3 3 4 5
3 6 1 7
3 8 9 3
3 7 10 11
3 12 13 14
3 15 16 17
3 18 16 19
3 20 13 21
3 22 23 24
3 25 26 23
3 27 28 29
3 30 24 31
3 26 24 23
3 25 30 32
3 33 34 35
3 36 37 38
3 39 40 33
3 41 42 36
3 43 44 45
3 46 47 48
3 49 50 51
3 52 53 47
3 44 51 54
3 51 55 56
3 47 57 58
3 59 47 58
3 60 51 56
3 61 62 63
3 64 65 66
3 62 67 68
3 62 69 70
3 34 55 71
3 37 57 72
3 40 56 55
3 42 58 57
3 56 73 60
3 73 72 60
3 58 74 59
3 74 71 59
3 53 72 57
3 75 60 72
3 50 71 55
3 76 59 71
3 77 75 53
3 78 54 75
3 43 76 50
3 45 48 76
3 46 77 52
3 45 78 46
3 79 80 39
3 81 61 10
3 82 83 41
3 74 84 34
3 85 86 15
3 20 87 88
3 89 90 12
3 18 91 89
3 92 93 8
3 10 94 11
3 95 2 6
3 5 0 95
3 93 4 9
3 81 0 4
3 37 96 38
3 97 98 92
3 99 100 85
3 73 101 37
3 102 103 79
3 104 63 105
3 106 107 108
3 109 110 111
3 112 109 111
3 113 106 114
3 115 116 117
3 114 116 112
3 114 118 113
3 112 119 114
3 119 120 118
3 111 121 119
3 117 64 66
3 116 108 64
3 122 108 107
3 123 64 108
3 105 123 124
3 63 68 123
3 79 125 73
3 38 126 99
3 127 82 128
3 128 41 129
3 102 39 130
3 129 36 131
3 130 33 132
3 131 38 99
3 132 35 127
3 35 133 82
3 82 134 74
3 34 135 35
3 84 136 135
3 134 137 84
3 135 138 133
3 133 139 134
3 137 140 136
3 139 141 137
3 136 142 138
3 138 143 139
3 144 145 146
3 92 147 81
3 19 95 91
3 91 6 90
3 11 87 21
3 97 8 86
3 13 11 21
3 86 3 16
3 90 7 13
3 16 5 19
3 85 148 97
3 128 89 127
3 127 12 132
3 102 88 149
3 99 15 131
3 102 14 20
3 128 17 18
3 131 17 129
3 132 14 130
3 0 10 1
3 3 9 4
3 6 2 1
3 8 93 9
3 7 1 10
3 12 90 13
3 15 86 16
3 18 17 16
3 20 14 13
3 22 25 23
3 25 32 26
3 27 150 28
3 30 22 24
3 26 31 24
3 25 22 30
3 33 40 34
3 36 42 37
3 39 80 40
3 41 83 42
3 43 49 44
3 46 52 47
3 49 43 50
3 52 77 53
3 44 49 51
3 51 50 55
3 47 53 57
3 59 48 47
3 60 54 51
3 61 147 62
3 64 68 65
3 62 70 67
3 62 147 69
3 34 40 55
3 37 42 57
3 40 80 56
3 42 83 58
3 56 80 73
3 73 37 72
3 58 83 74
3 74 34 71
3 53 75 72
3 75 54 60
3 50 76 71
3 76 48 59
3 77 78 75
3 78 44 54
3 43 45 76
3 45 46 48
3 46 78 77
3 45 44 78
3 79 73 80
3 81 147 61
3 82 74 83
3 74 134 84
3 85 97 86
3 20 21 87
3 89 91 90
3 18 19 91
3 92 81 93
3 10 61 94
3 95 0 2
3 5 4 0
3 93 81 4
3 81 10 0
3 37 101 96
3 97 148 98
3 99 126 100
3 73 125 101
3 102 149 103
3 104 61 63
3 106 151 107
3 109 152 110
3 112 115 109
3 113 151 106
3 115 112 116
3 114 106 116
3 114 119 118
3 112 111 119
3 119 121 120
3 111 110 121
3 117 116 64
3 116 106 108
3 122 123 108
3 123 68 64
3 105 63 123
3 63 62 68
3 79 103 125
3 38 96 126
3 127 35 82
3 128 82 41
3 102 79 39
3 129 41 36
3 130 39 33
3 131 36 38
3 132 33 35
3 35 135 133
3 82 133 134
3 34 84 135
3 84 137 136
3 134 139 137
3 135 136 138
3 133 138 139
3 137 141 140
3 139 143 141
3 136 140 142
3 138 142 143
3 144 153 145
3 92 98 147
3 19 5 95
3 91 95 6
3 11 94 87
3 97 92 8
3 13 7 11
3 86 8 3
3 90 6 7
3 16 3 5
3 85 100 148
3 128 18 89
3 127 89 12
3 102 20 88
3 99 85 15
3 102 130 14
3 128 129 17
3 131 15 17
3 132 12 14
