ply
format ascii 1.0
comment Created by Blender 2.92.0 - www.blender.org
element vertex 374
property float x
property float y
property float z
property uchar red
property uchar green
property uchar blue
property uchar alpha
element face 590
property list uchar uint vertex_indices
end_header
-140.007156 0.000000 140.007156 232 173 115 255
-142.559998 0.000000 0.000006 48 68 186 255
-100.805138 0.000000 100.805138 48 68 186 255
197.999985 0.000000 -0.000018 222 150 86 255
100.805153 0.000000 -100.805115 48 68 186 255
140.007126 0.000000 -140.007126 222 150 86 255
0.000001 0.000000 -142.559998 222 150 86 255
0.000002 0.000000 -197.999985 222 194 117 255
-140.007156 0.000000 -140.007156 222 150 86 255
-198.000015 0.000000 0.000009 222 150 86 255
140.007111 0.000000 140.007141 232 173 115 255
0.000013 0.000000 142.559998 48 68 186 255
100.805153 0.000000 100.805115 48 68 186 255
-100.805138 0.000000 -100.805138 48 68 186 255
142.559998 0.000000 -0.000002 48 68 186 255
0.000017 0.000000 198.000015 243 190 145 255
-95.040001 0.000000 0.000004 86 101 195 255
-67.203430 0.000000 67.203438 85 100 194 255
0.000010 0.000000 95.040009 86 101 195 255
95.040009 0.000000 -0.000001 86 101 195 255
0.000002 0.000000 -95.040009 222 150 86 255
-67.203430 0.000000 -67.203438 86 101 195 255
67.203445 0.000000 67.203415 86 101 195 255
67.203445 0.000000 -67.203415 86 101 195 255
28.512012 0.000000 -0.000001 97 107 181 255
20.161039 0.000000 -20.161026 97 107 181 255
-28.512001 0.000000 0.000001 97 107 181 255
0.000007 0.000000 28.512007 97 107 181 255
0.000005 0.000000 -28.512007 97 107 181 255
-20.161026 0.000000 -20.161034 97 107 181 255
-20.161026 0.000000 20.161030 97 107 181 255
20.161039 0.000000 20.161024 97 107 181 255
0.000006 0.000000 -0.000001 132 163 196 255
-0.000003 140.007141 -140.007126 232 173 115 255
129.349701 75.771317 -129.349731 232 173 115 255
-0.000009 75.771317 -182.928116 232 173 115 255
0.000000 182.928162 -75.771332 240 186 139 255
-0.000021 197.999985 -0.000009 243 190 145 255
53.578396 182.928162 -53.578426 243 190 144 255
98.999977 140.007141 -99.000008 232 173 115 255
140.007126 140.007141 -0.000024 232 173 115 255
182.928146 75.771317 -0.000024 232 173 115 255
75.771317 182.928162 -0.000021 243 190 145 255
129.349731 75.771317 129.349701 232 173 115 255
53.578426 182.928162 53.578396 243 190 145 255
99.000000 140.007141 98.999985 243 190 145 255
0.000017 140.007141 140.007126 243 190 145 255
0.000016 75.771317 182.928146 243 190 145 255
0.000017 182.928162 75.771317 243 190 145 255
-129.349716 75.771317 129.349716 232 173 115 255
-53.578400 182.928162 53.578419 243 190 145 255
-98.999985 140.007141 99.000000 243 190 145 255
-140.007126 140.007141 0.000011 232 173 115 255
-182.928146 75.771317 0.000008 232 173 115 255
-75.771317 182.928162 0.000014 240 185 137 255
-129.349716 75.771317 -129.349716 232 173 115 255
-53.578419 182.928162 -53.578400 243 189 144 255
-98.999992 140.007141 -98.999992 232 173 115 255
-1.351977 18.352558 -141.322647 255 249 184 255
1.351964 18.352558 -141.322647 255 249 184 255
-0.000001 18.485716 -141.322647 255 249 184 255
2.651986 17.958204 -141.322647 255 249 184 255
-2.651998 17.958200 -141.322647 255 249 184 255
-1.351976 4.758873 -141.322647 255 249 184 255
2.651998 5.153232 -141.322647 255 249 184 255
-3.850103 5.793631 -141.322647 255 249 184 255
4.900242 16.455971 -141.322647 255 249 184 255
3.850093 17.317804 -141.322647 255 249 184 255
-3.850103 17.317797 -141.322647 255 249 184 255
-4.900251 16.455961 -141.322647 255 249 184 255
5.762079 15.405823 -141.322647 255 249 184 255
-5.762086 15.405814 -141.322647 255 249 184 255
6.402481 14.207717 -141.322647 255 249 184 255
-6.402486 14.207709 -141.322647 255 249 184 255
6.796840 12.907699 -141.322647 255 249 184 255
-6.796843 12.907689 -141.322647 255 249 184 255
6.929999 11.555722 -141.322647 255 249 184 255
-6.930001 11.555716 -141.322647 255 249 184 255
6.796842 10.203746 -141.322647 255 249 184 255
-6.796843 10.203739 -141.322647 255 249 184 255
6.402486 8.903723 -141.322647 255 249 184 255
-6.402486 8.903718 -141.322647 255 249 184 255
5.762086 7.705618 -141.322647 255 249 184 255
4.900252 6.655470 -141.322647 255 249 184 255
-4.900251 6.655466 -141.322647 255 249 184 255
-5.762086 7.705614 -141.322647 255 249 184 255
3.850104 5.793632 -141.322647 255 249 184 255
1.351978 4.758875 -141.322647 255 249 184 255
-2.651996 5.153230 -141.322647 255 249 184 255
0.000001 4.625715 -141.322647 255 249 184 255
-6.352668 3.850273 -196.899078 222 194 117 255
10.564094 17.733517 -196.899078 222 194 117 255
9.507431 19.710392 -196.899078 222 194 117 255
-4.375793 2.793613 -196.899078 222 194 117 255
-2.230761 24.572504 -196.899078 222 194 117 255
8.085402 21.443136 -196.899078 222 194 117 255
-2.230758 2.142924 -196.899078 222 194 117 255
-4.375795 23.921816 -196.899078 222 194 117 255
6.352654 22.865158 -196.899078 222 194 117 255
0.000003 1.923213 -196.899078 222 194 117 255
-6.352670 22.865147 -196.899078 222 194 117 255
4.375777 23.921820 -196.899078 222 194 117 255
2.230764 2.142927 -196.899078 222 194 117 255
-8.085413 21.443121 -196.899078 222 194 117 255
2.230742 24.572504 -196.899078 222 194 117 255
4.375797 2.793616 -196.899078 222 194 117 255
-9.507441 19.710379 -196.899078 222 194 117 255
-0.000001 24.792213 -196.899078 222 194 117 255
6.352672 3.850276 -196.899078 222 194 117 255
-10.564100 17.733501 -196.899078 222 194 117 255
8.085418 5.272309 -196.899078 222 194 117 255
-11.214789 15.588470 -196.899078 222 194 117 255
9.507443 7.005053 -196.899078 222 194 117 255
-11.434501 13.357713 -196.899078 222 194 117 255
10.564105 8.981927 -196.899078 222 194 117 255
-11.214790 11.126957 -196.899078 222 194 117 255
11.214790 11.126964 -196.899078 222 194 117 255
-10.564102 8.981920 -196.899078 222 194 117 255
11.434501 13.357727 -196.899078 222 194 117 255
-9.507441 7.005045 -196.899078 222 194 117 255
11.214787 15.588486 -196.899078 222 194 117 255
-8.085413 5.272302 -196.899078 222 194 117 255
94.266129 30.378490 104.031921 155 88 46 255
94.957199 25.162548 102.204163 171 95 48 255
93.198174 22.954117 104.369034 128 74 39 255
95.968636 5.501566 99.429329 160 88 44 255
92.337074 13.650608 105.359779 131 75 39 255
96.353279 12.267238 98.804802 161 89 45 255
100.681007 22.670261 96.487686 161 90 46 255
101.022537 18.515310 95.005676 174 94 46 255
99.215225 20.773701 97.172829 158 90 46 255
101.751709 12.743050 93.949074 175 94 46 255
98.341446 16.227945 96.534142 168 93 47 255
-81.163208 8.361786 -113.681831 97 62 35 255
-92.320747 16.712196 -98.874611 89 64 39 255
-94.483650 8.648263 -96.066689 90 64 39 255
-91.697578 27.342184 -100.123192 90 65 39 255
-93.401123 33.089787 -106.522415 168 88 41 255
-94.253845 39.937119 -104.848305 139 78 40 255
-99.313789 31.974529 -94.947014 89 64 38 255
-94.218887 46.533501 -101.009888 90 65 39 255
-103.989006 17.148464 -89.993515 87 62 37 255
-90.751160 24.134674 -108.472008 116 69 37 255
-111.541519 10.991252 -82.253853 84 60 36 255
-92.827042 0.098353 -92.105392 66 46 27 255
-117.996933 0.098353 -74.085274 56 39 22 255
-95.242088 43.724201 -109.251160 175 90 40 255
-94.278175 34.167835 -110.248360 169 88 41 255
-121.492378 10.438465 -82.093811 68 48 28 255
-112.747734 17.652651 -91.140640 72 51 30 255
-82.368423 -2.192849 -124.894577 196 94 34 255
-75.672020 0.098353 -117.872658 159 78 31 255
-106.076706 -2.192849 -100.367104 0 0 0 255
-85.534042 18.341757 -113.752640 82 59 35 255
-90.567780 24.417488 -114.086960 124 71 37 255
-106.786629 33.876595 -97.307686 69 49 28 255
-84.498253 18.342409 -120.366211 145 78 37 255
-83.917915 7.665893 -120.966583 212 104 42 255
101.660919 -2.185639 -113.489662 190 93 37 255
106.189743 -2.185639 -102.754356 53 37 20 255
108.350395 7.381717 -105.010674 170 89 41 255
109.656670 8.463667 -96.205490 107 66 37 255
115.247421 -2.185639 -81.283730 51 35 19 255
114.275101 15.418247 -84.887962 92 63 37 255
119.919067 35.194138 -80.382431 88 63 38 255
118.460564 21.204548 -75.423668 89 64 39 255
121.548843 30.913008 -74.700256 89 64 39 255
124.193390 13.231573 -61.377369 89 64 38 255
119.776276 -2.185639 -70.548424 51 35 19 255
124.305115 -2.185639 -59.813110 52 36 20 255
129.953186 21.179720 -56.589508 86 61 37 255
128.249939 11.853536 -52.197906 89 64 38 255
132.020813 16.267784 -49.678711 87 62 37 255
128.833969 -2.185639 -49.077808 53 36 20 255
133.362823 -2.185639 -38.342487 52 36 20 255
131.252151 7.731954 -44.639236 87 63 38 255
135.296188 21.313332 -36.180466 119 74 42 255
139.606491 32.047199 -33.957638 90 65 39 255
138.173996 33.043232 -37.755932 90 65 39 255
140.327942 18.247692 -24.182957 85 61 37 255
144.001938 35.031776 -26.909340 76 54 32 255
141.345856 34.263348 -30.237211 90 64 39 255
139.616440 -5.338961 -66.551216 0 0 0 255
112.254402 18.853439 -98.512062 172 90 42 255
115.371284 8.830051 -113.340324 206 101 41 255
110.718597 -2.185639 -92.019043 51 35 19 255
129.652985 -5.338961 -90.168900 0 0 0 255
134.634720 -5.338961 -78.360054 0 0 0 255
138.173950 34.005482 -40.776157 168 90 44 255
144.106567 27.833208 -44.497684 199 98 39 255
136.727524 25.455301 -40.945053 187 98 46 255
142.840790 20.203173 -47.141129 167 87 41 255
134.747833 15.198468 -43.196354 132 78 42 255
119.689529 -5.338961 -113.786583 0 0 0 255
124.671265 -5.338961 -101.977745 0 0 0 255
123.010406 34.409206 -94.484512 171 88 40 255
116.341278 29.194973 -89.054314 152 83 41 255
118.910156 22.380970 -104.173576 195 97 41 255
146.949310 -2.185639 -6.136571 41 27 14 255
155.217392 19.874046 -19.234436 41 27 14 255
145.515976 19.705013 -19.193075 70 49 29 255
154.561615 -5.338961 -31.124687 0 0 0 255
142.420502 -2.185639 -16.871878 52 36 20 255
137.891647 -2.185639 -27.607183 51 35 19 255
159.543350 -5.338961 -19.315851 0 0 0 255
148.758057 39.999096 -33.501968 75 53 31 255
147.278763 38.093777 -36.957993 108 66 35 255
131.556366 32.914570 -74.196648 74 52 31 255
124.055664 27.851639 -70.576920 87 62 37 255
129.200241 38.391064 -79.502808 76 54 32 255
145.887070 37.725815 -40.307446 105 62 33 255
137.346786 24.922100 -60.470818 71 50 29 255
126.920326 24.194809 -63.977409 87 63 38 255
134.294083 28.609755 -67.737358 73 52 30 255
144.598160 -5.338961 -54.742371 0 0 0 255
149.579895 -5.338961 -42.933537 0 0 0 255
140.309830 20.666283 -53.140629 73 51 30 255
137.280304 17.545664 -30.410236 88 63 38 255
134.157608 7.670953 -37.313553 88 62 37 255
120.695160 18.497395 -70.126717 90 64 39 255
-101.333702 -2.185639 108.421852 145 71 28 255
-92.135841 7.381717 114.082405 154 82 39 255
-90.145447 -2.185639 111.674599 151 76 33 255
-67.768944 -2.185639 118.180069 145 73 31 255
-83.238579 8.463667 114.358284 171 92 45 255
-71.461639 15.418247 117.632469 172 94 47 255
-66.331734 35.194138 122.715591 156 88 46 255
-60.498825 30.913008 123.675102 154 88 46 255
-61.575661 21.204548 120.691620 173 95 48 255
-46.959110 13.231573 124.756073 171 95 48 255
-56.580681 -2.185639 121.432816 144 73 31 255
-56.055218 18.497395 122.296570 171 95 48 255
-41.535320 21.179720 129.921478 145 83 44 255
-34.431297 16.267784 131.173355 152 86 45 255
-37.370975 11.853536 127.720200 169 94 48 255
-34.204189 -2.185639 127.938309 144 73 31 255
-29.515032 7.731954 129.825211 170 94 47 255
-23.015934 -2.185639 131.191055 142 72 31 255
-20.644197 21.313332 132.860519 172 95 48 255
-17.936300 32.047199 136.883835 162 92 47 255
-14.682742 17.545664 134.161789 169 93 47 255
-8.143927 18.247692 136.466339 163 90 46 255
-10.425633 35.031776 140.431854 129 73 38 255
-2.585817 19.705013 141.040405 128 71 35 255
-50.308609 -5.338961 140.675247 65 26 5 255
-62.615688 -5.338961 137.097229 65 26 5 255
-45.392437 -2.185639 124.685555 144 73 31 255
-85.228180 18.853439 117.206100 153 82 39 255
-99.594673 8.830051 122.022293 110 56 23 255
-90.079262 22.380970 124.473763 124 64 29 255
-78.957184 -2.185639 114.927330 146 73 31 255
-74.922760 -5.338961 133.519211 65 27 5 255
-87.229843 -5.338961 129.941193 66 27 5 255
-24.874983 34.005482 136.252060 144 81 41 255
-27.883059 27.833208 142.576385 94 48 21 255
-26.384893 35.878841 143.212311 93 51 24 255
-25.210537 25.455301 134.834991 150 82 40 255
-30.655506 20.203173 141.625854 126 71 35 255
-99.536919 -5.338961 126.363167 66 27 5 255
-111.843987 -5.338961 122.785156 101 45 12 255
-79.979912 34.409206 127.422188 134 72 34 255
-70.873489 41.151241 130.057434 136 76 39 255
-75.360130 29.194973 120.168068 159 87 43 255
10.548811 -2.185639 140.949265 117 58 24 255
-1.501344 19.874046 150.681122 56 33 16 255
11.226785 -5.338961 158.565323 49 18 3 255
-0.639438 -2.185639 137.696533 142 72 31 255
-13.387367 -5.338961 151.409302 63 25 5 255
-11.827693 -2.185639 134.443787 141 71 31 255
-1.080294 -5.338961 154.987305 62 25 5 255
-16.421928 39.999096 145.920731 125 72 37 255
-11.139732 36.986217 147.644516 69 42 22 255
-14.039200 34.263348 138.179825 159 90 47 255
-20.026249 38.093777 144.852417 133 76 39 255
-58.837547 32.914570 133.556610 112 66 35 255
-56.112507 27.851639 125.686615 147 84 44 255
-64.381233 38.391064 131.832047 119 70 37 255
-21.875151 33.043232 135.901672 160 91 47 255
-23.514553 37.725815 143.858688 119 68 35 255
-49.225193 24.194809 127.766251 149 85 45 255
-44.532619 24.922100 137.715454 105 62 33 255
-52.104256 28.609755 135.526443 112 66 35 255
-38.001530 -5.338961 144.253250 64 26 5 255
-25.694456 -5.338961 147.831268 64 26 5 255
-27.676332 15.198468 133.129883 166 93 47 255
-36.908138 20.666283 139.808044 112 66 35 255
-21.901731 7.670953 131.861099 170 93 47 255
-114.796539 12.721127 68.630363 157 88 45 255
-109.936134 6.040798 82.643661 93 60 34 255
-115.754082 6.269980 65.961418 157 89 46 255
-114.628563 21.225117 69.734009 156 89 46 255
-114.062164 25.823200 75.295502 68 48 28 255
-112.523071 18.659107 77.430473 88 60 35 255
-119.156906 24.930994 63.923153 177 97 48 255
-114.300453 31.301065 73.811501 77 55 32 255
-121.500603 13.070142 59.003841 175 95 47 255
-109.847061 14.024776 82.731903 74 52 31 255
-125.351135 8.144371 51.256798 169 92 46 255
-113.520279 -0.569949 63.351959 143 76 35 255
-128.261047 -0.569949 43.452492 175 88 38 255
-106.783905 -0.569949 87.182594 42 28 14 255
-116.765984 36.578171 69.790192 137 80 43 255
-119.568176 34.330730 75.813942 42 28 14 255
-119.079041 26.685640 76.809853 0 0 0 255
-132.888489 7.702141 48.692135 162 86 40 255
-128.451141 13.473491 57.727112 161 86 41 255
-113.606369 -2.402910 90.885216 0 0 0 255
-125.636787 -2.402910 66.389839 58 23 4 255
-137.667175 -2.402910 41.894455 168 82 32 255
-117.196281 18.885359 80.643425 44 30 15 255
-114.116371 14.025297 86.914482 48 33 18 255
-125.426292 26.452644 63.886101 169 89 41 255
-122.016335 38.149693 70.829163 121 68 35 255
-113.821892 5.484084 87.514069 41 28 14 255
-137.228989 7.097642 -3.679531 135 78 41 255
-138.308746 17.283945 -12.304723 174 94 46 255
-137.117447 15.554734 -2.769483 135 79 42 255
-139.536530 28.558512 2.869819 88 63 38 255
-138.713898 23.364824 4.583695 82 59 35 255
-138.639450 26.187815 1.057142 132 80 44 255
-138.601761 16.149500 6.184502 80 57 34 255
-137.287781 20.505619 0.999250 118 73 41 255
-139.156891 38.193806 -9.502911 121 76 43 255
-138.405930 31.673874 -7.178670 90 65 39 255
-138.376831 28.913330 -10.665313 177 96 47 255
-138.374207 25.611481 -2.952437 112 73 42 255
-137.149948 21.960588 -6.391795 146 84 44 255
-136.905884 -0.865139 -4.666282 111 59 27 255
-138.508453 7.375715 -16.382313 171 93 45 255
-138.870987 7.297652 8.374393 82 59 35 255
-137.157349 -0.865139 12.582056 55 38 21 255
-143.852173 32.295277 -4.075202 81 57 34 255
-143.709991 19.355501 -18.294979 189 98 45 255
-143.653595 33.280602 -14.646664 191 99 45 255
-146.778381 -2.429824 -7.209884 42 14 2 255
-144.516739 7.638730 12.309577 61 43 24 255
-147.108322 -2.429824 15.420702 0 0 0 255
-143.712341 38.823692 -7.765785 69 49 28 255
-144.161896 17.257092 9.726565 65 45 26 255
-136.654419 -0.865139 -21.914608 169 86 38 255
-143.998795 7.866337 -22.895538 188 97 44 255
-143.964050 31.752142 -0.532490 119 72 40 255
-144.158295 31.878616 2.785239 79 56 33 255
-143.726776 42.848019 -11.254818 138 80 42 255
-144.111313 25.981443 6.394302 63 44 25 255
-146.448471 -2.429824 -29.840456 179 87 33 255
97.047493 20.312634 99.546654 165 92 47 255
94.565010 17.391920 101.085220 158 88 45 255
95.273979 -0.868658 99.884796 135 69 30 255
90.425995 5.724025 108.008263 134 77 40 255
103.013382 5.661574 92.714661 174 94 46 255
104.043083 -0.868658 89.228989 164 83 37 255
99.911003 25.659666 102.983551 161 88 44 255
92.722336 15.307850 111.800865 91 56 31 255
94.508659 26.447927 109.492279 68 47 27 255
100.174973 -2.120406 106.403969 55 21 4 255
108.507156 5.934437 93.073776 162 85 39 255
111.680435 -2.120406 92.423065 132 61 19 255
97.980927 30.882401 105.220604 154 83 39 255
106.995697 13.629123 94.511162 166 87 40 255
86.504875 -0.868658 110.540604 108 58 27 255
90.605843 6.116522 114.820724 81 52 29 255
101.749771 25.225163 100.824982 141 81 42 255
103.527718 25.326340 98.848160 147 82 41 255
96.247910 34.101864 107.408684 131 77 41 255
105.300301 20.608606 96.568794 158 83 39 255
88.669525 -2.120406 120.384865 34 19 7 255
-100.066681 48.497902 -104.259857 68 48 28 255
-129.784988 -2.192849 -75.839645 32 21 9 255
114.707817 -5.338961 -125.595436 212 102 38 255
144.912033 35.878841 -43.083416 179 90 38 255
126.684387 41.151241 -85.745323 84 57 33 255
164.525055 -5.338961 -7.507005 0 0 0 255
151.083038 36.986217 -28.455441 51 35 19 255
3 0 1 2
3 3 4 5
3 6 7 4
3 8 1 9
3 10 11 12
3 7 13 8
3 3 12 14
3 0 11 15
3 13 16 1
3 11 17 18
3 12 19 14
3 4 20 6
3 6 21 13
3 1 17 2
3 12 18 22
3 14 23 4
3 23 24 25
3 21 26 16
3 17 27 18
3 22 24 19
3 23 28 20
3 20 29 21
3 16 30 17
3 22 27 31
3 29 28 32
3 30 26 32
3 31 27 32
3 25 24 32
3 26 29 32
3 27 30 32
3 24 31 32
3 28 25 32
3 33 34 35
3 36 37 38
3 7 34 5
3 33 38 39
3 34 40 41
3 38 37 42
3 5 41 3
3 39 42 40
3 40 43 41
3 42 37 44
3 3 43 10
3 40 44 45
3 43 46 47
3 44 37 48
3 10 47 15
3 45 48 46
3 46 49 47
3 48 37 50
3 15 49 0
3 46 50 51
3 49 52 53
3 50 37 54
3 49 9 0
3 51 54 52
3 52 55 53
3 54 37 56
3 9 55 8
3 52 56 57
3 57 35 55
3 56 37 36
3 55 7 8
3 57 36 33
3 58 59 60
3 58 61 59
3 62 61 58
3 63 64 65
3 61 66 67
3 68 66 61
3 69 66 68
3 70 66 71
3 68 61 62
3 71 72 70
3 73 72 71
3 73 74 72
3 75 74 73
3 75 76 74
3 77 76 75
3 77 78 76
3 79 78 77
3 79 80 78
3 81 80 79
3 81 82 80
3 82 81 83
3 71 66 69
3 84 83 85
3 84 86 83
3 65 86 84
3 65 64 86
3 87 64 63
3 88 63 65
3 63 89 87
3 83 81 85
3 84 90 65
3 70 91 92
3 65 93 88
3 60 94 58
3 66 92 95
3 88 96 63
3 58 97 62
3 67 95 98
3 63 99 89
3 62 100 68
3 61 98 101
3 87 99 102
3 68 103 69
3 59 101 104
3 64 102 105
3 69 106 71
3 60 104 107
3 86 105 108
3 71 109 73
3 83 108 110
3 73 111 75
3 82 110 112
3 75 113 77
3 80 112 114
3 77 115 79
3 78 114 116
3 79 117 81
3 76 116 118
3 81 119 85
3 74 118 120
3 85 121 84
3 72 120 91
3 122 123 124
3 125 126 127
3 128 129 130
3 131 127 132
3 133 134 135
3 136 137 138
3 139 138 140
3 134 139 141
3 134 142 136
3 135 141 143
3 144 143 145
3 144 133 135
3 146 140 138
3 147 138 137
3 148 145 143
3 149 143 141
3 144 150 151
3 145 152 144
3 142 147 137
3 153 154 142
3 140 155 139
3 155 141 139
3 133 156 153
3 151 157 133
3 158 159 160
3 161 162 163
3 164 165 166
3 167 168 169
3 170 171 172
3 173 174 175
3 176 177 178
3 179 180 181
3 168 182 169
3 182 173 169
3 183 184 160
3 184 158 160
3 185 186 162
3 162 187 168
3 188 189 190
3 190 191 192
3 158 193 159
3 159 194 185
3 164 195 196
3 196 197 183
3 198 199 200
3 199 180 200
3 201 202 203
3 204 198 202
3 180 205 181
3 181 206 177
3 207 166 208
3 209 164 166
3 206 178 177
3 210 188 178
3 211 212 170
3 213 208 212
3 214 174 173
3 215 203 174
3 191 172 192
3 216 170 172
3 202 200 179
3 203 179 217
3 179 177 217
3 218 217 176
3 192 176 190
3 190 178 188
3 174 203 218
3 174 218 175
3 175 218 192
3 171 173 175
3 171 175 172
3 172 175 192
3 212 219 167
3 170 167 171
3 171 169 173
3 165 168 219
3 165 219 166
3 166 219 208
3 183 163 196
3 196 165 164
3 163 168 165
3 159 185 161
3 159 161 160
3 160 161 183
3 220 221 222
3 223 224 225
3 226 227 228
3 229 230 231
3 232 233 234
3 235 236 237
3 238 239 240
3 241 242 243
3 230 244 245
3 235 244 246
3 247 248 249
3 220 248 221
3 250 251 252
3 223 245 251
3 253 254 255
3 256 257 254
3 220 258 259
3 222 252 258
3 226 260 261
3 262 249 260
3 263 264 265
3 242 264 243
3 266 267 268
3 263 269 266
3 242 270 271
3 272 273 270
3 227 274 275
3 226 276 227
3 277 273 239
3 253 278 277
3 279 280 232
3 275 281 279
3 237 282 235
3 268 283 237
3 233 257 284
3 232 285 233
3 266 243 263
3 268 241 266
3 239 241 240
3 286 240 268
3 284 238 286
3 256 277 238
3 237 286 268
3 237 236 286
3 236 284 286
3 234 236 235
3 234 233 236
3 233 284 236
3 279 231 275
3 232 229 279
3 234 246 229
3 228 231 230
3 228 227 231
3 227 275 231
3 225 247 262
3 228 262 226
3 230 225 228
3 222 224 250
3 222 221 224
3 221 247 224
3 287 288 289
3 290 291 292
3 293 294 290
3 293 287 295
3 287 292 296
3 295 289 297
3 297 298 299
3 298 288 300
3 301 302 294
3 294 303 291
3 299 304 297
3 297 305 295
3 298 306 307
3 299 307 308
3 291 309 292
3 296 309 310
3 301 311 312
3 295 311 293
3 288 310 313
3 300 313 306
3 314 315 316
3 317 318 319
3 320 316 321
3 322 323 324
3 323 325 326
3 323 326 324
3 324 326 315
3 316 315 326
3 316 326 321
3 321 326 325
3 318 320 321
3 318 321 319
3 319 321 325
3 327 328 314
3 327 329 330
3 314 320 329
3 323 331 325
3 324 332 333
3 328 332 315
3 330 334 327
3 330 335 336
3 322 337 323
3 318 338 320
3 339 340 328
3 317 341 342
3 329 338 335
3 322 333 343
3 317 344 318
3 339 334 345
3 325 341 319
3 123 346 347
3 123 347 124
3 124 347 126
3 127 126 347
3 127 347 132
3 132 347 346
3 129 131 132
3 129 132 130
3 130 132 346
3 348 349 125
3 348 350 351
3 125 131 350
3 123 352 346
3 124 353 354
3 349 353 126
3 351 355 348
3 351 356 357
3 122 358 123
3 129 359 131
3 360 361 349
3 128 362 363
3 350 359 356
3 122 354 364
3 128 365 129
3 360 355 366
3 346 362 130
3 7 5 4
3 0 9 1
3 3 14 4
3 8 13 1
3 10 15 11
3 7 6 13
3 3 10 12
3 0 2 11
3 13 21 16
3 11 2 17
3 12 22 19
3 4 23 20
3 6 20 21
3 1 16 17
3 12 11 18
3 14 19 23
3 23 19 24
3 21 29 26
3 17 30 27
3 22 31 24
3 23 25 28
3 20 28 29
3 16 26 30
3 22 18 27
3 33 39 34
3 7 35 34
3 33 36 38
3 34 39 40
3 5 34 41
3 39 38 42
3 40 45 43
3 3 41 43
3 40 42 44
3 43 45 46
3 10 43 47
3 45 44 48
3 46 51 49
3 15 47 49
3 46 48 50
3 49 51 52
3 49 53 9
3 51 50 54
3 52 57 55
3 9 53 55
3 52 54 56
3 57 33 35
3 55 35 7
3 57 56 36
3 84 121 90
3 70 72 91
3 65 90 93
3 60 107 94
3 66 70 92
3 88 93 96
3 58 94 97
3 67 66 95
3 63 96 99
3 62 97 100
3 61 67 98
3 87 89 99
3 68 100 103
3 59 61 101
3 64 87 102
3 69 103 106
3 60 59 104
3 86 64 105
3 71 106 109
3 83 86 108
3 73 109 111
3 82 83 110
3 75 111 113
3 80 82 112
3 77 113 115
3 78 80 114
3 79 115 117
3 76 78 116
3 81 117 119
3 74 76 118
3 85 119 121
3 72 74 120
3 125 349 126
3 133 153 134
3 136 142 137
3 139 136 138
3 134 136 139
3 134 153 142
3 135 134 141
3 144 135 143
3 144 151 133
3 146 367 140
3 147 146 138
3 148 368 145
3 149 148 143
3 144 152 150
3 145 368 152
3 142 154 147
3 153 156 154
3 140 367 155
3 155 149 141
3 133 157 156
3 151 150 157
3 161 185 162
3 167 219 168
3 176 217 177
3 179 200 180
3 168 187 182
3 182 214 173
3 183 197 184
3 184 369 158
3 185 194 186
3 162 186 187
3 188 370 189
3 190 189 191
3 158 369 193
3 159 193 194
3 164 371 195
3 196 195 197
3 198 372 199
3 199 373 180
3 201 204 202
3 204 372 198
3 180 373 205
3 181 205 206
3 207 209 166
3 209 371 164
3 206 210 178
3 210 370 188
3 211 213 212
3 213 207 208
3 214 215 174
3 215 201 203
3 191 216 172
3 216 211 170
3 202 198 200
3 203 202 179
3 179 181 177
3 218 203 217
3 192 218 176
3 190 176 178
3 212 208 219
3 170 212 167
3 171 167 169
3 183 161 163
3 196 163 165
3 163 162 168
3 223 250 224
3 229 246 230
3 238 277 239
3 241 272 242
3 230 246 244
3 235 282 244
3 247 221 248
3 220 259 248
3 250 223 251
3 223 230 245
3 253 256 254
3 256 284 257
3 220 222 258
3 222 250 252
3 226 262 260
3 262 247 249
3 263 243 264
3 242 271 264
3 266 269 267
3 263 265 269
3 242 272 270
3 272 239 273
3 227 276 274
3 226 261 276
3 277 278 273
3 253 255 278
3 279 281 280
3 275 274 281
3 237 283 282
3 268 267 283
3 233 285 257
3 232 280 285
3 266 241 243
3 268 240 241
3 239 272 241
3 286 238 240
3 284 256 238
3 256 253 277
3 279 229 231
3 232 234 229
3 234 235 246
3 225 224 247
3 228 225 262
3 230 223 225
3 287 296 288
3 290 294 291
3 293 301 294
3 293 290 287
3 287 290 292
3 295 287 289
3 297 289 298
3 298 289 288
3 301 312 302
3 294 302 303
3 299 308 304
3 297 304 305
3 298 300 306
3 299 298 307
3 291 303 309
3 296 292 309
3 301 293 311
3 295 305 311
3 288 296 310
3 300 288 313
3 314 328 315
3 327 339 328
3 327 314 329
3 314 316 320
3 323 337 331
3 324 315 332
3 328 340 332
3 330 336 334
3 330 329 335
3 322 343 337
3 318 344 338
3 339 345 340
3 317 319 341
3 329 320 338
3 322 324 333
3 317 342 344
3 339 327 334
3 325 331 341
3 348 360 349
3 348 125 350
3 125 127 131
3 123 358 352
3 124 126 353
3 349 361 353
3 351 357 355
3 351 350 356
3 122 364 358
3 129 365 359
3 360 366 361
3 128 130 362
3 350 131 359
3 122 124 354
3 128 363 365
3 360 348 355
3 346 352 362
