ply
format ascii 1.0
comment Created by Blender 2.79 (sub 0) - www.blender.org, source file: 'table.blend'
element vertex 389
property float x
property float y
property float z
property uchar red
property uchar green
property uchar blue
element face 584
property list uchar uint vertex_indices
end_header
0.000000 5.568773 0.854912 74 74 74
-0.241845 5.410042 0.901045 74 74 74
0.000000 5.392020 0.939693 74 74 74
0.000000 4.195088 0.518774 138 138 138
-0.241845 4.128329 0.303372 138 138 138
0.000000 4.110307 0.342021 138 138 138
-0.284379 5.223315 0.942916 94 94 94
0.000000 5.202123 0.988362 74 74 74
0.000000 4.061638 0.152124 114 114 114
-0.190016 4.075798 0.121758 123 123 123
0.000000 5.006381 0.999049 74 74 74
-0.315985 5.029927 0.948552 138 138 138
0.000000 4.050951 -0.043619 84 84 84
-0.130885 4.060705 -0.064535 90 90 90
0.000000 4.812314 0.971343 74 74 74
-0.335448 4.837311 0.917736 138 138 138
0.000000 4.078658 -0.237686 78 78 78
-0.066725 4.083630 -0.248349 79 79 79
-0.342020 4.652868 0.851651 114 114 114
0.000000 4.627381 0.906308 74 74 74
0.000000 5.856444 0.591310 74 74 74
0.000000 5.956308 0.422619 74 74 74
-0.066725 5.861417 0.580647 74 74 74
0.000000 4.143692 -0.422618 74 74 74
0.000000 4.078658 -0.237686 74 74 74
-0.066725 4.083630 -0.248349 74 74 74
0.000000 4.458690 0.806445 74 74 74
-0.335448 4.483687 0.752838 87 87 87
-0.130885 5.735343 0.716362 74 74 74
0.000000 5.725590 0.737278 74 74 74
0.000000 4.312723 0.675591 131 131 131
-0.315985 4.336269 0.625094 138 138 138
-0.190016 5.582932 0.824547 74 74 74
-0.284379 4.216280 0.473328 138 138 138
-0.642787 4.726255 0.694273 86 86 86
-0.125402 5.875733 0.549944 74 74 74
-0.125401 4.097947 -0.279052 74 74 74
-0.630436 4.555664 0.598484 79 79 79
-0.245984 5.763427 0.656135 74 74 74
-0.593858 4.404070 0.479695 134 134 134
-0.357114 5.623704 0.737112 74 74 74
-0.534458 4.277299 0.342473 137 137 137
-0.454519 5.461934 0.789761 74 74 74
-0.454519 4.180222 0.192089 128 128 128
-0.534458 5.284334 0.812061 90 90 90
-0.357114 4.116570 0.034323 104 104 104
-0.593858 5.097728 0.803153 137 137 137
-0.245984 4.088789 -0.124762 88 88 88
-0.630436 4.909288 0.763381 138 138 138
-0.125401 4.097947 -0.279052 81 81 81
-0.612372 4.259726 0.021592 89 89 89
-0.720074 5.377820 0.611578 74 74 74
-0.481138 4.179035 -0.099635 86 86 86
-0.800103 5.201605 0.580389 75 75 75
-0.331414 4.131816 -0.217034 84 84 84
-0.849385 5.019563 0.526896 74 74 74
-0.168953 4.119882 -0.326092 83 83 83
-0.866025 4.838691 0.453154 74 74 74
-0.168953 5.897669 0.502904 74 74 74
-0.168953 4.119882 -0.326092 74 74 74
-0.849385 4.665939 0.361998 74 74 74
-0.331414 5.806455 0.563863 74 74 74
-0.800103 4.507947 0.256931 75 75 75
-0.481138 5.686170 0.603153 74 74 74
-0.720074 4.370785 0.141990 85 85 85
-0.612372 5.541438 0.619265 74 74 74
0.000000 4.143692 -0.422618 80 80 80
-0.192126 4.146790 -0.383794 85 85 85
-0.984808 4.976613 0.157379 74 74 74
-0.965885 4.801211 0.071907 74 74 74
-0.376870 5.859235 0.450675 74 74 74
-0.909844 4.635370 -0.016329 74 74 74
-0.547130 5.762795 0.438830 74 74 74
-0.818838 4.485463 -0.103938 75 75 75
-0.696364 5.638964 0.410120 74 74 74
-0.696364 4.357251 -0.187552 78 78 78
-0.818838 5.492498 0.365650 74 74 74
-0.547130 4.255661 -0.263959 80 80 80
-0.909844 5.329028 0.307128 74 74 74
-0.376870 4.184597 -0.330222 84 84 84
-0.965885 5.154835 0.236804 74 74 74
-0.331414 4.131816 -0.217034 74 74 74
-0.192126 4.146790 -0.383794 74 74 74
-0.192127 5.924576 0.445201 74 74 74
-0.547130 4.255661 -0.263959 74 74 74
-0.696364 4.461036 -0.410119 74 74 74
-0.547130 4.337204 -0.438829 74 74 74
-0.818838 5.614536 0.103939 74 74 74
-0.909844 5.464630 0.016331 74 74 74
-0.547130 4.337204 -0.438829 87 87 87
-0.376870 4.240765 -0.450674 89 89 89
-0.965885 5.298789 -0.071905 74 74 74
-0.376870 4.184597 -0.330222 74 74 74
-0.192126 4.175424 -0.445201 74 74 74
-0.984808 5.123386 -0.157378 74 74 74
-0.192127 5.953210 0.383795 74 74 74
-0.965885 4.945165 -0.236803 74 74 74
-0.376870 5.915403 0.330222 74 74 74
-0.909844 4.770972 -0.307127 74 74 74
-0.547130 5.844339 0.263960 74 74 74
-0.818838 4.607501 -0.365649 76 76 76
-0.696364 5.742749 0.187553 74 74 74
-0.696364 4.357251 -0.187552 74 74 74
-0.818838 4.607501 -0.365649 74 74 74
-0.331414 5.968184 0.217034 74 74 74
-0.800103 4.898396 -0.580388 74 74 74
-0.481138 5.920964 0.099636 74 74 74
-0.800103 4.898396 -0.580388 79 79 79
-0.720074 4.722179 -0.611577 110 110 110
-0.612372 5.840274 -0.021592 74 74 74
-0.720074 4.722179 -0.611577 74 74 74
-0.612372 4.558561 -0.619264 74 74 74
-0.720074 5.729215 -0.141989 74 74 74
-0.612372 4.558561 -0.619264 122 122 122
-0.481138 4.413829 -0.603153 114 114 114
-0.800103 5.592053 -0.256930 74 74 74
-0.331414 4.293545 -0.563863 106 106 106
-0.849385 5.434061 -0.361997 74 74 74
-0.376870 4.240765 -0.450674 74 74 74
-0.168953 4.202331 -0.502903 74 74 74
-0.866025 5.261309 -0.453153 74 74 74
-0.168953 5.980118 0.326092 74 74 74
-0.192126 4.175424 -0.445201 89 89 89
-0.168953 4.202331 -0.502903 94 94 94
-0.849385 5.080437 -0.526895 74 74 74
-0.534458 5.822701 -0.342472 74 74 74
-0.593858 5.695930 -0.479694 74 74 74
-0.331414 4.293545 -0.563863 74 74 74
-0.357114 4.476295 -0.737111 74 74 74
-0.245984 4.336572 -0.656135 74 74 74
-0.630437 5.544335 -0.598483 74 74 74
-0.245984 4.336572 -0.656135 126 126 126
-0.125402 4.224266 -0.549943 99 99 99
-0.642788 5.373744 -0.694272 74 74 74
-0.125402 6.002052 0.279052 74 74 74
-0.630437 5.190712 -0.763380 74 74 74
-0.245984 6.011210 0.124762 74 74 74
-0.593858 5.002272 -0.803152 74 74 74
-0.357114 5.983430 -0.034322 74 74 74
-0.800103 4.898396 -0.580388 78 78 78
-0.534458 4.815666 -0.812060 138 138 138
-0.454519 5.919778 -0.192088 74 74 74
-0.534458 4.815666 -0.812060 74 74 74
-0.454519 4.638065 -0.789760 74 74 74
-0.357114 4.476295 -0.737111 137 137 137
-0.315986 5.070073 -0.948551 74 74 74
-0.130885 6.039295 0.064536 74 74 74
-0.190016 6.024201 -0.121757 74 74 74
-0.593858 5.002272 -0.803152 132 132 132
-0.284379 4.876685 -0.942915 138 138 138
-0.241845 5.971671 -0.303371 74 74 74
-0.241845 4.689958 -0.901044 137 137 137
-0.454519 4.638065 -0.789760 79 79 79
-0.454519 5.919778 -0.192088 83 83 83
-0.284379 5.883720 -0.473327 138 138 138
-0.534458 5.822701 -0.342472 137 137 137
-0.454519 4.638065 -0.789760 138 138 138
-0.190016 4.517067 -0.824546 138 138 138
-0.593858 5.695930 -0.479694 138 138 138
-0.315985 5.763731 -0.625093 138 138 138
-0.130885 4.364656 -0.716361 135 135 135
-0.335448 5.616312 -0.752838 74 74 74
-0.066725 4.238583 -0.580646 101 101 101
-0.342020 5.447131 -0.851650 74 74 74
-0.066725 6.016370 0.248349 74 74 74
-0.125402 4.224266 -0.549943 74 74 74
-0.066725 4.238583 -0.580646 74 74 74
-0.335448 5.262689 -0.917735 74 74 74
0.000000 4.374410 -0.737277 131 131 131
0.000000 5.641310 -0.806444 83 83 83
-0.335448 5.616312 -0.752838 138 138 138
0.000000 4.243555 -0.591309 96 96 96
0.000000 5.472618 -0.906307 74 74 74
-0.342020 5.447131 -0.851650 120 120 120
0.000000 6.021342 0.237686 74 74 74
0.000000 5.287686 -0.971342 74 74 74
0.000000 6.049048 0.043619 74 74 74
-0.335448 5.262689 -0.917735 75 75 75
0.000000 5.093619 -0.999048 74 74 74
-0.315986 5.070073 -0.948551 124 124 124
0.000000 6.038362 -0.152123 74 74 74
0.000000 5.093619 -0.999048 80 80 80
0.000000 4.897877 -0.988361 137 137 137
0.000000 5.989693 -0.342020 74 74 74
-0.241845 4.689958 -0.901044 74 74 74
0.000000 4.897877 -0.988361 74 74 74
0.000000 4.707980 -0.939692 74 74 74
-0.241845 5.971671 -0.303371 80 80 80
0.000000 5.904912 -0.518773 75 75 75
-0.241845 4.689958 -0.901044 138 138 138
0.000000 4.531227 -0.854912 138 138 138
0.000000 5.787277 -0.675590 91 91 91
-1.468439 6.703027 3.646811 255 255 255
-0.410019 6.311067 0.571154 255 255 255
-1.468439 6.311067 3.646811 255 255 255
-0.410019 6.703027 0.571154 255 255 255
0.000000 6.311067 0.571154 255 255 255
0.000000 6.703027 3.646811 255 255 255
0.000000 6.311067 3.646811 255 255 255
0.000000 6.703027 0.571154 255 255 255
-1.023849 6.204718 4.646811 255 255 255
-1.023849 4.204718 2.646811 255 255 255
-1.023849 4.204718 4.646811 255 255 255
-1.023849 6.204718 2.646811 255 255 255
0.000000 4.204718 2.646811 255 255 255
0.000000 6.204718 4.646811 255 255 255
0.000000 4.204718 4.646811 255 255 255
0.000000 6.204718 2.646811 255 255 255
0.241845 5.410042 0.901045 74 74 74
0.241845 4.128329 0.303372 138 138 138
0.284379 5.223315 0.942916 94 94 94
0.190016 4.075798 0.121758 123 123 123
0.315985 5.029927 0.948552 138 138 138
0.130885 4.060705 -0.064535 90 90 90
0.342020 4.652868 0.851651 114 114 114
0.066725 5.861417 0.580647 74 74 74
0.066725 4.083630 -0.248349 74 74 74
0.130885 5.735343 0.716362 74 74 74
0.335448 4.483687 0.752838 87 87 87
0.190016 5.582932 0.824547 74 74 74
0.315985 4.336269 0.625094 138 138 138
0.642787 4.726255 0.694273 86 86 86
0.335448 4.837311 0.917736 138 138 138
0.125402 5.875733 0.549944 74 74 74
0.125401 4.097947 -0.279052 74 74 74
0.245984 5.763427 0.656135 74 74 74
0.593858 4.404070 0.479695 134 134 134
0.357114 5.623704 0.737112 74 74 74
0.284379 4.216280 0.473328 138 138 138
0.454519 5.461934 0.789761 74 74 74
0.534458 4.277299 0.342473 137 137 137
0.454519 4.180222 0.192089 128 128 128
0.593858 5.097728 0.803153 137 137 137
0.357114 4.116570 0.034323 104 104 104
0.630436 4.909288 0.763381 138 138 138
0.125401 4.097947 -0.279052 81 81 81
0.066725 4.083630 -0.248349 79 79 79
0.612372 4.259726 0.021592 89 89 89
0.720074 5.377820 0.611578 74 74 74
0.534458 5.284334 0.812061 90 90 90
0.800103 5.201605 0.580389 75 75 75
0.245984 4.088789 -0.124762 88 88 88
0.481138 4.179035 -0.099635 86 86 86
0.849385 5.019563 0.526896 74 74 74
0.168953 4.119882 -0.326092 83 83 83
0.866025 4.838691 0.453154 74 74 74
0.168953 5.897669 0.502904 74 74 74
0.168953 4.119882 -0.326092 74 74 74
0.630436 4.555664 0.598484 79 79 79
0.331414 5.806455 0.563863 74 74 74
0.800103 4.507947 0.256931 75 75 75
0.612372 5.541438 0.619265 74 74 74
0.192126 4.146790 -0.383794 85 85 85
0.849385 4.665939 0.361998 74 74 74
0.984808 4.976613 0.157379 74 74 74
0.376870 5.859235 0.450675 74 74 74
0.909844 4.635370 -0.016329 74 74 74
0.481138 5.686170 0.603153 74 74 74
0.720074 4.370785 0.141990 85 85 85
0.547130 5.762795 0.438830 74 74 74
0.818838 4.485463 -0.103938 75 75 75
0.818838 5.492498 0.365650 74 74 74
0.547130 4.255661 -0.263959 80 80 80
0.331414 4.131816 -0.217034 84 84 84
0.965885 5.154835 0.236804 74 74 74
0.192126 4.146790 -0.383794 74 74 74
0.331414 4.131816 -0.217034 74 74 74
0.192127 5.924576 0.445201 74 74 74
0.547130 4.255661 -0.263959 74 74 74
0.696364 4.461036 -0.410119 74 74 74
0.696364 4.357251 -0.187552 74 74 74
0.909844 5.329028 0.307128 74 74 74
0.818838 5.614536 0.103939 74 74 74
0.376870 4.184597 -0.330222 84 84 84
0.547130 4.337204 -0.438829 87 87 87
0.965885 5.298789 -0.071905 74 74 74
0.192126 4.175424 -0.445201 74 74 74
0.376870 4.184597 -0.330222 74 74 74
0.984808 5.123386 -0.157378 74 74 74
0.192127 5.953210 0.383795 74 74 74
0.965885 4.801211 0.071907 74 74 74
0.376870 5.915403 0.330222 74 74 74
0.909844 4.770972 -0.307127 74 74 74
0.547130 5.844339 0.263960 74 74 74
0.818838 4.607501 -0.365649 76 76 76
0.696364 5.742749 0.187553 74 74 74
0.696364 5.638964 0.410120 74 74 74
0.818838 4.607501 -0.365649 74 74 74
0.818838 4.485463 -0.103938 74 74 74
0.331414 5.968184 0.217034 74 74 74
0.800103 4.898396 -0.580388 74 74 74
0.965885 4.945165 -0.236803 74 74 74
0.800103 4.898396 -0.580388 79 79 79
0.612372 5.840274 -0.021592 74 74 74
0.720074 4.722179 -0.611577 74 74 74
0.720074 5.729215 -0.141989 74 74 74
0.612372 4.558561 -0.619264 122 122 122
0.696364 4.461036 -0.410119 84 84 84
0.909844 5.464630 0.016331 74 74 74
0.376870 4.240765 -0.450674 89 89 89
0.481138 4.413829 -0.603153 114 114 114
0.849385 5.434061 -0.361997 74 74 74
0.168953 4.202331 -0.502903 74 74 74
0.376870 4.240765 -0.450674 74 74 74
0.866025 5.261309 -0.453153 74 74 74
0.168953 5.980118 0.326092 74 74 74
0.168953 4.202331 -0.502903 94 94 94
0.192126 4.175424 -0.445201 89 89 89
0.800103 5.592053 -0.256930 74 74 74
0.534458 5.822701 -0.342472 74 74 74
0.331414 4.293545 -0.563863 74 74 74
0.357114 4.476295 -0.737111 74 74 74
0.481138 4.413829 -0.603153 74 74 74
0.630437 5.544335 -0.598483 74 74 74
0.245984 4.336572 -0.656135 126 126 126
0.331414 4.293545 -0.563863 106 106 106
0.642788 5.373744 -0.694272 74 74 74
0.125402 6.002052 0.279052 74 74 74
0.125402 4.224266 -0.549943 99 99 99
0.849385 5.080437 -0.526895 74 74 74
0.245984 6.011210 0.124762 74 74 74
0.630437 5.190712 -0.763380 74 74 74
0.481138 5.920964 0.099636 74 74 74
0.534458 4.815666 -0.812060 138 138 138
0.800103 4.898396 -0.580388 78 78 78
0.720074 4.722179 -0.611577 110 110 110
0.454519 5.919778 -0.192088 74 74 74
0.612372 4.558561 -0.619264 74 74 74
0.534458 4.815666 -0.812060 74 74 74
0.357114 4.476295 -0.737111 137 137 137
0.315986 5.070073 -0.948551 74 74 74
0.593858 5.002272 -0.803152 74 74 74
0.357114 5.983430 -0.034322 74 74 74
0.130885 6.039295 0.064536 74 74 74
0.284379 4.876685 -0.942915 138 138 138
0.593858 5.002272 -0.803152 132 132 132
0.241845 5.971671 -0.303371 74 74 74
0.241845 4.689958 -0.901044 137 137 137
0.454519 4.638065 -0.789760 79 79 79
0.284379 5.883720 -0.473327 138 138 138
0.454519 5.919778 -0.192088 83 83 83
0.534458 5.822701 -0.342472 137 137 137
0.190016 4.517067 -0.824546 138 138 138
0.454519 4.638065 -0.789760 138 138 138
0.593858 5.695930 -0.479694 138 138 138
0.357114 4.476295 -0.737111 136 136 136
0.335448 5.616312 -0.752838 74 74 74
0.593858 5.695930 -0.479694 74 74 74
0.066725 4.238583 -0.580646 101 101 101
0.342020 5.447131 -0.851650 74 74 74
0.066725 6.016370 0.248349 74 74 74
0.066725 4.238583 -0.580646 74 74 74
0.125402 4.224266 -0.549943 74 74 74
0.130885 4.364656 -0.716361 135 135 135
0.315985 5.763731 -0.625093 138 138 138
0.335448 5.616312 -0.752838 138 138 138
0.342020 5.447131 -0.851650 120 120 120
0.335448 5.262689 -0.917735 74 74 74
0.335448 5.262689 -0.917735 75 75 75
0.315986 5.070073 -0.948551 124 124 124
0.190016 6.024201 -0.121757 74 74 74
0.315986 5.070073 -0.948551 125 125 125
0.241845 4.689958 -0.901044 74 74 74
0.284379 4.876685 -0.942915 74 74 74
0.241845 5.971671 -0.303371 80 80 80
0.241845 4.689958 -0.901044 138 138 138
0.410019 6.311067 0.571154 255 255 255
1.468439 6.703027 3.646811 255 255 255
1.468439 6.311067 3.646811 255 255 255
0.410019 6.703027 0.571154 255 255 255
1.023849 4.204718 2.646811 255 255 255
1.023849 6.204718 4.646811 255 255 255
1.023849 4.204718 4.646811 255 255 255
1.023849 6.204718 2.646811 255 255 255
-0.818838 4.485463 -0.103938 74 74 74
-0.696364 4.461036 -0.410119 84 84 84
-0.481138 4.413829 -0.603153 74 74 74
-0.315986 5.070073 -0.948551 125 125 125
-0.284379 4.876685 -0.942915 119 119 119
-0.357114 4.476295 -0.737111 136 136 136
-0.315985 5.763731 -0.625093 74 74 74
-0.284379 4.876685 -0.942915 74 74 74
0.000000 4.707980 -0.939692 138 138 138
0.696364 4.357251 -0.187552 78 78 78
0.547130 4.337204 -0.438829 74 74 74
0.245984 4.336572 -0.656135 74 74 74
0.454519 4.638065 -0.789760 74 74 74
0.284379 4.876685 -0.942915 119 119 119
0.315985 5.763731 -0.625093 74 74 74
3 0 1 2
3 3 4 5
3 2 6 7
3 8 4 9
3 10 6 11
3 12 9 13
3 14 11 15
3 16 13 17
3 14 18 19
3 20 21 22
3 23 24 25
3 26 18 27
3 20 28 29
3 30 27 31
3 29 32 0
3 3 31 33
3 15 34 18
3 22 21 35
3 23 25 36
3 27 34 37
3 22 38 28
3 27 39 31
3 28 40 32
3 33 39 41
3 32 42 1
3 4 41 43
3 6 42 44
3 9 43 45
3 6 46 11
3 13 45 47
3 11 48 15
3 13 49 17
3 41 50 43
3 42 51 44
3 45 50 52
3 44 53 46
3 47 52 54
3 46 55 48
3 47 56 49
3 48 57 34
3 35 21 58
3 23 36 59
3 37 57 60
3 35 61 38
3 37 62 39
3 40 61 63
3 41 62 64
3 40 65 42
3 66 56 67
3 60 68 69
3 58 70 61
3 60 71 62
3 63 70 72
3 64 71 73
3 65 72 74
3 50 73 75
3 65 76 51
3 50 77 52
3 53 76 78
3 54 77 79
3 53 80 55
3 81 82 59
3 55 68 57
3 58 21 83
3 84 85 86
3 78 87 88
3 79 89 90
3 78 91 80
3 92 93 82
3 80 94 68
3 83 21 95
3 23 82 93
3 69 94 96
3 83 97 70
3 69 98 71
3 70 99 72
3 71 100 73
3 72 101 74
3 102 103 85
3 74 87 76
3 95 104 97
3 96 105 98
3 99 104 106
3 100 107 108
3 99 109 101
3 85 110 111
3 101 112 87
3 89 113 114
3 88 112 115
3 90 114 116
3 88 117 91
3 118 119 93
3 91 120 94
3 95 21 121
3 66 122 123
3 96 120 124
3 115 125 126
3 127 128 129
3 115 130 117
3 123 131 132
3 117 133 120
3 121 21 134
3 66 123 132
3 124 133 135
3 121 136 104
3 105 135 137
3 106 136 138
3 139 140 108
3 106 141 109
3 111 142 143
3 109 125 112
3 113 144 114
3 135 145 137
3 138 146 147
3 148 149 140
3 138 150 141
3 142 151 152
3 153 154 155
3 156 157 144
3 158 154 159
3 131 157 160
3 126 161 130
3 131 162 132
3 130 163 133
3 134 21 164
3 23 165 166
3 135 163 167
3 136 164 146
3 157 168 160
3 159 169 170
3 162 168 171
3 170 172 173
3 164 21 174
3 66 162 171
3 167 172 175
3 164 176 146
3 177 178 179
3 147 176 180
3 149 181 182
3 147 183 150
3 184 185 186
3 187 188 154
3 189 190 157
3 159 188 191
3 192 193 194
3 195 196 193
3 197 194 198
3 193 198 194
3 195 197 199
3 200 201 202
3 203 204 201
3 205 202 206
3 204 202 201
3 203 205 207
3 208 0 2
3 209 3 5
3 210 2 7
3 8 209 5
3 10 210 7
3 12 211 8
3 14 212 10
3 16 213 12
3 214 14 19
3 20 215 21
3 23 216 24
3 26 214 19
3 217 20 29
3 30 218 26
3 219 29 0
3 3 220 30
3 221 222 214
3 215 223 21
3 23 224 216
3 218 221 214
3 225 215 217
3 226 218 220
3 227 217 219
3 228 226 220
3 229 219 208
3 209 230 228
3 210 229 208
3 211 231 209
3 232 210 212
3 213 233 211
3 234 212 222
3 235 213 236
3 237 230 231
3 238 229 239
3 233 237 231
3 240 239 232
3 241 242 233
3 243 232 234
3 244 241 235
3 245 234 221
3 223 246 21
3 23 247 224
3 248 245 221
3 249 223 225
3 250 248 226
3 227 249 225
3 230 250 226
3 251 227 229
3 66 252 244
3 253 254 245
3 255 246 249
3 256 253 250
3 257 255 249
3 258 256 250
3 251 259 257
3 237 260 258
3 261 251 238
3 262 237 242
3 240 261 238
3 263 262 242
3 264 240 243
3 265 266 247
3 254 243 245
3 246 267 21
3 268 269 270
3 271 272 261
3 273 274 262
3 275 271 264
3 276 277 265
3 278 264 254
3 267 279 21
3 23 276 265
3 280 278 254
3 281 267 255
3 282 280 256
3 283 255 259
3 284 256 260
3 285 259 286
3 270 287 288
3 272 286 261
3 289 279 281
3 290 291 282
3 283 289 281
3 284 292 282
3 293 283 285
3 269 294 287
3 295 285 272
3 274 296 297
3 298 295 272
3 299 300 274
3 301 298 275
3 302 303 276
3 304 275 278
3 279 305 21
3 66 306 307
3 291 304 278
3 308 309 295
3 310 311 312
3 313 308 301
3 306 314 315
3 316 301 304
3 305 317 21
3 66 318 306
3 319 316 304
3 320 305 289
3 290 321 319
3 322 320 289
3 323 324 325
3 326 322 293
3 327 328 294
3 309 293 295
3 329 296 300
3 330 321 331
3 332 333 320
3 334 335 323
3 336 332 326
3 337 328 338
3 339 340 341
3 342 343 329
3 344 339 341
3 314 342 345
3 346 347 313
3 348 314 318
3 349 313 316
3 317 350 21
3 23 351 352
3 321 349 316
3 320 350 317
3 168 342 353
3 169 354 355
3 348 168 353
3 172 355 356
3 350 174 21
3 66 171 348
3 357 172 356
3 176 350 333
3 178 358 359
3 360 176 333
3 334 181 361
3 183 360 336
3 362 185 363
3 188 364 339
3 190 365 342
3 354 188 339
3 366 367 368
3 196 369 366
3 198 199 196
3 368 197 198
3 366 198 196
3 197 369 199
3 370 371 372
3 204 373 370
3 206 207 204
3 372 205 206
3 372 204 370
3 205 373 207
3 0 32 1
3 3 33 4
3 2 1 6
3 8 5 4
3 10 7 6
3 12 8 9
3 14 10 11
3 16 12 13
3 14 15 18
3 26 19 18
3 20 22 28
3 30 26 27
3 29 28 32
3 3 30 31
3 15 48 34
3 27 18 34
3 22 35 38
3 27 37 39
3 28 38 40
3 33 31 39
3 32 40 42
3 4 33 41
3 6 1 42
3 9 4 43
3 6 44 46
3 13 9 45
3 11 46 48
3 13 47 49
3 41 64 50
3 42 65 51
3 45 43 50
3 44 51 53
3 47 45 52
3 46 53 55
3 47 54 56
3 48 55 57
3 37 34 57
3 35 58 61
3 37 60 62
3 40 38 61
3 41 39 62
3 40 63 65
3 60 57 68
3 58 83 70
3 60 69 71
3 63 61 70
3 64 62 71
3 65 63 72
3 50 64 73
3 65 74 76
3 50 75 77
3 53 51 76
3 54 52 77
3 53 78 80
3 81 92 82
3 55 80 68
3 84 102 85
3 78 76 87
3 79 77 89
3 78 88 91
3 92 118 93
3 80 91 94
3 69 68 94
3 83 95 97
3 69 96 98
3 70 97 99
3 71 98 100
3 72 99 101
3 102 374 103
3 74 101 87
3 95 121 104
3 96 124 105
3 99 97 104
3 100 98 107
3 99 106 109
3 85 103 110
3 101 109 112
3 89 375 113
3 88 87 112
3 90 89 114
3 88 115 117
3 118 127 119
3 91 117 120
3 96 94 120
3 115 112 125
3 127 376 128
3 115 126 130
3 123 116 131
3 117 130 133
3 124 120 133
3 121 134 136
3 105 124 135
3 106 104 136
3 139 148 140
3 106 138 141
3 111 110 142
3 109 141 125
3 113 156 144
3 135 167 145
3 138 136 146
3 148 377 149
3 138 147 150
3 142 378 151
3 153 187 154
3 156 189 157
3 158 155 154
3 131 379 157
3 126 380 161
3 131 160 162
3 130 161 163
3 135 133 163
3 136 134 164
3 157 190 168
3 159 191 169
3 162 160 168
3 170 169 172
3 167 173 172
3 164 174 176
3 177 175 178
3 147 146 176
3 149 377 181
3 147 180 183
3 184 381 185
3 187 183 188
3 189 382 190
3 159 154 188
3 192 195 193
3 195 199 196
3 197 192 194
3 193 196 198
3 195 192 197
3 200 203 201
3 203 207 204
3 205 200 202
3 204 206 202
3 203 200 205
3 208 219 0
3 209 228 3
3 210 208 2
3 8 211 209
3 10 212 210
3 12 213 211
3 14 222 212
3 16 236 213
3 214 222 14
3 26 218 214
3 217 215 20
3 30 220 218
3 219 217 29
3 3 228 220
3 221 234 222
3 218 248 221
3 225 223 215
3 226 248 218
3 227 225 217
3 228 230 226
3 229 227 219
3 209 231 230
3 210 239 229
3 211 233 231
3 232 239 210
3 213 241 233
3 234 232 212
3 235 241 213
3 237 258 230
3 238 251 229
3 233 242 237
3 240 238 239
3 241 263 242
3 243 240 232
3 244 263 241
3 245 243 234
3 248 253 245
3 249 246 223
3 250 253 248
3 227 257 249
3 230 258 250
3 251 257 227
3 253 280 254
3 255 267 246
3 256 280 253
3 257 259 255
3 258 260 256
3 251 286 259
3 237 383 260
3 261 286 251
3 262 383 237
3 240 271 261
3 263 273 262
3 264 271 240
3 265 277 266
3 254 264 243
3 268 384 269
3 271 298 272
3 273 299 274
3 275 298 271
3 276 303 277
3 278 275 264
3 280 291 278
3 281 279 267
3 282 291 280
3 283 281 255
3 284 282 256
3 285 283 259
3 270 269 287
3 272 285 286
3 289 305 279
3 290 319 291
3 283 322 289
3 284 325 292
3 293 322 283
3 269 327 294
3 295 293 285
3 274 300 296
3 298 308 295
3 299 315 300
3 301 308 298
3 302 310 303
3 304 301 275
3 291 319 304
3 308 347 309
3 310 385 311
3 313 347 308
3 306 318 314
3 316 313 301
3 319 321 316
3 320 317 305
3 290 331 321
3 322 332 320
3 323 335 324
3 326 332 322
3 327 386 328
3 309 326 293
3 329 343 296
3 330 357 321
3 332 360 333
3 334 361 335
3 336 360 332
3 337 387 328
3 339 364 340
3 342 365 343
3 344 354 339
3 314 353 342
3 346 388 347
3 348 353 314
3 349 346 313
3 321 357 349
3 320 333 350
3 168 190 342
3 169 191 354
3 348 171 168
3 172 169 355
3 357 175 172
3 176 174 350
3 178 175 358
3 360 180 176
3 334 182 181
3 183 180 360
3 362 186 185
3 188 183 364
3 190 382 365
3 354 191 188
3 366 369 367
3 196 199 369
3 198 197 199
3 368 367 197
3 366 368 198
3 197 367 369
3 370 373 371
3 204 207 373
3 206 205 207
3 372 371 205
3 372 206 204
3 205 371 373
