ply
format ascii 1.0
comment Created by Blender 2.79 (sub 0) - www.blender.org, source file: 'table.blend'
element vertex 437
property float x
property float y
property float z
property uchar red
property uchar green
property uchar blue
element face 616
property list uchar uint vertex_indices
end_header
-0.495244 1.918188 2.489754 48 32 19
0.000000 1.918188 2.661356 61 41 23
0.000000 1.918188 2.538531 48 32 19
-1.410334 1.918188 2.110711 48 32 19
-0.971455 2.000000 2.345297 61 41 23
-1.410334 2.000000 2.110711 61 41 23
-2.538531 1.918188 0.000000 48 32 19
-2.489754 2.000000 0.495241 61 41 23
-2.538531 2.000000 0.000000 62 41 23
-1.795014 1.918188 1.795012 48 32 19
-1.795014 2.000000 1.795012 61 41 23
-2.110713 1.918188 1.410331 48 32 19
-2.110713 2.000000 1.410331 61 41 23
0.000000 2.000000 2.538531 61 41 23
-0.495244 2.000000 2.489754 61 41 23
-2.345298 1.918188 0.971452 48 32 19
-2.345298 2.000000 0.971452 61 41 23
-0.971455 1.918188 2.345297 48 32 19
-2.489754 1.918188 0.495241 48 32 19
-2.661355 1.918188 0.000000 62 41 23
-2.610219 1.918188 0.519203 61 41 23
-2.458773 1.918188 1.018455 61 41 23
-1.881864 1.918188 1.881862 61 41 23
-1.478572 1.918188 2.212836 61 41 23
-1.018458 1.918188 2.458772 61 41 23
0.000000 2.000000 0.000000 48 32 19
-2.538531 2.000000 0.000000 61 41 23
-1.018458 1.918188 2.458772 61 61 61
-0.467285 1.718188 2.349197 61 61 61
-0.519206 1.918188 2.610219 61 61 61
0.000000 1.918188 2.661356 61 61 61
0.000000 1.718188 2.395221 61 61 61
-2.661355 1.918188 0.000000 62 62 62
-2.349197 1.718188 0.467283 61 61 61
-2.610219 1.918188 0.519203 61 61 61
-2.212896 1.718188 0.916610 61 61 61
-2.458773 1.918188 1.018455 61 61 61
-1.991554 1.718188 1.330712 61 61 61
-2.212838 1.918188 1.478569 61 61 61
-1.881864 1.918188 1.881862 61 61 61
-1.693678 1.718188 1.693675 61 61 61
-1.330714 1.718188 1.991553 61 61 61
-1.478572 1.918188 2.212836 61 61 61
-0.916612 1.718188 2.212895 61 61 61
-2.395220 1.718188 0.000000 62 62 62
-0.234920 1.718188 0.046728 61 61 61
-0.221290 1.718188 0.091661 61 61 61
-0.199155 1.718188 0.133071 61 61 61
-0.169368 1.718188 0.169367 61 61 61
-0.133071 1.718188 0.199155 61 61 61
-0.091661 1.718188 0.221289 61 61 61
-0.046728 1.718188 0.234920 61 61 61
-0.046728 1.718188 0.234920 61 59 58
0.000000 1.718188 0.239522 61 61 61
-0.199155 0.618188 0.133071 48 43 37
-0.169368 0.618188 0.169367 48 40 33
-0.133071 0.618188 0.199155 48 39 31
-0.091661 0.618188 0.221289 48 38 30
-0.046728 0.618188 0.234920 48 39 31
0.000000 0.618188 0.239522 48 40 34
-0.239522 1.718188 0.000000 62 62 62
-0.234920 0.618188 0.046728 48 45 42
-0.221290 0.618188 0.091661 48 44 40
-0.398311 0.618188 0.266142 48 34 23
-0.338736 0.618188 0.338735 54 36 22
-0.266143 0.618188 0.398310 58 37 21
-0.183322 0.618188 0.442579 57 37 20
-0.093457 0.618188 0.469839 57 37 20
0.000000 0.618188 0.479044 43 31 20
-0.479044 0.618188 0.000000 48 40 30
-0.469840 0.618188 0.093456 48 35 24
-0.442579 0.618188 0.183322 48 33 24
-0.199155 0.618188 0.133071 48 43 36
-0.357479 0.418188 0.863029 48 33 20
-0.182241 0.418188 0.916187 48 32 19
0.000000 0.418188 0.934136 48 37 26
-0.934136 0.418188 0.000000 48 32 19
-0.916187 0.418188 0.182240 48 32 19
-0.863029 0.418188 0.357478 48 32 19
-0.776706 0.418188 0.518978 48 32 19
-0.660535 0.418188 0.660533 58 37 19
-0.518979 0.418188 0.776705 58 37 19
-0.916187 0.018188 0.182240 48 32 19
-0.863029 0.018188 0.357478 48 32 19
-0.776706 0.018188 0.518978 48 32 19
-0.660535 0.018188 0.660533 64 50 37
-1.483813 0.018188 1.226084 69 55 43
-0.776706 0.018188 0.518978 67 52 41
-1.367642 0.138188 1.367639 48 32 19
-1.226086 0.018188 1.483811 48 32 19
-0.357479 0.018188 0.863029 39 29 19
-0.182241 0.018188 0.916187 39 29 19
0.000000 0.018188 0.934136 40 29 19
-0.694734 2.010000 0.388552 39 29 19
-0.693071 2.010000 0.400667 39 29 19
-0.669132 2.010000 0.421128 39 29 19
-0.685796 2.010000 0.412944 39 29 19
-0.677545 2.010000 0.418494 39 29 19
-0.130869 2.010000 0.421128 39 29 19
-0.105266 2.010000 0.388552 39 29 19
-0.122455 2.010000 0.418494 39 29 19
-0.114204 2.010000 0.412944 39 29 19
-0.106928 2.010000 0.400667 39 29 19
-0.694734 2.010000 0.000000 39 29 19
-1.367642 0.138188 1.367639 48 33 20
-1.483813 0.018188 1.226084 48 33 21
-1.367642 0.018188 1.367639 48 32 19
-1.226086 0.018188 1.483811 48 33 22
-0.660535 0.018188 0.660533 48 32 19
-1.226086 0.018188 1.483811 255 255 255
-1.367642 0.018188 1.367639 255 255 255
-0.518979 0.018188 0.776705 39 29 19
-0.776706 0.418188 0.518978 48 36 26
-1.483813 0.018188 1.226084 48 32 19
-0.519206 1.918188 2.610219 61 41 23
-2.212838 1.918188 1.478569 61 41 23
-0.239522 1.718188 0.000000 62 59 57
-0.239522 0.618188 0.000000 48 46 44
-0.934136 0.018188 0.000000 48 32 19
-1.367642 0.018188 1.367639 57 42 30
-0.105266 2.010000 0.000000 39 29 19
-0.518979 0.018188 0.776705 48 32 19
0.495244 1.918188 2.489754 48 32 19
1.410334 1.918188 2.110711 48 32 19
1.410334 2.000000 2.110711 61 41 23
0.971455 2.000000 2.345297 61 41 23
2.538531 1.918188 0.000000 48 32 19
2.538531 2.000000 0.000000 62 41 23
2.489754 2.000000 0.495241 61 41 23
1.795014 1.918188 1.795012 48 32 19
1.795014 2.000000 1.795012 61 41 23
2.110713 1.918188 1.410331 48 32 19
2.110713 2.000000 1.410331 61 41 23
0.495244 2.000000 2.489754 61 41 23
2.345298 1.918188 0.971452 48 32 19
2.345298 2.000000 0.971452 61 41 23
0.971455 1.918188 2.345297 48 32 19
2.489754 1.918188 0.495241 48 32 19
2.661355 1.918188 0.000000 62 41 23
2.610219 1.918188 0.519203 61 41 23
2.458773 1.918188 1.018455 61 41 23
1.881864 1.918188 1.881862 61 41 23
1.478572 1.918188 2.212836 61 41 23
1.018458 1.918188 2.458772 61 41 23
2.538531 2.000000 0.000000 61 41 23
1.018458 1.918188 2.458772 61 61 61
0.519206 1.918188 2.610219 61 61 61
0.467285 1.718188 2.349197 61 61 61
2.661355 1.918188 0.000000 62 62 62
2.610219 1.918188 0.519203 61 61 61
2.349197 1.718188 0.467283 61 61 61
2.458773 1.918188 1.018455 61 61 61
2.212896 1.718188 0.916610 61 61 61
2.212838 1.918188 1.478569 61 61 61
1.991554 1.718188 1.330712 61 61 61
1.881864 1.918188 1.881862 61 61 61
1.693678 1.718188 1.693675 61 61 61
1.478572 1.918188 2.212836 61 61 61
1.330714 1.718188 1.991553 61 61 61
0.916612 1.718188 2.212895 61 61 61
2.395220 1.718188 0.000000 62 62 62
0.234920 1.718188 0.046728 61 61 61
0.221290 1.718188 0.091661 61 61 61
0.199155 1.718188 0.133071 61 61 61
0.169368 1.718188 0.169367 61 61 61
0.133071 1.718188 0.199155 61 61 61
0.091661 1.718188 0.221289 61 61 61
0.046728 1.718188 0.234920 61 61 61
0.046728 1.718188 0.234920 61 59 58
0.199155 0.618188 0.133071 48 43 37
0.169368 0.618188 0.169367 48 40 33
0.133071 0.618188 0.199155 48 39 31
0.091661 0.618188 0.221289 48 38 30
0.046728 0.618188 0.234920 48 39 31
0.239522 1.718188 0.000000 62 62 62
0.234920 0.618188 0.046728 48 45 42
0.221290 0.618188 0.091661 48 44 40
0.338736 0.618188 0.338735 54 36 22
0.398311 0.618188 0.266142 48 34 23
0.266143 0.618188 0.398310 58 37 21
0.183322 0.618188 0.442579 57 37 20
0.093457 0.618188 0.469839 57 37 20
0.469840 0.618188 0.093456 48 35 24
0.479044 0.618188 0.000000 48 40 30
0.442579 0.618188 0.183322 48 33 24
0.199155 0.618188 0.133071 48 43 36
0.182241 0.418188 0.916187 48 32 19
0.357479 0.418188 0.863029 48 33 20
0.916187 0.418188 0.182240 48 32 19
0.934136 0.418188 0.000000 48 32 19
0.863029 0.418188 0.357478 48 32 19
0.776706 0.418188 0.518978 48 32 19
0.660535 0.418188 0.660533 58 37 19
0.518979 0.418188 0.776705 58 37 19
0.916187 0.018188 0.182240 48 32 19
0.863029 0.018188 0.357478 48 32 19
0.776706 0.018188 0.518978 48 32 19
0.660535 0.018188 0.660533 64 50 37
0.776706 0.018188 0.518978 67 52 41
1.483813 0.018188 1.226084 69 55 43
1.226086 0.018188 1.483811 48 32 19
1.367642 0.138188 1.367639 48 32 19
0.357479 0.018188 0.863029 39 29 19
0.182241 0.018188 0.916187 39 29 19
0.694734 2.010000 0.388552 39 29 19
0.669132 2.010000 0.421128 39 29 19
0.693071 2.010000 0.400667 39 29 19
0.685796 2.010000 0.412944 39 29 19
0.677545 2.010000 0.418494 39 29 19
0.105266 2.010000 0.388552 39 29 19
0.130869 2.010000 0.421128 39 29 19
0.122455 2.010000 0.418494 39 29 19
0.106928 2.010000 0.400667 39 29 19
0.114204 2.010000 0.412944 39 29 19
0.694734 2.010000 0.000000 39 29 19
1.367642 0.138188 1.367639 48 33 20
1.367642 0.018188 1.367639 48 32 19
1.483813 0.018188 1.226084 48 33 21
1.226086 0.018188 1.483811 48 33 22
0.660535 0.018188 0.660533 48 32 19
1.367642 0.018188 1.367639 255 255 255
1.226086 0.018188 1.483811 255 255 255
0.518979 0.018188 0.776705 39 29 19
0.776706 0.418188 0.518978 48 36 26
1.483813 0.018188 1.226084 48 32 19
0.519206 1.918188 2.610219 61 41 23
2.212838 1.918188 1.478569 61 41 23
0.239522 1.718188 0.000000 62 59 57
0.239522 0.618188 0.000000 48 46 44
0.934136 0.018188 0.000000 48 32 19
1.367642 0.018188 1.367639 57 42 30
0.105266 2.010000 0.000000 39 29 19
0.518979 0.018188 0.776705 48 32 19
-0.495244 1.918188 -2.489754 48 32 19
0.000000 1.918188 -2.538531 48 32 19
0.000000 1.918188 -2.661356 61 41 23
-1.410334 1.918188 -2.110711 48 32 19
-1.410334 2.000000 -2.110711 61 41 23
-0.971455 2.000000 -2.345297 61 41 23
-2.489754 2.000000 -0.495241 61 41 23
-1.795014 1.918188 -1.795012 48 32 19
-1.795014 2.000000 -1.795012 61 41 23
-2.110713 1.918188 -1.410331 48 32 19
-2.110713 2.000000 -1.410331 61 41 23
-0.495244 2.000000 -2.489754 61 41 23
0.000000 2.000000 -2.538531 61 41 23
-2.345298 1.918188 -0.971452 48 32 19
-2.345298 2.000000 -0.971452 61 41 23
-0.971455 1.918188 -2.345297 48 32 19
-2.489754 1.918188 -0.495241 48 32 19
-2.610219 1.918188 -0.519203 61 41 23
-2.458773 1.918188 -1.018455 61 41 23
-1.881864 1.918188 -1.881862 61 41 23
-1.478572 1.918188 -2.212836 61 41 23
-1.018458 1.918188 -2.458772 61 41 23
-1.018458 1.918188 -2.458772 61 61 61
-0.519206 1.918188 -2.610219 61 61 61
-0.467285 1.718188 -2.349197 61 61 61
0.000000 1.918188 -2.661356 61 61 61
0.000000 1.718188 -2.395221 61 61 61
-2.610219 1.918188 -0.519203 61 61 61
-2.349197 1.718188 -0.467283 61 61 61
-2.458773 1.918188 -1.018455 61 61 61
-2.212896 1.718188 -0.916610 61 61 61
-2.212838 1.918188 -1.478569 61 61 61
-1.991554 1.718188 -1.330712 61 61 61
-1.881864 1.918188 -1.881862 61 61 61
-1.693678 1.718188 -1.693675 61 61 61
-1.478572 1.918188 -2.212836 61 61 61
-1.330714 1.718188 -1.991553 61 61 61
-0.916612 1.718188 -2.212895 61 61 61
-0.234920 1.718188 -0.046728 61 61 61
-0.221290 1.718188 -0.091661 61 61 61
-0.199155 1.718188 -0.133071 61 61 61
-0.169368 1.718188 -0.169367 61 61 61
-0.133071 1.718188 -0.199155 61 61 61
-0.091661 1.718188 -0.221289 61 61 61
-0.046728 1.718188 -0.234920 61 61 61
0.000000 1.718188 -0.239522 61 61 61
-0.046728 1.718188 -0.234920 61 59 58
-0.199155 0.618188 -0.133071 48 43 37
-0.169368 0.618188 -0.169367 48 40 33
-0.133071 0.618188 -0.199155 48 39 31
-0.091661 0.618188 -0.221289 48 38 30
-0.046728 0.618188 -0.234920 48 39 31
0.000000 0.618188 -0.239522 48 40 34
-0.234920 0.618188 -0.046728 48 45 42
-0.221290 0.618188 -0.091661 48 44 40
-0.338736 0.618188 -0.338735 54 36 22
-0.398311 0.618188 -0.266142 48 34 23
-0.266143 0.618188 -0.398310 58 37 21
-0.183322 0.618188 -0.442579 57 37 20
-0.093457 0.618188 -0.469839 57 37 20
0.000000 0.618188 -0.479044 43 31 20
-0.469840 0.618188 -0.093456 48 35 24
-0.442579 0.618188 -0.183322 48 33 24
-0.199155 0.618188 -0.133071 48 43 36
-0.182241 0.418188 -0.916187 48 32 19
-0.357479 0.418188 -0.863029 48 33 20
0.000000 0.418188 -0.934136 48 37 26
-0.916187 0.418188 -0.182240 48 32 19
-0.863029 0.418188 -0.357478 48 32 19
-0.776706 0.418188 -0.518978 48 32 19
-0.660535 0.418188 -0.660533 58 37 19
-0.518979 0.418188 -0.776705 58 37 19
-0.916187 0.018188 -0.182240 48 32 19
-0.863029 0.018188 -0.357478 48 32 19
-0.776706 0.018188 -0.518978 48 32 19
-0.660535 0.018188 -0.660533 64 50 37
-0.776706 0.018188 -0.518978 67 52 41
-1.483813 0.018188 -1.226084 69 55 43
-1.226086 0.018188 -1.483811 48 32 19
-1.367642 0.138188 -1.367639 48 32 19
-0.357479 0.018188 -0.863029 39 29 19
-0.182241 0.018188 -0.916187 39 29 19
0.000000 0.018188 -0.934136 40 29 19
-0.694734 2.010000 -0.388552 39 29 19
-0.669132 2.010000 -0.421128 39 29 19
-0.693071 2.010000 -0.400667 39 29 19
-0.685796 2.010000 -0.412944 39 29 19
-0.677545 2.010000 -0.418494 39 29 19
-0.105266 2.010000 -0.388552 39 29 19
-0.130869 2.010000 -0.421128 39 29 19
-0.122455 2.010000 -0.418494 39 29 19
-0.106928 2.010000 -0.400667 39 29 19
-0.114204 2.010000 -0.412944 39 29 19
-1.367642 0.138188 -1.367639 48 33 20
-1.367642 0.018188 -1.367639 48 32 19
-1.483813 0.018188 -1.226084 48 33 21
-1.226086 0.018188 -1.483811 48 33 22
-0.660535 0.018188 -0.660533 48 32 19
-1.367642 0.018188 -1.367639 255 255 255
-1.226086 0.018188 -1.483811 255 255 255
-0.518979 0.018188 -0.776705 39 29 19
-0.776706 0.418188 -0.518978 48 36 26
-1.483813 0.018188 -1.226084 48 32 19
-0.519206 1.918188 -2.610219 61 41 23
-2.212838 1.918188 -1.478569 61 41 23
-1.367642 0.018188 -1.367639 57 42 30
-0.518979 0.018188 -0.776705 48 32 19
0.495244 1.918188 -2.489754 48 32 19
1.410334 1.918188 -2.110711 48 32 19
0.971455 2.000000 -2.345297 61 41 23
1.410334 2.000000 -2.110711 61 41 23
2.489754 2.000000 -0.495241 61 41 23
1.795014 1.918188 -1.795012 48 32 19
1.795014 2.000000 -1.795012 61 41 23
2.110713 1.918188 -1.410331 48 32 19
2.110713 2.000000 -1.410331 61 41 23
0.495244 2.000000 -2.489754 61 41 23
2.345298 1.918188 -0.971452 48 32 19
2.345298 2.000000 -0.971452 61 41 23
0.971455 1.918188 -2.345297 48 32 19
2.489754 1.918188 -0.495241 48 32 19
2.610219 1.918188 -0.519203 61 41 23
2.458773 1.918188 -1.018455 61 41 23
1.881864 1.918188 -1.881862 61 41 23
1.478572 1.918188 -2.212836 61 41 23
1.018458 1.918188 -2.458772 61 41 23
1.018458 1.918188 -2.458772 61 61 61
0.467285 1.718188 -2.349197 61 61 61
0.519206 1.918188 -2.610219 61 61 61
2.349197 1.718188 -0.467283 61 61 61
2.610219 1.918188 -0.519203 61 61 61
2.212896 1.718188 -0.916610 61 61 61
2.458773 1.918188 -1.018455 61 61 61
1.991554 1.718188 -1.330712 61 61 61
2.212838 1.918188 -1.478569 61 61 61
1.881864 1.918188 -1.881862 61 61 61
1.693678 1.718188 -1.693675 61 61 61
1.330714 1.718188 -1.991553 61 61 61
1.478572 1.918188 -2.212836 61 61 61
0.916612 1.718188 -2.212895 61 61 61
0.234920 1.718188 -0.046728 61 61 61
0.221290 1.718188 -0.091661 61 61 61
0.199155 1.718188 -0.133071 61 61 61
0.169368 1.718188 -0.169367 61 61 61
0.133071 1.718188 -0.199155 61 61 61
0.091661 1.718188 -0.221289 61 61 61
0.046728 1.718188 -0.234920 61 61 61
0.046728 1.718188 -0.234920 61 59 58
0.199155 0.618188 -0.133071 48 43 37
0.169368 0.618188 -0.169367 48 40 33
0.133071 0.618188 -0.199155 48 39 31
0.091661 0.618188 -0.221289 48 38 30
0.046728 0.618188 -0.234920 48 39 31
0.234920 0.618188 -0.046728 48 45 42
0.221290 0.618188 -0.091661 48 44 40
0.398311 0.618188 -0.266142 48 34 23
0.338736 0.618188 -0.338735 54 36 22
0.266143 0.618188 -0.398310 58 37 21
0.183322 0.618188 -0.442579 57 37 20
0.093457 0.618188 -0.469839 57 37 20
0.469840 0.618188 -0.093456 48 35 24
0.442579 0.618188 -0.183322 48 33 24
0.199155 0.618188 -0.133071 48 43 36
0.357479 0.418188 -0.863029 48 33 20
0.182241 0.418188 -0.916187 48 32 19
0.916187 0.418188 -0.182240 48 32 19
0.863029 0.418188 -0.357478 48 32 19
0.776706 0.418188 -0.518978 48 32 19
0.660535 0.418188 -0.660533 58 37 19
0.518979 0.418188 -0.776705 58 37 19
0.916187 0.018188 -0.182240 48 32 19
0.863029 0.018188 -0.357478 48 32 19
0.776706 0.018188 -0.518978 48 32 19
0.660535 0.018188 -0.660533 64 50 37
1.483813 0.018188 -1.226084 69 55 43
0.776706 0.018188 -0.518978 67 52 41
1.367642 0.138188 -1.367639 48 32 19
1.226086 0.018188 -1.483811 48 32 19
0.357479 0.018188 -0.863029 39 29 19
0.182241 0.018188 -0.916187 39 29 19
0.694734 2.010000 -0.388552 39 29 19
0.693071 2.010000 -0.400667 39 29 19
0.669132 2.010000 -0.421128 39 29 19
0.685796 2.010000 -0.412944 39 29 19
0.677545 2.010000 -0.418494 39 29 19
0.130869 2.010000 -0.421128 39 29 19
0.105266 2.010000 -0.388552 39 29 19
0.122455 2.010000 -0.418494 39 29 19
0.114204 2.010000 -0.412944 39 29 19
0.106928 2.010000 -0.400667 39 29 19
1.367642 0.138188 -1.367639 48 33 20
1.483813 0.018188 -1.226084 48 33 21
1.367642 0.018188 -1.367639 48 32 19
1.226086 0.018188 -1.483811 48 33 22
0.660535 0.018188 -0.660533 48 32 19
1.226086 0.018188 -1.483811 255 255 255
1.367642 0.018188 -1.367639 255 255 255
0.518979 0.018188 -0.776705 39 29 19
0.776706 0.418188 -0.518978 48 36 26
1.483813 0.018188 -1.226084 48 32 19
0.519206 1.918188 -2.610219 61 41 23
2.212838 1.918188 -1.478569 61 41 23
1.367642 0.018188 -1.367639 57 42 30
0.518979 0.018188 -0.776705 48 32 19
3 0 1 2
3 3 4 5
3 6 7 8
3 9 5 10
3 11 10 12
3 0 13 14
3 15 12 16
3 17 14 4
3 18 16 7
3 19 18 6
3 20 15 18
3 21 11 15
3 11 22 9
3 22 3 9
3 23 17 3
3 24 0 17
3 16 25 7
3 4 25 5
3 7 25 26
3 5 25 10
3 10 25 12
3 13 25 14
3 12 25 16
3 14 25 4
3 27 28 29
3 30 28 31
3 32 33 34
3 34 35 36
3 36 37 38
3 39 37 40
3 39 41 42
3 27 41 43
3 44 45 33
3 33 46 35
3 37 46 47
3 37 48 40
3 40 49 41
3 43 49 50
3 43 51 28
3 31 52 53
3 46 54 47
3 47 55 48
3 48 56 49
3 49 57 50
3 50 58 51
3 51 59 53
3 60 61 45
3 45 62 46
3 55 63 64
3 55 65 56
3 56 66 57
3 58 66 67
3 58 68 59
3 61 69 70
3 61 71 62
3 72 71 63
3 67 73 74
3 67 75 68
3 70 76 77
3 70 78 71
3 63 78 79
3 64 79 80
3 64 81 65
3 65 73 66
3 76 82 77
3 77 83 78
3 78 84 79
3 85 86 87
3 81 88 89
3 81 90 73
3 73 91 74
3 74 92 75
3 93 94 95
3 96 97 94
3 95 98 99
3 100 101 102
3 102 98 100
3 97 95 94
3 102 99 98
3 93 95 99
3 99 103 93
3 104 105 106
3 107 104 106
3 79 88 80
3 108 109 110
3 111 81 89
3 112 84 113
3 0 114 1
3 3 17 4
3 6 18 7
3 9 3 5
3 11 9 10
3 0 2 13
3 15 11 12
3 17 0 14
3 18 15 16
3 19 20 18
3 20 21 15
3 21 115 11
3 11 115 22
3 22 23 3
3 23 24 17
3 24 114 0
3 27 43 28
3 30 29 28
3 32 44 33
3 34 33 35
3 36 35 37
3 39 38 37
3 39 40 41
3 27 42 41
3 44 116 45
3 33 45 46
3 37 35 46
3 37 47 48
3 40 48 49
3 43 41 49
3 43 50 51
3 31 28 52
3 46 62 54
3 47 72 55
3 48 55 56
3 49 56 57
3 50 57 58
3 51 58 59
3 60 117 61
3 45 61 62
3 55 72 63
3 55 64 65
3 56 65 66
3 58 57 66
3 58 67 68
3 61 117 69
3 61 70 71
3 72 62 71
3 67 66 73
3 67 74 75
3 70 69 76
3 70 77 78
3 63 71 78
3 64 63 79
3 64 80 81
3 65 81 73
3 76 118 82
3 77 82 83
3 78 83 84
3 85 119 86
3 81 80 88
3 81 111 90
3 73 90 91
3 74 91 92
3 99 120 103
3 79 113 88
3 108 121 109
3 122 2 1
3 123 124 125
3 126 127 128
3 129 130 124
3 131 132 130
3 122 133 13
3 134 135 132
3 136 125 133
3 137 128 135
3 138 126 137
3 139 137 134
3 140 134 131
3 131 129 141
3 141 129 123
3 142 123 136
3 143 136 122
3 135 128 25
3 125 124 25
3 128 144 25
3 124 130 25
3 130 132 25
3 13 133 25
3 132 135 25
3 133 125 25
3 145 146 147
3 30 31 147
3 148 149 150
3 149 151 152
3 151 153 154
3 155 156 154
3 155 157 158
3 145 159 158
3 160 150 161
3 150 152 162
3 154 163 162
3 154 156 164
3 156 158 165
3 159 166 165
3 159 147 167
3 31 53 168
3 162 163 169
3 163 164 170
3 164 165 171
3 165 166 172
3 166 167 173
3 167 53 59
3 174 161 175
3 161 162 176
3 170 177 178
3 170 171 179
3 171 172 180
3 173 181 180
3 173 59 68
3 175 182 183
3 175 176 184
3 185 178 184
3 181 186 187
3 181 68 75
3 182 188 189
3 182 184 190
3 178 191 190
3 177 192 191
3 177 179 193
3 179 180 187
3 189 188 194
3 188 190 195
3 190 191 196
3 197 198 199
3 193 200 201
3 193 187 202
3 187 186 203
3 186 75 92
3 204 205 206
3 207 206 208
3 205 209 210
3 211 212 213
3 212 211 210
3 208 206 205
3 212 210 209
3 204 209 205
3 209 204 214
3 215 216 217
3 218 216 215
3 191 192 201
3 219 220 221
3 222 200 193
3 223 224 196
3 122 1 225
3 123 125 136
3 126 128 137
3 129 124 123
3 131 130 129
3 122 13 2
3 134 132 131
3 136 133 122
3 137 135 134
3 138 137 139
3 139 134 140
3 140 131 226
3 131 141 226
3 141 123 142
3 142 136 143
3 143 122 225
3 145 147 159
3 30 147 146
3 148 150 160
3 149 152 150
3 151 154 152
3 155 154 153
3 155 158 156
3 145 158 157
3 160 161 227
3 150 162 161
3 154 162 152
3 154 164 163
3 156 165 164
3 159 165 158
3 159 167 166
3 31 168 147
3 162 169 176
3 163 170 185
3 164 171 170
3 165 172 171
3 166 173 172
3 167 59 173
3 174 175 228
3 161 176 175
3 170 178 185
3 170 179 177
3 171 180 179
3 173 180 172
3 173 68 181
3 175 183 228
3 175 184 182
3 185 184 176
3 181 187 180
3 181 75 186
3 182 189 183
3 182 190 188
3 178 190 184
3 177 191 178
3 177 193 192
3 179 187 193
3 189 194 229
3 188 195 194
3 190 196 195
3 197 199 230
3 193 201 192
3 193 202 222
3 187 203 202
3 186 92 203
3 209 214 231
3 191 201 224
3 219 221 232
3 233 234 235
3 236 237 238
3 6 8 239
3 240 241 237
3 242 243 241
3 233 244 245
3 246 247 243
3 248 238 244
3 249 239 247
3 19 6 249
3 250 249 246
3 251 246 242
3 242 240 252
3 252 240 236
3 253 236 248
3 254 248 233
3 247 239 25
3 238 237 25
3 239 26 25
3 237 241 25
3 241 243 25
3 245 244 25
3 243 247 25
3 244 238 25
3 255 256 257
3 258 259 257
3 32 260 261
3 260 262 263
3 262 264 265
3 266 267 265
3 266 268 269
3 255 270 269
3 44 261 271
3 261 263 272
3 265 273 272
3 265 267 274
3 267 269 275
3 270 276 275
3 270 257 277
3 259 278 279
3 272 273 280
3 273 274 281
3 274 275 282
3 275 276 283
3 276 277 284
3 277 278 285
3 60 271 286
3 271 272 287
3 281 288 289
3 281 282 290
3 282 283 291
3 284 292 291
3 284 285 293
3 286 294 69
3 286 287 295
3 296 289 295
3 292 297 298
3 292 293 299
3 294 300 76
3 294 295 301
3 289 302 301
3 288 303 302
3 288 290 304
3 290 291 298
3 76 300 305
3 300 301 306
3 301 302 307
3 308 309 310
3 304 311 312
3 304 298 313
3 298 297 314
3 297 299 315
3 316 317 318
3 319 318 320
3 317 321 322
3 323 324 325
3 324 323 322
3 320 318 317
3 324 322 321
3 316 321 317
3 321 316 103
3 326 327 328
3 329 327 326
3 302 303 312
3 330 331 332
3 333 311 304
3 334 335 307
3 233 235 336
3 236 238 248
3 6 239 249
3 240 237 236
3 242 241 240
3 233 245 234
3 246 243 242
3 248 244 233
3 249 247 246
3 19 249 250
3 250 246 251
3 251 242 337
3 242 252 337
3 252 236 253
3 253 248 254
3 254 233 336
3 255 257 270
3 258 257 256
3 32 261 44
3 260 263 261
3 262 265 263
3 266 265 264
3 266 269 267
3 255 269 268
3 44 271 116
3 261 272 271
3 265 272 263
3 265 274 273
3 267 275 274
3 270 275 269
3 270 277 276
3 259 279 257
3 272 280 287
3 273 281 296
3 274 282 281
3 275 283 282
3 276 284 283
3 277 285 284
3 60 286 117
3 271 287 286
3 281 289 296
3 281 290 288
3 282 291 290
3 284 291 283
3 284 293 292
3 286 69 117
3 286 295 294
3 296 295 287
3 292 298 291
3 292 299 297
3 294 76 69
3 294 301 300
3 289 301 295
3 288 302 289
3 288 304 303
3 290 298 304
3 76 305 118
3 300 306 305
3 301 307 306
3 308 310 338
3 304 312 303
3 304 313 333
3 298 314 313
3 297 315 314
3 321 103 120
3 302 312 335
3 330 332 339
3 340 235 234
3 341 342 343
3 126 344 127
3 345 343 346
3 347 346 348
3 340 245 349
3 350 348 351
3 352 349 342
3 353 351 344
3 138 353 126
3 354 350 353
3 355 347 350
3 347 356 345
3 356 341 345
3 357 352 341
3 358 340 352
3 351 25 344
3 342 25 343
3 344 25 144
3 343 25 346
3 346 25 348
3 245 25 349
3 348 25 351
3 349 25 342
3 359 360 361
3 258 360 259
3 148 362 363
3 363 364 365
3 365 366 367
3 368 366 369
3 368 370 371
3 359 370 372
3 160 373 362
3 362 374 364
3 366 374 375
3 366 376 369
3 369 377 370
3 372 377 378
3 372 379 360
3 259 380 278
3 374 381 375
3 375 382 376
3 376 383 377
3 377 384 378
3 378 385 379
3 379 285 278
3 174 386 373
3 373 387 374
3 382 388 389
3 382 390 383
3 383 391 384
3 385 391 392
3 385 293 285
3 386 183 393
3 386 394 387
3 395 394 388
3 392 396 397
3 392 299 293
3 393 189 398
3 393 399 394
3 388 399 400
3 389 400 401
3 389 402 390
3 390 396 391
3 189 403 398
3 398 404 399
3 399 405 400
3 406 407 408
3 402 409 410
3 402 411 396
3 396 412 397
3 397 315 299
3 413 414 415
3 416 417 414
3 415 418 419
3 420 421 422
3 422 418 420
3 417 415 414
3 422 419 418
3 413 415 419
3 419 214 413
3 423 424 425
3 426 423 425
3 400 409 401
3 427 428 429
3 430 402 410
3 431 405 432
3 340 433 235
3 341 352 342
3 126 353 344
3 345 341 343
3 347 345 346
3 340 234 245
3 350 347 348
3 352 340 349
3 353 350 351
3 138 354 353
3 354 355 350
3 355 434 347
3 347 434 356
3 356 357 341
3 357 358 352
3 358 433 340
3 359 372 360
3 258 361 360
3 148 160 362
3 363 362 364
3 365 364 366
3 368 367 366
3 368 369 370
3 359 371 370
3 160 227 373
3 362 373 374
3 366 364 374
3 366 375 376
3 369 376 377
3 372 370 377
3 372 378 379
3 259 360 380
3 374 387 381
3 375 395 382
3 376 382 383
3 377 383 384
3 378 384 385
3 379 385 285
3 174 228 386
3 373 386 387
3 382 395 388
3 382 389 390
3 383 390 391
3 385 384 391
3 385 392 293
3 386 228 183
3 386 393 394
3 395 387 394
3 392 391 396
3 392 397 299
3 393 183 189
3 393 398 399
3 388 394 399
3 389 388 400
3 389 401 402
3 390 402 396
3 189 229 403
3 398 403 404
3 399 404 405
3 406 435 407
3 402 401 409
3 402 430 411
3 396 411 412
3 397 412 315
3 419 231 214
3 400 432 409
3 427 436 428
