ply
format ascii 1.0
comment Created by Blender 2.79 (sub 0) - www.blender.org, source file: 'table.blend'
element vertex 358
property float x
property float y
property float z
property uchar red
property uchar green
property uchar blue
element face 592
property list uchar uint vertex_indices
end_header
2.345297 1.918188 0.971454 58 58 58
2.489753 2.000000 0.495243 61 61 61
2.345297 2.000000 0.971454 61 61 61
-0.000000 1.918188 -2.538530 58 58 58
-0.495239 2.000000 -2.489754 61 61 61
-0.000000 2.000000 -2.538530 61 61 61
0.495243 1.918188 -2.489753 58 58 58
0.495243 2.000000 -2.489753 61 61 61
-0.495244 1.918188 2.489754 58 58 58
-0.000001 1.918188 2.661356 61 61 61
-0.000001 1.918188 2.538531 58 58 58
-1.410334 1.918188 2.110711 58 58 58
-0.971455 2.000000 2.345297 61 61 61
-1.410334 2.000000 2.110711 61 61 61
-1.795010 1.918188 -1.795014 58 58 58
-2.110710 2.000000 -1.410334 61 61 61
-1.795010 2.000000 -1.795014 61 61 61
2.345297 1.918188 -0.971453 61 61 61
2.110712 2.000000 -1.410332 61 61 61
2.345297 2.000000 -0.971453 61 61 61
0.495242 1.918188 2.489754 58 58 58
0.971453 2.000000 2.345298 61 61 61
0.495242 2.000000 2.489754 61 61 61
-2.538531 1.918188 -0.000002 58 58 58
-2.489754 2.000000 0.495241 61 61 61
-2.538531 2.000000 -0.000002 62 62 62
0.971454 1.918188 -2.345296 59 59 59
0.971454 2.000000 -2.345296 61 61 61
2.110712 1.918188 1.410333 58 58 58
2.110712 2.000000 1.410333 61 61 61
-1.795014 1.918188 1.795012 58 58 58
-1.795014 2.000000 1.795012 61 61 61
-1.410330 1.918188 -2.110713 58 58 58
-1.410330 2.000000 -2.110713 61 61 61
2.489753 1.918188 -0.495242 61 61 61
2.489753 2.000000 -0.495242 61 61 61
-0.000001 2.000000 2.538531 61 61 61
-2.489753 1.918188 -0.495245 58 58 58
-2.489753 2.000000 -0.495245 61 61 61
1.410332 1.918188 -2.110711 61 61 61
1.410332 2.000000 -2.110711 61 61 61
1.795012 1.918188 1.795013 58 58 58
1.795012 2.000000 1.795013 61 61 61
-2.110713 1.918188 1.410331 58 58 58
-2.110713 2.000000 1.410331 61 61 61
-0.971450 1.918188 -2.345298 58 58 58
-0.971450 2.000000 -2.345298 61 61 61
2.538531 1.918188 0.000000 58 58 58
2.538531 2.000000 0.000000 61 61 61
-0.495244 2.000000 2.489754 61 61 61
-2.345296 1.918188 -0.971456 58 58 58
-2.345296 2.000000 -0.971456 64 64 64
1.795012 1.918188 -1.795012 61 61 61
1.795012 2.000000 -1.795012 61 61 61
1.410332 1.918188 2.110712 58 58 58
1.410332 2.000000 2.110712 61 61 61
-2.345298 1.918188 0.971452 58 58 58
-2.345298 2.000000 0.971452 61 61 61
-0.495239 1.918188 -2.489754 58 58 58
2.489753 1.918188 0.495243 58 58 58
-0.971455 1.918188 2.345297 58 58 58
-2.110710 1.918188 -1.410334 58 58 58
-2.345296 2.000000 -0.971456 61 61 61
2.110712 1.918188 -1.410332 58 58 58
0.971453 1.918188 2.345298 58 58 58
-2.489754 1.918188 0.495241 58 58 58
0.205815 2.003098 -0.408753 53 53 53
0.171537 2.003098 -0.405239 53 53 53
0.105266 2.003098 -0.338441 53 53 53
0.594185 2.003098 -0.408753 53 53 53
0.400000 2.003098 0.000000 53 53 53
0.694734 2.003098 -0.338441 53 53 53
0.205815 2.003098 0.408753 53 53 53
0.105266 2.003098 0.338441 53 53 53
0.594185 2.003098 0.408753 53 53 53
0.628464 2.003098 0.405239 53 53 53
0.694734 2.003098 0.338441 53 53 53
0.118978 2.003098 -0.373598 53 53 53
0.141829 2.003098 -0.394691 53 53 53
0.105266 2.003098 0.000000 53 53 53
0.400000 2.003098 -0.408753 53 53 53
0.694734 2.003098 0.000000 53 53 53
0.681022 2.003098 -0.373598 53 53 53
0.658171 2.003098 -0.394691 53 53 53
0.628464 2.003098 -0.405239 53 53 53
0.118978 2.003098 0.373598 53 53 53
0.141829 2.003098 0.394691 53 53 53
0.171537 2.003098 0.405239 53 53 53
0.400000 2.003098 0.408753 53 53 53
0.681022 2.003098 0.373598 53 53 53
0.658171 2.003098 0.394691 53 53 53
-0.594185 2.003098 -0.408753 53 53 53
-0.628464 2.003098 -0.405239 53 53 53
-0.694734 2.003098 -0.338441 53 53 53
-0.205815 2.003098 -0.408753 53 53 53
-0.400000 2.003098 0.000000 53 53 53
-0.105266 2.003098 -0.338441 53 53 53
-0.594185 2.003098 0.408753 53 53 53
-0.694734 2.003098 0.338441 53 53 53
-0.205815 2.003098 0.408753 53 53 53
-0.171537 2.003098 0.405239 53 53 53
-0.105266 2.003098 0.338441 53 53 53
-0.681022 2.003098 -0.373598 53 53 53
-0.658171 2.003098 -0.394691 53 53 53
-0.694734 2.003098 0.000000 53 53 53
-0.400000 2.003098 -0.408753 54 54 54
-0.105266 2.003098 0.000000 53 53 53
-0.118978 2.003098 -0.373598 53 53 53
-0.141829 2.003098 -0.394691 53 53 53
-0.171537 2.003098 -0.405239 53 53 53
-0.681022 2.003098 0.373598 53 53 53
-0.658171 2.003098 0.394691 53 53 53
-0.628464 2.003098 0.405239 53 53 53
-0.400000 2.003098 0.408753 53 53 53
-0.118978 2.003098 0.373598 53 53 53
-0.141829 2.003098 0.394691 53 53 53
0.519204 1.918188 2.610219 61 61 61
-2.661355 1.918188 -0.000002 62 62 62
2.458772 1.918188 -1.018456 61 61 61
1.018456 1.918188 2.458773 61 61 61
-0.000000 1.918188 -2.661355 64 64 64
1.478570 1.918188 2.212837 61 61 61
-2.610219 1.918188 0.519203 61 61 61
1.881862 1.918188 -1.881862 61 61 61
-2.458773 1.918188 1.018455 61 61 61
1.478570 1.918188 -2.212836 61 61 61
-0.519201 1.918188 -2.610219 57 57 57
1.881862 1.918188 1.881863 61 61 61
-1.018453 1.918188 -2.458773 64 64 64
-1.881864 1.918188 1.881862 61 61 61
0.519205 1.918188 -2.610218 61 61 61
-1.478567 1.918188 -2.212838 61 61 61
2.458772 1.918188 1.018457 61 61 61
-1.881860 1.918188 -1.881865 61 61 61
2.610218 1.918188 0.519205 61 61 61
-1.478572 1.918188 2.212836 61 61 61
-1.018458 1.918188 2.458772 61 61 61
-2.212835 1.918188 -1.478572 62 62 62
2.661355 1.918188 0.000000 61 61 61
-2.458771 1.918188 -1.018459 64 64 64
2.610218 1.918188 -0.519204 61 61 61
0.000000 2.000000 -0.000000 60 60 60
-0.495239 2.000000 -2.489754 59 59 59
-0.000000 2.000000 -2.538530 59 59 59
0.495243 2.000000 -2.489753 59 59 59
-2.110710 2.000000 -1.410334 59 59 59
-1.795010 2.000000 -1.795014 59 59 59
2.110712 2.000000 -1.410332 59 59 59
2.345297 2.000000 -0.971453 59 59 59
-2.538531 2.000000 -0.000002 61 61 61
0.971454 2.000000 -2.345296 59 59 59
-1.410330 2.000000 -2.110713 59 59 59
1.410332 2.000000 -2.110711 59 59 59
-0.971450 2.000000 -2.345298 59 59 59
-2.345296 2.000000 -0.971456 59 59 59
1.795012 2.000000 -1.795012 59 59 59
-0.467285 1.718188 2.349197 61 61 61
-0.519206 1.918188 2.610219 61 61 61
-0.916608 1.718188 -2.212896 64 64 64
1.693676 1.718188 -1.693676 61 61 61
1.330713 1.718188 -1.991552 61 61 61
-0.000001 1.718188 2.395221 61 61 61
-1.330711 1.718188 -1.991554 64 64 64
-1.478567 1.918188 -2.212838 64 64 64
0.916611 1.718188 -2.212894 61 61 61
1.018457 1.918188 -2.458772 61 61 61
0.467283 1.718188 2.349197 61 61 61
-1.881860 1.918188 -1.881865 64 64 64
-1.693674 1.718188 -1.693678 64 64 64
0.467284 1.718188 -2.349196 61 61 61
0.916611 1.718188 2.212896 61 61 61
-1.991551 1.718188 -1.330715 64 64 64
-2.212835 1.918188 -1.478572 64 64 64
-0.000000 1.718188 -2.395220 64 64 64
1.330713 1.718188 1.991553 61 61 61
-2.212894 1.718188 -0.916613 64 64 64
1.693676 1.718188 1.693677 61 61 61
-2.349196 1.718188 -0.467286 61 61 61
-2.610218 1.918188 -0.519207 61 61 61
1.991553 1.718188 1.330714 61 61 61
2.212837 1.918188 1.478571 61 61 61
-2.395220 1.718188 -0.000002 62 62 62
2.212895 1.718188 0.916611 61 61 61
-2.349197 1.718188 0.467283 61 61 61
2.349196 1.718188 0.467284 61 61 61
-2.212896 1.718188 0.916610 61 61 61
2.395220 1.718188 0.000000 61 61 61
-1.991554 1.718188 1.330712 61 61 61
-2.212838 1.918188 1.478569 61 61 61
2.349196 1.718188 -0.467284 61 61 61
-1.693678 1.718188 1.693675 61 61 61
2.212895 1.718188 -0.916611 61 61 61
-1.330714 1.718188 1.991553 61 61 61
1.991553 1.718188 -1.330713 61 61 61
2.212837 1.918188 -1.478570 61 61 61
-0.916612 1.718188 2.212895 61 61 61
-0.467281 1.718188 -2.349197 57 57 57
0.199155 1.718188 0.133071 61 61 61
-0.234920 1.718188 -0.046729 61 61 61
-0.239522 1.718188 -0.000000 62 62 62
0.221290 1.718188 0.091661 61 61 61
-0.234920 1.718188 0.046728 61 61 61
0.234920 1.718188 0.046728 61 61 61
-0.221290 1.718188 0.091661 61 61 61
0.239522 1.718188 -0.000000 61 61 61
-0.199155 1.718188 0.133071 61 61 61
0.234920 1.718188 -0.046729 61 61 61
-0.169368 1.718188 0.169367 61 61 61
0.221290 1.718188 -0.091661 61 61 61
-0.133071 1.718188 0.199155 61 61 61
0.199155 1.718188 -0.133072 61 61 61
-0.091661 1.718188 0.221289 61 61 61
-0.046728 1.718188 -0.234920 57 57 57
0.169368 1.718188 -0.169368 61 61 61
-0.046728 1.718188 0.234920 61 61 61
-0.091661 1.718188 -0.221290 64 64 64
0.133071 1.718188 -0.199155 61 61 61
-0.000000 1.718188 0.239522 61 61 61
-0.133071 1.718188 -0.199156 64 64 64
0.091661 1.718188 -0.221290 61 61 61
0.046728 1.718188 0.234920 61 61 61
-0.169367 1.718188 -0.169368 64 64 64
0.046728 1.718188 -0.234920 61 61 61
0.091661 1.718188 0.221289 61 61 61
-0.199155 1.718188 -0.133072 64 64 64
0.000000 1.718188 -0.239522 64 64 64
0.133071 1.718188 0.199155 61 61 61
-0.221289 1.718188 -0.091662 64 64 64
0.169368 1.718188 0.169367 61 61 61
0.239522 0.618188 -0.000000 48 48 48
-0.199155 0.618188 0.133071 48 48 48
0.234920 0.618188 -0.046729 48 48 48
-0.169368 0.618188 0.169367 48 48 48
0.221290 0.618188 -0.091661 48 48 48
-0.133071 0.618188 0.199155 48 48 48
0.199155 0.618188 -0.133072 48 48 48
-0.091661 0.618188 0.221289 48 48 48
-0.046728 0.618188 -0.234920 48 48 48
0.169368 0.618188 -0.169368 48 48 48
-0.046728 0.618188 0.234920 48 48 48
-0.091661 0.618188 -0.221290 48 48 48
0.133071 0.618188 -0.199155 48 48 48
-0.000000 0.618188 0.239522 48 48 48
-0.133071 0.618188 -0.199156 48 48 48
0.091661 0.618188 -0.221290 48 48 48
0.046728 0.618188 0.234920 48 48 48
-0.169367 0.618188 -0.169368 48 48 48
0.046728 0.618188 -0.234920 48 48 48
0.091661 0.618188 0.221289 48 48 48
-0.199155 0.618188 -0.133072 48 48 48
0.000000 0.618188 -0.239522 48 48 48
0.133071 0.618188 0.199155 48 48 48
-0.221289 0.618188 -0.091662 48 48 48
0.169368 0.618188 0.169367 48 48 48
-0.234920 0.618188 -0.046729 48 48 48
0.199155 0.618188 0.133071 48 48 48
-0.239522 0.618188 -0.000000 48 48 48
0.221290 0.618188 0.091661 48 48 48
-0.234920 0.618188 0.046728 48 48 48
0.234920 0.618188 0.046728 48 48 48
-0.221290 0.618188 0.091661 48 48 48
-0.398311 0.618188 0.266142 48 48 48
-0.338736 0.618188 0.338735 48 48 48
0.442579 0.618188 -0.183322 48 48 48
-0.266143 0.618188 0.398310 48 48 48
0.398311 0.618188 -0.266143 48 48 48
-0.183322 0.618188 0.442579 48 48 48
0.000000 0.618188 -0.479044 48 48 48
-0.093456 0.618188 -0.469840 48 48 48
0.338735 0.618188 -0.338736 48 48 48
-0.093457 0.618188 0.469839 48 48 48
-0.183322 0.618188 -0.442579 48 48 48
0.266143 0.618188 -0.398311 48 48 48
-0.000000 0.618188 0.479044 48 48 48
-0.266142 0.618188 -0.398311 48 48 48
0.183322 0.618188 -0.442579 48 48 48
0.093457 0.618188 0.469839 48 48 48
-0.338735 0.618188 -0.338736 48 48 48
0.093457 0.618188 -0.469839 48 48 48
0.183322 0.618188 0.442579 48 48 48
-0.398310 0.618188 -0.266143 48 48 48
0.266143 0.618188 0.398310 48 48 48
-0.442579 0.618188 -0.183323 48 48 48
0.338735 0.618188 0.338735 48 48 48
-0.469839 0.618188 -0.093457 48 48 48
0.398311 0.618188 0.266142 48 48 48
-0.479044 0.618188 -0.000001 48 48 48
0.442579 0.618188 0.183322 48 48 48
-0.469840 0.618188 0.093456 48 48 48
0.469840 0.618188 0.093457 48 48 48
-0.442579 0.618188 0.183322 48 48 48
0.479044 0.618188 -0.000000 48 48 48
0.469840 0.618188 -0.093457 48 48 48
-0.357479 0.418188 0.863029 48 48 48
-0.182241 0.418188 0.916187 48 48 48
-0.357477 0.418188 -0.863030 48 48 48
0.518978 0.418188 -0.776705 48 48 48
-0.000000 0.418188 0.934136 48 48 48
-0.518977 0.418188 -0.776706 48 48 48
0.357478 0.418188 -0.863029 48 48 48
0.182241 0.418188 0.916187 48 48 48
-0.660533 0.418188 -0.660534 48 48 48
0.182241 0.418188 -0.916186 48 48 48
0.357478 0.418188 0.863029 48 48 48
-0.776705 0.418188 -0.518979 48 48 48
-0.000000 0.418188 -0.934136 48 48 48
0.518978 0.418188 0.776706 48 48 48
-0.863029 0.418188 -0.357479 48 48 48
0.660534 0.418188 0.660534 48 48 48
-0.916186 0.418188 -0.182242 48 48 48
0.776706 0.418188 0.518978 48 48 48
-0.934136 0.418188 -0.000001 48 48 48
0.863029 0.418188 0.357478 48 48 48
-0.916187 0.418188 0.182240 48 48 48
0.916187 0.418188 0.182241 48 48 48
-0.863029 0.418188 0.357478 48 48 48
0.934135 0.418188 -0.000000 48 48 48
-0.776706 0.418188 0.518978 48 48 48
0.916187 0.418188 -0.182241 48 48 48
-0.660535 0.418188 0.660533 48 48 48
0.863029 0.418188 -0.357478 48 48 48
-0.518979 0.418188 0.776705 48 48 48
0.776706 0.418188 -0.518978 48 48 48
-0.182240 0.418188 -0.916187 48 48 48
0.660534 0.418188 -0.660534 48 48 48
0.357478 0.018188 0.863029 48 48 48
-0.776705 0.018188 -0.518979 48 48 48
-0.000000 0.018188 -0.934136 48 48 48
0.518978 0.018188 0.776706 48 48 48
-0.863029 0.018188 -0.357479 48 48 48
0.660534 0.018188 0.660534 48 48 48
-0.916186 0.018188 -0.182242 48 48 48
0.776706 0.018188 0.518978 48 48 48
-0.934136 0.018188 -0.000001 48 48 48
0.863029 0.018188 0.357478 48 48 48
-0.916187 0.018188 0.182240 48 48 48
0.916187 0.018188 0.182241 48 48 48
-0.863029 0.018188 0.357478 48 48 48
0.934135 0.018188 -0.000000 48 48 48
-0.776706 0.018188 0.518978 48 48 48
0.916187 0.018188 -0.182241 48 48 48
-0.660535 0.018188 0.660533 48 48 48
0.863029 0.018188 -0.357478 48 48 48
-0.518979 0.018188 0.776705 48 48 48
0.776706 0.018188 -0.518978 48 48 48
-0.357479 0.018188 0.863029 48 48 48
-0.182240 0.018188 -0.916187 48 48 48
0.660534 0.018188 -0.660534 48 48 48
-0.182241 0.018188 0.916187 48 48 48
-0.357477 0.018188 -0.863030 48 48 48
0.518978 0.018188 -0.776705 48 48 48
-0.000000 0.018188 0.934136 48 48 48
-0.518977 0.018188 -0.776706 48 48 48
0.357478 0.018188 -0.863029 48 48 48
0.182241 0.018188 0.916187 48 48 48
-0.660533 0.018188 -0.660534 48 48 48
0.182241 0.018188 -0.916186 48 48 48
-2.458771 1.918188 -1.018459 61 61 61
3 0 1 2
3 3 4 5
3 6 5 7
3 8 9 10
3 11 12 13
3 14 15 16
3 17 18 19
3 20 21 22
3 23 24 25
3 26 7 27
3 28 2 29
3 30 13 31
3 32 16 33
3 34 19 35
3 10 22 36
3 37 25 38
3 39 27 40
3 41 29 42
3 43 31 44
3 45 33 46
3 47 35 48
3 8 36 49
3 50 38 51
3 52 40 53
3 54 42 55
3 56 44 57
3 58 46 4
3 59 48 1
3 60 49 12
3 61 62 15
3 63 53 18
3 64 55 21
3 65 57 24
3 66 67 68
3 69 70 71
3 72 70 73
3 74 75 76
3 77 68 78
3 79 70 68
3 80 66 70
3 67 78 68
3 70 66 68
3 81 71 70
3 82 83 71
3 84 69 71
3 80 70 69
3 71 83 84
3 79 73 70
3 85 86 73
3 87 72 73
3 88 70 72
3 73 86 87
3 89 76 90
3 81 70 76
3 88 74 70
3 75 90 76
3 76 70 74
3 91 92 93
3 94 95 96
3 97 95 98
3 99 100 101
3 102 93 103
3 104 95 93
3 105 91 95
3 92 103 93
3 95 91 93
3 106 96 95
3 107 108 96
3 109 94 96
3 105 95 94
3 96 108 109
3 104 98 95
3 110 111 98
3 112 97 98
3 113 95 97
3 98 111 112
3 114 101 115
3 106 95 101
3 113 99 95
3 100 115 101
3 101 95 99
3 10 116 20
3 37 117 23
3 34 118 17
3 117 65 23
3 118 63 17
3 20 119 64
3 120 58 3
3 64 121 54
3 122 56 65
3 63 123 52
3 124 43 56
3 52 125 39
3 126 45 58
3 54 127 41
3 128 32 45
3 127 28 41
3 43 129 30
3 125 26 39
3 129 11 30
3 26 130 6
3 131 14 32
3 28 132 0
3 133 61 14
3 0 134 59
3 135 60 11
3 130 3 6
3 136 8 60
3 137 50 61
3 59 138 47
3 139 37 50
3 47 140 34
3 57 141 24
3 142 141 143
3 143 141 144
3 1 141 2
3 12 141 13
3 145 141 146
3 147 141 148
3 21 141 22
3 24 141 149
3 144 141 150
3 2 141 29
3 13 141 31
3 146 141 151
3 148 141 35
3 22 141 36
3 149 141 38
3 150 141 152
3 29 141 42
3 31 141 44
3 151 141 153
3 35 141 48
3 36 141 49
3 38 141 154
3 152 141 155
3 42 141 55
3 44 141 57
3 153 141 142
3 48 141 1
3 49 141 12
3 154 141 145
3 155 141 147
3 55 141 21
3 136 156 157
3 126 158 128
3 125 159 160
3 9 156 161
3 128 162 163
3 125 164 165
3 9 166 116
3 167 162 168
3 130 164 169
3 116 170 119
3 167 171 172
3 130 173 120
3 121 170 174
3 172 175 139
3 127 174 176
3 139 177 178
3 127 179 180
3 117 177 181
3 132 179 182
3 117 183 122
3 134 182 184
3 122 185 124
3 138 184 186
3 124 187 188
3 140 186 189
3 129 187 190
3 118 189 191
3 129 192 135
3 118 193 194
3 136 192 195
3 126 173 196
3 123 193 159
3 176 197 179
3 181 198 199
3 182 197 200
3 181 201 183
3 182 202 184
3 183 203 185
3 186 202 204
3 187 203 205
3 186 206 189
3 187 207 190
3 191 206 208
3 190 209 192
3 191 210 193
3 195 209 211
3 173 212 196
3 159 210 213
3 195 214 156
3 196 215 158
3 160 213 216
3 161 214 217
3 158 218 162
3 160 219 164
3 161 220 166
3 168 218 221
3 169 219 222
3 166 223 170
3 168 224 171
3 169 225 173
3 174 223 226
3 171 227 175
3 176 226 228
3 175 198 177
3 202 229 204
3 203 230 205
3 204 231 206
3 205 232 207
3 206 233 208
3 207 234 209
3 208 235 210
3 209 236 211
3 225 237 212
3 210 238 213
3 211 239 214
3 212 240 215
3 213 241 216
3 214 242 217
3 215 243 218
3 216 244 219
3 217 245 220
3 218 246 221
3 219 247 222
3 220 248 223
3 221 249 224
3 222 250 225
3 223 251 226
3 224 252 227
3 226 253 228
3 227 254 198
3 228 255 197
3 198 256 199
3 197 257 200
3 199 258 201
3 200 259 202
3 201 260 203
3 232 261 262
3 231 263 233
3 232 264 234
3 235 263 265
3 234 266 236
3 237 267 268
3 235 269 238
3 239 266 270
3 237 271 240
3 238 272 241
3 239 273 242
3 243 271 274
3 244 272 275
3 245 273 276
3 243 277 246
3 244 278 247
3 245 279 248
3 249 277 280
3 250 278 267
3 251 279 281
3 252 280 282
3 251 283 253
3 252 284 254
3 253 285 255
3 256 284 286
3 255 287 257
3 258 286 288
3 259 287 289
3 258 290 260
3 259 291 229
3 230 290 261
3 231 291 292
3 270 293 294
3 268 295 271
3 269 296 272
3 270 297 273
3 274 295 298
3 275 296 299
3 276 297 300
3 274 301 277
3 275 302 278
3 276 303 279
3 280 301 304
3 267 302 305
3 281 303 306
3 282 304 307
3 281 308 283
3 282 309 284
3 283 310 285
3 286 309 311
3 285 312 287
3 288 311 313
3 289 312 314
3 288 315 290
3 289 316 291
3 261 315 317
3 292 316 318
3 262 317 319
3 292 320 263
3 262 321 264
3 265 320 322
3 264 293 266
3 268 305 323
3 269 322 324
3 300 325 303
3 301 326 304
3 302 327 305
3 303 328 306
3 304 329 307
3 306 330 308
3 307 331 309
3 308 332 310
3 309 333 311
3 310 334 312
3 311 335 313
3 312 336 314
3 313 337 315
3 314 338 316
3 315 339 317
3 316 340 318
3 317 341 319
3 318 342 320
3 319 343 321
3 320 344 322
3 321 345 293
3 305 346 323
3 322 347 324
3 293 348 294
3 323 349 295
3 324 350 296
3 294 351 297
3 295 352 298
3 296 353 299
3 297 354 300
3 298 355 301
3 299 356 302
3 0 59 1
3 3 58 4
3 6 3 5
3 8 157 9
3 11 60 12
3 14 61 15
3 17 63 18
3 20 64 21
3 23 65 24
3 26 6 7
3 28 0 2
3 30 11 13
3 32 14 16
3 34 17 19
3 10 20 22
3 37 23 25
3 39 26 27
3 41 28 29
3 43 30 31
3 45 32 33
3 47 34 35
3 8 10 36
3 50 37 38
3 52 39 40
3 54 41 42
3 56 43 44
3 58 45 46
3 59 47 48
3 60 8 49
3 61 50 62
3 63 52 53
3 64 54 55
3 65 56 57
3 10 9 116
3 37 178 117
3 34 140 118
3 117 122 65
3 118 194 63
3 20 116 119
3 120 126 58
3 64 119 121
3 122 124 56
3 63 194 123
3 124 188 43
3 52 123 125
3 126 128 45
3 54 121 127
3 128 131 32
3 127 180 28
3 43 188 129
3 125 165 26
3 129 135 11
3 26 165 130
3 131 133 14
3 28 180 132
3 133 137 61
3 0 132 134
3 135 136 60
3 130 120 3
3 136 157 8
3 137 357 50
3 59 134 138
3 139 178 37
3 47 138 140
3 136 195 156
3 126 196 158
3 125 123 159
3 9 157 156
3 128 158 162
3 125 160 164
3 9 161 166
3 167 163 162
3 130 165 164
3 116 166 170
3 167 168 171
3 130 169 173
3 121 119 170
3 172 171 175
3 127 121 174
3 139 175 177
3 127 176 179
3 117 178 177
3 132 180 179
3 117 181 183
3 134 132 182
3 122 183 185
3 138 134 184
3 124 185 187
3 140 138 186
3 129 188 187
3 118 140 189
3 129 190 192
3 118 191 193
3 136 135 192
3 126 120 173
3 123 194 193
3 176 228 197
3 181 177 198
3 182 179 197
3 181 199 201
3 182 200 202
3 183 201 203
3 186 184 202
3 187 185 203
3 186 204 206
3 187 205 207
3 191 189 206
3 190 207 209
3 191 208 210
3 195 192 209
3 173 225 212
3 159 193 210
3 195 211 214
3 196 212 215
3 160 159 213
3 161 156 214
3 158 215 218
3 160 216 219
3 161 217 220
3 168 162 218
3 169 164 219
3 166 220 223
3 168 221 224
3 169 222 225
3 174 170 223
3 171 224 227
3 176 174 226
3 175 227 198
3 202 259 229
3 203 260 230
3 204 229 231
3 205 230 232
3 206 231 233
3 207 232 234
3 208 233 235
3 209 234 236
3 225 250 237
3 210 235 238
3 211 236 239
3 212 237 240
3 213 238 241
3 214 239 242
3 215 240 243
3 216 241 244
3 217 242 245
3 218 243 246
3 219 244 247
3 220 245 248
3 221 246 249
3 222 247 250
3 223 248 251
3 224 249 252
3 226 251 253
3 227 252 254
3 228 253 255
3 198 254 256
3 197 255 257
3 199 256 258
3 200 257 259
3 201 258 260
3 232 230 261
3 231 292 263
3 232 262 264
3 235 233 263
3 234 264 266
3 237 250 267
3 235 265 269
3 239 236 266
3 237 268 271
3 238 269 272
3 239 270 273
3 243 240 271
3 244 241 272
3 245 242 273
3 243 274 277
3 244 275 278
3 245 276 279
3 249 246 277
3 250 247 278
3 251 248 279
3 252 249 280
3 251 281 283
3 252 282 284
3 253 283 285
3 256 254 284
3 255 285 287
3 258 256 286
3 259 257 287
3 258 288 290
3 259 289 291
3 230 260 290
3 231 229 291
3 270 266 293
3 268 323 295
3 269 324 296
3 270 294 297
3 274 271 295
3 275 272 296
3 276 273 297
3 274 298 301
3 275 299 302
3 276 300 303
3 280 277 301
3 267 278 302
3 281 279 303
3 282 280 304
3 281 306 308
3 282 307 309
3 283 308 310
3 286 284 309
3 285 310 312
3 288 286 311
3 289 287 312
3 288 313 315
3 289 314 316
3 261 290 315
3 292 291 316
3 262 261 317
3 292 318 320
3 262 319 321
3 265 263 320
3 264 321 293
3 268 267 305
3 269 265 322
3 300 354 325
3 301 355 326
3 302 356 327
3 303 325 328
3 304 326 329
3 306 328 330
3 307 329 331
3 308 330 332
3 309 331 333
3 310 332 334
3 311 333 335
3 312 334 336
3 313 335 337
3 314 336 338
3 315 337 339
3 316 338 340
3 317 339 341
3 318 340 342
3 319 341 343
3 320 342 344
3 321 343 345
3 305 327 346
3 322 344 347
3 293 345 348
3 323 346 349
3 324 347 350
3 294 348 351
3 295 349 352
3 296 350 353
3 297 351 354
3 298 352 355
3 299 353 356
