ply
format ascii 1.0
comment Created by Blender 2.79 (sub 0) - www.blender.org, source file: 'table.blend'
element vertex 64
property float x
property float y
property float z
property uchar red
property uchar green
property uchar blue
element face 124
property list uchar uint vertex_indices
end_header
-0.000000 2.000000 -3.599999 70 255 48
0.702325 0.000000 -3.530826 117 53 40
-0.000000 0.000000 -3.599999 117 53 40
0.702325 2.000000 -3.530826 122 255 23
1.377661 0.000000 -3.325966 117 53 40
1.377661 2.000000 -3.325966 186 255 38
2.000053 0.000000 -2.993290 117 53 40
2.000053 2.000000 -2.993290 238 255 45
2.545584 0.000000 -2.545583 117 53 40
2.545584 2.000000 -2.545583 255 216 49
2.993291 0.000000 -2.000052 117 53 40
2.993291 2.000000 -2.000052 255 160 53
3.325966 0.000000 -1.377660 117 53 40
3.325966 2.000000 -1.377660 255 114 39
3.530827 0.000000 -0.702325 118 54 41
3.530827 2.000000 -0.702325 255 47 35
3.600000 0.000000 0.000001 117 53 40
3.600000 2.000000 0.000001 255 23 45
3.530827 0.000000 0.702326 117 53 40
3.530827 2.000000 0.702326 255 23 45
3.325966 0.000000 1.377661 117 53 40
3.325966 2.000000 1.377661 255 23 45
2.993291 0.000000 2.000054 117 53 40
2.993291 2.000000 2.000054 255 9 65
2.545584 0.000000 2.545585 117 53 40
2.545584 2.000000 2.545585 255 5 62
2.000053 0.000000 2.993292 117 53 40
2.000053 2.000000 2.993292 255 6 63
1.377660 0.000000 3.325968 117 53 40
1.377660 2.000000 3.325968 255 16 109
0.702324 0.000000 3.530828 117 53 40
0.702324 2.000000 3.530828 255 16 109
-0.000001 0.000000 3.600001 117 53 40
-0.000001 2.000000 3.600001 255 18 164
-0.702327 0.000000 3.530828 117 53 40
-0.702327 2.000000 3.530828 255 18 164
-1.377662 0.000000 3.325967 117 53 40
-1.377662 2.000000 3.325967 255 19 220
-2.000055 0.000000 2.993290 117 53 40
-2.000055 2.000000 2.993290 255 19 220
-2.545586 0.000000 2.545583 117 53 40
-2.545586 2.000000 2.545583 222 26 255
-2.993292 0.000000 2.000052 117 53 40
-2.993292 2.000000 2.000052 222 26 255
-3.325968 0.000000 1.377658 117 53 40
-3.325968 2.000000 1.377658 154 29 255
-3.530828 0.000000 0.702323 117 53 40
-3.530828 2.000000 0.702323 154 29 255
-3.600000 0.000000 -0.000003 117 53 40
-3.600000 2.000000 -0.000003 77 26 255
-3.530827 0.000000 -0.702328 117 53 40
-3.530827 2.000000 -0.702328 77 26 255
-3.325965 0.000000 -1.377663 117 53 40
-3.325965 2.000000 -1.377663 40 37 255
-2.993288 0.000000 -2.000056 117 53 40
-2.993288 2.000000 -2.000056 45 90 255
-2.545582 0.000000 -2.545587 117 53 40
-2.545582 2.000000 -2.545587 48 161 255
-2.000049 0.000000 -2.993293 117 53 40
-2.000049 2.000000 -2.993293 53 255 249
-1.377656 0.000000 -3.325968 117 53 40
-1.377656 2.000000 -3.325968 48 255 173
-0.702320 0.000000 -3.530827 117 53 40
-0.702320 2.000000 -3.530827 54 255 96
3 0 1 2
3 3 4 1
3 5 6 4
3 7 8 6
3 9 10 8
3 11 12 10
3 13 14 12
3 15 16 14
3 17 18 16
3 19 20 18
3 21 22 20
3 23 24 22
3 25 26 24
3 27 28 26
3 29 30 28
3 31 32 30
3 33 34 32
3 35 36 34
3 37 38 36
3 39 40 38
3 41 42 40
3 43 44 42
3 45 46 44
3 47 48 46
3 49 50 48
3 51 52 50
3 53 54 52
3 55 56 54
3 57 58 56
3 59 60 58
3 37 21 5
3 61 62 60
3 63 2 62
3 38 46 62
3 0 3 1
3 3 5 4
3 5 7 6
3 7 9 8
3 9 11 10
3 11 13 12
3 13 15 14
3 15 17 16
3 17 19 18
3 19 21 20
3 21 23 22
3 23 25 24
3 25 27 26
3 27 29 28
3 29 31 30
3 31 33 32
3 33 35 34
3 35 37 36
3 37 39 38
3 39 41 40
3 41 43 42
3 43 45 44
3 45 47 46
3 47 49 48
3 49 51 50
3 51 53 52
3 53 55 54
3 55 57 56
3 57 59 58
3 59 61 60
3 5 3 0
3 0 63 5
3 61 59 57
3 57 55 61
3 53 51 49
3 49 47 45
3 45 43 41
3 41 39 37
3 37 35 33
3 33 31 37
3 29 27 21
3 25 23 21
3 21 19 17
3 17 15 13
3 13 11 5
3 9 7 5
3 5 63 61
3 61 55 53
3 53 49 45
3 45 41 53
3 37 31 29
3 27 25 21
3 21 17 13
3 11 9 5
3 5 61 53
3 53 41 37
3 37 29 21
3 21 13 5
3 5 53 37
3 61 63 62
3 63 0 2
3 62 2 6
3 1 4 6
3 6 8 10
3 10 12 14
3 14 16 18
3 18 20 22
3 22 24 26
3 26 28 30
3 30 32 34
3 34 36 30
3 38 40 46
3 42 44 46
3 46 48 54
3 50 52 54
3 54 56 62
3 58 60 62
3 2 1 6
3 6 10 62
3 14 18 30
3 22 26 30
3 30 36 38
3 40 42 46
3 48 50 54
3 56 58 62
3 62 10 14
3 18 22 30
3 30 38 62
3 46 54 62
3 62 14 30
