ply
format ascii 1.0
comment Created by Blender 2.79 (sub 0) - www.blender.org, source file: 'table.blend'
element vertex 44
property float x
property float y
property float z
property uchar red
property uchar green
property uchar blue
element face 72
property list uchar uint vertex_indices
end_header
-1.055476 1.920536 2.438623 92 92 92
-1.181401 1.973154 2.351604 82 82 82
-1.020488 1.920536 2.357785 92 92 92
-0.276522 1.920536 2.630936 106 106 106
-0.534712 1.920536 2.515623 106 106 106
-0.267356 1.920536 2.543723 106 106 106
-1.055476 2.019838 2.438623 92 92 92
-1.020488 2.031707 2.357785 92 92 92
-0.276522 2.019838 2.630936 106 106 106
-0.534712 2.031707 2.515623 106 106 106
-0.553045 2.019838 2.601873 106 106 106
-0.553045 1.920536 2.601873 106 106 106
-0.777600 2.031707 2.436704 98 98 98
-0.777600 1.920536 2.436704 98 98 98
-0.267356 2.031707 2.543723 106 106 106
0.000000 1.920536 2.571824 82 82 82
-0.804260 2.019838 2.520248 98 98 98
-1.055476 1.920536 2.438623 96 96 96
-0.804260 1.920536 2.520248 98 98 98
-0.804260 2.019838 2.520248 99 99 99
-1.020488 2.031707 2.357785 93 93 93
0.000000 2.019838 2.660000 82 82 82
0.000000 1.920536 2.660000 82 82 82
0.000000 2.031707 2.571824 82 82 82
1.055476 1.920536 2.438623 92 92 92
1.020488 1.920536 2.357785 92 92 92
1.181401 1.973154 2.351604 82 82 82
0.276522 1.920536 2.630936 106 106 106
0.534712 1.920536 2.515623 106 106 106
0.553045 1.920536 2.601873 106 106 106
1.055476 2.019838 2.438623 92 92 92
1.020488 2.031707 2.357785 92 92 92
0.276522 2.019838 2.630936 106 106 106
0.534712 2.031707 2.515623 106 106 106
0.267356 2.031707 2.543723 106 106 106
0.777600 2.031707 2.436704 98 98 98
0.777600 1.920536 2.436704 98 98 98
0.267356 1.920536 2.543723 106 106 106
1.055476 1.920536 2.438623 96 96 96
0.804260 2.019838 2.520248 98 98 98
0.804260 1.920536 2.520248 98 98 98
0.804260 2.019838 2.520248 99 99 99
1.020488 2.031707 2.357785 93 93 93
0.553045 2.019838 2.601873 106 106 106
3 0 1 2
3 3 4 5
3 6 7 1
3 8 9 10
3 0 6 1
3 8 11 3
3 12 4 13
3 14 15 5
3 1 7 2
3 16 17 18
3 19 20 6
3 18 2 13
3 18 4 11
3 9 16 10
3 10 18 11
3 7 13 2
3 9 5 4
3 21 3 22
3 23 8 21
3 3 15 22
3 24 25 26
3 27 28 29
3 30 26 31
3 32 33 34
3 24 26 30
3 29 32 27
3 28 35 36
3 15 34 37
3 26 25 31
3 38 39 40
3 41 42 35
3 40 25 24
3 28 40 29
3 39 33 43
3 40 43 29
3 36 31 25
3 37 33 28
3 27 21 22
3 32 23 21
3 15 27 22
3 3 11 4
3 8 14 9
3 8 10 11
3 12 9 4
3 14 23 15
3 16 6 17
3 19 12 20
3 18 0 2
3 18 13 4
3 9 12 16
3 10 16 18
3 7 12 13
3 9 14 5
3 21 8 3
3 23 14 8
3 3 5 15
3 27 37 28
3 32 43 33
3 29 43 32
3 28 33 35
3 15 23 34
3 38 30 39
3 41 30 42
3 40 36 25
3 28 36 40
3 39 35 33
3 40 39 43
3 36 35 31
3 37 34 33
3 27 32 21
3 32 34 23
3 15 37 27
