ply
format ascii 1.0
comment Created by Blender 2.93.4 - www.blender.org
element vertex 583
property float x
property float y
property float z
property float s
property float t
property uchar red
property uchar green
property uchar blue
element face 628
property list uchar uint vertex_indices
end_header
-0.495244 1.918188 2.489754 0.606323 0.018164 0 0 0
0.000000 1.918188 2.661356 0.645747 0.000000 0 0 0
0.000000 1.918188 2.538531 0.646744 0.010123 0 0 0
-1.410334 1.918188 2.110711 0.562306 0.463024 0 0 0
-0.971455 2.000000 2.345297 0.602975 0.453512 0 0 0
-1.410334 2.000000 2.110711 0.564899 0.469284 0 0 0
-2.538531 1.918188 0.000000 0.448134 0.632767 0 0 0
-2.489754 2.000000 0.495241 0.462820 0.593668 0 0 0
-2.538531 2.000000 0.000000 0.454779 0.634089 0 0 0
-1.795014 1.918188 1.795012 0.526866 0.486547 0 0 0
-1.795014 2.000000 1.795012 0.530631 0.492181 0 0 0
-2.110713 1.918188 1.410331 0.496697 0.516532 0 0 0
-2.110713 2.000000 1.410331 0.501488 0.521323 0 0 0
-0.495244 1.918188 2.489754 0.643397 0.438696 0 0 0
0.000000 2.000000 2.538531 0.684610 0.445471 0 0 0
-0.495244 2.000000 2.489754 0.643397 0.445471 0 0 0
-2.345298 1.918188 0.971452 0.472958 0.551827 0 0 0
-2.345298 2.000000 0.971452 0.478591 0.555591 0 0 0
-0.971455 1.918188 2.345297 0.601653 0.446866 0 0 0
-2.489754 1.918188 0.495241 0.456560 0.591075 0 0 0
-2.661355 1.918188 0.000000 0.448004 0.240952 0 0 0
-2.489754 1.918188 0.495241 0.458127 0.198741 0 0 0
-2.538531 1.918188 0.000000 0.458127 0.239955 0 0 0
-2.610219 1.918188 0.519203 0.448004 0.197744 0 0 0
-2.345298 1.918188 0.971452 0.466167 0.158319 0 0 0
-2.458773 1.918188 1.018455 0.456433 0.155367 0 0 0
-2.110713 1.918188 1.410331 0.481939 0.120243 0 0 0
-1.881864 1.918188 1.881862 0.496973 0.079522 0 0 0
-1.795014 1.918188 1.795012 0.504836 0.085975 0 0 0
-1.410334 1.918188 2.110711 0.533979 0.056833 0 0 0
-1.478572 1.918188 2.212836 0.527525 0.048969 0 0 0
-0.971455 1.918188 2.345297 0.568246 0.033936 0 0 0
-1.018458 1.918188 2.458772 0.563451 0.024965 0 0 0
0.000000 2.000000 0.000000 0.664004 0.654696 0 0 0
-1.018458 1.918188 2.458772 0.439848 0.289550 0 0 0
-0.467285 1.718188 2.349197 0.420369 0.243839 0 0 0
-0.519206 1.918188 2.610219 0.448004 0.246388 0 0 0
0.000000 1.918188 2.661356 0.448004 0.202568 0 0 0
0.000000 1.718188 2.395221 0.420546 0.205177 0 0 0
-2.661355 1.918188 0.000000 0.247339 0.450088 0 0 0
-2.349197 1.718188 0.467283 0.2803 0.414263 0 0 0
-2.610219 1.918188 0.519203 0.290962 0.441008 0 0 0
-2.212896 1.718188 0.916610 0.318331 0.399204 0 0 0
-2.458773 1.918188 1.018455 0.331761 0.423691 0 0 0
-1.991554 1.718188 1.330712 0.350403 0.377476 0 0 0
-2.212838 1.918188 1.478569 0.368320 0.398822 0 0 0
-1.881864 1.918188 1.881862 0.399276 0.367334 0 0 0
-1.693678 1.718188 1.693675 0.377557 0.349936 0 0 0
-1.330714 1.718188 1.991553 0.398756 0.317643 0 0 0
-1.478572 1.918188 2.212836 0.423431 0.330425 0 0 0
-0.916612 1.718188 2.212895 0.413196 0.281842 0 0 0
-2.395220 1.718188 0.000000 0.000000 0.628110 0 0 0
-0.234920 1.718188 0.046728 0.177670 0.649497 0 0 0
-2.349197 1.718188 0.467283 0.000000 0.666997 0 0 0
-0.221290 1.718188 0.091661 0.178429 0.653311 0 0 0
-2.212896 1.718188 0.916610 0.007585 0.705136 0 0 0
-1.991554 1.718188 1.330712 0.022466 0.741064 0 0 0
-0.199155 1.718188 0.133071 0.179917 0.656903 0 0 0
-0.169368 1.718188 0.169367 0.182078 0.660136 0 0 0
-1.693678 1.718188 1.693675 0.044070 0.773397 0 0 0
-0.133071 1.718188 0.199155 0.184827 0.662886 0 0 0
-1.330714 1.718188 1.991553 0.071568 0.800894 0 0 0
-0.916612 1.718188 2.212895 0.103901 0.822499 0 0 0
-0.091661 1.718188 0.221289 0.188061 0.665046 0 0 0
-0.046728 1.718188 0.234920 0.191653 0.666535 0 0 0
-0.467285 1.718188 2.349197 0.139829 0.837380 0 0 0
0.000000 1.718188 2.395221 0.177969 0.844966 0 0 0
0.000000 1.718188 0.239522 0.195467 0.667293 0 0 0
-0.221290 1.718188 0.091661 0.091100 0.942183 0 0 0
-0.199155 0.618188 0.133071 0.000000 0.938295 0 0 0
-0.199155 1.718188 0.133071 0.091100 0.938295 0 0 0
-0.169368 0.618188 0.169367 0.000000 0.934406 0 0 0
-0.169368 1.718188 0.169367 0.091100 0.934406 0 0 0
-0.133071 0.618188 0.199155 0.000000 0.930517 0 0 0
-0.133071 1.718188 0.199155 0.091100 0.930517 0 0 0
-0.091661 0.618188 0.221289 0.000000 0.926628 0 0 0
-0.091661 1.718188 0.221289 0.091100 0.926628 0 0 0
-0.046728 0.618188 0.234920 0.000000 0.922740 0 0 0
-0.046728 1.718188 0.234920 0.091100 0.922740 0 0 0
0.000000 0.618188 0.239522 0.000000 0.918851 0 0 0
0.000000 1.718188 0.239522 0.091100 0.918851 0 0 0
-0.239522 1.718188 0.000000 0.091100 0.949961 0 0 0
-0.234920 0.618188 0.046728 0.000000 0.946072 0 0 0
-0.234920 1.718188 0.046728 0.091100 0.946072 0 0 0
-0.221290 0.618188 0.091661 0.000000 0.942183 0 0 0
-0.169368 0.618188 0.169367 0.936765 0.648600 0 0 0
-0.398311 0.618188 0.266142 0.946197 0.681719 0 0 0
-0.338736 0.618188 0.338735 0.933254 0.681534 0 0 0
-0.266143 0.618188 0.398310 0.920479 0.678959 0 0 0
-0.133071 0.618188 0.199155 0.930393 0.647275 0 0 0
-0.133071 0.618188 0.199155 0.544002 0.930701 0 0 0
-0.183322 0.618188 0.442579 0.522756 0.934554 0 0 0
-0.091661 0.618188 0.221289 0.542144 0.927028 0 0 0
-0.046728 0.618188 0.234920 0.541030 0.923068 0 0 0
-0.093457 0.618188 0.469839 0.520773 0.926823 0 0 0
0.000000 0.618188 0.479044 0.520094 0.919000 0 0 0
0.000000 0.618188 0.239522 0.540636 0.919000 0 0 0
-0.234920 0.618188 0.046728 0.278101 0.890015 0 0 0
-0.479044 0.618188 0.000000 0.257534 0.894008 0 0 0
-0.469840 0.618188 0.093456 0.258217 0.886281 0 0 0
-0.442579 0.618188 0.183322 0.260223 0.878684 0 0 0
-0.221290 0.618188 0.091661 0.279204 0.886135 0 0 0
-0.199155 0.618188 0.133071 0.281027 0.882525 0 0 0
-0.398311 0.618188 0.266142 0.263610 0.871463 0 0 0
-0.357479 0.418188 0.863029 0.483741 0.946913 0 0 0
-0.182241 0.418188 0.916187 0.481443 0.932764 0 0 0
0.000000 0.418188 0.934136 0.480857 0.919000 0 0 0
-0.934136 0.418188 0.000000 0.218370 0.894008 0 0 0
-0.916187 0.418188 0.182240 0.219253 0.880204 0 0 0
-0.863029 0.418188 0.357478 0.221823 0.866145 0 0 0
-0.776706 0.418188 0.518978 0.226134 0.851365 0 0 0
-0.776706 0.418188 0.518978 0.950616 0.751074 0 0 0
-0.660535 0.418188 0.660533 0.925914 0.748313 0 0 0
-0.518979 0.418188 0.776705 0.901126 0.745531 0 0 0
-0.266143 0.618188 0.398310 0.526166 0.941970 0 0 0
-0.916187 0.018188 0.182240 0.186511 0.877770 0 0 0
-0.863029 0.018188 0.357478 0.188183 0.861393 0 0 0
-0.776706 0.018188 0.518978 0.190853 0.844966 0 0 0
-0.660535 0.018188 0.660533 0.914078 0.855854 0 0 0
-1.483813 0.018188 1.226084 0.920643 0.796094 0 0 0
-0.776706 0.018188 0.518978 0.950616 0.848400 0 0 0
-1.367642 0.138188 1.367639 0.920650 0.796085 0 0 0
-1.226086 0.018188 1.483811 0.920645 0.796074 0 0 0
-0.518979 0.418188 0.776705 0.487696 0.961721 0 0 0
-0.357479 0.018188 0.863029 0.450964 0.951657 0 0 0
-0.182241 0.018188 0.916187 0.448907 0.935484 0 0 0
0.000000 0.018188 0.934136 0.448004 0.919000 0 0 0
-0.694734 2.010000 0.388552 0.394823 0.452836 0 0 0
-0.693071 2.010000 0.400667 0.394961 0.451833 0 0 0
-0.669132 2.010000 0.421128 0.396943 0.450138 0 0 0
-0.685796 2.010000 0.412944 0.395563 0.450816 0 0 0
-0.677545 2.010000 0.418494 0.396247 0.450357 0 0 0
-0.130869 2.010000 0.421128 0.441521 0.450138 0 0 0
-0.105266 2.010000 0.388552 0.443642 0.452836 0 0 0
-0.122455 2.010000 0.418494 0.442218 0.450357 0 0 0
-0.114204 2.010000 0.412944 0.442902 0.450816 0 0 0
-0.106928 2.010000 0.400667 0.443504 0.451833 0 0 0
-0.400000 2.010000 0.388552 0.419232 0.452836 0 0 0
-0.400000 2.010000 0.000000 0.419232 0.485016 0 0 0
-1.367642 0.018188 1.367639 0.920643 0.796084 0 0 0
-0.518979 0.018188 0.776705 0.880004 0.840656 0 0 0
-0.694734 2.010000 0.000000 0.394823 0.485016 0 0 0
0.495244 1.918188 2.489754 0.687958 0.010123 0 0 0
0.519206 1.918188 2.610219 0.688955 0.000000 0 0 0
0.971455 2.000000 2.345297 0.763109 0.469283 0 0 0
1.410334 1.918188 2.110711 0.801141 0.486547 0 0 0
1.410334 2.000000 2.110711 0.797377 0.492181 0 0 0
2.489754 2.000000 0.495241 0.873228 0.634089 0 0 0
2.538531 1.918188 0.000000 0.880004 0.675302 0 0 0
2.538531 2.000000 0.000000 0.873228 0.675302 0 0 0
1.795014 1.918188 1.795012 0.831310 0.516532 0 0 0
1.795014 2.000000 1.795012 0.826519 0.521323 0 0 0
2.110713 1.918188 1.410331 0.855050 0.551826 0 0 0
2.110713 2.000000 1.410331 0.849416 0.555591 0 0 0
0.495244 1.918188 2.489754 0.726354 0.446866 0 0 0
0.495244 2.000000 2.489754 0.725032 0.453512 0 0 0
2.345298 1.918188 0.971452 0.871448 0.591074 0 0 0
2.345298 2.000000 0.971452 0.865188 0.593667 0 0 0
0.971455 1.918188 2.345297 0.765702 0.463024 0 0 0
2.489754 1.918188 0.495241 0.879874 0.632767 0 0 0
2.489754 1.918188 0.495241 0.868535 0.158319 0 0 0
2.661355 1.918188 0.000000 0.886699 0.197744 0 0 0
2.538531 1.918188 0.000000 0.876575 0.198741 0 0 0
2.345298 1.918188 0.971452 0.852763 0.120243 0 0 0
2.610219 1.918188 0.519203 0.878269 0.155367 0 0 0
2.110713 1.918188 1.410331 0.829866 0.085975 0 0 0
2.458773 1.918188 1.018455 0.861734 0.115448 0 0 0
1.881864 1.918188 1.881862 0.807177 0.048969 0 0 0
2.212838 1.918188 1.478569 0.837729 0.079522 0 0 0
1.410334 1.918188 2.110711 0.766456 0.033935 0 0 0
1.795014 1.918188 1.795012 0.800724 0.056832 0 0 0
0.971455 1.918188 2.345297 0.728379 0.018163 0 0 0
1.478572 1.918188 2.212836 0.771251 0.024964 0 0 0
1.018458 1.918188 2.458772 0.731332 0.008429 0 0 0
0.467285 1.718188 2.349197 0.413183 0.167302 0 0 0
1.018458 1.918188 2.458772 0.423198 0.118701 0 0 0
0.519206 1.918188 2.610219 0.439761 0.159502 0 0 0
2.349197 1.718188 0.467283 0.244041 0.028042 0 0 0
2.661355 1.918188 0.000000 0.202360 0.000000 0 0 0
2.610219 1.918188 0.519203 0.246905 0.000156 0 0 0
2.212896 1.718188 0.916610 0.282094 0.035585 0 0 0
2.458773 1.918188 1.018455 0.290326 0.008909 0 0 0
1.991554 1.718188 1.330712 0.317863 0.050422 0 0 0
2.212838 1.918188 1.478569 0.331130 0.025916 0 0 0
1.881864 1.918188 1.881862 0.367788 0.050556 0 0 0
1.330714 1.718188 1.991553 0.377249 0.099378 0 0 0
1.478572 1.918188 2.212836 0.398885 0.081891 0 0 0
0.234920 1.718188 0.046728 0.216394 0.653310 0 0 0
2.395220 1.718188 0.000000 0.394823 0.666994 0 0 0
2.349197 1.718188 0.467283 0.387237 0.705133 0 0 0
0.221290 1.718188 0.091661 0.214906 0.656903 0 0 0
2.212896 1.718188 0.916610 0.372356 0.741060 0 0 0
1.991554 1.718188 1.330712 0.350752 0.773394 0 0 0
0.169368 1.718188 0.169367 0.209996 0.662886 0 0 0
1.693678 1.718188 1.693675 0.3230 0.800891 0 0 0
0.133071 1.718188 0.199155 0.206762 0.665046 0 0 0
1.330714 1.718188 1.991553 0.290922 0.822496 0 0 0
0.916612 1.718188 2.212895 0.254996 0.837378 0 0 0
0.046728 1.718188 0.234920 0.199356 0.667293 0 0 0
0.467285 1.718188 2.349197 0.216856 0.844965 0 0 0
0.199155 0.618188 0.133071 0.000000 0.899408 0 0 0
0.221290 1.718188 0.091661 0.091100 0.895519 0 0 0
0.199155 1.718188 0.133071 0.091100 0.899408 0 0 0
0.169368 0.618188 0.169367 0.000000 0.903296 0 0 0
0.169368 1.718188 0.169367 0.091100 0.903296 0 0 0
0.133071 0.618188 0.199155 0.000000 0.907185 0 0 0
0.133071 1.718188 0.199155 0.091100 0.907185 0 0 0
0.091661 0.618188 0.221289 0.000000 0.911074 0 0 0
0.091661 1.718188 0.221289 0.091100 0.911074 0 0 0
0.046728 0.618188 0.234920 0.000000 0.914962 0 0 0
0.046728 1.718188 0.234920 0.091100 0.914962 0 0 0
0.234920 0.618188 0.046728 0.000000 0.891630 0 0 0
0.239522 1.718188 0.000000 0.091100 0.887742 0 0 0
0.234920 1.718188 0.046728 0.091100 0.891630 0 0 0
0.221290 0.618188 0.091661 0.000000 0.895519 0 0 0
0.169368 0.618188 0.169367 0.913043 0.215480 0 0 0
0.398311 0.618188 0.266142 0.943349 0.112820 0 0 0
0.199155 0.618188 0.133071 0.933321 0.213330 0 0 0
0.266143 0.618188 0.398310 0.886699 0.111142 0 0 0
0.133071 0.618188 0.199155 0.891037 0.223561 0 0 0
0.183322 0.618188 0.442579 0.522756 0.903445 0 0 0
0.133071 0.618188 0.199155 0.544002 0.907298 0 0 0
0.091661 0.618188 0.221289 0.542144 0.910971 0 0 0
0.046728 0.618188 0.234920 0.541030 0.914931 0 0 0
0.234920 0.618188 0.046728 0.183137 0.898002 0 0 0
0.479044 0.618188 0.000000 0.162570 0.894008 0 0 0
0.239522 0.618188 0.000000 0.182750 0.894008 0 0 0
0.442579 0.618188 0.183322 0.165260 0.909333 0 0 0
0.221290 0.618188 0.091661 0.184240 0.901882 0 0 0
0.199155 0.618188 0.133071 0.186064 0.905492 0 0 0
0.093457 0.618188 0.469839 0.520773 0.911177 0 0 0
0.357479 0.418188 0.863029 0.483741 0.891086 0 0 0
0.469840 0.618188 0.093456 0.163254 0.901736 0 0 0
0.934136 0.418188 0.000000 0.123406 0.894008 0 0 0
0.863029 0.418188 0.357478 0.126859 0.921872 0 0 0
0.398311 0.618188 0.266142 0.168646 0.916554 0 0 0
0.338736 0.618188 0.338735 0.915504 0.111923 0 0 0
0.776706 0.418188 0.518978 0.943349 0.023029 0 0 0
0.518979 0.418188 0.776705 0.915160 0.019678 0 0 0
0.266143 0.618188 0.398310 0.526166 0.896030 0 0 0
0.916187 0.018188 0.182240 0.091547 0.910247 0 0 0
0.916187 0.418188 0.182240 0.124289 0.907813 0 0 0
0.863029 0.018188 0.357478 0.093219 0.926625 0 0 0
0.776706 0.018188 0.518978 0.095890 0.943051 0 0 0
0.776706 0.418188 0.518978 0.131170 0.936652 0 0 0
1.483813 0.018188 1.226084 0.933623 0.000000 0 0 0
0.660535 0.018188 0.660533 0.931279 0.009722 0 0 0
0.776706 0.018188 0.518978 0.939756 0.012825 0 0 0
1.367642 0.138188 1.367639 0.932924 0.003242 0 0 0
0.660535 0.418188 0.660533 0.929001 0.024512 0 0 0
0.357479 0.018188 0.863029 0.450964 0.886342 0 0 0
0.518979 0.418188 0.776705 0.487696 0.876278 0 0 0
0.182241 0.018188 0.916187 0.448907 0.902515 0 0 0
0.182241 0.418188 0.916187 0.481443 0.905235 0 0 0
0.694734 2.010000 0.388552 0.443642 0.522591 0 0 0
0.669132 2.010000 0.421128 0.441521 0.519893 0 0 0
0.693071 2.010000 0.400667 0.443504 0.521587 0 0 0
0.685796 2.010000 0.412944 0.442902 0.520571 0 0 0
0.677545 2.010000 0.418494 0.442218 0.520111 0 0 0
0.105266 2.010000 0.388552 0.394823 0.522591 0 0 0
0.130869 2.010000 0.421128 0.396943 0.519893 0 0 0
0.122455 2.010000 0.418494 0.396247 0.520111 0 0 0
0.106928 2.010000 0.400667 0.394961 0.521587 0 0 0
0.114204 2.010000 0.412944 0.395563 0.520570 0 0 0
0.400000 2.010000 0.388552 0.419232 0.522591 0 0 0
0.400000 2.010000 0.000000 0.419232 0.554770 0 0 0
1.367642 0.138188 1.367639 0.933439 0.002992 0 0 0
1.367642 0.018188 1.367639 0.932923 0.002274 0 0 0
1.226086 0.018188 1.483811 0.932524 0.003821 0 0 0
0.518979 0.018188 0.776705 0.922220 0.010681 0 0 0
0.694734 2.010000 0.000000 0.443642 0.554770 0 0 0
-0.495244 1.918188 -2.489754 0.646744 0.428573 0 0 0
0.000000 1.918188 -2.661356 0.688954 0.438696 0 0 0
-0.519206 1.918188 -2.610219 0.645747 0.438696 0 0 0
-0.971455 2.000000 -2.345297 0.564899 0.840108 0 0 0
-1.410334 1.918188 -2.110711 0.526867 0.822845 0 0 0
-1.410334 2.000000 -2.110711 0.530631 0.817211 0 0 0
-2.489754 2.000000 -0.495241 0.454779 0.675303 0 0 0
-2.538531 1.918188 0.000000 0.448004 0.634089 0 0 0
-1.795014 1.918188 -1.795012 0.496698 0.792860 0 0 0
-1.795014 2.000000 -1.795012 0.501489 0.788069 0 0 0
-2.110713 1.918188 -1.410331 0.472958 0.757565 0 0 0
-2.110713 2.000000 -1.410331 0.478592 0.753801 0 0 0
0.000000 2.000000 -2.538531 0.643397 0.863920 0 0 0
-0.495244 1.918188 -2.489754 0.601653 0.862525 0 0 0
-0.495244 2.000000 -2.489754 0.602975 0.855880 0 0 0
-2.345298 1.918188 -0.971452 0.456560 0.718317 0 0 0
-2.345298 2.000000 -0.971452 0.462820 0.715725 0 0 0
-0.971455 1.918188 -2.345297 0.562306 0.846368 0 0 0
-2.489754 1.918188 -0.495241 0.448134 0.676625 0 0 0
-2.489754 1.918188 -0.495241 0.466167 0.280376 0 0 0
-2.345298 1.918188 -0.971452 0.481939 0.318453 0 0 0
-2.610219 1.918188 -0.519203 0.456433 0.283329 0 0 0
-2.110713 1.918188 -1.410331 0.504836 0.352721 0 0 0
-2.458773 1.918188 -1.018455 0.472968 0.323248 0 0 0
-1.881864 1.918188 -1.881862 0.527525 0.389726 0 0 0
-2.212838 1.918188 -1.478569 0.496972 0.359174 0 0 0
-1.410334 1.918188 -2.110711 0.568246 0.404760 0 0 0
-1.795014 1.918188 -1.795012 0.533978 0.381863 0 0 0
-0.971455 1.918188 -2.345297 0.606322 0.420532 0 0 0
-1.478572 1.918188 -2.212836 0.563451 0.413731 0 0 0
-1.018458 1.918188 -2.458772 0.603369 0.430266 0 0 0
-0.467285 1.718188 -2.349197 0.035366 0.282860 0 0 0
-1.018458 1.918188 -2.458772 0.0083 0.331725 0 0 0
-0.519206 1.918188 -2.610219 0.008717 0.290866 0 0 0
0.000000 1.918188 -2.661356 0.000147 0.247662 0 0 0
-2.349197 1.718188 -0.467283 0.205495 0.422207 0 0 0
-2.610219 1.918188 -0.519203 0.202715 0.450138 0 0 0
-2.212896 1.718188 -0.916610 0.167363 0.414722 0 0 0
-2.458773 1.918188 -1.018455 0.159169 0.441473 0 0 0
-1.991554 1.718188 -1.330712 0.131488 0.399906 0 0 0
-2.212838 1.918188 -1.478569 0.118234 0.424503 0 0 0
-1.881864 1.918188 -1.881862 0.081423 0.399883 0 0 0
-1.330714 1.718188 -1.991553 0.071785 0.350925 0 0 0
-1.478572 1.918188 -2.212836 0.050135 0.368552 0 0 0
-0.234920 1.718188 -0.046728 0.178429 0.641794 0 0 0
-2.349197 1.718188 -0.467283 0.007586 0.589971 0 0 0
-0.221290 1.718188 -0.091661 0.179917 0.638201 0 0 0
-2.212896 1.718188 -0.916610 0.022467 0.554044 0 0 0
-1.991554 1.718188 -1.330712 0.044071 0.521710 0 0 0
-0.169368 1.718188 -0.169367 0.184827 0.632218 0 0 0
-1.693678 1.718188 -1.693675 0.071568 0.494213 0 0 0
-0.133071 1.718188 -0.199155 0.188061 0.630058 0 0 0
-1.330714 1.718188 -1.991553 0.103901 0.472608 0 0 0
-0.916612 1.718188 -2.212895 0.139827 0.457726 0 0 0
-0.046728 1.718188 -0.234920 0.195467 0.627811 0 0 0
-0.467285 1.718188 -2.349197 0.177967 0.450139 0 0 0
0.000000 1.718188 -2.395221 0.216854 0.450138 0 0 0
-0.199155 0.618188 -0.133071 0.000000 0.961627 0 0 0
-0.221290 1.718188 -0.091661 0.091100 0.957738 0 0 0
-0.199155 1.718188 -0.133071 0.091100 0.961627 0 0 0
-0.169368 0.618188 -0.169367 0.000000 0.965515 0 0 0
-0.169368 1.718188 -0.169367 0.091100 0.965515 0 0 0
-0.133071 0.618188 -0.199155 0.000000 0.969404 0 0 0
-0.133071 1.718188 -0.199155 0.091100 0.969404 0 0 0
-0.091661 0.618188 -0.221289 0.000000 0.848855 0 0 0
-0.133071 1.718188 -0.199155 0.091100 0.844966 0 0 0
-0.091661 1.718188 -0.221289 0.091100 0.848855 0 0 0
-0.046728 0.618188 -0.234920 0.000000 0.852743 0 0 0
-0.046728 1.718188 -0.234920 0.091100 0.852743 0 0 0
0.000000 0.618188 -0.239522 0.000000 0.856632 0 0 0
0.000000 1.718188 -0.239522 0.091100 0.856632 0 0 0
-0.234920 0.618188 -0.046728 0.000000 0.953849 0 0 0
-0.234920 1.718188 -0.046728 0.091100 0.953849 0 0 0
-0.221290 0.618188 -0.091661 0.000000 0.957738 0 0 0
-0.169368 0.618188 -0.169367 0.969694 0.215480 0 0 0
-0.398311 0.618188 -0.266142 1.000000 0.112820 0 0 0
-0.199155 0.618188 -0.133071 0.989971 0.213330 0 0 0
-0.266143 0.618188 -0.398310 0.943349 0.111142 0 0 0
-0.133071 0.618188 -0.199155 0.947687 0.223560 0 0 0
-0.183322 0.618188 -0.442579 0.355780 0.877715 0 0 0
-0.133071 0.618188 -0.199155 0.377026 0.881568 0 0 0
-0.091661 0.618188 -0.221289 0.375167 0.885241 0 0 0
-0.046728 0.618188 -0.234920 0.374053 0.889201 0 0 0
0.000000 0.618188 -0.479044 0.353117 0.893270 0 0 0
0.000000 0.618188 -0.239522 0.373660 0.893270 0 0 0
-0.234920 0.618188 -0.046728 0.278101 0.898002 0 0 0
-0.239522 0.618188 0.000000 0.277714 0.894008 0 0 0
-0.442579 0.618188 -0.183322 0.260223 0.909333 0 0 0
-0.221290 0.618188 -0.091661 0.279204 0.901881 0 0 0
-0.199155 0.618188 -0.133071 0.281027 0.905492 0 0 0
-0.093457 0.618188 -0.469839 0.353797 0.885447 0 0 0
-0.357479 0.418188 -0.863029 0.316765 0.865356 0 0 0
0.000000 0.418188 -0.934136 0.313881 0.893270 0 0 0
-0.469840 0.618188 -0.093456 0.258217 0.901736 0 0 0
-0.863029 0.418188 -0.357478 0.221823 0.921872 0 0 0
-0.398311 0.618188 -0.266142 0.263610 0.916554 0 0 0
-0.338736 0.618188 -0.338735 0.972155 0.111923 0 0 0
-0.776706 0.418188 -0.518978 1.000000 0.023029 0 0 0
-0.518979 0.418188 -0.776705 0.971811 0.019678 0 0 0
-0.266143 0.618188 -0.398310 0.359189 0.870300 0 0 0
-0.916187 0.018188 -0.182240 0.186511 0.910247 0 0 0
-0.916187 0.418188 -0.182240 0.219253 0.907813 0 0 0
-0.863029 0.018188 -0.357478 0.188183 0.926625 0 0 0
-0.776706 0.018188 -0.518978 0.190853 0.943051 0 0 0
-0.776706 0.418188 -0.518978 0.226134 0.936652 0 0 0
-1.483813 0.018188 -1.226084 0.990274 0.000000 0 0 0
-0.660535 0.018188 -0.660533 0.987929 0.009722 0 0 0
-0.776706 0.018188 -0.518978 0.996407 0.012825 0 0 0
-1.367642 0.138188 -1.367639 0.989575 0.003242 0 0 0
-0.660535 0.418188 -0.660533 0.985651 0.024512 0 0 0
-0.357479 0.018188 -0.863029 0.283987 0.860612 0 0 0
-0.518979 0.418188 -0.776705 0.320719 0.850548 0 0 0
-0.182241 0.018188 -0.916187 0.281931 0.876785 0 0 0
-0.182241 0.418188 -0.916187 0.314467 0.879505 0 0 0
0.000000 0.018188 -0.934136 0.281027 0.893270 0 0 0
-0.694734 2.010000 -0.388552 0.394823 0.517195 0 0 0
-0.669132 2.010000 -0.421128 0.396943 0.519893 0 0 0
-0.693071 2.010000 -0.400667 0.394961 0.518198 0 0 0
-0.685796 2.010000 -0.412944 0.395563 0.519215 0 0 0
-0.677545 2.010000 -0.418494 0.396247 0.519675 0 0 0
-0.105266 2.010000 -0.388552 0.443642 0.517195 0 0 0
-0.130869 2.010000 -0.421128 0.441521 0.519893 0 0 0
-0.122455 2.010000 -0.418494 0.442218 0.519675 0 0 0
-0.106928 2.010000 -0.400667 0.443504 0.518198 0 0 0
-0.114204 2.010000 -0.412944 0.442902 0.519215 0 0 0
-0.400000 2.010000 -0.388552 0.419232 0.517195 0 0 0
-1.367642 0.138188 -1.367639 0.990090 0.002992 0 0 0
-1.367642 0.018188 -1.367639 0.989574 0.002274 0 0 0
-1.226086 0.018188 -1.483811 0.989174 0.003821 0 0 0
-0.518979 0.018188 -0.776705 0.978870 0.010681 0 0 0
0.495244 1.918188 -2.489754 0.728379 0.420532 0 0 0
0.000000 1.918188 -2.538531 0.687957 0.428573 0 0 0
1.410334 1.918188 -2.110711 0.765702 0.846368 0 0 0
0.971455 2.000000 -2.345297 0.725033 0.855880 0 0 0
1.410334 2.000000 -2.110711 0.763109 0.840108 0 0 0
2.538531 1.918188 0.000000 0.879874 0.676624 0 0 0
2.489754 2.000000 -0.495241 0.865188 0.715724 0 0 0
1.795014 1.918188 -1.795012 0.801141 0.822845 0 0 0
1.795014 2.000000 -1.795012 0.797377 0.817211 0 0 0
2.110713 1.918188 -1.410331 0.831310 0.792860 0 0 0
2.110713 2.000000 -1.410331 0.826519 0.788068 0 0 0
0.495244 1.918188 -2.489754 0.684611 0.870696 0 0 0
0.495244 2.000000 -2.489754 0.684611 0.863920 0 0 0
2.345298 1.918188 -0.971452 0.855050 0.757565 0 0 0
2.345298 2.000000 -0.971452 0.849416 0.753801 0 0 0
0.971455 1.918188 -2.345297 0.726354 0.862525 0 0 0
2.489754 1.918188 -0.495241 0.871448 0.718317 0 0 0
2.489754 1.918188 -0.495241 0.876575 0.239955 0 0 0
2.610219 1.918188 -0.519203 0.886699 0.240952 0 0 0
2.345298 1.918188 -0.971452 0.868535 0.280377 0 0 0
2.458773 1.918188 -1.018455 0.878269 0.283330 0 0 0
2.110713 1.918188 -1.410331 0.852763 0.318453 0 0 0
1.881864 1.918188 -1.881862 0.837729 0.359174 0 0 0
1.795014 1.918188 -1.795012 0.829866 0.352721 0 0 0
1.410334 1.918188 -2.110711 0.800723 0.381864 0 0 0
1.478572 1.918188 -2.212836 0.807177 0.389727 0 0 0
0.971455 1.918188 -2.345297 0.766455 0.404761 0 0 0
1.018458 1.918188 -2.458772 0.771250 0.413732 0 0 0
1.018458 1.918188 -2.458772 0.008441 0.160215 0 0 0
0.467285 1.718188 -2.349197 0.027713 0.206193 0 0 0
0.519206 1.918188 -2.610219 0.000000 0.203616 0 0 0
0.000000 1.718188 -2.395221 0.027686 0.244910 0 0 0
2.349197 1.718188 -0.467283 0.166906 0.035665 0 0 0
2.610219 1.918188 -0.519203 0.158614 0.008838 0 0 0
2.212896 1.718188 -0.916610 0.131005 0.050611 0 0 0
2.458773 1.918188 -1.018455 0.117639 0.026009 0 0 0
1.991554 1.718188 -1.330712 0.098767 0.072293 0 0 0
2.212838 1.918188 -1.478569 0.080870 0.050806 0 0 0
1.881864 1.918188 -1.881862 0.049665 0.082281 0 0 0
1.693678 1.718188 -1.693675 0.071401 0.099852 0 0 0
1.330714 1.718188 -1.991553 0.049941 0.132218 0 0 0
1.478572 1.918188 -2.212836 0.025208 0.119229 0 0 0
0.916612 1.718188 -2.212895 0.035200 0.168132 0 0 0
0.234920 1.718188 -0.046728 0.217152 0.645607 0 0 0
2.349197 1.718188 -0.467283 0.394823 0.628107 0 0 0
0.221290 1.718188 -0.091661 0.216394 0.641793 0 0 0
2.212896 1.718188 -0.916610 0.387238 0.589967 0 0 0
1.991554 1.718188 -1.330712 0.372357 0.554040 0 0 0
0.199155 1.718188 -0.133071 0.214905 0.638201 0 0 0
0.169368 1.718188 -0.169367 0.212745 0.634968 0 0 0
1.693678 1.718188 -1.693675 0.350752 0.521707 0 0 0
0.133071 1.718188 -0.199155 0.209996 0.632218 0 0 0
1.330714 1.718188 -1.991553 0.3230 0.494209 0 0 0
0.916612 1.718188 -2.212895 0.290921 0.472605 0 0 0
0.091661 1.718188 -0.221289 0.206762 0.630058 0 0 0
0.046728 1.718188 -0.234920 0.203170 0.628569 0 0 0
0.467285 1.718188 -2.349197 0.254994 0.457724 0 0 0
0.000000 1.718188 -0.239522 0.199356 0.627811 0 0 0
0.221290 1.718188 -0.091661 0.091100 0.879964 0 0 0
0.199155 0.618188 -0.133071 0.000000 0.876076 0 0 0
0.199155 1.718188 -0.133071 0.091100 0.876076 0 0 0
0.169368 0.618188 -0.169367 0.000000 0.872187 0 0 0
0.169368 1.718188 -0.169367 0.091100 0.872187 0 0 0
0.133071 0.618188 -0.199155 0.000000 0.868298 0 0 0
0.133071 1.718188 -0.199155 0.091100 0.868298 0 0 0
0.091661 0.618188 -0.221289 0.000000 0.864409 0 0 0
0.091661 1.718188 -0.221289 0.091100 0.864409 0 0 0
0.046728 0.618188 -0.234920 0.000000 0.860521 0 0 0
0.046728 1.718188 -0.234920 0.091100 0.860521 0 0 0
0.234920 0.618188 -0.046728 0.000000 0.883853 0 0 0
0.234920 1.718188 -0.046728 0.091100 0.883853 0 0 0
0.221290 0.618188 -0.091661 0.000000 0.879964 0 0 0
0.169368 0.618188 -0.169367 0.936765 0.440021 0 0 0
0.398311 0.618188 -0.266142 0.946197 0.473140 0 0 0
0.338736 0.618188 -0.338735 0.933254 0.472955 0 0 0
0.266143 0.618188 -0.398310 0.920479 0.470380 0 0 0
0.133071 0.618188 -0.199155 0.930393 0.438696 0 0 0
0.133071 0.618188 -0.199155 0.377026 0.904971 0 0 0
0.183322 0.618188 -0.442579 0.355780 0.908824 0 0 0
0.091661 0.618188 -0.221289 0.375167 0.901298 0 0 0
0.046728 0.618188 -0.234920 0.374053 0.897338 0 0 0
0.093457 0.618188 -0.469839 0.353797 0.901093 0 0 0
0.234920 0.618188 -0.046728 0.183137 0.890015 0 0 0
0.469840 0.618188 -0.093456 0.163254 0.886281 0 0 0
0.442579 0.618188 -0.183322 0.165260 0.878684 0 0 0
0.221290 0.618188 -0.091661 0.184240 0.886136 0 0 0
0.199155 0.618188 -0.133071 0.186064 0.882525 0 0 0
0.398311 0.618188 -0.266142 0.168646 0.871463 0 0 0
0.357479 0.418188 -0.863029 0.316765 0.921183 0 0 0
0.182241 0.418188 -0.916187 0.314467 0.907034 0 0 0
0.916187 0.418188 -0.182240 0.124289 0.880204 0 0 0
0.863029 0.418188 -0.357478 0.126859 0.866145 0 0 0
0.776706 0.418188 -0.518978 0.131170 0.851365 0 0 0
0.776706 0.418188 -0.518978 0.950616 0.542495 0 0 0
0.660535 0.418188 -0.660533 0.925914 0.539733 0 0 0
0.518979 0.418188 -0.776705 0.901126 0.536952 0 0 0
0.266143 0.618188 -0.398310 0.359189 0.916240 0 0 0
0.916187 0.018188 -0.182240 0.091547 0.877770 0 0 0
0.863029 0.018188 -0.357478 0.093219 0.861392 0 0 0
0.776706 0.018188 -0.518978 0.095890 0.844966 0 0 0
0.660535 0.018188 -0.660533 0.914078 0.647275 0 0 0
1.483813 0.018188 -1.226084 0.920643 0.587515 0 0 0
0.776706 0.018188 -0.518978 0.950616 0.639821 0 0 0
1.367642 0.138188 -1.367639 0.920650 0.587506 0 0 0
1.226086 0.018188 -1.483811 0.920645 0.587495 0 0 0
0.518979 0.418188 -0.776705 0.320719 0.935991 0 0 0
0.357479 0.018188 -0.863029 0.283987 0.925927 0 0 0
0.182241 0.018188 -0.916187 0.281931 0.909754 0 0 0
0.694734 2.010000 -0.388552 0.443642 0.586949 0 0 0
0.693071 2.010000 -0.400667 0.443504 0.587952 0 0 0
0.669132 2.010000 -0.421128 0.441521 0.589647 0 0 0
0.685796 2.010000 -0.412944 0.442902 0.588969 0 0 0
0.677545 2.010000 -0.418494 0.442218 0.589429 0 0 0
0.130869 2.010000 -0.421128 0.396943 0.589647 0 0 0
0.105266 2.010000 -0.388552 0.394823 0.586949 0 0 0
0.122455 2.010000 -0.418494 0.396247 0.589429 0 0 0
0.114204 2.010000 -0.412944 0.395563 0.588969 0 0 0
0.106928 2.010000 -0.400667 0.394961 0.587952 0 0 0
0.400000 2.010000 -0.388552 0.419232 0.586949 0 0 0
1.367642 0.018188 -1.367639 0.920643 0.587505 0 0 0
0.518979 0.018188 -0.776705 0.880004 0.632077 0 0 0
-0.519206 1.918188 2.610219 0.603370 0.008430 0 0 0
-0.971455 1.918188 2.345297 0.600382 0.447252 0 0 0
-2.489754 1.918188 0.495241 0.456174 0.592346 0 0 0
-1.410334 1.918188 2.110711 0.561134 0.463650 0 0 0
-1.795014 1.918188 1.795012 0.525840 0.487390 0 0 0
0.000000 1.918188 2.538531 0.684610 0.438696 0 0 0
-2.110713 1.918188 1.410331 0.495855 0.517559 0 0 0
-0.495244 1.918188 2.489754 0.642075 0.438826 0 0 0
-2.345298 1.918188 0.971452 0.472331 0.552998 0 0 0
-2.212838 1.918188 1.478569 0.472968 0.115448 0 0 0
-2.395220 1.718188 0.000000 0.244445 0.421996 0 0 0
-0.239522 1.718188 0.000000 0.177670 0.645608 0 0 0
-0.239522 0.618188 0.000000 0.000000 0.949961 0 0 0
-0.199155 0.618188 0.133071 0.943277 0.648659 0 0 0
-0.934136 0.018188 0.000000 0.186064 0.894008 0 0 0
-0.518979 0.018188 0.776705 0.453519 0.967303 0 0 0
-0.105266 2.010000 0.000000 0.443642 0.485016 0 0 0
0.971455 1.918188 2.345297 0.766873 0.463650 0 0 0
2.489754 1.918188 0.495241 0.880004 0.634089 0 0 0
1.410334 1.918188 2.110711 0.802168 0.487389 0 0 0
1.795014 1.918188 1.795012 0.832153 0.517559 0 0 0
0.000000 1.918188 2.538531 0.685932 0.438826 0 0 0
2.110713 1.918188 1.410331 0.855676 0.552998 0 0 0
0.495244 1.918188 2.489754 0.727625 0.447252 0 0 0
2.345298 1.918188 0.971452 0.871833 0.592345 0 0 0
0.916612 1.718188 2.212895 0.398586 0.131581 0 0 0
2.395220 1.718188 0.000000 0.205140 0.028109 0 0 0
1.693678 1.718188 1.693675 0.349990 0.071967 0 0 0
0.239522 1.718188 0.000000 0.217152 0.649496 0 0 0
0.199155 1.718188 0.133071 0.212745 0.660136 0 0 0
0.091661 1.718188 0.221289 0.203170 0.666534 0 0 0
0.239522 0.618188 0.000000 0.000000 0.887742 0 0 0
0.934136 0.018188 0.000000 0.091100 0.894008 0 0 0
0.518979 0.018188 0.776705 0.453519 0.870696 0 0 0
0.105266 2.010000 0.000000 0.394823 0.554770 0 0 0
-0.971455 1.918188 -2.345297 0.561135 0.845742 0 0 0
-2.489754 1.918188 -0.495241 0.448004 0.675303 0 0 0
-1.410334 1.918188 -2.110711 0.525840 0.822002 0 0 0
-1.795014 1.918188 -1.795012 0.495855 0.791833 0 0 0
0.000000 1.918188 -2.538531 0.642075 0.870566 0 0 0
-2.110713 1.918188 -1.410331 0.472332 0.756394 0 0 0
-0.495244 1.918188 -2.489754 0.600382 0.862140 0 0 0
-2.345298 1.918188 -0.971452 0.456174 0.717046 0 0 0
-0.916612 1.718188 -2.212895 0.050231 0.318670 0 0 0
-1.693678 1.718188 -1.693675 0.099220 0.378360 0 0 0
-0.199155 1.718188 -0.133071 0.182078 0.634968 0 0 0
-0.091661 1.718188 -0.221289 0.191653 0.628570 0 0 0
-0.133071 0.618188 -0.199155 0.000000 0.844966 0 0 0
-0.518979 0.018188 -0.776705 0.286543 0.844966 0 0 0
0.519206 1.918188 -2.610219 0.731332 0.430267 0 0 0
0.971455 1.918188 -2.345297 0.727625 0.862140 0 0 0
2.489754 1.918188 -0.495241 0.871833 0.717046 0 0 0
1.410334 1.918188 -2.110711 0.766873 0.845742 0 0 0
1.795014 1.918188 -1.795012 0.802168 0.822002 0 0 0
0.000000 1.918188 -2.538531 0.643397 0.870696 0 0 0
2.110713 1.918188 -1.410331 0.832153 0.791833 0 0 0
0.495244 1.918188 -2.489754 0.685933 0.870566 0 0 0
2.345298 1.918188 -0.971452 0.855676 0.756393 0 0 0
2.212838 1.918188 -1.478569 0.861734 0.323248 0 0 0
0.199155 0.618188 -0.133071 0.943277 0.440080 0 0 0
0.518979 0.018188 -0.776705 0.286543 0.941573 0 0 0
3 0 1 2
3 3 4 5
3 6 7 8
3 9 5 10
3 11 10 12
3 13 14 15
3 16 12 17
3 18 15 4
3 19 17 7
3 20 21 22
3 23 24 21
3 25 26 24
3 26 27 28
3 27 29 28
3 30 31 29
3 32 0 31
3 17 33 7
3 4 33 5
3 7 33 8
3 5 33 10
3 10 33 12
3 14 33 15
3 12 33 17
3 15 33 4
3 34 35 36
3 37 35 38
3 39 40 41
3 41 42 43
3 43 44 45
3 46 44 47
3 46 48 49
3 34 48 50
3 51 52 53
3 53 54 55
3 56 54 57
3 56 58 59
3 59 60 61
3 62 60 63
3 62 64 65
3 66 64 67
3 68 69 70
3 70 71 72
3 72 73 74
3 74 75 76
3 76 77 78
3 78 79 80
3 81 82 83
3 83 84 68
3 85 86 87
3 85 88 89
3 90 91 92
3 93 91 94
3 93 95 96
3 97 98 99
3 97 100 101
3 102 100 103
3 94 104 105
3 94 106 95
3 99 107 108
3 99 109 100
3 103 109 110
3 87 111 112
3 87 113 88
3 114 104 91
3 107 115 108
3 108 116 109
3 109 117 110
3 118 119 120
3 113 121 122
3 123 124 104
3 104 125 105
3 105 126 106
3 127 128 129
3 130 131 128
3 129 132 133
3 134 135 136
3 136 132 134
3 131 129 128
3 136 133 132
3 129 137 127
3 133 138 137
3 121 119 139
3 122 121 139
3 111 121 112
3 118 122 139
3 140 113 122
3 111 120 119
3 137 141 127
3 142 1 143
3 144 145 146
3 147 148 149
3 146 150 151
3 151 152 153
3 14 154 155
3 153 156 157
3 155 158 144
3 157 159 147
3 160 161 162
3 163 164 160
3 165 166 163
3 165 167 168
3 169 167 170
3 171 172 169
3 142 173 171
3 157 147 33
3 144 146 33
3 147 149 33
3 146 151 33
3 151 153 33
3 14 155 33
3 153 157 33
3 155 144 33
3 174 175 176
3 37 174 176
3 177 178 179
3 180 179 181
3 182 181 183
3 184 182 183
3 185 184 186
3 175 185 186
3 187 188 189
3 190 189 191
3 192 190 191
3 193 192 194
3 195 194 196
3 197 195 196
3 198 197 199
3 66 198 199
3 200 201 202
3 203 202 204
3 205 204 206
3 207 206 208
3 209 208 210
3 79 210 80
3 211 212 213
3 214 213 201
3 215 216 217
3 218 215 219
3 220 221 222
3 223 220 222
3 95 223 96
3 224 225 226
3 227 224 228
3 229 227 228
3 230 231 220
3 106 230 95
3 232 233 225
3 234 232 227
3 235 234 227
3 236 237 216
3 238 236 218
3 231 239 220
3 240 233 241
3 242 241 234
3 243 234 244
3 245 246 247
3 238 248 249
3 250 251 231
3 252 231 253
3 126 253 106
3 254 255 256
3 257 256 258
3 255 259 260
3 261 262 263
3 262 261 260
3 258 256 255
3 262 260 259
3 264 255 254
3 265 259 264
3 266 267 245
3 268 267 266
3 248 237 249
3 246 268 269
3 269 268 238
3 237 245 247
3 270 264 254
3 271 272 273
3 274 275 276
3 277 278 8
3 276 279 280
3 280 281 282
3 283 284 285
3 282 286 287
3 285 288 274
3 287 289 277
3 290 20 22
3 291 292 290
3 293 294 291
3 293 295 296
3 297 295 298
3 299 300 297
3 271 301 299
3 287 277 33
3 274 276 33
3 277 8 33
3 276 280 33
3 280 282 33
3 283 285 33
3 282 287 33
3 285 274 33
3 302 303 304
3 305 302 304
3 306 39 307
3 308 307 309
3 310 309 311
3 312 310 311
3 313 312 314
3 303 313 314
3 315 51 316
3 317 316 318
3 319 317 318
3 320 319 321
3 322 321 323
3 324 322 323
3 325 324 326
3 327 325 326
3 328 329 330
3 331 330 332
3 333 332 334
3 335 336 337
3 338 337 339
3 340 339 341
3 342 81 343
3 344 343 329
3 345 346 347
3 348 345 349
3 350 351 352
3 353 350 352
3 354 353 355
3 356 98 357
3 358 356 359
3 360 358 359
3 361 362 350
3 363 361 354
3 364 107 98
3 365 364 358
3 366 365 358
3 367 368 346
3 369 367 348
3 362 370 350
3 371 107 372
3 373 372 365
3 374 365 375
3 376 377 378
3 369 379 380
3 381 382 362
3 383 362 384
3 385 384 363
3 386 387 388
3 389 388 390
3 387 391 392
3 393 394 395
3 394 393 392
3 390 388 387
3 394 392 391
3 396 387 386
3 138 391 396
3 397 398 376
3 399 398 397
3 379 368 380
3 377 399 400
3 400 399 369
3 368 376 378
3 141 396 386
3 401 272 402
3 403 404 405
3 406 407 149
3 408 405 409
3 410 409 411
3 412 283 413
3 414 411 415
3 416 413 404
3 417 415 407
3 161 418 162
3 419 420 418
3 421 422 420
3 422 423 424
3 423 425 424
3 426 427 425
3 428 401 427
3 415 33 407
3 404 33 405
3 407 33 149
3 405 33 409
3 409 33 411
3 283 33 413
3 411 33 415
3 413 33 404
3 429 430 431
3 305 430 432
3 178 433 434
3 434 435 436
3 436 437 438
3 439 437 440
3 439 441 442
3 429 441 443
3 188 444 445
3 445 446 447
3 448 446 449
3 448 450 451
3 451 452 453
3 454 452 455
3 454 456 457
3 327 456 458
3 459 460 461
3 461 462 463
3 463 464 465
3 465 466 467
3 467 468 469
3 469 340 341
3 212 470 471
3 471 472 459
3 473 474 475
3 473 476 477
3 478 479 480
3 481 479 482
3 481 354 355
3 483 225 484
3 483 485 486
3 487 485 488
3 482 489 490
3 482 363 354
3 484 233 491
3 484 492 485
3 488 492 493
3 475 494 495
3 475 496 476
3 497 489 479
3 233 498 491
3 491 499 492
3 492 500 493
3 501 502 503
3 496 504 505
3 506 507 489
3 489 508 490
3 490 385 363
3 509 510 511
3 512 513 510
3 511 514 515
3 516 517 518
3 518 514 516
3 513 511 510
3 518 515 514
3 511 519 509
3 515 265 519
3 504 502 520
3 505 504 520
3 494 504 495
3 501 505 520
3 521 496 505
3 494 503 502
3 519 270 509
3 0 522 1
3 3 523 4
3 6 524 7
3 9 525 5
3 11 526 10
3 13 527 14
3 16 528 12
3 18 529 15
3 19 530 17
3 20 23 21
3 23 25 24
3 25 531 26
3 26 531 27
3 27 30 29
3 30 32 31
3 32 522 0
3 34 50 35
3 37 36 35
3 39 532 40
3 41 40 42
3 43 42 44
3 46 45 44
3 46 47 48
3 34 49 48
3 51 533 52
3 53 52 54
3 56 55 54
3 56 57 58
3 59 58 60
3 62 61 60
3 62 63 64
3 66 65 64
3 68 84 69
3 70 69 71
3 72 71 73
3 74 73 75
3 76 75 77
3 78 77 79
3 81 534 82
3 83 82 84
3 85 535 86
3 85 87 88
3 90 114 91
3 93 92 91
3 93 94 95
3 97 357 98
3 97 99 100
3 102 101 100
3 94 91 104
3 94 105 106
3 99 98 107
3 99 108 109
3 103 100 109
3 87 86 111
3 87 112 113
3 114 123 104
3 107 536 115
3 108 115 116
3 109 116 117
3 118 139 119
3 113 112 121
3 123 537 124
3 104 124 125
3 105 125 126
3 129 133 137
3 133 538 138
3 111 119 121
3 118 140 122
3 137 138 141
3 142 2 1
3 144 539 145
3 147 540 148
3 146 541 150
3 151 542 152
3 14 543 154
3 153 544 156
3 155 545 158
3 157 546 159
3 160 164 161
3 163 166 164
3 165 168 166
3 165 170 167
3 169 172 167
3 171 173 172
3 142 143 173
3 174 547 175
3 37 38 174
3 177 548 178
3 180 177 179
3 182 180 181
3 184 549 182
3 185 549 184
3 175 547 185
3 187 550 188
3 190 187 189
3 192 551 190
3 193 551 192
3 195 193 194
3 197 552 195
3 198 552 197
3 66 67 198
3 200 214 201
3 203 200 202
3 205 203 204
3 207 205 206
3 209 207 208
3 79 209 210
3 211 553 212
3 214 211 213
3 215 236 216
3 218 236 215
3 220 239 221
3 223 230 220
3 95 230 223
3 224 232 225
3 227 232 224
3 229 235 227
3 230 253 231
3 106 253 230
3 232 241 233
3 234 241 232
3 235 244 234
3 236 249 237
3 238 249 236
3 231 251 239
3 240 554 233
3 242 240 241
3 243 242 234
3 245 267 246
3 238 268 248
3 250 555 251
3 252 250 231
3 126 252 253
3 264 259 255
3 265 556 259
3 248 245 237
3 246 267 268
3 270 265 264
3 271 402 272
3 274 557 275
3 277 558 278
3 276 559 279
3 280 560 281
3 283 561 284
3 282 562 286
3 285 563 288
3 287 564 289
3 290 292 20
3 291 294 292
3 293 296 294
3 293 298 295
3 297 300 295
3 299 301 300
3 271 273 301
3 302 565 303
3 305 432 302
3 306 532 39
3 308 306 307
3 310 308 309
3 312 566 310
3 313 566 312
3 303 565 313
3 315 533 51
3 317 315 316
3 319 567 317
3 320 567 319
3 322 320 321
3 324 568 322
3 325 568 324
3 327 458 325
3 328 344 329
3 331 328 330
3 333 331 332
3 335 569 336
3 338 335 337
3 340 338 339
3 342 534 81
3 344 342 343
3 345 367 346
3 348 367 345
3 350 370 351
3 353 361 350
3 354 361 353
3 356 364 98
3 358 364 356
3 360 366 358
3 361 384 362
3 363 384 361
3 364 372 107
3 365 372 364
3 366 375 365
3 367 380 368
3 369 380 367
3 362 382 370
3 371 536 107
3 373 371 372
3 374 373 365
3 376 398 377
3 369 399 379
3 381 570 382
3 383 381 362
3 385 383 384
3 396 391 387
3 138 538 391
3 379 376 368
3 377 398 399
3 141 138 396
3 401 571 272
3 403 572 404
3 406 573 407
3 408 574 405
3 410 575 409
3 412 576 283
3 414 577 411
3 416 578 413
3 417 579 415
3 161 419 418
3 419 421 420
3 421 580 422
3 422 580 423
3 423 426 425
3 426 428 427
3 428 571 401
3 429 443 430
3 305 431 430
3 178 548 433
3 434 433 435
3 436 435 437
3 439 438 437
3 439 440 441
3 429 442 441
3 188 550 444
3 445 444 446
3 448 447 446
3 448 449 450
3 451 450 452
3 454 453 452
3 454 455 456
3 327 457 456
3 459 472 460
3 461 460 462
3 463 462 464
3 465 464 466
3 467 466 468
3 469 468 340
3 212 553 470
3 471 470 472
3 473 581 474
3 473 475 476
3 478 497 479
3 481 480 479
3 481 482 354
3 483 226 225
3 483 484 485
3 487 486 485
3 482 479 489
3 482 490 363
3 484 225 233
3 484 491 492
3 488 485 492
3 475 474 494
3 475 495 496
3 497 506 489
3 233 554 498
3 491 498 499
3 492 499 500
3 501 520 502
3 496 495 504
3 506 582 507
3 489 507 508
3 490 508 385
3 511 515 519
3 515 556 265
3 494 502 504
3 501 521 505
3 519 265 270
