ply
format ascii 1.0
comment Created by Blender 2.79 (sub 0) - www.blender.org, source file: 'table.blend'
element vertex 418
property float x
property float y
property float z
property uchar red
property uchar green
property uchar blue
element face 640
property list uchar uint vertex_indices
end_header
-0.495244 1.918188 2.489754 48 32 19
0.000000 1.918188 2.661356 61 41 23
0.000000 1.918188 2.538531 48 32 19
-1.410334 1.918188 2.110711 48 32 19
-0.971455 2.000000 2.345297 61 41 23
-1.410334 2.000000 2.110711 61 41 23
-2.538531 1.918188 0.000000 48 32 19
-2.489754 2.000000 0.495241 61 41 23
-2.538531 2.000000 0.000000 62 41 23
-1.795014 1.918188 1.795012 48 32 19
-1.795014 2.000000 1.795012 58 41 23
-2.110713 1.918188 1.410331 48 32 19
-2.110713 2.000000 1.410331 58 41 23
0.000000 2.000000 2.538531 61 41 23
-0.495244 2.000000 2.489754 61 41 23
-2.345298 1.918188 0.971452 48 32 19
-2.345298 2.000000 0.971452 58 41 20
-0.971455 1.918188 2.345297 48 32 19
-2.489754 1.918188 0.495241 48 32 19
-2.661355 1.918188 0.000000 62 41 23
-2.610219 1.918188 0.519203 61 41 23
-2.458773 1.918188 1.018455 61 41 23
-1.881864 1.918188 1.881862 61 41 23
-1.478572 1.918188 2.212836 61 41 23
-1.018458 1.918188 2.458772 61 41 23
0.000000 2.000000 0.000000 48 32 19
-2.538531 2.000000 0.000000 61 41 23
-0.467285 1.718188 2.349197 48 32 19
-0.519206 1.918188 2.610219 61 41 23
0.000000 1.718188 2.395221 48 32 19
-2.349197 1.718188 0.467283 48 32 19
-2.212896 1.718188 0.916610 48 32 19
-1.991554 1.718188 1.330712 48 32 19
-2.212838 1.918188 1.478569 61 41 23
-1.693678 1.718188 1.693675 48 32 19
-1.330714 1.718188 1.991553 48 32 19
-0.916612 1.718188 2.212895 48 32 20
-2.395220 1.718188 0.000000 48 32 19
-0.234920 1.718188 0.046728 48 32 19
-0.221290 1.718188 0.091661 48 32 19
-0.199155 1.718188 0.133071 48 32 19
-0.169368 1.718188 0.169367 48 32 19
-0.133071 1.718188 0.199155 48 32 19
-0.091661 1.718188 0.221289 48 32 19
-0.046728 1.718188 0.234920 48 32 19
0.000000 1.718188 0.239522 48 32 19
-0.199155 0.618188 0.133071 48 32 19
-0.169368 0.618188 0.169367 48 32 19
-0.133071 0.618188 0.199155 48 32 19
-0.091661 0.618188 0.221289 48 32 19
-0.046728 0.618188 0.234920 48 32 19
0.000000 0.618188 0.239522 48 32 19
-0.239522 1.718188 0.000000 48 32 19
-0.234920 0.618188 0.046728 48 32 19
-0.221290 0.618188 0.091661 48 32 19
-0.398311 0.618188 0.266142 48 34 23
-0.338736 0.618188 0.338735 54 36 22
-0.266143 0.618188 0.398310 58 37 21
-0.183322 0.618188 0.442579 57 37 20
-0.093457 0.618188 0.469839 57 37 20
0.000000 0.618188 0.479044 43 31 20
-0.479044 0.618188 0.000000 48 32 19
-0.469840 0.618188 0.093456 48 35 24
-0.442579 0.618188 0.183322 48 33 24
-0.357479 0.418188 0.863029 48 33 20
-0.182241 0.418188 0.916187 48 32 19
0.000000 0.418188 0.934136 48 37 26
-0.934136 0.418188 0.000000 48 32 19
-0.916187 0.418188 0.182240 48 32 19
-0.863029 0.418188 0.357478 48 32 19
-0.776706 0.418188 0.518978 48 32 19
-0.660535 0.418188 0.660533 58 37 19
-0.518979 0.418188 0.776705 58 37 19
-0.916187 0.018188 0.182240 48 32 19
-0.863029 0.018188 0.357478 48 32 19
-0.776706 0.018188 0.518978 48 32 19
-0.660535 0.018188 0.660533 64 50 37
-1.483813 0.018188 1.226084 69 55 43
-0.776706 0.018188 0.518978 67 52 41
-1.367642 0.138188 1.367639 48 32 19
-1.226086 0.018188 1.483811 48 32 19
-0.357479 0.018188 0.863029 42 29 19
-0.182241 0.018188 0.916187 39 29 19
0.000000 0.018188 0.934136 40 29 19
-0.694734 2.010000 0.388552 39 29 19
-0.693071 2.010000 0.400667 39 29 19
-0.669132 2.010000 0.421128 39 29 19
-0.685796 2.010000 0.412944 39 29 19
-0.677545 2.010000 0.418494 39 29 19
-0.130869 2.010000 0.421128 39 29 19
-0.105266 2.010000 0.388552 39 29 19
-0.122455 2.010000 0.418494 39 29 19
-0.114204 2.010000 0.412944 39 29 19
-0.106928 2.010000 0.400667 39 29 19
-0.400000 2.010000 0.388552 39 29 19
-0.400000 2.010000 0.000000 31 23 16
-1.367642 0.138188 1.367639 48 33 20
-1.483813 0.018188 1.226084 48 33 21
-1.367642 0.018188 1.367639 48 32 19
-1.226086 0.018188 1.483811 48 33 22
-0.660535 0.018188 0.660533 48 32 19
-1.226086 0.018188 1.483811 255 255 255
-1.367642 0.018188 1.367639 255 255 255
-0.518979 0.018188 0.776705 39 29 19
-0.776706 0.418188 0.518978 48 36 26
-1.483813 0.018188 1.226084 48 32 19
-0.694734 2.010000 0.000000 39 29 19
-1.174274 1.918188 2.548757 62 41 23
-2.452287 1.918188 2.630502 62 41 23
-1.633135 1.918188 3.204079 48 32 19
-2.452287 1.768188 2.630502 62 41 23
-1.174274 1.768188 2.548757 62 42 25
-1.633135 1.768188 3.204079 62 41 23
-1.174274 1.768188 2.548757 62 41 23
-1.993426 1.918188 1.975181 49 33 19
-2.452287 1.768188 2.630502 48 32 19
-1.993426 1.768188 1.975181 49 32 19
-1.633135 1.768188 3.204079 48 32 19
0.495244 1.918188 2.489754 48 32 19
0.519206 1.918188 2.610219 61 41 23
0.971455 2.000000 2.345297 61 41 23
1.410334 1.918188 2.110711 48 32 19
1.410334 2.000000 2.110711 61 41 23
2.489754 2.000000 0.495241 61 41 23
2.538531 1.918188 0.000000 48 32 19
2.538531 2.000000 0.000000 62 41 23
1.795014 1.918188 1.795012 48 32 19
1.795014 2.000000 1.795012 58 41 23
2.110713 1.918188 1.410331 48 32 19
2.110713 2.000000 1.410331 58 41 23
0.495244 2.000000 2.489754 61 41 23
2.345298 1.918188 0.971452 48 32 19
2.345298 2.000000 0.971452 58 41 20
0.971455 1.918188 2.345297 48 32 19
2.489754 1.918188 0.495241 48 32 19
2.661355 1.918188 0.000000 62 41 23
2.610219 1.918188 0.519203 61 41 23
2.458773 1.918188 1.018455 61 41 23
1.881864 1.918188 1.881862 61 41 23
2.212838 1.918188 1.478569 61 41 23
1.478572 1.918188 2.212836 61 41 23
1.018458 1.918188 2.458772 61 41 23
2.538531 2.000000 0.000000 61 41 23
0.467285 1.718188 2.349197 48 32 19
2.349197 1.718188 0.467283 48 32 19
2.212896 1.718188 0.916610 48 32 19
1.991554 1.718188 1.330712 48 32 19
1.330714 1.718188 1.991553 48 32 19
0.234920 1.718188 0.046728 48 32 19
2.395220 1.718188 0.000000 48 32 19
0.221290 1.718188 0.091661 48 32 19
0.169368 1.718188 0.169367 48 32 19
1.693678 1.718188 1.693675 48 32 19
0.133071 1.718188 0.199155 48 32 19
0.916612 1.718188 2.212895 48 32 20
0.046728 1.718188 0.234920 48 32 19
0.199155 0.618188 0.133071 48 32 19
0.199155 1.718188 0.133071 48 32 19
0.169368 0.618188 0.169367 48 32 19
0.133071 0.618188 0.199155 48 32 19
0.091661 0.618188 0.221289 48 32 19
0.091661 1.718188 0.221289 48 32 19
0.046728 0.618188 0.234920 48 32 19
0.234920 0.618188 0.046728 48 32 19
0.239522 1.718188 0.000000 48 32 19
0.221290 0.618188 0.091661 48 32 19
0.398311 0.618188 0.266142 48 34 23
0.266143 0.618188 0.398310 58 37 21
0.183322 0.618188 0.442579 57 37 20
0.479044 0.618188 0.000000 48 32 19
0.239522 0.618188 0.000000 48 32 19
0.442579 0.618188 0.183322 48 33 24
0.093457 0.618188 0.469839 57 37 20
0.357479 0.418188 0.863029 48 33 20
0.469840 0.618188 0.093456 48 35 24
0.934136 0.418188 0.000000 48 32 19
0.863029 0.418188 0.357478 48 32 19
0.338736 0.618188 0.338735 54 36 22
0.776706 0.418188 0.518978 48 32 19
0.518979 0.418188 0.776705 58 37 19
0.916187 0.018188 0.182240 48 32 19
0.916187 0.418188 0.182240 48 32 19
0.863029 0.018188 0.357478 48 32 19
0.776706 0.018188 0.518978 48 32 19
1.483813 0.018188 1.226084 69 55 43
0.660535 0.018188 0.660533 64 50 37
0.776706 0.018188 0.518978 67 52 41
1.367642 0.138188 1.367639 48 32 19
0.660535 0.418188 0.660533 58 37 19
0.357479 0.018188 0.863029 42 29 19
0.182241 0.018188 0.916187 39 29 19
0.182241 0.418188 0.916187 48 32 19
0.694734 2.010000 0.388552 39 29 19
0.669132 2.010000 0.421128 39 29 19
0.693071 2.010000 0.400667 39 29 19
0.685796 2.010000 0.412944 39 29 19
0.677545 2.010000 0.418494 39 29 19
0.105266 2.010000 0.388552 39 29 19
0.130869 2.010000 0.421128 39 29 19
0.122455 2.010000 0.418494 39 29 19
0.106928 2.010000 0.400667 39 29 19
0.114204 2.010000 0.412944 39 29 19
0.400000 2.010000 0.388552 39 29 19
0.400000 2.010000 0.000000 31 23 16
1.367642 0.138188 1.367639 48 33 20
1.367642 0.018188 1.367639 48 32 19
1.483813 0.018188 1.226084 48 33 21
1.226086 0.018188 1.483811 48 33 22
0.660535 0.018188 0.660533 48 32 19
1.226086 0.018188 1.483811 255 255 255
0.518979 0.018188 0.776705 48 32 19
0.518979 0.018188 0.776705 39 29 19
1.226086 0.018188 1.483811 48 32 19
0.776706 0.418188 0.518978 48 36 26
1.483813 0.018188 1.226084 48 32 19
0.694734 2.010000 0.000000 39 29 19
-0.495244 1.918188 -2.489754 48 32 19
0.000000 1.918188 -2.661356 61 41 23
-0.519206 1.918188 -2.610219 61 41 23
-0.971455 2.000000 -2.345297 61 41 23
-1.410334 1.918188 -2.110711 48 32 19
-1.410334 2.000000 -2.110711 61 41 23
-2.489754 2.000000 -0.495241 61 41 23
-1.795014 1.918188 -1.795012 48 32 19
-1.795014 2.000000 -1.795012 58 41 23
-2.110713 1.918188 -1.410331 48 32 19
-2.110713 2.000000 -1.410331 58 41 23
0.000000 2.000000 -2.538531 61 41 23
-0.495244 2.000000 -2.489754 61 41 23
-2.345298 1.918188 -0.971452 48 32 19
-2.345298 2.000000 -0.971452 58 41 20
-0.971455 1.918188 -2.345297 48 32 19
-2.489754 1.918188 -0.495241 48 32 19
-2.610219 1.918188 -0.519203 61 41 23
-2.458773 1.918188 -1.018455 61 41 23
-1.881864 1.918188 -1.881862 61 41 23
-2.212838 1.918188 -1.478569 61 41 23
-1.478572 1.918188 -2.212836 61 41 23
-1.018458 1.918188 -2.458772 61 41 23
-0.467285 1.718188 -2.349197 48 32 19
-2.349197 1.718188 -0.467283 48 32 19
-2.212896 1.718188 -0.916610 48 32 19
-1.991554 1.718188 -1.330712 48 32 19
-1.330714 1.718188 -1.991553 48 32 19
-0.234920 1.718188 -0.046728 48 32 19
-0.221290 1.718188 -0.091661 48 32 19
-0.169368 1.718188 -0.169367 48 32 19
-1.693678 1.718188 -1.693675 48 32 19
-0.133071 1.718188 -0.199155 48 32 19
-0.916612 1.718188 -2.212895 48 32 20
-0.046728 1.718188 -0.234920 48 32 19
0.000000 1.718188 -2.395221 48 32 19
-0.199155 0.618188 -0.133071 48 32 19
-0.199155 1.718188 -0.133071 48 32 19
-0.169368 0.618188 -0.169367 48 32 19
-0.133071 0.618188 -0.199155 48 32 19
-0.091661 0.618188 -0.221289 48 32 19
-0.091661 1.718188 -0.221289 48 32 19
-0.046728 0.618188 -0.234920 48 32 19
0.000000 0.618188 -0.239522 48 32 19
0.000000 1.718188 -0.239522 48 32 19
-0.234920 0.618188 -0.046728 48 32 19
-0.221290 0.618188 -0.091661 48 32 19
-0.398311 0.618188 -0.266142 48 34 23
-0.266143 0.618188 -0.398310 58 37 21
-0.183322 0.618188 -0.442579 57 37 20
0.000000 0.618188 -0.479044 43 31 20
-0.239522 0.618188 0.000000 48 32 19
-0.442579 0.618188 -0.183322 48 33 24
-0.093457 0.618188 -0.469839 57 37 20
-0.357479 0.418188 -0.863029 48 33 20
0.000000 0.418188 -0.934136 48 37 26
-0.469840 0.618188 -0.093456 48 35 24
-0.863029 0.418188 -0.357478 48 32 19
-0.338736 0.618188 -0.338735 54 36 22
-0.776706 0.418188 -0.518978 48 32 19
-0.518979 0.418188 -0.776705 58 37 19
-0.916187 0.018188 -0.182240 48 32 19
-0.916187 0.418188 -0.182240 48 32 19
-0.863029 0.018188 -0.357478 48 32 19
-0.776706 0.018188 -0.518978 48 32 19
-1.483813 0.018188 -1.226084 69 55 43
-0.660535 0.018188 -0.660533 64 50 37
-0.776706 0.018188 -0.518978 67 52 41
-1.367642 0.138188 -1.367639 48 32 19
-0.660535 0.418188 -0.660533 58 37 19
-0.357479 0.018188 -0.863029 42 29 19
-0.182241 0.018188 -0.916187 39 29 19
-0.182241 0.418188 -0.916187 48 32 19
0.000000 0.018188 -0.934136 40 29 19
-0.694734 2.010000 -0.388552 39 29 19
-0.669132 2.010000 -0.421128 39 29 19
-0.693071 2.010000 -0.400667 39 29 19
-0.685796 2.010000 -0.412944 39 29 19
-0.677545 2.010000 -0.418494 39 29 19
-0.105266 2.010000 -0.388552 39 29 19
-0.130869 2.010000 -0.421128 39 29 19
-0.122455 2.010000 -0.418494 39 29 19
-0.106928 2.010000 -0.400667 39 29 19
-0.114204 2.010000 -0.412944 39 29 19
-0.400000 2.010000 -0.388552 39 29 19
-1.367642 0.138188 -1.367639 48 33 20
-1.367642 0.018188 -1.367639 48 32 19
-1.483813 0.018188 -1.226084 48 33 21
-1.226086 0.018188 -1.483811 48 33 22
-0.660535 0.018188 -0.660533 48 32 19
-1.226086 0.018188 -1.483811 255 255 255
-0.518979 0.018188 -0.776705 48 32 19
-0.518979 0.018188 -0.776705 39 29 19
-1.226086 0.018188 -1.483811 48 32 19
-0.776706 0.418188 -0.518978 48 36 26
-1.483813 0.018188 -1.226084 48 32 19
0.495244 1.918188 -2.489754 48 32 19
0.000000 1.918188 -2.538531 48 32 19
1.410334 1.918188 -2.110711 48 32 19
0.971455 2.000000 -2.345297 61 41 23
1.410334 2.000000 -2.110711 61 41 23
2.489754 2.000000 -0.495241 61 41 23
1.795014 1.918188 -1.795012 48 32 19
1.795014 2.000000 -1.795012 58 41 23
2.110713 1.918188 -1.410331 48 32 19
2.110713 2.000000 -1.410331 58 41 23
0.495244 2.000000 -2.489754 61 41 23
2.345298 1.918188 -0.971452 48 32 19
2.345298 2.000000 -0.971452 58 41 20
0.971455 1.918188 -2.345297 48 32 19
2.489754 1.918188 -0.495241 48 32 19
2.610219 1.918188 -0.519203 61 41 23
2.458773 1.918188 -1.018455 61 41 23
1.881864 1.918188 -1.881862 61 41 23
1.478572 1.918188 -2.212836 61 41 23
1.018458 1.918188 -2.458772 61 41 23
0.467285 1.718188 -2.349197 48 32 19
0.519206 1.918188 -2.610219 61 41 23
2.349197 1.718188 -0.467283 48 32 19
2.212896 1.718188 -0.916610 48 32 19
1.991554 1.718188 -1.330712 48 32 19
2.212838 1.918188 -1.478569 61 41 23
1.693678 1.718188 -1.693675 48 32 19
1.330714 1.718188 -1.991553 48 32 19
0.916612 1.718188 -2.212895 48 32 20
0.234920 1.718188 -0.046728 48 32 19
0.221290 1.718188 -0.091661 48 32 19
0.199155 1.718188 -0.133071 48 32 19
0.169368 1.718188 -0.169367 48 32 19
0.133071 1.718188 -0.199155 48 32 19
0.091661 1.718188 -0.221289 48 32 19
0.046728 1.718188 -0.234920 48 32 19
0.199155 0.618188 -0.133071 48 32 19
0.169368 0.618188 -0.169367 48 32 19
0.133071 0.618188 -0.199155 48 32 19
0.091661 0.618188 -0.221289 48 32 19
0.046728 0.618188 -0.234920 48 32 19
0.234920 0.618188 -0.046728 48 32 19
0.221290 0.618188 -0.091661 48 32 19
0.398311 0.618188 -0.266142 48 34 23
0.338736 0.618188 -0.338735 54 36 22
0.266143 0.618188 -0.398310 58 37 21
0.183322 0.618188 -0.442579 57 37 20
0.093457 0.618188 -0.469839 57 37 20
0.469840 0.618188 -0.093456 48 35 24
0.442579 0.618188 -0.183322 48 33 24
0.357479 0.418188 -0.863029 48 33 20
0.182241 0.418188 -0.916187 48 32 19
0.916187 0.418188 -0.182240 48 32 19
0.863029 0.418188 -0.357478 48 32 19
0.776706 0.418188 -0.518978 48 32 19
0.660535 0.418188 -0.660533 58 37 19
0.518979 0.418188 -0.776705 58 37 19
0.916187 0.018188 -0.182240 48 32 19
0.863029 0.018188 -0.357478 48 32 19
0.776706 0.018188 -0.518978 48 32 19
0.660535 0.018188 -0.660533 64 50 37
1.483813 0.018188 -1.226084 69 55 43
0.776706 0.018188 -0.518978 67 52 41
1.367642 0.138188 -1.367639 48 32 19
1.226086 0.018188 -1.483811 48 32 19
0.357479 0.018188 -0.863029 42 29 19
0.182241 0.018188 -0.916187 39 29 19
0.694734 2.010000 -0.388552 39 29 19
0.693071 2.010000 -0.400667 39 29 19
0.669132 2.010000 -0.421128 39 29 19
0.685796 2.010000 -0.412944 39 29 19
0.677545 2.010000 -0.418494 39 29 19
0.130869 2.010000 -0.421128 39 29 19
0.105266 2.010000 -0.388552 39 29 19
0.122455 2.010000 -0.418494 39 29 19
0.114204 2.010000 -0.412944 39 29 19
0.106928 2.010000 -0.400667 39 29 19
0.400000 2.010000 -0.388552 39 29 19
1.367642 0.138188 -1.367639 48 33 20
1.483813 0.018188 -1.226084 48 33 21
1.367642 0.018188 -1.367639 48 32 19
1.226086 0.018188 -1.483811 48 33 22
0.660535 0.018188 -0.660533 48 32 19
1.226086 0.018188 -1.483811 255 255 255
1.367642 0.018188 -1.367639 255 255 255
0.518979 0.018188 -0.776705 39 29 19
0.776706 0.418188 -0.518978 48 36 26
1.483813 0.018188 -1.226084 48 32 19
-0.934136 0.018188 0.000000 48 32 19
-1.367642 0.018188 1.367639 57 42 30
-0.357479 0.018188 0.863029 39 29 19
-0.105266 2.010000 0.000000 39 29 19
-0.518979 0.018188 0.776705 48 32 19
-1.993426 1.768188 1.975181 62 41 23
-1.174274 1.768188 2.548757 50 33 19
0.934136 0.018188 0.000000 48 32 19
1.367642 0.018188 1.367639 57 42 30
0.357479 0.018188 0.863029 39 29 19
0.105266 2.010000 0.000000 39 29 19
1.367642 0.018188 1.367639 255 255 255
-1.367642 0.018188 -1.367639 57 42 30
-0.357479 0.018188 -0.863029 39 29 19
-1.367642 0.018188 -1.367639 255 255 255
1.367642 0.018188 -1.367639 57 42 30
0.357479 0.018188 -0.863029 39 29 19
0.518979 0.018188 -0.776705 48 32 19
3 0 1 2
3 3 4 5
3 6 7 8
3 9 5 10
3 11 10 12
3 0 13 14
3 15 12 16
3 17 14 4
3 18 16 7
3 19 18 6
3 20 15 18
3 21 11 15
3 11 22 9
3 22 3 9
3 23 17 3
3 24 0 17
3 16 25 7
3 4 25 5
3 7 25 26
3 5 25 10
3 10 25 12
3 13 25 14
3 12 25 16
3 14 25 4
3 24 27 28
3 1 27 29
3 19 30 20
3 20 31 21
3 21 32 33
3 22 32 34
3 22 35 23
3 24 35 36
3 37 38 30
3 30 39 31
3 32 39 40
3 32 41 34
3 34 42 35
3 36 42 43
3 36 44 27
3 29 44 45
3 39 46 40
3 40 47 41
3 41 48 42
3 42 49 43
3 43 50 44
3 44 51 45
3 52 53 38
3 38 54 39
3 47 55 56
3 47 57 48
3 48 58 49
3 50 58 59
3 50 60 51
3 53 61 62
3 53 63 54
3 46 63 55
3 59 64 65
3 59 66 60
3 62 67 68
3 62 69 63
3 55 69 70
3 56 70 71
3 56 72 57
3 57 64 58
3 67 73 68
3 68 74 69
3 69 75 70
3 76 77 78
3 72 79 80
3 72 81 64
3 64 82 65
3 65 83 66
3 84 85 86
3 87 88 85
3 86 89 90
3 91 92 93
3 93 89 91
3 88 86 85
3 93 90 89
3 86 94 84
3 90 95 94
3 96 97 98
3 99 96 98
3 70 79 71
3 100 101 102
3 103 72 80
3 104 75 105
3 94 106 84
3 107 108 109
3 110 111 112
3 113 114 107
3 115 109 108
3 116 108 114
3 117 107 109
3 118 1 119
3 120 121 122
3 123 124 125
3 122 126 127
3 127 128 129
3 13 118 130
3 129 131 132
3 130 133 120
3 132 134 123
3 134 135 124
3 131 136 134
3 128 137 131
3 128 138 139
3 121 138 126
3 133 140 121
3 118 141 133
3 132 123 25
3 120 122 25
3 123 142 25
3 122 127 25
3 127 129 25
3 13 130 25
3 129 132 25
3 130 120 25
3 143 141 119
3 1 143 119
3 144 135 136
3 145 136 137
3 146 137 139
3 138 146 139
3 147 138 140
3 141 147 140
3 148 149 144
3 150 144 145
3 146 150 145
3 151 146 152
3 153 152 147
3 154 153 147
3 155 154 143
3 29 155 143
3 156 150 157
3 158 157 151
3 159 151 153
3 160 153 161
3 162 161 155
3 51 155 45
3 163 164 148
3 165 148 150
3 158 166 156
3 167 158 159
3 168 159 160
3 162 168 160
3 60 162 51
3 163 169 170
3 171 163 165
3 156 171 165
3 172 173 168
3 66 172 60
3 174 175 169
3 176 174 171
3 166 176 171
3 177 178 166
3 179 177 167
3 173 167 168
3 180 175 181
3 182 181 176
3 183 176 178
3 184 185 186
3 179 187 188
3 189 179 173
3 190 173 191
3 83 191 66
3 192 193 194
3 195 194 196
3 193 197 198
3 199 200 201
3 200 199 198
3 196 194 193
3 200 198 197
3 202 193 192
3 203 197 202
3 204 205 206
3 207 205 204
3 187 178 188
3 208 209 210
3 211 212 179
3 213 214 183
3 215 202 192
3 216 217 218
3 219 220 221
3 222 6 8
3 221 223 224
3 224 225 226
3 227 216 228
3 226 229 230
3 228 231 219
3 230 232 222
3 232 19 6
3 229 233 232
3 225 234 229
3 225 235 236
3 220 235 223
3 231 237 220
3 216 238 231
3 230 222 25
3 219 221 25
3 222 26 25
3 221 224 25
3 224 226 25
3 227 228 25
3 226 230 25
3 228 219 25
3 239 238 218
3 217 239 218
3 240 19 233
3 241 233 234
3 242 234 236
3 235 242 236
3 243 235 237
3 238 243 237
3 244 37 240
3 245 240 241
3 242 245 241
3 246 242 247
3 248 247 243
3 249 248 243
3 250 249 239
3 251 250 239
3 252 245 253
3 254 253 246
3 255 246 248
3 256 248 257
3 258 257 250
3 259 250 260
3 261 52 244
3 262 244 245
3 254 263 252
3 264 254 255
3 265 255 256
3 258 265 256
3 266 258 259
3 261 61 267
3 268 261 262
3 252 268 262
3 269 270 265
3 271 269 266
3 272 67 61
3 273 272 268
3 263 273 268
3 274 275 263
3 276 274 264
3 270 264 265
3 277 67 278
3 279 278 273
3 280 273 275
3 281 282 283
3 276 284 285
3 286 276 270
3 287 270 288
3 289 288 271
3 290 291 292
3 293 292 294
3 291 295 296
3 297 298 299
3 298 297 296
3 294 292 291
3 298 296 295
3 300 291 290
3 95 295 300
3 301 302 303
3 304 302 301
3 284 275 285
3 305 306 307
3 308 309 276
3 310 311 280
3 106 300 290
3 312 217 313
3 314 315 316
3 124 317 125
3 318 316 319
3 320 319 321
3 312 227 322
3 323 321 324
3 325 322 315
3 326 324 317
3 135 326 124
3 327 323 326
3 328 320 323
3 320 329 318
3 329 314 318
3 330 325 314
3 331 312 325
3 324 25 317
3 315 25 316
3 317 25 142
3 316 25 319
3 319 25 321
3 227 25 322
3 321 25 324
3 322 25 315
3 331 332 333
3 217 332 251
3 135 334 327
3 327 335 328
3 328 336 337
3 329 336 338
3 329 339 330
3 331 339 340
3 149 341 334
3 334 342 335
3 336 342 343
3 336 344 338
3 338 345 339
3 340 345 346
3 340 347 332
3 251 347 260
3 342 348 343
3 343 349 344
3 344 350 345
3 345 351 346
3 346 352 347
3 347 259 260
3 164 353 341
3 341 354 342
3 349 355 356
3 349 357 350
3 350 358 351
3 352 358 359
3 352 266 259
3 353 169 360
3 353 361 354
3 348 361 355
3 359 362 363
3 359 271 266
3 360 175 364
3 360 365 361
3 355 365 366
3 356 366 367
3 356 368 357
3 357 362 358
3 175 369 364
3 364 370 365
3 365 371 366
3 372 373 374
3 368 375 376
3 368 377 362
3 362 378 363
3 363 289 271
3 379 380 381
3 382 383 380
3 381 384 385
3 386 387 388
3 388 384 386
3 383 381 380
3 388 385 384
3 381 389 379
3 385 203 389
3 390 391 392
3 393 390 392
3 366 375 367
3 394 395 396
3 397 368 376
3 398 371 399
3 389 215 379
3 0 28 1
3 3 17 4
3 6 18 7
3 9 3 5
3 11 9 10
3 0 2 13
3 15 11 12
3 17 0 14
3 18 15 16
3 19 20 18
3 20 21 15
3 21 33 11
3 11 33 22
3 22 23 3
3 23 24 17
3 24 28 0
3 24 36 27
3 1 28 27
3 19 37 30
3 20 30 31
3 21 31 32
3 22 33 32
3 22 34 35
3 24 23 35
3 37 52 38
3 30 38 39
3 32 31 39
3 32 40 41
3 34 41 42
3 36 35 42
3 36 43 44
3 29 27 44
3 39 54 46
3 40 46 47
3 41 47 48
3 42 48 49
3 43 49 50
3 44 50 51
3 52 267 53
3 38 53 54
3 47 46 55
3 47 56 57
3 48 57 58
3 50 49 58
3 50 59 60
3 53 267 61
3 53 62 63
3 46 54 63
3 59 58 64
3 59 65 66
3 62 61 67
3 62 68 69
3 55 63 69
3 56 55 70
3 56 71 72
3 57 72 64
3 67 400 73
3 68 73 74
3 69 74 75
3 76 401 77
3 72 71 79
3 72 103 81
3 64 402 82
3 65 82 83
3 86 90 94
3 90 403 95
3 70 105 79
3 100 404 101
3 94 95 106
3 107 114 108
3 110 405 111
3 113 116 114
3 115 117 109
3 116 115 108
3 117 406 107
3 118 2 1
3 120 133 121
3 123 134 124
3 122 121 126
3 127 126 128
3 13 2 118
3 129 128 131
3 130 118 133
3 132 131 134
3 134 136 135
3 131 137 136
3 128 139 137
3 128 126 138
3 121 140 138
3 133 141 140
3 118 119 141
3 143 154 141
3 1 29 143
3 144 149 135
3 145 144 136
3 146 145 137
3 138 152 146
3 147 152 138
3 141 154 147
3 148 164 149
3 150 148 144
3 146 157 150
3 151 157 146
3 153 151 152
3 154 161 153
3 155 161 154
3 29 45 155
3 156 165 150
3 158 156 157
3 159 158 151
3 160 159 153
3 162 160 161
3 51 162 155
3 163 170 164
3 165 163 148
3 158 177 166
3 167 177 158
3 168 167 159
3 162 172 168
3 60 172 162
3 163 174 169
3 171 174 163
3 156 166 171
3 172 191 173
3 66 191 172
3 174 181 175
3 176 181 174
3 166 178 176
3 177 188 178
3 179 188 177
3 173 179 167
3 180 407 175
3 182 180 181
3 183 182 176
3 184 408 185
3 179 212 187
3 189 211 179
3 190 409 173
3 83 190 191
3 202 197 193
3 203 410 197
3 187 214 178
3 208 411 209
3 215 203 202
3 216 313 217
3 219 231 220
3 222 232 6
3 221 220 223
3 224 223 225
3 227 313 216
3 226 225 229
3 228 216 231
3 230 229 232
3 232 233 19
3 229 234 233
3 225 236 234
3 225 223 235
3 220 237 235
3 231 238 237
3 216 218 238
3 239 249 238
3 217 251 239
3 240 37 19
3 241 240 233
3 242 241 234
3 235 247 242
3 243 247 235
3 238 249 243
3 244 52 37
3 245 244 240
3 242 253 245
3 246 253 242
3 248 246 247
3 249 257 248
3 250 257 249
3 251 260 250
3 252 262 245
3 254 252 253
3 255 254 246
3 256 255 248
3 258 256 257
3 259 258 250
3 261 267 52
3 262 261 244
3 254 274 263
3 264 274 254
3 265 264 255
3 258 269 265
3 266 269 258
3 261 272 61
3 268 272 261
3 252 263 268
3 269 288 270
3 271 288 269
3 272 278 67
3 273 278 272
3 263 275 273
3 274 285 275
3 276 285 274
3 270 276 264
3 277 400 67
3 279 277 278
3 280 279 273
3 281 412 282
3 276 309 284
3 286 308 276
3 287 413 270
3 289 287 288
3 300 295 291
3 95 403 295
3 284 311 275
3 305 414 306
3 106 95 300
3 312 333 217
3 314 325 315
3 124 326 317
3 318 314 316
3 320 318 319
3 312 313 227
3 323 320 321
3 325 312 322
3 326 323 324
3 135 327 326
3 327 328 323
3 328 337 320
3 320 337 329
3 329 330 314
3 330 331 325
3 331 333 312
3 331 340 332
3 217 333 332
3 135 149 334
3 327 334 335
3 328 335 336
3 329 337 336
3 329 338 339
3 331 330 339
3 149 164 341
3 334 341 342
3 336 335 342
3 336 343 344
3 338 344 345
3 340 339 345
3 340 346 347
3 251 332 347
3 342 354 348
3 343 348 349
3 344 349 350
3 345 350 351
3 346 351 352
3 347 352 259
3 164 170 353
3 341 353 354
3 349 348 355
3 349 356 357
3 350 357 358
3 352 351 358
3 352 359 266
3 353 170 169
3 353 360 361
3 348 354 361
3 359 358 362
3 359 363 271
3 360 169 175
3 360 364 365
3 355 361 365
3 356 355 366
3 356 367 368
3 357 368 362
3 175 407 369
3 364 369 370
3 365 370 371
3 372 415 373
3 368 367 375
3 368 397 377
3 362 416 378
3 363 378 289
3 381 385 389
3 385 410 203
3 366 399 375
3 394 417 395
3 389 203 215
