ply
format ascii 1.0
comment Created by Blender 2.79 (sub 0) - www.blender.org, source file: 'table.blend'
element vertex 34
property float x
property float y
property float z
property uchar red
property uchar green
property uchar blue
element face 36
property list uchar uint vertex_indices
end_header
-0.553045 2.000000 2.601873 255 255 255
-1.046055 2.000000 2.349478 255 255 255
-0.534712 2.000000 2.515623 255 255 255
0.000000 2.000000 2.660000 74 74 74
-0.534712 2.000000 2.515623 74 74 74
0.000000 2.000000 2.571824 74 74 74
-1.081919 2.024826 2.430031 199 199 199
-1.046055 2.000000 2.349478 199 199 199
-1.081919 2.000000 2.430031 199 199 199
-0.553045 2.024826 2.601873 199 199 199
-1.046055 2.027793 2.349478 199 199 199
0.000000 2.024826 2.660000 199 199 199
-0.534712 2.027793 2.515623 199 199 199
-0.553045 2.000000 2.601873 199 199 199
0.000000 2.000000 2.660000 199 199 199
-0.534712 2.000000 2.515623 199 199 199
0.000000 2.000000 2.571824 199 199 199
0.553045 2.000000 2.601873 255 255 255
1.046055 2.000000 2.349478 255 255 255
1.081919 2.000000 2.430031 255 255 255
0.534712 2.000000 2.515623 74 74 74
0.553045 2.000000 2.601873 74 74 74
1.046055 2.000000 2.349478 199 199 199
1.081919 2.024826 2.430031 199 199 199
1.081919 2.000000 2.430031 199 199 199
0.553045 2.024826 2.601873 199 199 199
1.046055 2.027793 2.349478 199 199 199
0.534712 2.027793 2.515623 199 199 199
0.000000 2.027793 2.571824 199 199 199
0.553045 2.000000 2.601873 199 199 199
0.534712 2.000000 2.515623 199 199 199
-1.081919 2.000000 2.430031 255 255 255
-0.553045 2.000000 2.601873 74 74 74
0.534712 2.000000 2.515623 255 255 255
3 0 1 2
3 3 4 5
3 6 7 8
3 9 10 6
3 11 12 9
3 9 8 13
3 11 13 14
3 10 15 7
3 12 16 15
3 17 18 19
3 3 20 21
3 22 23 24
3 25 26 27
3 11 27 28
3 24 25 29
3 29 11 14
3 30 26 22
3 16 27 30
3 0 31 1
3 3 32 4
3 6 10 7
3 9 12 10
3 11 28 12
3 9 6 8
3 11 9 13
3 10 12 15
3 12 28 16
3 17 33 18
3 3 5 20
3 22 26 23
3 25 23 26
3 11 25 27
3 24 23 25
3 29 25 11
3 30 27 26
3 16 28 27
