ply
format ascii 1.0
comment Created by Blender 2.79 (sub 0) - www.blender.org, source file: 'table.blend'
element vertex 158
property float x
property float y
property float z
property uchar red
property uchar green
property uchar blue
element face 248
property list uchar uint vertex_indices
end_header
-1.027224 1.890885 2.374837 126 126 126
-1.062577 1.891383 2.312368 126 126 126
-1.009081 1.890641 2.329359 126 126 126
-0.052818 2.070546 2.534938 126 126 126
0.000000 2.008378 2.539602 114 114 114
-0.052800 2.008380 2.534045 126 126 126
-1.064080 1.995051 2.466731 114 114 114
-1.120288 2.046356 2.448048 126 126 126
-1.119987 1.994882 2.447603 114 114 114
-1.027776 2.058132 2.376656 126 126 126
-1.062959 2.062989 2.314325 126 126 126
-1.082069 2.057445 2.358900 126 126 126
-1.062832 2.005787 2.313673 126 126 126
-1.081884 2.002152 2.358316 126 126 126
-1.009348 2.006048 2.330709 126 126 126
-0.053862 1.884836 2.584997 126 126 126
0.000000 1.884059 2.537814 114 114 114
0.000000 1.884846 2.590660 114 114 114
0.000000 1.996539 2.697721 114 114 114
-0.056106 2.051609 2.692521 126 126 126
-0.056091 1.996543 2.691838 126 126 126
0.000000 2.070537 2.540496 114 114 114
-0.053914 2.064234 2.587466 126 126 126
0.000000 2.064224 2.593133 114 114 114
0.000000 2.057911 2.645769 114 114 114
0.000000 2.051599 2.698405 114 114 114
-0.055010 2.057921 2.639993 126 126 126
-0.056063 1.886410 2.690471 126 126 126
0.000000 1.885633 2.643507 114 114 114
0.000000 1.886420 2.696353 114 114 114
-0.054962 1.885623 2.637734 126 126 126
-1.100935 1.998517 2.402959 124 124 124
-1.064365 2.046891 2.467200 124 124 124
-1.101179 2.051900 2.403474 126 126 126
-1.063509 1.891372 2.465794 126 126 126
-1.100449 1.891750 2.401931 126 126 126
-1.045367 1.891129 2.420316 126 126 126
-1.119686 1.943408 2.447157 126 126 126
-1.119385 1.891933 2.446712 126 126 126
-0.056077 1.941476 2.691154 126 126 126
0.000000 1.941479 2.697037 114 114 114
-1.009215 1.948345 2.330034 126 126 126
-1.081698 1.946859 2.357733 126 126 126
-1.081513 1.891566 2.357149 126 126 126
-1.063794 1.943212 2.466263 126 126 126
-0.052781 1.946215 2.533153 126 126 126
-0.052762 1.884049 2.532260 126 126 126
0.000000 1.946218 2.538708 114 114 114
-1.046071 2.052511 2.421928 114 114 114
-1.046071 2.052511 2.421928 126 126 126
-1.100935 1.998517 2.402959 126 126 126
-1.119987 1.994882 2.447603 126 126 126
-1.064080 1.995051 2.466731 126 126 126
-1.009482 2.063752 2.331384 126 126 126
-1.100692 1.945133 2.402445 126 126 126
-1.062704 1.948585 2.313020 126 126 126
-0.106095 2.051609 2.691479 114 114 114
-0.102808 2.070546 2.533896 114 114 114
-0.106052 1.886410 2.689429 114 114 114
-0.102751 1.884049 2.531218 114 114 114
-0.055289 2.007983 2.561637 126 126 126
0.000000 2.049030 2.557868 126 126 126
-0.053987 2.049955 2.553441 126 126 126
0.000000 1.904287 2.556644 126 126 126
-0.053830 1.912540 2.584584 126 126 126
0.000000 1.912550 2.590248 125 125 125
0.000000 1.996882 2.670167 126 126 126
-0.054813 2.033104 2.671940 126 126 126
0.000000 2.033986 2.677133 126 126 126
-0.053625 2.036725 2.584166 126 126 126
0.000000 2.036716 2.589834 126 126 126
0.000000 2.030403 2.642470 126 126 126
-0.054721 2.030413 2.636693 126 126 126
0.000000 1.913337 2.643094 126 126 126
-0.054852 1.906238 2.671156 126 126 126
0.000000 1.905309 2.676193 126 126 126
-0.054930 1.913327 2.637321 126 126 126
0.000000 1.941822 2.669483 126 126 126
-0.053639 1.996886 2.664241 126 126 126
-0.055270 1.945818 2.560745 126 126 126
-0.054010 1.903385 2.552065 126 126 126
0.000000 1.945822 2.566260 126 126 126
-0.105656 2.033579 2.670446 114 114 114
-0.103210 2.050660 2.553186 126 126 126
-0.105656 2.033579 2.670446 126 126 126
-0.103210 2.050660 2.553186 114 114 114
-0.105638 1.905727 2.669571 114 114 114
-0.103179 1.902663 2.551737 114 114 114
-0.053625 1.941819 2.663558 126 126 126
-0.102751 1.884049 2.531218 119 119 119
1.027224 1.890885 2.374837 126 126 126
1.062577 1.891383 2.312368 126 126 126
1.081513 1.891566 2.357149 126 126 126
0.052818 2.070546 2.534938 126 126 126
0.052800 2.008380 2.534045 126 126 126
1.064080 1.995051 2.466731 114 114 114
1.120288 2.046356 2.448048 126 126 126
1.064365 2.046891 2.467200 124 124 124
1.027776 2.058132 2.376656 126 126 126
1.062959 2.062989 2.314325 126 126 126
1.009482 2.063752 2.331384 126 126 126
1.062832 2.005787 2.313673 126 126 126
1.082069 2.057445 2.358900 126 126 126
1.081884 2.002152 2.358316 126 126 126
1.009348 2.006048 2.330709 126 126 126
0.053862 1.884836 2.584997 126 126 126
0.056106 2.051609 2.692521 126 126 126
0.053914 2.064234 2.587466 126 126 126
0.055010 2.057921 2.639993 126 126 126
0.056063 1.886410 2.690471 126 126 126
0.054962 1.885623 2.637734 126 126 126
1.100935 1.998517 2.402959 124 124 124
1.119987 1.994882 2.447603 114 114 114
1.101179 2.051900 2.403474 126 126 126
1.046071 2.052511 2.421928 114 114 114
1.063509 1.891372 2.465794 126 126 126
1.100449 1.891750 2.401931 126 126 126
1.119385 1.891933 2.446712 126 126 126
1.119686 1.943408 2.447157 126 126 126
0.056077 1.941476 2.691154 126 126 126
0.056091 1.996543 2.691838 126 126 126
1.009215 1.948345 2.330034 126 126 126
1.062704 1.948585 2.313020 126 126 126
1.081698 1.946859 2.357733 126 126 126
1.063794 1.943212 2.466263 126 126 126
0.052781 1.946215 2.533153 126 126 126
0.052762 1.884049 2.532260 126 126 126
1.100935 1.998517 2.402959 126 126 126
1.046071 2.052511 2.421928 126 126 126
1.119987 1.994882 2.447603 126 126 126
1.064080 1.995051 2.466731 126 126 126
1.009081 1.890641 2.329359 126 126 126
1.045367 1.891129 2.420316 126 126 126
1.100692 1.945133 2.402445 126 126 126
0.106095 2.051609 2.691479 114 114 114
0.102808 2.070546 2.533896 114 114 114
0.106052 1.886410 2.689429 114 114 114
0.102751 1.884049 2.531218 114 114 114
0.055289 2.007983 2.561637 126 126 126
0.000000 2.007981 2.567154 126 126 126
0.053830 1.912540 2.584584 126 126 126
0.054813 2.033104 2.671940 126 126 126
0.053639 1.996886 2.664241 126 126 126
0.053625 2.036725 2.584166 126 126 126
0.054721 2.030413 2.636693 126 126 126
0.054852 1.906238 2.671156 126 126 126
0.054930 1.913327 2.637321 126 126 126
0.053625 1.941819 2.663558 126 126 126
0.055270 1.945818 2.560745 126 126 126
0.054010 1.903385 2.552065 126 126 126
0.105656 2.033579 2.670446 114 114 114
0.053987 2.049955 2.553441 126 126 126
0.103210 2.050660 2.553186 126 126 126
0.105656 2.033579 2.670446 126 126 126
0.103210 2.050660 2.553186 114 114 114
0.105638 1.905727 2.669571 114 114 114
0.103179 1.902663 2.551737 114 114 114
0.102751 1.884049 2.531218 119 119 119
3 0 1 2
3 3 4 5
3 6 7 8
3 9 10 11
3 11 12 13
3 10 14 12
3 15 16 17
3 18 19 20
3 21 22 23
3 24 19 25
3 23 26 24
3 27 28 29
3 30 17 28
3 7 31 8
3 32 33 7
3 34 35 36
3 37 35 38
3 29 39 27
3 40 20 39
3 1 41 2
3 42 1 43
3 44 38 34
3 45 16 46
3 5 47 45
3 32 6 48
3 33 49 50
3 51 50 52
3 11 13 9
3 12 14 13
3 9 14 53
3 2 41 0
3 34 36 44
3 37 44 54
3 55 42 41
3 43 0 42
3 35 54 36
3 20 19 56
3 22 3 57
3 19 26 56
3 3 5 57
3 30 27 58
3 46 15 59
3 27 39 58
3 45 46 59
3 60 61 62
3 63 64 65
3 66 67 68
3 69 61 70
3 67 71 68
3 72 70 71
3 73 74 75
3 65 76 73
3 74 77 75
3 77 78 66
3 63 79 80
3 81 60 79
3 78 82 67
3 69 83 62
3 67 84 72
3 62 85 60
3 76 86 74
3 80 87 64
3 74 86 88
3 79 87 80
3 87 45 89
3 15 87 89
3 39 86 58
3 85 22 57
3 45 60 5
3 76 15 30
3 5 85 57
3 82 20 56
3 78 39 20
3 22 72 26
3 86 30 58
3 26 82 56
3 90 91 92
3 4 93 94
3 95 96 97
3 98 99 100
3 101 102 103
3 104 99 101
3 16 105 17
3 18 106 25
3 107 21 23
3 106 24 25
3 108 23 24
3 28 109 29
3 17 110 28
3 111 96 112
3 97 113 114
3 115 116 117
3 116 118 117
3 29 119 40
3 40 120 18
3 91 121 122
3 91 123 92
3 117 124 115
3 16 125 126
3 47 94 125
3 97 114 95
3 113 127 128
3 129 130 127
3 102 98 103
3 101 103 104
3 98 100 104
3 131 90 121
3 115 124 132
3 118 133 124
3 122 121 123
3 92 123 90
3 116 132 133
3 120 134 106
3 107 135 93
3 106 134 108
3 93 135 94
3 110 136 109
3 126 137 105
3 109 136 119
3 125 137 126
3 138 61 139
3 140 63 65
3 66 141 142
3 61 143 70
3 71 141 68
3 70 144 71
3 145 73 75
3 146 65 73
3 77 145 75
3 77 142 147
3 148 63 149
3 138 81 148
3 142 141 150
3 143 151 152
3 141 144 153
3 151 138 154
3 146 145 155
3 149 140 156
3 145 147 155
3 148 149 156
3 125 156 157
3 105 156 140
3 119 155 147
3 107 154 135
3 125 138 148
3 105 146 110
3 94 154 138
3 120 150 134
3 119 142 120
3 107 144 143
3 110 155 136
3 108 150 144
3 0 43 1
3 3 21 4
3 6 32 7
3 9 53 10
3 11 10 12
3 10 53 14
3 15 46 16
3 18 25 19
3 21 3 22
3 24 26 19
3 23 22 26
3 27 30 28
3 30 15 17
3 7 33 31
3 32 48 33
3 34 38 35
3 37 54 35
3 29 40 39
3 40 18 20
3 1 55 41
3 42 55 1
3 44 37 38
3 45 47 16
3 5 4 47
3 60 139 61
3 63 80 64
3 66 78 67
3 69 62 61
3 67 72 71
3 72 69 70
3 73 76 74
3 65 64 76
3 74 88 77
3 77 88 78
3 63 81 79
3 81 139 60
3 87 79 45
3 15 64 87
3 39 88 86
3 85 69 22
3 45 79 60
3 76 64 15
3 5 60 85
3 82 78 20
3 78 88 39
3 22 69 72
3 86 76 30
3 26 72 82
3 90 131 91
3 4 21 93
3 95 112 96
3 98 102 99
3 101 99 102
3 104 100 99
3 16 126 105
3 18 120 106
3 107 93 21
3 106 108 24
3 108 107 23
3 28 110 109
3 17 105 110
3 111 113 96
3 97 96 113
3 115 132 116
3 116 133 118
3 29 109 119
3 40 119 120
3 91 131 121
3 91 122 123
3 117 118 124
3 16 47 125
3 47 4 94
3 138 151 61
3 140 149 63
3 66 68 141
3 61 151 143
3 71 144 141
3 70 143 144
3 145 146 73
3 146 140 65
3 77 147 145
3 77 66 142
3 148 81 63
3 138 139 81
3 125 148 156
3 105 157 156
3 119 136 155
3 107 143 154
3 125 94 138
3 105 140 146
3 94 135 154
3 120 142 150
3 119 147 142
3 107 108 144
3 110 146 155
3 108 134 150
