ply
format ascii 1.0
comment Created by Blender 2.79 (sub 0) - www.blender.org, source file: 'table.blend'
element vertex 136
property float x
property float y
property float z
property uchar red
property uchar green
property uchar blue
element face 192
property list uchar uint vertex_indices
end_header
-0.000000 2.000000 -2.661999 57 57 57
0.519330 1.801460 -2.610850 36 36 36
-0.000000 1.801460 -2.661999 36 36 36
0.519330 2.000000 -2.610850 57 57 57
1.018703 1.801460 -2.459367 36 36 36
1.018703 2.000000 -2.459367 57 57 57
1.478928 1.801460 -2.213372 36 36 36
1.478928 2.000000 -2.213372 57 57 57
1.882318 1.801460 -1.882318 36 36 36
1.882318 2.000000 -1.882318 57 57 57
2.213372 1.801460 -1.478927 36 36 36
2.213372 2.000000 -1.478927 57 57 57
2.459367 1.801460 -1.018703 36 36 36
2.459367 2.000000 -1.018703 57 57 57
2.610850 1.801460 -0.519330 36 36 36
2.610850 2.000000 -0.519330 57 57 57
2.662000 1.801460 0.000000 36 36 36
2.662000 2.000000 0.000000 64 64 64
2.610850 1.801460 0.519331 36 36 36
2.610850 2.000000 0.519331 64 64 64
2.459367 1.801460 1.018703 36 36 36
2.459367 2.000000 1.018703 64 64 64
2.213372 1.801460 1.478929 36 36 36
2.213372 2.000000 1.478929 64 64 64
1.882318 1.801460 1.882319 36 36 36
1.882318 2.000000 1.882319 64 64 64
1.478928 1.801460 2.213373 36 36 36
1.478928 2.000000 2.213373 64 64 64
1.018703 1.801460 2.459368 36 36 36
1.018703 2.000000 2.459368 64 64 64
0.519330 1.801460 2.610851 36 36 36
0.519330 2.000000 2.610851 64 64 64
-0.000001 1.801460 2.662001 36 36 36
-0.000001 2.000000 2.662001 64 64 64
-0.519332 1.801460 2.610851 36 36 36
-0.519332 2.000000 2.610851 64 64 64
-1.018705 1.801460 2.459368 36 36 36
-1.018705 2.000000 2.459368 64 64 64
-1.478930 1.801460 2.213372 36 36 36
-1.478930 2.000000 2.213372 64 64 64
-1.882320 1.801460 1.882317 36 36 36
-1.882320 2.000000 1.882317 64 64 64
-2.213373 1.801460 1.478927 36 36 36
-2.213373 2.000000 1.478927 64 64 64
-2.459368 1.801460 1.018702 36 36 36
-2.459368 2.000000 1.018702 64 64 64
-2.610851 1.801460 0.519329 36 36 36
-2.610851 2.000000 0.519329 64 64 64
-2.662000 1.801460 -0.000002 36 36 36
-2.662000 2.000000 -0.000002 57 57 57
-2.610850 1.801460 -0.519333 36 36 36
-2.610850 2.000000 -0.519333 57 57 57
-2.459367 1.801460 -1.018705 36 36 36
-2.459367 2.000000 -1.018705 57 57 57
-2.213371 1.801460 -1.478930 36 36 36
-2.213371 2.000000 -1.478930 57 57 57
-1.882316 1.801460 -1.882320 36 36 36
-1.882316 2.000000 -1.882320 57 57 57
-1.478925 1.801460 -2.213374 36 36 36
-1.478925 2.000000 -2.213374 57 57 57
-1.018700 1.801460 -2.459368 36 36 36
-1.018700 2.000000 -2.459368 57 57 57
-0.519327 1.801460 -2.610851 36 36 36
-0.519327 2.000000 -2.610851 57 57 57
0.519330 0.000000 2.610851 52 52 52
-2.213371 0.000000 -1.478930 53 53 53
-0.519327 0.000000 -2.610851 52 52 52
-0.873277 2.003098 0.513255 41 41 41
-0.126723 2.003098 -0.513255 47 47 47
-0.873277 2.003098 -0.513255 47 47 47
0.126723 2.003098 0.513255 41 41 41
0.873277 2.003098 -0.513255 47 47 47
0.126723 2.003098 -0.513255 47 47 47
-0.000000 0.000000 -2.661999 33 33 33
-0.519327 0.000000 -2.610851 32 32 32
-1.018700 0.000000 -2.459368 32 32 32
-1.478925 0.000000 -2.213374 32 32 32
-1.882316 0.000000 -1.882320 32 32 32
-2.213371 0.000000 -1.478930 32 32 32
-2.459367 0.000000 -1.018705 32 32 32
-2.610850 0.000000 -0.519333 32 32 32
-2.662000 0.000000 -0.000002 32 32 32
-2.610851 0.000000 0.519329 32 32 32
-2.459368 0.000000 1.018702 32 32 32
-2.213373 0.000000 1.478927 32 32 32
-1.882320 0.000000 1.882317 32 32 32
-1.478930 0.000000 2.213372 32 32 32
-1.018705 0.000000 2.459368 32 32 32
-0.519332 0.000000 2.610851 32 32 32
-0.000001 0.000000 2.662001 32 32 32
0.519330 0.000000 2.610851 32 32 32
1.018703 0.000000 2.459368 32 32 32
1.478928 0.000000 2.213373 32 32 32
1.882318 0.000000 1.882319 32 32 32
2.213372 0.000000 1.478929 32 32 32
2.459367 0.000000 1.018703 32 32 32
2.610850 0.000000 0.519331 32 32 32
2.662000 0.000000 0.000000 32 32 32
2.610850 0.000000 -0.519330 32 32 32
2.459367 0.000000 -1.018703 32 32 32
2.213372 0.000000 -1.478927 32 32 32
1.882318 0.000000 -1.882318 32 32 32
1.478928 0.000000 -2.213372 32 32 32
1.018703 0.000000 -2.459367 32 32 32
0.519330 0.000000 -2.610850 35 35 35
-0.000000 0.000000 -2.661999 52 52 52
1.478928 0.000000 -2.213372 52 52 52
0.519330 0.000000 -2.610850 52 52 52
1.018703 0.000000 -2.459367 52 52 52
1.882318 0.000000 -1.882318 52 52 52
2.213372 0.000000 -1.478927 52 52 52
2.459367 0.000000 -1.018703 52 52 52
2.610850 0.000000 -0.519330 52 52 52
2.662000 0.000000 0.000000 52 52 52
2.610850 0.000000 0.519331 52 52 52
2.459367 0.000000 1.018703 52 52 52
2.213372 0.000000 1.478929 52 52 52
1.882318 0.000000 1.882319 52 52 52
1.478928 0.000000 2.213373 52 52 52
1.018703 0.000000 2.459368 52 52 52
-0.000001 0.000000 2.662001 52 52 52
-1.478930 0.000000 2.213372 52 52 52
-0.519332 0.000000 2.610851 52 52 52
-1.018705 0.000000 2.459368 52 52 52
-1.882320 0.000000 1.882317 52 52 52
-2.610851 0.000000 0.519329 52 52 52
-2.213373 0.000000 1.478927 52 52 52
-2.459368 0.000000 1.018702 52 52 52
-2.662000 0.000000 -0.000002 52 52 52
-2.610850 0.000000 -0.519333 52 52 52
-2.459367 0.000000 -1.018705 52 52 52
-1.882316 0.000000 -1.882320 52 52 52
-1.478925 0.000000 -2.213374 52 52 52
-1.018700 0.000000 -2.459368 52 52 52
-0.126723 2.003098 0.513255 41 41 41
0.873277 2.003098 0.513255 41 41 41
3 0 1 2
3 3 4 1
3 5 6 4
3 7 8 6
3 9 10 8
3 11 12 10
3 13 14 12
3 15 16 14
3 17 18 16
3 19 20 18
3 21 22 20
3 23 24 22
3 25 26 24
3 27 28 26
3 29 30 28
3 31 32 30
3 33 34 32
3 35 36 34
3 37 38 36
3 39 40 38
3 41 42 40
3 43 44 42
3 45 46 44
3 47 48 46
3 49 50 48
3 51 52 50
3 53 54 52
3 55 56 54
3 57 58 56
3 59 60 58
3 37 13 5
3 61 62 60
3 63 2 62
3 64 65 66
3 67 68 69
3 70 71 72
3 62 73 74
3 60 74 75
3 58 75 76
3 56 76 77
3 54 77 78
3 52 78 79
3 50 79 80
3 48 80 81
3 46 81 82
3 44 82 83
3 42 83 84
3 40 84 85
3 38 85 86
3 36 86 87
3 34 87 88
3 32 88 89
3 30 89 90
3 28 90 91
3 26 91 92
3 24 92 93
3 22 93 94
3 20 94 95
3 18 95 96
3 16 96 97
3 14 97 98
3 12 98 99
3 10 99 100
3 8 100 101
3 6 101 102
3 4 102 103
3 1 103 104
3 2 104 73
3 0 3 1
3 3 5 4
3 5 7 6
3 7 9 8
3 9 11 10
3 11 13 12
3 13 15 14
3 15 17 16
3 17 19 18
3 19 21 20
3 21 23 22
3 23 25 24
3 25 27 26
3 27 29 28
3 29 31 30
3 31 33 32
3 33 35 34
3 35 37 36
3 37 39 38
3 39 41 40
3 41 43 42
3 43 45 44
3 45 47 46
3 47 49 48
3 49 51 50
3 51 53 52
3 53 55 54
3 55 57 56
3 57 59 58
3 59 61 60
3 5 3 0
3 0 63 61
3 61 59 57
3 57 55 53
3 53 51 49
3 49 47 45
3 45 43 41
3 41 39 37
3 37 35 33
3 33 31 29
3 29 27 21
3 25 23 21
3 21 19 17
3 17 15 13
3 13 11 9
3 9 7 13
3 5 0 53
3 61 57 53
3 53 49 37
3 45 41 37
3 37 33 21
3 27 25 21
3 21 17 13
3 13 7 5
3 0 61 53
3 49 45 37
3 33 29 21
3 21 13 37
3 5 53 37
3 61 63 62
3 63 0 2
3 66 105 106
3 107 108 106
3 106 109 110
3 110 111 106
3 112 113 114
3 114 115 116
3 116 117 118
3 118 119 64
3 64 120 121
3 122 123 121
3 121 124 125
3 126 127 125
3 125 128 65
3 129 130 65
3 65 131 132
3 132 133 65
3 105 107 106
3 106 111 112
3 112 114 64
3 116 118 64
3 120 122 121
3 124 126 125
3 128 129 65
3 65 133 66
3 66 106 64
3 114 116 64
3 64 121 125
3 125 65 64
3 106 112 64
3 67 134 68
3 70 135 71
3 62 2 73
3 60 62 74
3 58 60 75
3 56 58 76
3 54 56 77
3 52 54 78
3 50 52 79
3 48 50 80
3 46 48 81
3 44 46 82
3 42 44 83
3 40 42 84
3 38 40 85
3 36 38 86
3 34 36 87
3 32 34 88
3 30 32 89
3 28 30 90
3 26 28 91
3 24 26 92
3 22 24 93
3 20 22 94
3 18 20 95
3 16 18 96
3 14 16 97
3 12 14 98
3 10 12 99
3 8 10 100
3 6 8 101
3 4 6 102
3 1 4 103
3 2 1 104
