ply
format ascii 1.0
comment Created by Blender 2.79 (sub 0) - www.blender.org, source file: 'table.blend'
element vertex 405
property float x
property float y
property float z
property uchar red
property uchar green
property uchar blue
element face 628
property list uchar uint vertex_indices
end_header
-0.495244 1.918188 2.489754 48 32 19
0.000000 1.918188 2.661356 61 41 23
0.000000 1.918188 2.538531 48 32 19
-1.410334 1.918188 2.110711 48 32 19
-0.971455 2.000000 2.345297 61 41 23
-1.410334 2.000000 2.110711 61 41 23
-2.538531 1.918188 0.000000 48 32 19
-2.489754 2.000000 0.495241 61 41 23
-2.538531 2.000000 0.000000 62 41 23
-1.795014 1.918188 1.795012 48 32 19
-1.795014 2.000000 1.795012 58 41 23
-2.110713 1.918188 1.410331 48 32 19
-2.110713 2.000000 1.410331 58 41 23
0.000000 2.000000 2.538531 61 41 23
-0.495244 2.000000 2.489754 61 41 23
-2.345298 1.918188 0.971452 48 32 19
-2.345298 2.000000 0.971452 58 41 20
-0.971455 1.918188 2.345297 48 32 19
-2.489754 1.918188 0.495241 48 32 19
-2.661355 1.918188 0.000000 62 41 23
-2.610219 1.918188 0.519203 61 41 23
-2.458773 1.918188 1.018455 61 41 23
-1.881864 1.918188 1.881862 61 41 23
-1.478572 1.918188 2.212836 61 41 23
-1.018458 1.918188 2.458772 61 41 23
0.000000 2.000000 0.000000 48 32 19
-2.538531 2.000000 0.000000 61 41 23
-0.467285 1.718188 2.349197 48 32 19
-0.519206 1.918188 2.610219 61 41 23
0.000000 1.718188 2.395221 48 32 19
-2.349197 1.718188 0.467283 48 32 19
-2.212896 1.718188 0.916610 48 32 19
-1.991554 1.718188 1.330712 48 32 19
-2.212838 1.918188 1.478569 61 41 23
-1.693678 1.718188 1.693675 48 32 19
-1.330714 1.718188 1.991553 48 32 19
-0.916612 1.718188 2.212895 48 32 20
-2.395220 1.718188 0.000000 48 32 19
-0.234920 1.718188 0.046728 48 32 19
-0.221290 1.718188 0.091661 48 32 19
-0.199155 1.718188 0.133071 48 32 19
-0.169368 1.718188 0.169367 48 32 19
-0.133071 1.718188 0.199155 48 32 19
-0.091661 1.718188 0.221289 48 32 19
-0.046728 1.718188 0.234920 48 32 19
0.000000 1.718188 0.239522 48 32 19
-0.199155 0.618188 0.133071 48 32 19
-0.169368 0.618188 0.169367 48 32 19
-0.133071 0.618188 0.199155 48 32 19
-0.091661 0.618188 0.221289 48 32 19
-0.046728 0.618188 0.234920 48 32 19
0.000000 0.618188 0.239522 48 32 19
-0.239522 1.718188 0.000000 48 32 19
-0.234920 0.618188 0.046728 48 32 19
-0.221290 0.618188 0.091661 48 32 19
-0.398311 0.618188 0.266142 48 34 23
-0.338736 0.618188 0.338735 54 36 22
-0.266143 0.618188 0.398310 58 37 21
-0.183322 0.618188 0.442579 57 37 20
-0.093457 0.618188 0.469839 57 37 20
0.000000 0.618188 0.479044 43 31 20
-0.479044 0.618188 0.000000 48 32 19
-0.469840 0.618188 0.093456 48 35 24
-0.442579 0.618188 0.183322 48 33 24
-0.357479 0.418188 0.863029 48 33 20
-0.182241 0.418188 0.916187 48 32 19
0.000000 0.418188 0.934136 48 37 26
-0.934136 0.418188 0.000000 48 32 19
-0.916187 0.418188 0.182240 48 32 19
-0.863029 0.418188 0.357478 48 32 19
-0.776706 0.418188 0.518978 48 32 19
-0.660535 0.418188 0.660533 58 37 19
-0.518979 0.418188 0.776705 58 37 19
-0.916187 0.018188 0.182240 48 32 19
-0.863029 0.018188 0.357478 48 32 19
-0.776706 0.018188 0.518978 48 32 19
-0.660535 0.018188 0.660533 64 50 37
-1.483813 0.018188 1.226084 69 55 43
-0.776706 0.018188 0.518978 67 52 41
-1.367642 0.138188 1.367639 48 32 19
-1.226086 0.018188 1.483811 48 32 19
-0.357479 0.018188 0.863029 42 29 19
-0.182241 0.018188 0.916187 39 29 19
0.000000 0.018188 0.934136 40 29 19
-0.694734 2.010000 0.388552 39 29 19
-0.693071 2.010000 0.400667 39 29 19
-0.669132 2.010000 0.421128 39 29 19
-0.685796 2.010000 0.412944 39 29 19
-0.677545 2.010000 0.418494 39 29 19
-0.130869 2.010000 0.421128 39 29 19
-0.105266 2.010000 0.388552 39 29 19
-0.122455 2.010000 0.418494 39 29 19
-0.114204 2.010000 0.412944 39 29 19
-0.106928 2.010000 0.400667 39 29 19
-0.400000 2.010000 0.388552 39 29 19
-0.400000 2.010000 0.000000 31 23 16
-1.367642 0.138188 1.367639 48 33 20
-1.483813 0.018188 1.226084 48 33 21
-1.367642 0.018188 1.367639 48 32 19
-1.226086 0.018188 1.483811 48 33 22
-0.660535 0.018188 0.660533 48 32 19
-1.226086 0.018188 1.483811 255 255 255
-1.367642 0.018188 1.367639 255 255 255
-0.518979 0.018188 0.776705 39 29 19
-0.776706 0.418188 0.518978 48 36 26
-1.483813 0.018188 1.226084 48 32 19
-0.694734 2.010000 0.000000 39 29 19
-0.239522 0.618188 0.000000 48 32 19
-0.934136 0.018188 0.000000 48 32 19
-1.367642 0.018188 1.367639 57 42 30
-0.357479 0.018188 0.863029 39 29 19
-0.105266 2.010000 0.000000 39 29 19
-0.518979 0.018188 0.776705 48 32 19
0.495244 1.918188 2.489754 48 32 19
1.410334 1.918188 2.110711 48 32 19
1.410334 2.000000 2.110711 61 41 23
0.971455 2.000000 2.345297 61 41 23
2.538531 1.918188 0.000000 48 32 19
2.538531 2.000000 0.000000 62 41 23
2.489754 2.000000 0.495241 61 41 23
1.795014 1.918188 1.795012 48 32 19
1.795014 2.000000 1.795012 58 41 23
2.110713 1.918188 1.410331 48 32 19
2.110713 2.000000 1.410331 58 41 23
0.495244 2.000000 2.489754 61 41 23
2.345298 1.918188 0.971452 48 32 19
2.345298 2.000000 0.971452 58 41 20
0.971455 1.918188 2.345297 48 32 19
2.489754 1.918188 0.495241 48 32 19
2.661355 1.918188 0.000000 62 41 23
2.610219 1.918188 0.519203 61 41 23
2.458773 1.918188 1.018455 61 41 23
1.881864 1.918188 1.881862 61 41 23
1.478572 1.918188 2.212836 61 41 23
1.018458 1.918188 2.458772 61 41 23
2.538531 2.000000 0.000000 61 41 23
0.519206 1.918188 2.610219 61 41 23
0.467285 1.718188 2.349197 48 32 19
2.349197 1.718188 0.467283 48 32 19
2.212896 1.718188 0.916610 48 32 19
2.212838 1.918188 1.478569 61 41 23
1.991554 1.718188 1.330712 48 32 19
1.693678 1.718188 1.693675 48 32 19
1.330714 1.718188 1.991553 48 32 19
0.916612 1.718188 2.212895 48 32 20
2.395220 1.718188 0.000000 48 32 19
0.234920 1.718188 0.046728 48 32 19
0.221290 1.718188 0.091661 48 32 19
0.199155 1.718188 0.133071 48 32 19
0.169368 1.718188 0.169367 48 32 19
0.133071 1.718188 0.199155 48 32 19
0.091661 1.718188 0.221289 48 32 19
0.046728 1.718188 0.234920 48 32 19
0.199155 0.618188 0.133071 48 32 19
0.169368 0.618188 0.169367 48 32 19
0.133071 0.618188 0.199155 48 32 19
0.091661 0.618188 0.221289 48 32 19
0.046728 0.618188 0.234920 48 32 19
0.239522 1.718188 0.000000 48 32 19
0.234920 0.618188 0.046728 48 32 19
0.221290 0.618188 0.091661 48 32 19
0.338736 0.618188 0.338735 54 36 22
0.398311 0.618188 0.266142 48 34 23
0.266143 0.618188 0.398310 58 37 21
0.183322 0.618188 0.442579 57 37 20
0.093457 0.618188 0.469839 57 37 20
0.469840 0.618188 0.093456 48 35 24
0.479044 0.618188 0.000000 48 32 19
0.442579 0.618188 0.183322 48 33 24
0.182241 0.418188 0.916187 48 32 19
0.357479 0.418188 0.863029 48 33 20
0.916187 0.418188 0.182240 48 32 19
0.934136 0.418188 0.000000 48 32 19
0.863029 0.418188 0.357478 48 32 19
0.776706 0.418188 0.518978 48 32 19
0.660535 0.418188 0.660533 58 37 19
0.518979 0.418188 0.776705 58 37 19
0.916187 0.018188 0.182240 48 32 19
0.863029 0.018188 0.357478 48 32 19
0.776706 0.018188 0.518978 48 32 19
0.660535 0.018188 0.660533 64 50 37
0.776706 0.018188 0.518978 67 52 41
1.483813 0.018188 1.226084 69 55 43
1.226086 0.018188 1.483811 48 32 19
1.367642 0.138188 1.367639 48 32 19
0.357479 0.018188 0.863029 42 29 19
0.182241 0.018188 0.916187 39 29 19
0.694734 2.010000 0.388552 39 29 19
0.669132 2.010000 0.421128 39 29 19
0.693071 2.010000 0.400667 39 29 19
0.685796 2.010000 0.412944 39 29 19
0.677545 2.010000 0.418494 39 29 19
0.105266 2.010000 0.388552 39 29 19
0.130869 2.010000 0.421128 39 29 19
0.122455 2.010000 0.418494 39 29 19
0.106928 2.010000 0.400667 39 29 19
0.114204 2.010000 0.412944 39 29 19
0.400000 2.010000 0.388552 39 29 19
0.400000 2.010000 0.000000 31 23 16
1.367642 0.138188 1.367639 48 33 20
1.367642 0.018188 1.367639 48 32 19
1.483813 0.018188 1.226084 48 33 21
1.226086 0.018188 1.483811 48 33 22
0.660535 0.018188 0.660533 48 32 19
1.367642 0.018188 1.367639 255 255 255
1.226086 0.018188 1.483811 255 255 255
0.518979 0.018188 0.776705 39 29 19
0.776706 0.418188 0.518978 48 36 26
1.483813 0.018188 1.226084 48 32 19
0.694734 2.010000 0.000000 39 29 19
0.239522 0.618188 0.000000 48 32 19
0.934136 0.018188 0.000000 48 32 19
1.367642 0.018188 1.367639 57 42 30
0.357479 0.018188 0.863029 39 29 19
0.105266 2.010000 0.000000 39 29 19
0.518979 0.018188 0.776705 48 32 19
-0.495244 1.918188 -2.489754 48 32 19
0.000000 1.918188 -2.538531 48 32 19
0.000000 1.918188 -2.661356 61 41 23
-1.410334 1.918188 -2.110711 48 32 19
-1.410334 2.000000 -2.110711 61 41 23
-0.971455 2.000000 -2.345297 61 41 23
-2.489754 2.000000 -0.495241 61 41 23
-1.795014 1.918188 -1.795012 48 32 19
-1.795014 2.000000 -1.795012 58 41 23
-2.110713 1.918188 -1.410331 48 32 19
-2.110713 2.000000 -1.410331 58 41 23
-0.495244 2.000000 -2.489754 61 41 23
0.000000 2.000000 -2.538531 61 41 23
-2.345298 1.918188 -0.971452 48 32 19
-2.345298 2.000000 -0.971452 58 41 20
-0.971455 1.918188 -2.345297 48 32 19
-2.489754 1.918188 -0.495241 48 32 19
-2.610219 1.918188 -0.519203 61 41 23
-2.458773 1.918188 -1.018455 61 41 23
-1.881864 1.918188 -1.881862 61 41 23
-1.478572 1.918188 -2.212836 61 41 23
-1.018458 1.918188 -2.458772 61 41 23
-0.519206 1.918188 -2.610219 61 41 23
-0.467285 1.718188 -2.349197 48 32 19
0.000000 1.718188 -2.395221 48 32 19
-2.349197 1.718188 -0.467283 48 32 19
-2.212896 1.718188 -0.916610 48 32 19
-2.212838 1.918188 -1.478569 61 41 23
-1.991554 1.718188 -1.330712 48 32 19
-1.693678 1.718188 -1.693675 48 32 19
-1.330714 1.718188 -1.991553 48 32 19
-0.916612 1.718188 -2.212895 48 32 20
-0.234920 1.718188 -0.046728 48 32 19
-0.221290 1.718188 -0.091661 48 32 19
-0.199155 1.718188 -0.133071 48 32 19
-0.169368 1.718188 -0.169367 48 32 19
-0.133071 1.718188 -0.199155 48 32 19
-0.091661 1.718188 -0.221289 48 32 19
-0.046728 1.718188 -0.234920 48 32 19
0.000000 1.718188 -0.239522 48 32 19
-0.199155 0.618188 -0.133071 48 32 19
-0.169368 0.618188 -0.169367 48 32 19
-0.133071 0.618188 -0.199155 48 32 19
-0.091661 0.618188 -0.221289 48 32 19
-0.046728 0.618188 -0.234920 48 32 19
0.000000 0.618188 -0.239522 48 32 19
-0.234920 0.618188 -0.046728 48 32 19
-0.221290 0.618188 -0.091661 48 32 19
-0.338736 0.618188 -0.338735 54 36 22
-0.398311 0.618188 -0.266142 48 34 23
-0.266143 0.618188 -0.398310 58 37 21
-0.183322 0.618188 -0.442579 57 37 20
-0.093457 0.618188 -0.469839 57 37 20
0.000000 0.618188 -0.479044 43 31 20
-0.469840 0.618188 -0.093456 48 35 24
-0.442579 0.618188 -0.183322 48 33 24
-0.182241 0.418188 -0.916187 48 32 19
-0.357479 0.418188 -0.863029 48 33 20
0.000000 0.418188 -0.934136 48 37 26
-0.916187 0.418188 -0.182240 48 32 19
-0.863029 0.418188 -0.357478 48 32 19
-0.776706 0.418188 -0.518978 48 32 19
-0.660535 0.418188 -0.660533 58 37 19
-0.518979 0.418188 -0.776705 58 37 19
-0.916187 0.018188 -0.182240 48 32 19
-0.863029 0.018188 -0.357478 48 32 19
-0.776706 0.018188 -0.518978 48 32 19
-0.660535 0.018188 -0.660533 64 50 37
-0.776706 0.018188 -0.518978 67 52 41
-1.483813 0.018188 -1.226084 69 55 43
-1.226086 0.018188 -1.483811 48 32 19
-1.367642 0.138188 -1.367639 48 32 19
-0.357479 0.018188 -0.863029 42 29 19
-0.182241 0.018188 -0.916187 39 29 19
0.000000 0.018188 -0.934136 40 29 19
-0.694734 2.010000 -0.388552 39 29 19
-0.669132 2.010000 -0.421128 39 29 19
-0.693071 2.010000 -0.400667 39 29 19
-0.685796 2.010000 -0.412944 39 29 19
-0.677545 2.010000 -0.418494 39 29 19
-0.105266 2.010000 -0.388552 39 29 19
-0.130869 2.010000 -0.421128 39 29 19
-0.122455 2.010000 -0.418494 39 29 19
-0.106928 2.010000 -0.400667 39 29 19
-0.114204 2.010000 -0.412944 39 29 19
-0.400000 2.010000 -0.388552 39 29 19
-1.367642 0.138188 -1.367639 48 33 20
-1.367642 0.018188 -1.367639 48 32 19
-1.483813 0.018188 -1.226084 48 33 21
-1.226086 0.018188 -1.483811 48 33 22
-0.660535 0.018188 -0.660533 48 32 19
-1.367642 0.018188 -1.367639 255 255 255
-1.226086 0.018188 -1.483811 255 255 255
-0.518979 0.018188 -0.776705 39 29 19
-0.776706 0.418188 -0.518978 48 36 26
-1.483813 0.018188 -1.226084 48 32 19
-1.367642 0.018188 -1.367639 57 42 30
-0.357479 0.018188 -0.863029 39 29 19
-0.518979 0.018188 -0.776705 48 32 19
0.495244 1.918188 -2.489754 48 32 19
1.410334 1.918188 -2.110711 48 32 19
0.971455 2.000000 -2.345297 61 41 23
1.410334 2.000000 -2.110711 61 41 23
2.489754 2.000000 -0.495241 61 41 23
1.795014 1.918188 -1.795012 48 32 19
1.795014 2.000000 -1.795012 58 41 23
2.110713 1.918188 -1.410331 48 32 19
2.110713 2.000000 -1.410331 58 41 23
0.495244 2.000000 -2.489754 61 41 23
2.345298 1.918188 -0.971452 48 32 19
2.345298 2.000000 -0.971452 58 41 20
0.971455 1.918188 -2.345297 48 32 19
2.489754 1.918188 -0.495241 48 32 19
2.610219 1.918188 -0.519203 61 41 23
2.458773 1.918188 -1.018455 61 41 23
1.881864 1.918188 -1.881862 61 41 23
1.478572 1.918188 -2.212836 61 41 23
1.018458 1.918188 -2.458772 61 41 23
0.467285 1.718188 -2.349197 48 32 19
0.519206 1.918188 -2.610219 61 41 23
2.349197 1.718188 -0.467283 48 32 19
2.212896 1.718188 -0.916610 48 32 19
1.991554 1.718188 -1.330712 48 32 19
2.212838 1.918188 -1.478569 61 41 23
1.693678 1.718188 -1.693675 48 32 19
1.330714 1.718188 -1.991553 48 32 19
0.916612 1.718188 -2.212895 48 32 20
0.234920 1.718188 -0.046728 48 32 19
0.221290 1.718188 -0.091661 48 32 19
0.199155 1.718188 -0.133071 48 32 19
0.169368 1.718188 -0.169367 48 32 19
0.133071 1.718188 -0.199155 48 32 19
0.091661 1.718188 -0.221289 48 32 19
0.046728 1.718188 -0.234920 48 32 19
0.199155 0.618188 -0.133071 48 32 19
0.169368 0.618188 -0.169367 48 32 19
0.133071 0.618188 -0.199155 48 32 19
0.091661 0.618188 -0.221289 48 32 19
0.046728 0.618188 -0.234920 48 32 19
0.234920 0.618188 -0.046728 48 32 19
0.221290 0.618188 -0.091661 48 32 19
0.398311 0.618188 -0.266142 48 34 23
0.338736 0.618188 -0.338735 54 36 22
0.266143 0.618188 -0.398310 58 37 21
0.183322 0.618188 -0.442579 57 37 20
0.093457 0.618188 -0.469839 57 37 20
0.469840 0.618188 -0.093456 48 35 24
0.442579 0.618188 -0.183322 48 33 24
0.357479 0.418188 -0.863029 48 33 20
0.182241 0.418188 -0.916187 48 32 19
0.916187 0.418188 -0.182240 48 32 19
0.863029 0.418188 -0.357478 48 32 19
0.776706 0.418188 -0.518978 48 32 19
0.660535 0.418188 -0.660533 58 37 19
0.518979 0.418188 -0.776705 58 37 19
0.916187 0.018188 -0.182240 48 32 19
0.863029 0.018188 -0.357478 48 32 19
0.776706 0.018188 -0.518978 48 32 19
0.660535 0.018188 -0.660533 64 50 37
1.483813 0.018188 -1.226084 69 55 43
0.776706 0.018188 -0.518978 67 52 41
1.367642 0.138188 -1.367639 48 32 19
1.226086 0.018188 -1.483811 48 32 19
0.357479 0.018188 -0.863029 42 29 19
0.182241 0.018188 -0.916187 39 29 19
0.694734 2.010000 -0.388552 39 29 19
0.693071 2.010000 -0.400667 39 29 19
0.669132 2.010000 -0.421128 39 29 19
0.685796 2.010000 -0.412944 39 29 19
0.677545 2.010000 -0.418494 39 29 19
0.130869 2.010000 -0.421128 39 29 19
0.105266 2.010000 -0.388552 39 29 19
0.122455 2.010000 -0.418494 39 29 19
0.114204 2.010000 -0.412944 39 29 19
0.106928 2.010000 -0.400667 39 29 19
0.400000 2.010000 -0.388552 39 29 19
1.367642 0.138188 -1.367639 48 33 20
1.483813 0.018188 -1.226084 48 33 21
1.367642 0.018188 -1.367639 48 32 19
1.226086 0.018188 -1.483811 48 33 22
0.660535 0.018188 -0.660533 48 32 19
1.226086 0.018188 -1.483811 255 255 255
1.367642 0.018188 -1.367639 255 255 255
0.518979 0.018188 -0.776705 39 29 19
0.776706 0.418188 -0.518978 48 36 26
1.483813 0.018188 -1.226084 48 32 19
1.367642 0.018188 -1.367639 57 42 30
0.357479 0.018188 -0.863029 39 29 19
0.518979 0.018188 -0.776705 48 32 19
3 0 1 2
3 3 4 5
3 6 7 8
3 9 5 10
3 11 10 12
3 0 13 14
3 15 12 16
3 17 14 4
3 18 16 7
3 19 18 6
3 20 15 18
3 21 11 15
3 11 22 9
3 22 3 9
3 23 17 3
3 24 0 17
3 16 25 7
3 4 25 5
3 7 25 26
3 5 25 10
3 10 25 12
3 13 25 14
3 12 25 16
3 14 25 4
3 24 27 28
3 1 27 29
3 19 30 20
3 20 31 21
3 21 32 33
3 22 32 34
3 22 35 23
3 24 35 36
3 37 38 30
3 30 39 31
3 32 39 40
3 32 41 34
3 34 42 35
3 36 42 43
3 36 44 27
3 29 44 45
3 39 46 40
3 40 47 41
3 41 48 42
3 42 49 43
3 43 50 44
3 44 51 45
3 52 53 38
3 38 54 39
3 47 55 56
3 47 57 48
3 48 58 49
3 50 58 59
3 50 60 51
3 53 61 62
3 53 63 54
3 46 63 55
3 59 64 65
3 59 66 60
3 62 67 68
3 62 69 63
3 55 69 70
3 56 70 71
3 56 72 57
3 57 64 58
3 67 73 68
3 68 74 69
3 69 75 70
3 76 77 78
3 72 79 80
3 72 81 64
3 64 82 65
3 65 83 66
3 84 85 86
3 87 88 85
3 86 89 90
3 91 92 93
3 93 89 91
3 88 86 85
3 93 90 89
3 86 94 84
3 90 95 94
3 96 97 98
3 99 96 98
3 70 79 71
3 100 101 102
3 103 72 80
3 104 75 105
3 94 106 84
3 0 28 1
3 3 17 4
3 6 18 7
3 9 3 5
3 11 9 10
3 0 2 13
3 15 11 12
3 17 0 14
3 18 15 16
3 19 20 18
3 20 21 15
3 21 33 11
3 11 33 22
3 22 23 3
3 23 24 17
3 24 28 0
3 24 36 27
3 1 28 27
3 19 37 30
3 20 30 31
3 21 31 32
3 22 33 32
3 22 34 35
3 24 23 35
3 37 52 38
3 30 38 39
3 32 31 39
3 32 40 41
3 34 41 42
3 36 35 42
3 36 43 44
3 29 27 44
3 39 54 46
3 40 46 47
3 41 47 48
3 42 48 49
3 43 49 50
3 44 50 51
3 52 107 53
3 38 53 54
3 47 46 55
3 47 56 57
3 48 57 58
3 50 49 58
3 50 59 60
3 53 107 61
3 53 62 63
3 46 54 63
3 59 58 64
3 59 65 66
3 62 61 67
3 62 68 69
3 55 63 69
3 56 55 70
3 56 71 72
3 57 72 64
3 67 108 73
3 68 73 74
3 69 74 75
3 76 109 77
3 72 71 79
3 72 103 81
3 64 110 82
3 65 82 83
3 86 90 94
3 90 111 95
3 70 105 79
3 100 112 101
3 94 95 106
3 113 2 1
3 114 115 116
3 117 118 119
3 120 121 115
3 122 123 121
3 113 124 13
3 125 126 123
3 127 116 124
3 128 119 126
3 129 117 128
3 130 128 125
3 131 125 122
3 122 120 132
3 132 120 114
3 133 114 127
3 134 127 113
3 126 119 25
3 116 115 25
3 119 135 25
3 115 121 25
3 121 123 25
3 13 124 25
3 123 126 25
3 124 116 25
3 134 136 137
3 1 29 137
3 129 130 138
3 130 131 139
3 131 140 141
3 132 142 141
3 132 133 143
3 134 144 143
3 145 138 146
3 138 139 147
3 141 148 147
3 141 142 149
3 142 143 150
3 144 151 150
3 144 137 152
3 29 45 152
3 147 148 153
3 148 149 154
3 149 150 155
3 150 151 156
3 151 152 157
3 152 45 51
3 158 146 159
3 146 147 160
3 154 161 162
3 154 155 163
3 155 156 164
3 157 165 164
3 157 51 60
3 159 166 167
3 159 160 168
3 153 162 168
3 165 169 170
3 165 60 66
3 166 171 172
3 166 168 173
3 162 174 173
3 161 175 174
3 161 163 176
3 163 164 170
3 172 171 177
3 171 173 178
3 173 174 179
3 180 181 182
3 176 183 184
3 176 170 185
3 170 169 186
3 169 66 83
3 187 188 189
3 190 189 191
3 188 192 193
3 194 195 196
3 195 194 193
3 191 189 188
3 195 193 192
3 188 187 197
3 192 197 198
3 199 200 201
3 202 200 199
3 174 175 184
3 203 204 205
3 206 183 176
3 207 208 179
3 197 187 209
3 113 1 136
3 114 116 127
3 117 119 128
3 120 115 114
3 122 121 120
3 113 13 2
3 125 123 122
3 127 124 113
3 128 126 125
3 129 128 130
3 130 125 131
3 131 122 140
3 122 132 140
3 132 114 133
3 133 127 134
3 134 113 136
3 134 137 144
3 1 137 136
3 129 138 145
3 130 139 138
3 131 141 139
3 132 141 140
3 132 143 142
3 134 143 133
3 145 146 158
3 138 147 146
3 141 147 139
3 141 149 148
3 142 150 149
3 144 150 143
3 144 152 151
3 29 152 137
3 147 153 160
3 148 154 153
3 149 155 154
3 150 156 155
3 151 157 156
3 152 51 157
3 158 159 210
3 146 160 159
3 154 162 153
3 154 163 161
3 155 164 163
3 157 164 156
3 157 60 165
3 159 167 210
3 159 168 166
3 153 168 160
3 165 170 164
3 165 66 169
3 166 172 167
3 166 173 171
3 162 173 168
3 161 174 162
3 161 176 175
3 163 170 176
3 172 177 211
3 171 178 177
3 173 179 178
3 180 182 212
3 176 184 175
3 176 185 206
3 170 186 213
3 169 83 186
3 188 197 192
3 192 198 214
3 174 184 208
3 203 205 215
3 197 209 198
3 216 217 218
3 219 220 221
3 6 8 222
3 223 224 220
3 225 226 224
3 216 227 228
3 229 230 226
3 231 221 227
3 232 222 230
3 19 6 232
3 233 232 229
3 234 229 225
3 225 223 235
3 235 223 219
3 236 219 231
3 237 231 216
3 230 222 25
3 221 220 25
3 222 26 25
3 220 224 25
3 224 226 25
3 228 227 25
3 226 230 25
3 227 221 25
3 237 238 239
3 218 240 239
3 19 233 241
3 233 234 242
3 234 243 244
3 235 245 244
3 235 236 246
3 237 247 246
3 37 241 248
3 241 242 249
3 244 250 249
3 244 245 251
3 245 246 252
3 247 253 252
3 247 239 254
3 240 255 254
3 249 250 256
3 250 251 257
3 251 252 258
3 252 253 259
3 253 254 260
3 254 255 261
3 52 248 262
3 248 249 263
3 257 264 265
3 257 258 266
3 258 259 267
3 260 268 267
3 260 261 269
3 262 270 61
3 262 263 271
3 256 265 271
3 268 272 273
3 268 269 274
3 270 275 67
3 270 271 276
3 265 277 276
3 264 278 277
3 264 266 279
3 266 267 273
3 67 275 280
3 275 276 281
3 276 277 282
3 283 284 285
3 279 286 287
3 279 273 288
3 273 272 289
3 272 274 290
3 291 292 293
3 294 293 295
3 292 296 297
3 298 299 300
3 299 298 297
3 295 293 292
3 299 297 296
3 292 291 301
3 296 301 95
3 302 303 304
3 305 303 302
3 277 278 287
3 306 307 308
3 309 286 279
3 310 311 282
3 301 291 106
3 216 218 238
3 219 221 231
3 6 222 232
3 223 220 219
3 225 224 223
3 216 228 217
3 229 226 225
3 231 227 216
3 232 230 229
3 19 232 233
3 233 229 234
3 234 225 243
3 225 235 243
3 235 219 236
3 236 231 237
3 237 216 238
3 237 239 247
3 218 239 238
3 19 241 37
3 233 242 241
3 234 244 242
3 235 244 243
3 235 246 245
3 237 246 236
3 37 248 52
3 241 249 248
3 244 249 242
3 244 251 250
3 245 252 251
3 247 252 246
3 247 254 253
3 240 254 239
3 249 256 263
3 250 257 256
3 251 258 257
3 252 259 258
3 253 260 259
3 254 261 260
3 52 262 107
3 248 263 262
3 257 265 256
3 257 266 264
3 258 267 266
3 260 267 259
3 260 269 268
3 262 61 107
3 262 271 270
3 256 271 263
3 268 273 267
3 268 274 272
3 270 67 61
3 270 276 275
3 265 276 271
3 264 277 265
3 264 279 278
3 266 273 279
3 67 280 108
3 275 281 280
3 276 282 281
3 283 285 312
3 279 287 278
3 279 288 309
3 273 289 313
3 272 290 289
3 292 301 296
3 296 95 111
3 277 287 311
3 306 308 314
3 301 106 95
3 315 218 217
3 316 317 318
3 117 319 118
3 320 318 321
3 322 321 323
3 315 228 324
3 325 323 326
3 327 324 317
3 328 326 319
3 129 328 117
3 329 325 328
3 330 322 325
3 322 331 320
3 331 316 320
3 332 327 316
3 333 315 327
3 326 25 319
3 317 25 318
3 319 25 135
3 318 25 321
3 321 25 323
3 228 25 324
3 323 25 326
3 324 25 317
3 333 334 335
3 218 334 240
3 129 336 329
3 329 337 330
3 330 338 339
3 331 338 340
3 331 341 332
3 333 341 342
3 145 343 336
3 336 344 337
3 338 344 345
3 338 346 340
3 340 347 341
3 342 347 348
3 342 349 334
3 240 349 255
3 344 350 345
3 345 351 346
3 346 352 347
3 347 353 348
3 348 354 349
3 349 261 255
3 158 355 343
3 343 356 344
3 351 357 358
3 351 359 352
3 352 360 353
3 354 360 361
3 354 269 261
3 355 167 362
3 355 363 356
3 350 363 357
3 361 364 365
3 361 274 269
3 362 172 366
3 362 367 363
3 357 367 368
3 358 368 369
3 358 370 359
3 359 364 360
3 172 371 366
3 366 372 367
3 367 373 368
3 374 375 376
3 370 377 378
3 370 379 364
3 364 380 365
3 365 290 274
3 381 382 383
3 384 385 382
3 383 386 387
3 388 389 390
3 390 386 388
3 385 383 382
3 390 387 386
3 383 391 381
3 387 198 391
3 392 393 394
3 395 392 394
3 368 377 369
3 396 397 398
3 399 370 378
3 400 373 401
3 391 209 381
3 315 335 218
3 316 327 317
3 117 328 319
3 320 316 318
3 322 320 321
3 315 217 228
3 325 322 323
3 327 315 324
3 328 325 326
3 129 329 328
3 329 330 325
3 330 339 322
3 322 339 331
3 331 332 316
3 332 333 327
3 333 335 315
3 333 342 334
3 218 335 334
3 129 145 336
3 329 336 337
3 330 337 338
3 331 339 338
3 331 340 341
3 333 332 341
3 145 158 343
3 336 343 344
3 338 337 344
3 338 345 346
3 340 346 347
3 342 341 347
3 342 348 349
3 240 334 349
3 344 356 350
3 345 350 351
3 346 351 352
3 347 352 353
3 348 353 354
3 349 354 261
3 158 210 355
3 343 355 356
3 351 350 357
3 351 358 359
3 352 359 360
3 354 353 360
3 354 361 269
3 355 210 167
3 355 362 363
3 350 356 363
3 361 360 364
3 361 365 274
3 362 167 172
3 362 366 367
3 357 363 367
3 358 357 368
3 358 369 370
3 359 370 364
3 172 211 371
3 366 371 372
3 367 372 373
3 374 402 375
3 370 369 377
3 370 399 379
3 364 403 380
3 365 380 290
3 383 387 391
3 387 214 198
3 368 401 377
3 396 404 397
3 391 198 209
