ply
format ascii 1.0
comment Created by Blender 2.79 (sub 0) - www.blender.org, source file: 'table.blend'
element vertex 73
property float x
property float y
property float z
property uchar red
property uchar green
property uchar blue
element face 128
property list uchar uint vertex_indices
end_header
-0.000000 2.000000 -2.661999 57 57 57
0.519330 0.000000 -2.610850 52 52 52
-0.000000 0.000000 -2.661999 52 52 52
0.519330 2.000000 -2.610850 57 57 57
1.018703 0.000000 -2.459367 52 52 52
1.018703 2.000000 -2.459367 57 57 57
1.478928 0.000000 -2.213372 52 52 52
1.478928 2.000000 -2.213372 57 57 57
1.882318 0.000000 -1.882318 52 52 52
1.882318 2.000000 -1.882318 57 57 57
2.213372 0.000000 -1.478927 52 52 52
2.213372 2.000000 -1.478927 57 57 57
2.459367 0.000000 -1.018703 52 52 52
2.459367 2.000000 -1.018703 57 57 57
2.610850 0.000000 -0.519330 52 52 52
2.610850 2.000000 -0.519330 57 57 57
2.662000 0.000000 0.000000 52 52 52
2.662000 2.000000 0.000000 64 64 64
2.610850 0.000000 0.519331 52 52 52
2.610850 2.000000 0.519331 64 64 64
2.459367 0.000000 1.018703 52 52 52
2.459367 2.000000 1.018703 64 64 64
2.213372 0.000000 1.478929 52 52 52
2.213372 2.000000 1.478929 64 64 64
1.882318 0.000000 1.882319 52 52 52
1.882318 2.000000 1.882319 64 64 64
1.478928 0.000000 2.213373 52 52 52
1.478928 2.000000 2.213373 64 64 64
1.018703 0.000000 2.459368 52 52 52
1.018703 2.000000 2.459368 64 64 64
0.519330 0.000000 2.610851 52 52 52
0.519330 2.000000 2.610851 64 64 64
-0.000001 0.000000 2.662001 52 52 52
-0.000001 2.000000 2.662001 64 64 64
-0.519332 0.000000 2.610851 52 52 52
-0.519332 2.000000 2.610851 64 64 64
-1.018705 0.000000 2.459368 52 52 52
-1.018705 2.000000 2.459368 64 64 64
-1.478930 0.000000 2.213372 52 52 52
-1.478930 2.000000 2.213372 64 64 64
-1.882320 0.000000 1.882317 52 52 52
-1.882320 2.000000 1.882317 64 64 64
-2.213373 0.000000 1.478927 52 52 52
-2.213373 2.000000 1.478927 64 64 64
-2.459368 0.000000 1.018702 52 52 52
-2.459368 2.000000 1.018702 64 64 64
-2.610851 0.000000 0.519329 52 52 52
-2.610851 2.000000 0.519329 64 64 64
-2.662000 0.000000 -0.000002 52 52 52
-2.662000 2.000000 -0.000002 57 57 57
-2.610850 0.000000 -0.519333 52 52 52
-2.610850 2.000000 -0.519333 57 57 57
-2.459367 0.000000 -1.018705 52 52 52
-2.459367 2.000000 -1.018705 57 57 57
-2.213371 0.000000 -1.478930 52 52 52
-2.213371 2.000000 -1.478930 57 57 57
-1.882316 0.000000 -1.882320 52 52 52
-1.882316 2.000000 -1.882320 57 57 57
-1.478925 0.000000 -2.213374 52 52 52
-1.478925 2.000000 -2.213374 57 57 57
-1.018700 0.000000 -2.459368 52 52 52
-1.018700 2.000000 -2.459368 57 57 57
-0.519327 0.000000 -2.610851 52 52 52
-0.519327 2.000000 -2.610851 57 57 57
-2.213371 0.000000 -1.478930 53 53 53
-0.873277 2.003098 0.513255 41 41 41
-0.126723 2.003098 -0.513255 47 47 47
-0.873277 2.003098 -0.513255 47 47 47
0.126723 2.003098 0.513255 41 41 41
0.873277 2.003098 -0.513255 47 47 47
0.126723 2.003098 -0.513255 47 47 47
-0.126723 2.003098 0.513255 41 41 41
0.873277 2.003098 0.513255 41 41 41
3 0 1 2
3 3 4 1
3 5 6 4
3 7 8 6
3 9 10 8
3 11 12 10
3 13 14 12
3 15 16 14
3 17 18 16
3 19 20 18
3 21 22 20
3 23 24 22
3 25 26 24
3 27 28 26
3 29 30 28
3 31 32 30
3 33 34 32
3 35 36 34
3 37 38 36
3 39 40 38
3 41 42 40
3 43 44 42
3 45 46 44
3 47 48 46
3 49 50 48
3 51 52 50
3 53 54 52
3 55 56 54
3 57 58 56
3 59 60 58
3 37 13 5
3 61 62 60
3 63 2 62
3 30 64 62
3 65 66 67
3 68 69 70
3 0 3 1
3 3 5 4
3 5 7 6
3 7 9 8
3 9 11 10
3 11 13 12
3 13 15 14
3 15 17 16
3 17 19 18
3 19 21 20
3 21 23 22
3 23 25 24
3 25 27 26
3 27 29 28
3 29 31 30
3 31 33 32
3 33 35 34
3 35 37 36
3 37 39 38
3 39 41 40
3 41 43 42
3 43 45 44
3 45 47 46
3 47 49 48
3 49 51 50
3 51 53 52
3 53 55 54
3 55 57 56
3 57 59 58
3 59 61 60
3 5 3 0
3 0 63 61
3 61 59 57
3 57 55 53
3 53 51 49
3 49 47 45
3 45 43 41
3 41 39 37
3 37 35 33
3 33 31 29
3 29 27 21
3 25 23 21
3 21 19 17
3 17 15 13
3 13 11 9
3 9 7 13
3 5 0 53
3 61 57 53
3 53 49 37
3 45 41 37
3 37 33 21
3 27 25 21
3 21 17 13
3 13 7 5
3 0 61 53
3 49 45 37
3 33 29 21
3 21 13 37
3 5 53 37
3 61 63 62
3 63 0 2
3 62 2 6
3 1 4 6
3 6 8 10
3 10 12 6
3 14 16 18
3 18 20 22
3 22 24 26
3 26 28 30
3 30 32 38
3 34 36 38
3 38 40 46
3 42 44 46
3 46 48 64
3 50 52 64
3 64 56 58
3 58 60 64
3 2 1 6
3 6 12 14
3 14 18 30
3 22 26 30
3 32 34 38
3 40 42 46
3 48 50 64
3 64 60 62
3 62 6 30
3 18 22 30
3 30 38 46
3 46 64 30
3 6 14 30
3 65 71 66
3 68 72 69
