ply
format ascii 1.0
comment Created by Blender 2.79 (sub 0) - www.blender.org, source file: 'table.blend'
element vertex 24
property float x
property float y
property float z
property uchar red
property uchar green
property uchar blue
element face 36
property list uchar uint vertex_indices
end_header
-0.553045 1.920536 2.601873 106 106 106
-1.046055 1.920536 2.349478 106 106 106
-0.534712 1.920536 2.515623 106 106 106
0.000000 1.920536 2.660000 106 106 106
0.000000 1.920536 2.571824 106 106 106
-1.081919 2.019838 2.430031 107 107 107
-1.081919 1.920536 2.430031 106 106 106
-0.553045 2.019838 2.601873 106 106 106
-1.046055 2.031707 2.349478 106 106 106
-1.081919 2.019838 2.430031 106 106 106
0.000000 2.019838 2.660000 106 106 106
-0.534712 2.031707 2.515623 106 106 106
-1.046055 2.031707 2.349478 109 109 109
0.553045 1.920536 2.601873 106 106 106
1.046055 1.920536 2.349478 106 106 106
1.081919 1.920536 2.430031 106 106 106
0.534712 1.920536 2.515623 106 106 106
1.081919 2.019838 2.430031 107 107 107
0.553045 2.019838 2.601873 106 106 106
1.046055 2.031707 2.349478 106 106 106
0.534712 2.031707 2.515623 106 106 106
0.000000 2.031707 2.571824 106 106 106
1.046055 2.031707 2.349478 109 109 109
1.081919 2.019838 2.430031 106 106 106
3 0 1 2
3 3 2 4
3 5 1 6
3 7 8 9
3 10 11 7
3 7 6 0
3 10 0 3
3 12 2 1
3 11 4 2
3 13 14 15
3 3 16 13
3 14 17 15
3 18 19 20
3 10 20 21
3 15 18 13
3 13 10 3
3 16 22 14
3 4 20 16
3 0 6 1
3 3 0 2
3 5 12 1
3 7 11 8
3 10 21 11
3 7 9 6
3 10 7 0
3 12 11 2
3 11 21 4
3 13 16 14
3 3 4 16
3 14 22 17
3 18 23 19
3 10 18 20
3 15 23 18
3 13 18 10
3 16 20 22
3 4 21 20
