ply
format ascii 1.0
comment Created by Blender 2.79 (sub 0) - www.blender.org, source file: 'table.blend'
element vertex 350
property float x
property float y
property float z
property uchar red
property uchar green
property uchar blue
element face 580
property list uchar uint vertex_indices
end_header
2.345297 1.918188 0.971454 58 58 58
2.489753 2.000000 0.495243 61 61 61
2.345297 2.000000 0.971454 61 61 61
-0.000000 1.918188 -2.538530 58 58 58
-0.495239 2.000000 -2.489754 61 61 61
-0.000000 2.000000 -2.538530 61 61 61
0.495243 1.918188 -2.489753 58 58 58
0.495243 2.000000 -2.489753 61 61 61
-0.495244 1.918188 2.489754 58 58 58
-0.000001 1.918188 2.661356 61 61 61
-0.000001 1.918188 2.538531 58 58 58
-1.410334 1.918188 2.110711 58 58 58
-0.971455 2.000000 2.345297 61 61 61
-1.410334 2.000000 2.110711 61 61 61
-1.795010 1.918188 -1.795014 58 58 58
-2.110710 2.000000 -1.410334 61 61 61
-1.795010 2.000000 -1.795014 61 61 61
2.345297 1.918188 -0.971453 61 61 61
2.110712 2.000000 -1.410332 61 61 61
2.345297 2.000000 -0.971453 61 61 61
0.495242 1.918188 2.489754 58 58 58
0.971453 2.000000 2.345298 61 61 61
0.495242 2.000000 2.489754 61 61 61
-2.538531 1.918188 -0.000002 58 58 58
-2.489754 2.000000 0.495241 61 61 61
-2.538531 2.000000 -0.000002 62 62 62
0.971454 1.918188 -2.345296 59 59 59
0.971454 2.000000 -2.345296 61 61 61
2.110712 1.918188 1.410333 58 58 58
2.110712 2.000000 1.410333 61 61 61
-1.795014 1.918188 1.795012 58 58 58
-1.795014 2.000000 1.795012 61 61 61
-1.410330 1.918188 -2.110713 58 58 58
-1.410330 2.000000 -2.110713 61 61 61
2.489753 1.918188 -0.495242 61 61 61
2.489753 2.000000 -0.495242 61 61 61
-0.000001 2.000000 2.538531 61 61 61
-2.489753 1.918188 -0.495245 58 58 58
-2.489753 2.000000 -0.495245 61 61 61
1.410332 1.918188 -2.110711 61 61 61
1.410332 2.000000 -2.110711 61 61 61
1.795012 1.918188 1.795013 58 58 58
1.795012 2.000000 1.795013 61 61 61
-2.110713 1.918188 1.410331 58 58 58
-2.110713 2.000000 1.410331 61 61 61
-0.971450 1.918188 -2.345298 58 58 58
-0.971450 2.000000 -2.345298 61 61 61
2.538531 1.918188 0.000000 58 58 58
2.538531 2.000000 0.000000 61 61 61
-0.495244 2.000000 2.489754 61 61 61
-2.345296 1.918188 -0.971456 58 58 58
-2.345296 2.000000 -0.971456 64 64 64
1.795012 1.918188 -1.795012 61 61 61
1.795012 2.000000 -1.795012 61 61 61
1.410332 1.918188 2.110712 58 58 58
1.410332 2.000000 2.110712 61 61 61
-2.345298 1.918188 0.971452 58 58 58
-2.345298 2.000000 0.971452 61 61 61
-0.495239 1.918188 -2.489754 58 58 58
2.489753 1.918188 0.495243 58 58 58
-0.971455 1.918188 2.345297 58 58 58
-2.110710 1.918188 -1.410334 58 58 58
-2.345296 2.000000 -0.971456 61 61 61
2.110712 1.918188 -1.410332 58 58 58
0.971453 1.918188 2.345298 58 58 58
-2.489754 1.918188 0.495241 58 58 58
0.105267 2.010000 0.388552 53 53 53
0.130868 2.010000 0.421128 53 53 53
0.694734 2.010000 0.388552 53 53 53
0.693071 2.010000 0.400667 53 53 53
0.669132 2.010000 0.421128 53 53 53
0.106929 2.010000 0.400667 53 53 53
0.122455 2.010000 -0.418494 53 53 53
0.114204 2.010000 -0.412944 53 53 53
0.106929 2.010000 -0.400667 53 53 53
0.677545 2.010000 0.418494 53 53 53
0.694734 2.010000 -0.388552 53 53 53
0.130868 2.010000 -0.421128 53 53 53
0.693071 2.010000 -0.400667 53 53 53
0.669132 2.010000 -0.421128 53 53 53
0.677545 2.010000 -0.418494 53 53 53
0.114204 2.010000 0.412944 53 53 53
0.122455 2.010000 0.418494 53 53 53
0.685796 2.010000 0.412944 53 53 53
0.105267 2.010000 -0.388552 53 53 53
0.685796 2.010000 -0.412944 53 53 53
0.519204 1.918188 2.610219 61 61 61
-2.661355 1.918188 -0.000002 62 62 62
2.458772 1.918188 -1.018456 61 61 61
1.018456 1.918188 2.458773 61 61 61
-0.000000 1.918188 -2.661355 64 64 64
1.478570 1.918188 2.212837 61 61 61
-2.610219 1.918188 0.519203 61 61 61
1.881862 1.918188 -1.881862 61 61 61
-2.458773 1.918188 1.018455 61 61 61
1.478570 1.918188 -2.212836 61 61 61
-0.519201 1.918188 -2.610219 57 57 57
1.881862 1.918188 1.881863 61 61 61
-1.018453 1.918188 -2.458773 64 64 64
-1.881864 1.918188 1.881862 61 61 61
0.519205 1.918188 -2.610218 61 61 61
-1.478567 1.918188 -2.212838 61 61 61
2.458772 1.918188 1.018457 61 61 61
-1.881860 1.918188 -1.881865 61 61 61
2.610218 1.918188 0.519205 61 61 61
-1.478572 1.918188 2.212836 61 61 61
-1.018458 1.918188 2.458772 61 61 61
-2.212835 1.918188 -1.478572 62 62 62
2.661355 1.918188 0.000000 61 61 61
-2.458771 1.918188 -1.018459 64 64 64
2.610218 1.918188 -0.519204 61 61 61
0.000000 2.000000 -0.000000 60 60 60
-0.495239 2.000000 -2.489754 59 59 59
-0.000000 2.000000 -2.538530 59 59 59
0.495243 2.000000 -2.489753 59 59 59
-2.110710 2.000000 -1.410334 59 59 59
-1.795010 2.000000 -1.795014 59 59 59
2.110712 2.000000 -1.410332 59 59 59
2.345297 2.000000 -0.971453 59 59 59
-2.538531 2.000000 -0.000002 61 61 61
0.971454 2.000000 -2.345296 59 59 59
-1.410330 2.000000 -2.110713 59 59 59
1.410332 2.000000 -2.110711 59 59 59
-0.971450 2.000000 -2.345298 59 59 59
-2.345296 2.000000 -0.971456 59 59 59
1.795012 2.000000 -1.795012 59 59 59
-0.467285 1.718188 2.349197 61 61 61
-0.519206 1.918188 2.610219 61 61 61
-0.916608 1.718188 -2.212896 64 64 64
1.693676 1.718188 -1.693676 61 61 61
1.330713 1.718188 -1.991552 61 61 61
-0.000001 1.718188 2.395221 61 61 61
-1.330711 1.718188 -1.991554 64 64 64
-1.478567 1.918188 -2.212838 64 64 64
0.916611 1.718188 -2.212894 61 61 61
1.018457 1.918188 -2.458772 61 61 61
0.467283 1.718188 2.349197 61 61 61
-1.881860 1.918188 -1.881865 64 64 64
-1.693674 1.718188 -1.693678 64 64 64
0.467284 1.718188 -2.349196 61 61 61
0.916611 1.718188 2.212896 61 61 61
-1.991551 1.718188 -1.330715 64 64 64
-2.212835 1.918188 -1.478572 64 64 64
-0.000000 1.718188 -2.395220 64 64 64
1.330713 1.718188 1.991553 61 61 61
-2.212894 1.718188 -0.916613 64 64 64
1.693676 1.718188 1.693677 61 61 61
-2.349196 1.718188 -0.467286 61 61 61
-2.610218 1.918188 -0.519207 61 61 61
1.991553 1.718188 1.330714 61 61 61
2.212837 1.918188 1.478571 61 61 61
-2.395220 1.718188 -0.000002 62 62 62
2.212895 1.718188 0.916611 61 61 61
-2.349197 1.718188 0.467283 61 61 61
2.349196 1.718188 0.467284 61 61 61
-2.212896 1.718188 0.916610 61 61 61
2.395220 1.718188 0.000000 61 61 61
-1.991554 1.718188 1.330712 61 61 61
-2.212838 1.918188 1.478569 61 61 61
2.349196 1.718188 -0.467284 61 61 61
-1.693678 1.718188 1.693675 61 61 61
2.212895 1.718188 -0.916611 61 61 61
-1.330714 1.718188 1.991553 61 61 61
1.991553 1.718188 -1.330713 61 61 61
2.212837 1.918188 -1.478570 61 61 61
-0.916612 1.718188 2.212895 61 61 61
-0.467281 1.718188 -2.349197 57 57 57
0.199155 1.718188 0.133071 61 61 61
-0.234920 1.718188 -0.046729 61 61 61
-0.239522 1.718188 -0.000000 62 62 62
0.221290 1.718188 0.091661 61 61 61
-0.234920 1.718188 0.046728 61 61 61
0.234920 1.718188 0.046728 61 61 61
-0.221290 1.718188 0.091661 61 61 61
0.239522 1.718188 -0.000000 61 61 61
-0.199155 1.718188 0.133071 61 61 61
0.234920 1.718188 -0.046729 61 61 61
-0.169368 1.718188 0.169367 61 61 61
0.221290 1.718188 -0.091661 61 61 61
-0.133071 1.718188 0.199155 61 61 61
0.199155 1.718188 -0.133072 61 61 61
-0.091661 1.718188 0.221289 61 61 61
-0.046728 1.718188 -0.234920 57 57 57
0.169368 1.718188 -0.169368 61 61 61
-0.046728 1.718188 0.234920 61 61 61
-0.091661 1.718188 -0.221290 64 64 64
0.133071 1.718188 -0.199155 61 61 61
-0.000000 1.718188 0.239522 61 61 61
-0.133071 1.718188 -0.199156 64 64 64
0.091661 1.718188 -0.221290 61 61 61
0.046728 1.718188 0.234920 61 61 61
-0.169367 1.718188 -0.169368 64 64 64
0.046728 1.718188 -0.234920 61 61 61
0.091661 1.718188 0.221289 61 61 61
-0.199155 1.718188 -0.133072 64 64 64
0.000000 1.718188 -0.239522 64 64 64
0.133071 1.718188 0.199155 61 61 61
-0.221289 1.718188 -0.091662 64 64 64
0.169368 1.718188 0.169367 61 61 61
0.239522 0.618188 -0.000000 48 48 48
-0.199155 0.618188 0.133071 48 48 48
0.234920 0.618188 -0.046729 48 48 48
-0.169368 0.618188 0.169367 48 48 48
0.221290 0.618188 -0.091661 48 48 48
-0.133071 0.618188 0.199155 48 48 48
0.199155 0.618188 -0.133072 48 48 48
-0.091661 0.618188 0.221289 48 48 48
-0.046728 0.618188 -0.234920 48 48 48
0.169368 0.618188 -0.169368 48 48 48
-0.046728 0.618188 0.234920 48 48 48
-0.091661 0.618188 -0.221290 48 48 48
0.133071 0.618188 -0.199155 48 48 48
-0.000000 0.618188 0.239522 48 48 48
-0.133071 0.618188 -0.199156 48 48 48
0.091661 0.618188 -0.221290 48 48 48
0.046728 0.618188 0.234920 48 48 48
-0.169367 0.618188 -0.169368 48 48 48
0.046728 0.618188 -0.234920 48 48 48
0.091661 0.618188 0.221289 48 48 48
-0.199155 0.618188 -0.133072 48 48 48
0.000000 0.618188 -0.239522 48 48 48
0.133071 0.618188 0.199155 48 48 48
-0.221289 0.618188 -0.091662 48 48 48
0.169368 0.618188 0.169367 48 48 48
-0.234920 0.618188 -0.046729 48 48 48
0.199155 0.618188 0.133071 48 48 48
-0.239522 0.618188 -0.000000 48 48 48
0.221290 0.618188 0.091661 48 48 48
-0.234920 0.618188 0.046728 48 48 48
0.234920 0.618188 0.046728 48 48 48
-0.221290 0.618188 0.091661 48 48 48
-0.398311 0.618188 0.266142 48 48 48
-0.338736 0.618188 0.338735 48 48 48
0.442579 0.618188 -0.183322 48 48 48
-0.266143 0.618188 0.398310 48 48 48
0.398311 0.618188 -0.266143 48 48 48
-0.183322 0.618188 0.442579 48 48 48
0.000000 0.618188 -0.479044 48 48 48
-0.093456 0.618188 -0.469840 48 48 48
0.338735 0.618188 -0.338736 48 48 48
-0.093457 0.618188 0.469839 48 48 48
-0.183322 0.618188 -0.442579 48 48 48
0.266143 0.618188 -0.398311 48 48 48
-0.000000 0.618188 0.479044 48 48 48
-0.266142 0.618188 -0.398311 48 48 48
0.183322 0.618188 -0.442579 48 48 48
0.093457 0.618188 0.469839 48 48 48
-0.338735 0.618188 -0.338736 48 48 48
0.093457 0.618188 -0.469839 48 48 48
0.183322 0.618188 0.442579 48 48 48
-0.398310 0.618188 -0.266143 48 48 48
0.266143 0.618188 0.398310 48 48 48
-0.442579 0.618188 -0.183323 48 48 48
0.338735 0.618188 0.338735 48 48 48
-0.469839 0.618188 -0.093457 48 48 48
0.398311 0.618188 0.266142 48 48 48
-0.479044 0.618188 -0.000001 48 48 48
0.442579 0.618188 0.183322 48 48 48
-0.469840 0.618188 0.093456 48 48 48
0.469840 0.618188 0.093457 48 48 48
-0.442579 0.618188 0.183322 48 48 48
0.479044 0.618188 -0.000000 48 48 48
0.469840 0.618188 -0.093457 48 48 48
-0.357479 0.418188 0.863029 48 48 48
-0.182241 0.418188 0.916187 48 48 48
-0.357477 0.418188 -0.863030 48 48 48
0.518978 0.418188 -0.776705 48 48 48
-0.000000 0.418188 0.934136 48 48 48
-0.518977 0.418188 -0.776706 48 48 48
0.357478 0.418188 -0.863029 48 48 48
0.182241 0.418188 0.916187 48 48 48
-0.660533 0.418188 -0.660534 48 48 48
0.182241 0.418188 -0.916186 48 48 48
0.357478 0.418188 0.863029 48 48 48
-0.776705 0.418188 -0.518979 48 48 48
-0.000000 0.418188 -0.934136 48 48 48
0.518978 0.418188 0.776706 48 48 48
-0.863029 0.418188 -0.357479 48 48 48
0.660534 0.418188 0.660534 48 48 48
-0.916186 0.418188 -0.182242 48 48 48
0.776706 0.418188 0.518978 48 48 48
-0.934136 0.418188 -0.000001 48 48 48
0.863029 0.418188 0.357478 48 48 48
-0.916187 0.418188 0.182240 48 48 48
0.916187 0.418188 0.182241 48 48 48
-0.863029 0.418188 0.357478 48 48 48
0.934135 0.418188 -0.000000 48 48 48
-0.776706 0.418188 0.518978 48 48 48
0.916187 0.418188 -0.182241 48 48 48
-0.660535 0.418188 0.660533 48 48 48
0.863029 0.418188 -0.357478 48 48 48
-0.518979 0.418188 0.776705 48 48 48
0.776706 0.418188 -0.518978 48 48 48
-0.182240 0.418188 -0.916187 48 48 48
0.660534 0.418188 -0.660534 48 48 48
0.357478 0.018188 0.863029 48 48 48
-0.776705 0.018188 -0.518979 48 48 48
-0.000000 0.018188 -0.934136 48 48 48
0.518978 0.018188 0.776706 48 48 48
-0.863029 0.018188 -0.357479 48 48 48
0.660534 0.018188 0.660534 48 48 48
-0.916186 0.018188 -0.182242 48 48 48
0.776706 0.018188 0.518978 48 48 48
-0.934136 0.018188 -0.000001 48 48 48
0.863029 0.018188 0.357478 48 48 48
-0.916187 0.018188 0.182240 48 48 48
0.916187 0.018188 0.182241 48 48 48
-0.863029 0.018188 0.357478 48 48 48
0.934135 0.018188 -0.000000 48 48 48
-0.776706 0.018188 0.518978 48 48 48
0.916187 0.018188 -0.182241 48 48 48
-0.660535 0.018188 0.660533 48 48 48
0.863029 0.018188 -0.357478 48 48 48
-0.518979 0.018188 0.776705 48 48 48
0.776706 0.018188 -0.518978 48 48 48
-0.357479 0.018188 0.863029 48 48 48
-0.182240 0.018188 -0.916187 48 48 48
0.660534 0.018188 -0.660534 48 48 48
-0.182241 0.018188 0.916187 48 48 48
-0.357477 0.018188 -0.863030 48 48 48
0.518978 0.018188 -0.776705 48 48 48
-0.000000 0.018188 0.934136 48 48 48
-0.518977 0.018188 -0.776706 48 48 48
0.357478 0.018188 -0.863029 48 48 48
0.182241 0.018188 0.916187 48 48 48
-0.660533 0.018188 -0.660534 48 48 48
0.182241 0.018188 -0.916186 48 48 48
-0.105266 2.010000 -0.388552 53 53 53
-0.130869 2.010000 -0.421128 53 53 53
-0.694734 2.010000 -0.388552 53 53 53
-0.693071 2.010000 -0.400667 53 53 53
-0.669132 2.010000 -0.421128 53 53 53
-0.694734 2.010000 0.388552 53 53 53
-0.693071 2.010000 0.400667 53 53 53
-0.669132 2.010000 0.421128 53 53 53
-0.685796 2.010000 0.412944 53 53 53
-0.677545 2.010000 0.418494 53 53 53
-0.130869 2.010000 0.421128 53 53 53
-0.105266 2.010000 0.388552 53 53 53
-0.122455 2.010000 0.418494 53 53 53
-0.114204 2.010000 0.412944 53 53 53
-0.106928 2.010000 0.400667 53 53 53
-0.106928 2.010000 -0.400667 53 53 53
-0.114204 2.010000 -0.412944 0 0 0
-0.122455 2.010000 -0.418494 0 0 0
-0.106928 2.010000 -0.400667 0 0 0
-0.677545 2.010000 -0.418494 53 53 53
-0.685796 2.010000 -0.412944 53 53 53
-0.122455 2.010000 -0.418494 53 53 53
-2.458771 1.918188 -1.018459 61 61 61
3 0 1 2
3 3 4 5
3 6 5 7
3 8 9 10
3 11 12 13
3 14 15 16
3 17 18 19
3 20 21 22
3 23 24 25
3 26 7 27
3 28 2 29
3 30 13 31
3 32 16 33
3 34 19 35
3 10 22 36
3 37 25 38
3 39 27 40
3 41 29 42
3 43 31 44
3 45 33 46
3 47 35 48
3 8 36 49
3 50 38 51
3 52 40 53
3 54 42 55
3 56 44 57
3 58 46 4
3 59 48 1
3 60 49 12
3 61 62 15
3 63 53 18
3 64 55 21
3 65 57 24
3 66 67 68
3 69 68 70
3 66 71 67
3 72 73 74
3 69 70 75
3 68 76 66
3 77 72 74
3 76 78 79
3 78 80 79
3 81 82 71
3 75 83 69
3 82 67 71
3 67 70 68
3 76 79 84
3 79 77 84
3 66 76 84
3 74 84 77
3 85 80 78
3 10 86 20
3 37 87 23
3 34 88 17
3 87 65 23
3 88 63 17
3 20 89 64
3 90 58 3
3 64 91 54
3 92 56 65
3 63 93 52
3 94 43 56
3 52 95 39
3 96 45 58
3 54 97 41
3 98 32 45
3 97 28 41
3 43 99 30
3 95 26 39
3 99 11 30
3 26 100 6
3 101 14 32
3 28 102 0
3 103 61 14
3 0 104 59
3 105 60 11
3 100 3 6
3 106 8 60
3 107 50 61
3 59 108 47
3 109 37 50
3 47 110 34
3 57 111 24
3 112 111 113
3 113 111 114
3 1 111 2
3 12 111 13
3 115 111 116
3 117 111 118
3 21 111 22
3 24 111 119
3 114 111 120
3 2 111 29
3 13 111 31
3 116 111 121
3 118 111 35
3 22 111 36
3 119 111 38
3 120 111 122
3 29 111 42
3 31 111 44
3 121 111 123
3 35 111 48
3 36 111 49
3 38 111 124
3 122 111 125
3 42 111 55
3 44 111 57
3 123 111 112
3 48 111 1
3 49 111 12
3 124 111 115
3 125 111 117
3 55 111 21
3 106 126 127
3 96 128 98
3 95 129 130
3 9 126 131
3 98 132 133
3 95 134 135
3 9 136 86
3 137 132 138
3 100 134 139
3 86 140 89
3 137 141 142
3 100 143 90
3 91 140 144
3 142 145 109
3 97 144 146
3 109 147 148
3 97 149 150
3 87 147 151
3 102 149 152
3 87 153 92
3 104 152 154
3 92 155 94
3 108 154 156
3 94 157 158
3 110 156 159
3 99 157 160
3 88 159 161
3 99 162 105
3 88 163 164
3 106 162 165
3 96 143 166
3 93 163 129
3 146 167 149
3 151 168 169
3 152 167 170
3 151 171 153
3 152 172 154
3 153 173 155
3 156 172 174
3 157 173 175
3 156 176 159
3 157 177 160
3 161 176 178
3 160 179 162
3 161 180 163
3 165 179 181
3 143 182 166
3 129 180 183
3 165 184 126
3 166 185 128
3 130 183 186
3 131 184 187
3 128 188 132
3 130 189 134
3 131 190 136
3 138 188 191
3 139 189 192
3 136 193 140
3 138 194 141
3 139 195 143
3 144 193 196
3 141 197 145
3 146 196 198
3 145 168 147
3 172 199 174
3 173 200 175
3 174 201 176
3 175 202 177
3 176 203 178
3 177 204 179
3 178 205 180
3 179 206 181
3 195 207 182
3 180 208 183
3 181 209 184
3 182 210 185
3 183 211 186
3 184 212 187
3 185 213 188
3 186 214 189
3 187 215 190
3 188 216 191
3 189 217 192
3 190 218 193
3 191 219 194
3 192 220 195
3 193 221 196
3 194 222 197
3 196 223 198
3 197 224 168
3 198 225 167
3 168 226 169
3 167 227 170
3 169 228 171
3 170 229 172
3 171 230 173
3 202 231 232
3 201 233 203
3 202 234 204
3 205 233 235
3 204 236 206
3 207 237 238
3 205 239 208
3 209 236 240
3 207 241 210
3 208 242 211
3 209 243 212
3 213 241 244
3 214 242 245
3 215 243 246
3 213 247 216
3 214 248 217
3 215 249 218
3 219 247 250
3 220 248 237
3 221 249 251
3 222 250 252
3 221 253 223
3 222 254 224
3 223 255 225
3 226 254 256
3 225 257 227
3 228 256 258
3 229 257 259
3 228 260 230
3 229 261 199
3 200 260 231
3 201 261 262
3 240 263 264
3 238 265 241
3 239 266 242
3 240 267 243
3 244 265 268
3 245 266 269
3 246 267 270
3 244 271 247
3 245 272 248
3 246 273 249
3 250 271 274
3 237 272 275
3 251 273 276
3 252 274 277
3 251 278 253
3 252 279 254
3 253 280 255
3 256 279 281
3 255 282 257
3 258 281 283
3 259 282 284
3 258 285 260
3 259 286 261
3 231 285 287
3 262 286 288
3 232 287 289
3 262 290 233
3 232 291 234
3 235 290 292
3 234 263 236
3 238 275 293
3 239 292 294
3 270 295 273
3 271 296 274
3 272 297 275
3 273 298 276
3 274 299 277
3 276 300 278
3 277 301 279
3 278 302 280
3 279 303 281
3 280 304 282
3 281 305 283
3 282 306 284
3 283 307 285
3 284 308 286
3 285 309 287
3 286 310 288
3 287 311 289
3 288 312 290
3 289 313 291
3 290 314 292
3 291 315 263
3 275 316 293
3 292 317 294
3 263 318 264
3 293 319 265
3 294 320 266
3 264 321 267
3 265 322 268
3 266 323 269
3 267 324 270
3 268 325 271
3 269 326 272
3 327 328 329
3 330 329 331
3 332 333 334
3 335 336 333
3 334 337 338
3 339 340 341
3 341 337 339
3 327 342 328
3 343 344 345
3 328 331 329
3 346 347 330
3 332 327 329
3 336 334 333
3 341 338 337
3 342 348 328
3 331 346 330
3 332 334 338
3 338 327 332
3 0 59 1
3 3 58 4
3 6 3 5
3 8 127 9
3 11 60 12
3 14 61 15
3 17 63 18
3 20 64 21
3 23 65 24
3 26 6 7
3 28 0 2
3 30 11 13
3 32 14 16
3 34 17 19
3 10 20 22
3 37 23 25
3 39 26 27
3 41 28 29
3 43 30 31
3 45 32 33
3 47 34 35
3 8 10 36
3 50 37 38
3 52 39 40
3 54 41 42
3 56 43 44
3 58 45 46
3 59 47 48
3 60 8 49
3 61 50 62
3 63 52 53
3 64 54 55
3 65 56 57
3 10 9 86
3 37 148 87
3 34 110 88
3 87 92 65
3 88 164 63
3 20 86 89
3 90 96 58
3 64 89 91
3 92 94 56
3 63 164 93
3 94 158 43
3 52 93 95
3 96 98 45
3 54 91 97
3 98 101 32
3 97 150 28
3 43 158 99
3 95 135 26
3 99 105 11
3 26 135 100
3 101 103 14
3 28 150 102
3 103 107 61
3 0 102 104
3 105 106 60
3 100 90 3
3 106 127 8
3 107 349 50
3 59 104 108
3 109 148 37
3 47 108 110
3 106 165 126
3 96 166 128
3 95 93 129
3 9 127 126
3 98 128 132
3 95 130 134
3 9 131 136
3 137 133 132
3 100 135 134
3 86 136 140
3 137 138 141
3 100 139 143
3 91 89 140
3 142 141 145
3 97 91 144
3 109 145 147
3 97 146 149
3 87 148 147
3 102 150 149
3 87 151 153
3 104 102 152
3 92 153 155
3 108 104 154
3 94 155 157
3 110 108 156
3 99 158 157
3 88 110 159
3 99 160 162
3 88 161 163
3 106 105 162
3 96 90 143
3 93 164 163
3 146 198 167
3 151 147 168
3 152 149 167
3 151 169 171
3 152 170 172
3 153 171 173
3 156 154 172
3 157 155 173
3 156 174 176
3 157 175 177
3 161 159 176
3 160 177 179
3 161 178 180
3 165 162 179
3 143 195 182
3 129 163 180
3 165 181 184
3 166 182 185
3 130 129 183
3 131 126 184
3 128 185 188
3 130 186 189
3 131 187 190
3 138 132 188
3 139 134 189
3 136 190 193
3 138 191 194
3 139 192 195
3 144 140 193
3 141 194 197
3 146 144 196
3 145 197 168
3 172 229 199
3 173 230 200
3 174 199 201
3 175 200 202
3 176 201 203
3 177 202 204
3 178 203 205
3 179 204 206
3 195 220 207
3 180 205 208
3 181 206 209
3 182 207 210
3 183 208 211
3 184 209 212
3 185 210 213
3 186 211 214
3 187 212 215
3 188 213 216
3 189 214 217
3 190 215 218
3 191 216 219
3 192 217 220
3 193 218 221
3 194 219 222
3 196 221 223
3 197 222 224
3 198 223 225
3 168 224 226
3 167 225 227
3 169 226 228
3 170 227 229
3 171 228 230
3 202 200 231
3 201 262 233
3 202 232 234
3 205 203 233
3 204 234 236
3 207 220 237
3 205 235 239
3 209 206 236
3 207 238 241
3 208 239 242
3 209 240 243
3 213 210 241
3 214 211 242
3 215 212 243
3 213 244 247
3 214 245 248
3 215 246 249
3 219 216 247
3 220 217 248
3 221 218 249
3 222 219 250
3 221 251 253
3 222 252 254
3 223 253 255
3 226 224 254
3 225 255 257
3 228 226 256
3 229 227 257
3 228 258 260
3 229 259 261
3 200 230 260
3 201 199 261
3 240 236 263
3 238 293 265
3 239 294 266
3 240 264 267
3 244 241 265
3 245 242 266
3 246 243 267
3 244 268 271
3 245 269 272
3 246 270 273
3 250 247 271
3 237 248 272
3 251 249 273
3 252 250 274
3 251 276 278
3 252 277 279
3 253 278 280
3 256 254 279
3 255 280 282
3 258 256 281
3 259 257 282
3 258 283 285
3 259 284 286
3 231 260 285
3 262 261 286
3 232 231 287
3 262 288 290
3 232 289 291
3 235 233 290
3 234 291 263
3 238 237 275
3 239 235 292
3 270 324 295
3 271 325 296
3 272 326 297
3 273 295 298
3 274 296 299
3 276 298 300
3 277 299 301
3 278 300 302
3 279 301 303
3 280 302 304
3 281 303 305
3 282 304 306
3 283 305 307
3 284 306 308
3 285 307 309
3 286 308 310
3 287 309 311
3 288 310 312
3 289 311 313
3 290 312 314
3 291 313 315
3 275 297 316
3 292 314 317
3 263 315 318
3 293 316 319
3 294 317 320
3 264 318 321
3 265 319 322
3 266 320 323
3 267 321 324
3 268 322 325
3 269 323 326
