ply
format ascii 1.0
comment Created by Blender 2.79 (sub 0) - www.blender.org, source file: 'UI.blend'
element vertex 9
property float x
property float y
property float z
property uchar red
property uchar green
property uchar blue
element face 8
property list uchar uint vertex_indices
end_header
0.500000 -0.424264 -0.000000 41 41 41
0.000000 0.000000 0.000000 171 153 58
0.000000 -0.500000 -0.000000 41 41 41
-0.500000 -0.424264 -0.000000 41 41 41
-0.500000 -0.000000 -0.000000 171 153 58
0.500000 0.424264 0.000000 42 42 42
0.500000 0.000000 0.000000 171 153 58
-0.500000 0.424264 0.000000 41 41 41
0.000000 0.500000 0.000000 41 41 41
3 0 1 2
3 3 1 4
3 5 1 6
3 4 1 7
3 7 1 8
3 8 1 5
3 6 1 0
3 2 1 3
